<?xml version="1.0" standalone="no"?>
<!DOCTYPE svg PUBLIC "-//W3C//DTD SVG 1.1//EN" "http://www.w3.org/Graphics/SVG/1.1/DTD/svg11.dtd" >
<svg xmlns="http://www.w3.org/2000/svg" xmlns:xlink="http://www.w3.org/1999/xlink" version="1.1">
<metadata>
Created by FontForge 20170731 at Thu Feb 16 20:24:26 2017
 By Aleksey,,,
Copyright (c) 2013-2015 Gall Productions Pvt. Ltd (http://www.sticknobillsonline.com) Copyright (c) 2015 mooniak (http://mooniak.com)
</metadata>
<defs>
<font id="PostNoBillsColombo-Regular" horiz-adv-x="705" >
  <font-face 
    font-family="Post No Bills Colombo"
    font-weight="500"
    font-stretch="normal"
    units-per-em="1024"
    panose-1="2 0 5 3 0 0 0 0 0 0"
    ascent="819"
    descent="-205"
    x-height="521"
    cap-height="700"
    bbox="-584 -234 1393 1006"
    underline-thickness="0"
    underline-position="0"
    unicode-range="U+0020-FB02"
  />
<missing-glyph horiz-adv-x="631" 
d="M50 -93v847h531v-847h-531zM266 75q0 21 20 28q5 2 9 2q21 0 28 -21q1 -5 1 -9q0 -22 -21 -28q-4 -1 -8 -1q-22 0 -28 21q-1 4 -1 8zM97 707v-753h436v753h-436zM175 493q55 70 135 71q92 0 130 -72q17 -33 18 -73q1 -92 -74 -132q-31 -17 -65 -18v-135h-49v178
q116 1 135 68q4 16 4 35q0 61 -47 90q-24 15 -54 15q-61 -2 -101 -57z" />
    <glyph glyph-name="fi" unicode="fi" horiz-adv-x="494" 
d="M61 434v48h63v70q0 78 46 118q31 26 77 26h18l-11 -48q-11 0 -14 -1q-66 -7 -66 -95v-71h159v-481h-50v434h-109v-434h-50v434h-63zM274 589q0 22 22 31q6 2 12 2q23 0 31 -22q2 -6 2 -11q0 -23 -22 -31q-6 -2 -11 -2q-23 0 -32 21q-2 6 -2 12z" />
    <glyph glyph-name="fl" unicode="fl" horiz-adv-x="336" 
d="M61 434h63v-434h50v434h64v48l-64 -1v71l5 34q16 60 67 62h52v-648h51v696h-102q-92 0 -117 -95q-6 -24 -6 -49v-70h-63v-48z" />
    <glyph glyph-name=".notdef" horiz-adv-x="631" 
d="M50 -93v847h531v-847h-531zM266 75q0 21 20 28q5 2 9 2q21 0 28 -21q1 -5 1 -9q0 -22 -21 -28q-4 -1 -8 -1q-22 0 -28 21q-1 4 -1 8zM97 707v-753h436v753h-436zM175 493q55 70 135 71q92 0 130 -72q17 -33 18 -73q1 -92 -74 -132q-31 -17 -65 -18v-135h-49v178
q116 1 135 68q4 16 4 35q0 61 -47 90q-24 15 -54 15q-61 -2 -101 -57z" />
    <glyph glyph-name=".null" horiz-adv-x="0" 
 />
    <glyph glyph-name="nonmarkingreturn" horiz-adv-x="341" 
 />
    <glyph glyph-name="space" unicode=" " horiz-adv-x="239" 
 />
    <glyph glyph-name="exclam" unicode="!" horiz-adv-x="147" 
d="M41 27q0 22 21 30q6 2 11 2q23 0 31 -21q2 -6 2 -11q0 -23 -22 -30q-6 -2 -11 -2q-22 0 -30 21q-2 6 -2 11zM48 166v534h51v-534h-51z" />
    <glyph glyph-name="quotedbl" unicode="&#x22;" horiz-adv-x="236" 
d="M40 465v271h52v-271h-52zM145 465v271h51v-271h-51z" />
    <glyph glyph-name="numbersign" unicode="#" horiz-adv-x="750" 
d="M38 213l10 48h173l31 180h-180l8 48h180l34 193h51l-34 -193h176l33 193h51l-33 -193h172l-7 -49l-174 1l-31 -181h177l-6 -48l-180 1l-33 -191h-51l33 191h-175l-34 -191h-51l34 191h-174zM272 261l175 -1l31 181h-175z" />
    <glyph glyph-name="dollar" unicode="$" horiz-adv-x="516" 
d="M37 158l49 17q18 -92 107 -121l32 -7v-94h-36v48q-78 15 -126 88q-25 38 -26 69zM45 513q0 105 94 160q24 14 50 21v56h36v-100q-36 -1 -76 -33q-50 -43 -51 -108q0 -77 112 -108q7 -2 15 -4v-55q-38 7 -57 13q-82 33 -107 80q-16 33 -16 78zM271 -47v94q43 0 92 40
q61 51 62 121q0 85 -118 116q-17 4 -36 8v54q56 -9 79 -17q92 -28 117 -95q11 -31 11 -70q0 -85 -66 -148q-47 -44 -106 -55v-48h-35zM271 650v100h35v-55q77 -17 124 -93q16 -28 20 -49l-50 -16q-22 85 -104 108z" />
    <glyph glyph-name="percent" unicode="%" horiz-adv-x="338" 
d="M51 585q0 25 25 34q6 2 12 2q26 0 35 -24q2 -6 2 -12q0 -24 -23 -34q-7 -3 -14 -3q-24 0 -34 23q-3 7 -3 14zM56 -14l175 739h51l-174 -739h-52zM212 124q0 24 23 34q7 3 14 3q25 0 34 -25q2 -6 2 -12q0 -26 -24 -35q-6 -2 -12 -2q-24 0 -34 23q-3 7 -3 14z" />
    <glyph glyph-name="ampersand" unicode="&#x26;" horiz-adv-x="639" 
d="M383 104q-48 -52 -121 -52q-80 0 -131 56q-39 44 -39 105q1 75 65 126l-37 39q-80 -68 -81 -165q0 -106 82 -168q61 -46 137 -46q92 1 161 65zM427 546q-8 53 -52 86q-25 18 -52 22v52q81 -11 127 -81q20 -31 27 -66zM268 654q-55 -6 -86 -53q-20 -30 -20 -69
q0 -12 3.5 -24t7 -20t11.5 -18.5t11.5 -14t12.5 -13.5l10 -9l240 -253q44 45 61 121q6 24 6 44h53q-1 -98 -63 -183q-10 -13 -19 -23l104 -111l-56 -15l-369 388q-49 52 -59 88q-5 20 -5 43q0 85 68 137q39 30 89 37v-52z" />
    <glyph glyph-name="quotesingle" unicode="'" horiz-adv-x="132" 
d="M40 465v271h52v-271h-52z" />
    <glyph glyph-name="parenleft" unicode="(" horiz-adv-x="213" 
d="M40 189q0 -84 39 -129q31 -35 97 -69v31q-56 35 -75 87q-12 35 -12 81v47l-1 285q0 97 53 135q7 5 34 21v31q-64 -30 -87 -52q-48 -49 -48 -147v-321z" />
    <glyph glyph-name="parenright" unicode=")" horiz-adv-x="220" 
d="M37 -13v32q44 28 61 52q34 49 34 136v314q0 97 -69 144q-9 6 -26 16l1 31q112 -41 135 -135q7 -30 7 -67v-315q0 -146 -137 -205q-3 -2 -6 -3z" />
    <glyph glyph-name="asterisk" unicode="*" horiz-adv-x="351" 
d="M38 703l26 35l89 -56v103h44v-107l93 60l24 -35l-105 -70l105 -72l-25 -36l-92 66v-113h-44v113l-92 -62l-24 35l106 70z" />
    <glyph glyph-name="plus" unicode="+" horiz-adv-x="449" 
d="M37 269v50h160v179h51v-179h164v-50h-164v-182h-51v182h-160z" />
    <glyph glyph-name="comma" unicode="," horiz-adv-x="170" 
d="M41 -23l37 152h51l-37 -152h-51z" />
    <glyph glyph-name="hyphen" unicode="-" horiz-adv-x="399" 
d="M41 269v50h316v-50h-316z" />
    <glyph glyph-name="period" unicode="." horiz-adv-x="165" 
d="M39 40q0 28 26 39q9 4 17 4q29 0 40 -27q4 -8 4 -16q0 -29 -27 -41q-9 -3 -17 -3q-28 0 -40 27q-3 9 -3 17z" />
    <glyph glyph-name="slash" unicode="/" horiz-adv-x="309" 
d="M41 -14l175 739h51l-174 -739h-52z" />
    <glyph glyph-name="zero" unicode="0" horiz-adv-x="505" 
d="M222 0v50q-45 3 -81 60q-49 80 -49 229v54q3 153 72 224q30 29 59 31v50q-91 -4 -141 -107q-43 -90 -43 -238q0 -271 123 -336q29 -15 60 -17zM283 0q90 4 139 103q44 92 44 250q0 245 -109 320q-35 23 -75 25v-50q45 -3 83 -61q49 -76 49 -194v-54q0 -253 -119 -286
q-6 -2 -12 -3v-50z" />
    <glyph glyph-name="one" unicode="1" horiz-adv-x="175" 
d="M39 610v53l44 37h54v-700h-54v610h-44z" />
    <glyph glyph-name="two" unicode="2" horiz-adv-x="508" 
d="M40 520q7 84 71 138q45 37 105 42v-50q-32 0 -66 -25q-51 -39 -63 -115zM59 0v51h404v-51h-404zM59 94q0 146 202 241q5 2 14 6l18 9q74 38 99 69q26 34 26 76q-9 150 -155 155v50q149 0 192 -116q15 -40 14 -89q-1 -92 -83 -148q-15 -10 -33 -20q-11 -6 -40 -20
q-107 -52 -148 -95q-51 -53 -51 -118h-55z" />
    <glyph glyph-name="three" unicode="3" horiz-adv-x="508" 
d="M271 -3v49q100 1 134 75q13 30 13 68q-3 134 -158 135v48q157 1 158 135q0 99 -80 131q-30 12 -67 12v50q116 0 169 -84q29 -47 29 -107q-1 -109 -78 -161q76 -58 78 -161q0 -106 -79 -157q-50 -33 -119 -33zM40 176l47 10q16 -106 100 -134q17 -6 29 -6v-49
q-93 6 -145 87q-27 43 -31 92zM40 520q7 84 71 138q45 37 105 42v-50q-32 0 -66 -25q-51 -39 -63 -115z" />
    <glyph glyph-name="four" unicode="4" horiz-adv-x="500" 
d="M29 145v50l278 472v-93l-222 -379h222v-50h-278zM353 0v701h54v-506h54v-50h-54v-145h-54z" />
    <glyph glyph-name="five" unicode="5" horiz-adv-x="520" 
d="M41 354l29 346h354v-50l-307 -1l-20 -245q60 43 126 43v-49q-80 -1 -133 -74zM269 0v49q60 2 109 49q53 50 53 126q0 112 -90 156q-36 17 -72 18v49q126 0 182 -102q30 -55 30 -122q0 -122 -91 -184q-55 -37 -121 -39zM40 116l45 22q36 -69 105 -84q15 -3 32 -4v-50
q-93 0 -153 69q-18 22 -29 47z" />
    <glyph glyph-name="six" unicode="6" horiz-adv-x="530" 
d="M245 -1v50q-89 1 -126 93q-14 37 -14 69q0 91 58 137q35 26 82 27v50q-96 0 -144 -73q-6 -9 -10 -17q0 267 132 307q11 3 22 5v50q-149 -13 -192 -207q-14 -65 -14 -140q0 -247 100 -318q44 -31 106 -33zM300 -1q86 1 143 70q49 61 49 143q0 115 -73 174q-50 39 -119 39
v-48q71 -2 111 -61q29 -43 29 -105q0 -68 -46 -118q-39 -43 -94 -44v-50zM422 565l43 29q-32 67 -102 93q-32 11 -64 11v-50q79 0 118 -72q3 -6 5 -11z" />
    <glyph glyph-name="seven" unicode="7" horiz-adv-x="440" 
d="M438 649l-399 -1v52h399v-51zM210 0q26 287 128 522q18 43 38 81h56q-128 -239 -164 -577q-1 -14 -2 -26h-56z" />
    <glyph glyph-name="eight" unicode="8" horiz-adv-x="515" 
d="M230 0q-98 0 -154 78q-37 53 -37 117q1 108 81 154q-77 52 -78 150q0 86 62 147q55 52 129 52v-50q-88 -4 -123 -80q-15 -32 -15 -68q0 -76 62 -109q32 -16 75 -17v-50q-105 -2 -134 -73q-9 -23 -9 -51q0 -101 82 -136q27 -12 59 -14v-50zM285 0v50q87 5 123 72
q18 34 18 78q0 99 -100 120q-21 4 -42 4v50q97 1 127 75q10 24 10 51q0 71 -50 114q-36 31 -88 34v50q92 0 149 -76q41 -56 41 -123q-1 -99 -78 -150q82 -48 82 -154q0 -89 -64 -147q-54 -48 -128 -48z" />
    <glyph glyph-name="nine" unicode="9" horiz-adv-x="528" 
d="M280 2q138 -2 188 174q21 77 21 165q0 257 -101 328q-45 31 -108 31v-52q82 -2 122 -83q19 -38 19 -75q0 -126 -90 -156q-24 -8 -51 -8v-52q99 0 147 68q9 13 10 14q0 -215 -94 -282q-31 -21 -63 -22v-50zM235 274v52q-95 1 -130 79q-16 36 -16 80q0 65 43 115
q41 46 103 48v52q-84 -1 -143 -69q-53 -62 -53 -146q0 -134 91 -186q45 -25 105 -25zM57 114q37 -74 114 -102q31 -11 64 -11v51q-68 1 -115 57q-13 16 -21 32z" />
    <glyph glyph-name="colon" unicode=":" horiz-adv-x="166" 
d="M50 36q0 23 22 31q5 2 10 2q23 0 31 -22q2 -6 2 -11q0 -22 -22 -30q-6 -2 -11 -2q-22 0 -30 21q-2 6 -2 11zM51 326q0 23 22 31q5 2 10 2q23 0 31 -22q2 -6 2 -11q0 -22 -22 -30q-6 -2 -11 -2q-22 0 -30 21q-2 6 -2 11z" />
    <glyph glyph-name="semicolon" unicode=";" horiz-adv-x="211" 
d="M50 -23l37 152h50l-37 -152h-50zM96 317q0 23 22 31q6 2 11 2q22 0 30 -22q2 -6 2 -11q0 -22 -21 -30q-6 -2 -11 -2q-23 0 -31 22q-2 5 -2 10z" />
    <glyph glyph-name="less" unicode="&#x3c;" horiz-adv-x="431" 
d="M39 274v36l354 190v-52l-291 -156l291 -162v-51z" />
    <glyph glyph-name="equal" unicode="=" horiz-adv-x="418" 
d="M50 207v51h318v-51h-318zM50 325v51h318v-51h-318z" />
    <glyph glyph-name="greater" unicode="&#x3e;" horiz-adv-x="431" 
d="M39 79v51l291 162l-291 156v52l354 -190v-36z" />
    <glyph glyph-name="question" unicode="?" horiz-adv-x="477" 
d="M39 611q58 73 138 88q24 4 50 4q125 0 180 -94q30 -51 32 -118q0 -40 -11.5 -74t-30 -55.5t-41 -38t-44.5 -25t-40.5 -14t-29.5 -6.5l-12 -2v-193h-50v242q157 3 197 100q12 30 12 66q0 89 -66 133q-41 28 -97 28q-96 -1 -153 -76zM173 10q0 23 22 31q6 2 11 2
q22 0 30 -22q2 -6 2 -11q0 -22 -21 -30q-6 -2 -11 -2q-23 0 -31 22q-2 5 -2 10z" />
    <glyph glyph-name="at" unicode="@" horiz-adv-x="773" 
d="M37 309q0 154 108 261q109 107 273 113h16q117 0 204 -68q97 -78 98 -202q0 -181 -124 -239q-42 -19 -83 -19q-36 0 -68 36q-9 11 -12 20q-27 -38 -76 -47q-11 -2 -21 -2q-56 0 -89 56q-23 38 -23 84q0 103 78 157q43 29 87 29q46 0 79 -31l3 -3l6 21h45l-43 -167
q-6 -23 -9 -42q-5 -20 15 -44q17 -18 38 -19q55 0 97 45q52 57 52 164q0 106 -95 172q-72 51 -159 51q-141 0 -242 -91q-103 -98 -105 -235q0 -150 104 -241q88 -77 215 -77q136 1 261 88l22 -42q-125 -94 -282 -94q-178 0 -282 118q-88 101 -88 248z" />
    <glyph glyph-name="A" unicode="A" horiz-adv-x="442" 
d="M30 0l136 597h17l16 -76l-116 -521h-53zM157 129l11 51h153l-114 519h53l153 -699h-53l-27 129h-176z" />
    <glyph glyph-name="B" unicode="B" horiz-adv-x="509" 
d="M39 0h53v700h-53v-700zM138 -1h121q109 0 169 78q42 55 42 127q0 83 -56 134l-16 14q64 48 69 133v13q0 90 -62 148q-58 54 -150 54h-117v-49h113q101 0 144 -80q19 -36 19 -74q-2 -120 -135 -121h-141v-49h141q126 0 137 -103q1 -9 1 -19q0 -82 -66 -125
q-51 -32 -129 -32h-84v-49z" />
    <glyph glyph-name="C" unicode="C" horiz-adv-x="513" 
d="M40 181q0 -58 43 -113q58 -72 157 -73v51q-86 0 -129 74q-18 33 -18 61v337q0 46 38 88q43 47 109 48v51q-115 1 -172 -95q-28 -48 -28 -92v-337zM286 -5q82 0 140 62q50 55 50 125l-48 11q0 -10 -2 -18q-2 -18 -6 -32q-13 -42 -46.5 -66t-60.5 -27l-27 -4v-51zM286 654
l32 -6q74 -24 102 -100q5 -16 6 -28v-17l50 13q0 77 -64 136q-58 53 -126 53v-51z" />
    <glyph glyph-name="D" unicode="D" horiz-adv-x="472" 
d="M40 0v700h53v-700h-53zM140 0v51q123 0 170 21q68 33 69 125v306q0 106 -90 133q-42 12 -149 13v51q147 0 207 -31q84 -45 85 -166v-306q0 -143 -117 -180q-55 -17 -175 -17z" />
    <glyph glyph-name="E" unicode="E" horiz-adv-x="444" 
d="M40 0v700h364v-51h-311v-274h217v-52h-217v-272h311v-51h-364z" />
    <glyph glyph-name="F" unicode="F" horiz-adv-x="442" 
d="M40 1v699h364v-51h-311v-274h217v-52h-217v-322h-53z" />
    <glyph glyph-name="G" unicode="G" horiz-adv-x="514" 
d="M40 192v332q1 56 46 110q60 71 153 71v-51q-70 -1 -115 -58q-31 -40 -31 -88v-316q0 -84 84 -128q36 -18 62 -18v-51q-62 0 -120 42q-78 58 -79 155zM285 -5v51q40 0 86 42q49 47 50 102v113h-136v50h190v-177q0 -61 -62 -121q-63 -59 -128 -60zM285 654v51q78 1 138 -65
q52 -57 52 -124l-52 -19q0 15 -1 19q-7 84 -83 123q-30 15 -54 15z" />
    <glyph glyph-name="H" unicode="H" horiz-adv-x="477" 
d="M40 0v700h53v-322h122v-51h-122v-327h-53zM262 327v51h122v322h53v-700h-53v327h-122z" />
    <glyph glyph-name="I" unicode="I" horiz-adv-x="137" 
d="M42 0v700h53v-700h-53z" />
    <glyph glyph-name="J" unicode="J" horiz-adv-x="495" 
d="M19 193v49h53v-43q1 -87 75 -132q34 -20 63 -20v-52q-55 0 -112 42q-78 60 -79 156zM257 -5v52q39 0 85 33q60 46 61 113v507h53v-507q0 -111 -100 -168q-52 -30 -99 -30z" />
    <glyph glyph-name="K" unicode="K" horiz-adv-x="491" 
d="M40 0v700h53v-700h-53zM138 341l268 359h61l-268 -359l272 -341h-61z" />
    <glyph glyph-name="L" unicode="L" horiz-adv-x="436" 
d="M40 0v700h53v-649h323v-51h-376z" />
    <glyph glyph-name="M" unicode="M" horiz-adv-x="696" 
d="M42 0v535h9l44 -108v-427h-53zM42 669v31h46l255 -618l202 456h10v-110l-189 -428h-46zM601 0v700h53v-700h-53z" />
    <glyph glyph-name="N" unicode="N" horiz-adv-x="529" 
d="M42 0v582h8l45 -73v-509h-53zM42 667v33h49l396 -632v-68h-27zM434 229v471h53v-545h-8z" />
    <glyph glyph-name="O" unicode="O" horiz-adv-x="527" 
d="M40 195v329q0 53 45 108q60 72 152 73v-52q-73 0 -119 -71q-25 -39 -25 -74v-313q0 -77 72 -123q39 -25 71 -25v-52q-57 0 -114 41q-81 60 -82 159zM291 -5v52q47 0 92 40q51 45 52 108v313q0 51 -41 97q-43 47 -103 48v52q101 0 162 -87q35 -50 35 -94v-329
q0 -111 -99 -170q-52 -30 -98 -30z" />
    <glyph glyph-name="P" unicode="P" horiz-adv-x="483" 
d="M42 0h53v700h-53v-700zM141 309h154q134 4 161 122q8 34 8 75q0 171 -139 191q-15 2 -30 3h-154v-49h134q108 0 129 -87q6 -25 6 -56q0 -122 -85 -143q-22 -5 -49 -5h-135v-51z" />
    <glyph glyph-name="Q" unicode="Q" horiz-adv-x="528" 
d="M40 195v329q0 52 44 106q61 75 156 75v-51q-79 -1 -123 -71q-24 -38 -24 -75v-313q0 -93 93 -134q33 -14 54 -14v-52q-62 0 -121 43q-78 59 -79 157zM287 -5v52q28 0 70 24q76 44 77 124v313q0 55 -44 101q-43 44 -103 45v51q105 1 166 -87q35 -50 35 -94v-329
q-1 -125 -141 -187l57 -85l-42 -30z" />
    <glyph glyph-name="R" unicode="R" horiz-adv-x="508" 
d="M42 0v700h53v-700h-53zM141 314v50h141q94 0 114 79q7 27 7 63q0 117 -83 141q-26 7 -60 7h-119v46h139q175 -10 176 -194q-1 -126 -69 -167q69 -32 76 -122l17 -217h-52l-15 178q-8 89 -42 116q-28 21 -79 20h-151z" />
    <glyph glyph-name="S" unicode="S" horiz-adv-x="498" 
d="M29 158l48 17q18 -92 107 -121l32 -7v-50q-90 0 -150 76q-36 46 -37 85zM37 513q0 107 94 161q45 26 85 26v-50q-36 -1 -76 -33q-50 -43 -51 -108q0 -75 108 -107q11 -4 113 -25q20 -4 32 -8q92 -28 117 -95q11 -31 11 -70q0 -85 -67 -148q-62 -59 -141 -59v50
q44 0 93 40q61 51 62 121q0 85 -115 117q-9 2 -106 21q-24 5 -36 9q-81 32 -106 79q-17 33 -17 79zM262 650v50q90 0 149 -82q26 -36 31 -65l-50 -16q-8 30 -24 53t-34 34t-34.5 17.5t-27.5 7.5z" />
    <glyph glyph-name="T" unicode="T" horiz-adv-x="472" 
d="M19 649v51h433v-51h-190v-649h-53v649h-190z" />
    <glyph glyph-name="U" unicode="U" horiz-adv-x="525" 
d="M39 193v507h53v-507q0 -80 82 -125q38 -21 65 -21v-52q-57 0 -116 40q-83 59 -84 158zM286 -5v52q42 0 87 33q59 44 60 113v507h53v-507q0 -112 -101 -169q-52 -29 -99 -29z" />
    <glyph glyph-name="V" unicode="V" horiz-adv-x="475" 
d="M10 700h52l190 -650l-18 -50h-21zM246 210l167 490h53q-2 -8 -82 -243q-104 -308 -107 -319h-10z" />
    <glyph glyph-name="W" unicode="W" horiz-adv-x="792" 
d="M10 700l203 -700h19l17 59l-186 641h-53zM239 225l21 -74h10q2 8 64 235q42 156 58 216l161 -602h19l18 54l-171 646h-53zM589 224l22 -73h10l161 549h-53z" />
    <glyph glyph-name="X" unicode="X" horiz-adv-x="468" 
d="M28 0l180 362l-168 338h52l142 -282l142 282h52l-168 -338l180 -362h-53l-153 304l-153 -304h-53z" />
    <glyph glyph-name="Y" unicode="Y" horiz-adv-x="482" 
d="M28 700h54l177 -447v-253h-54v252zM257 384l143 316h55l-168 -386h-5z" />
    <glyph glyph-name="Z" unicode="Z" horiz-adv-x="444" 
d="M39 0v49l308 600h-308v51h366v-48l-309 -600h310l-1 -52h-366z" />
    <glyph glyph-name="bracketleft" unicode="[" horiz-adv-x="190" 
d="M50 -36v775h95v-47h-42l-3 -681h45v-47h-95z" />
    <glyph glyph-name="backslash" unicode="\" horiz-adv-x="308" 
d="M40 716h52l175 -739h-53z" />
    <glyph glyph-name="bracketright" unicode="]" horiz-adv-x="189" 
d="M45 -36v47h45l-3 681h-42v47h95v-775h-95z" />
    <glyph glyph-name="asciicircum" unicode="^" horiz-adv-x="436" 
d="M51 460l149 296h36l149 -296h-52l-116 230l-114 -230h-52z" />
    <glyph glyph-name="underscore" unicode="_" horiz-adv-x="527" 
d="M39 -158h450v-47h-450v47z" />
    <glyph glyph-name="grave" unicode="`" horiz-adv-x="182" 
d="M40 757h52l37 -152h-37z" />
    <glyph glyph-name="a" unicode="a" horiz-adv-x="465" 
d="M38 122q0 -53 52 -89q44 -32 106 -32v49q-78 0 -101 51q-7 16 -7 34v36q0 26 11 37q17 17 125 41q96 22 125 37v-135q-1 -100 -107 -101v-49q67 0 108 31q4 3 7 6q33 -34 70 -37v50q-26 1 -26 34v283q0 70 -50 117q-44 41 -109 41v-48q49 0 82 -40q24 -30 24 -69v-17
q1 -24 -124 -54q-119 -29 -136 -38q-49 -28 -50 -91v-47zM45 394l47 -18q0 57 51 86q25 15 53 15v49q-67 0 -115 -48q-36 -38 -36 -84z" />
    <glyph glyph-name="b" unicode="b" horiz-adv-x="433" 
d="M40 0v701h53v-701h-53zM139 0v50h107q43 0 79 38q25 27 26 57v233q0 43 -44 74q-30 21 -61 21h-107v50h108q73 0 123 -58q33 -40 33 -83v-239q0 -47 -40 -91q-47 -51 -118 -52h-106z" />
    <glyph glyph-name="c" unicode="c" horiz-adv-x="435" 
d="M40 143q0 -54 41 -97q46 -46 120 -46v50q-59 0 -93 49q-16 23 -16 44v232q0 40 39 72q32 26 71 26v50q-92 0 -139 -72q-23 -37 -23 -73v-235zM246 472q51 0 80 -42q16 -23 19 -53v-18l50 18q0 71 -58 115q-41 31 -91 31v-51zM245 -1q71 0 122 53q40 42 39 94l-49 19
q0 -2 -0.5 -8.5t-0.5 -8.5q-7 -57 -59 -86q-25 -13 -52 -13v-50z" />
    <glyph glyph-name="d" unicode="d" horiz-adv-x="432" 
d="M30 143v239q0 57 53 102q46 39 102 39h108v-50h-107q-47 0 -82 -41q-22 -27 -22 -54v-233q0 -44 48 -76q29 -19 57 -19h106v-50h-105q-88 0 -135 74q-23 37 -23 69zM339 0v701h53v-701h-53z" />
    <glyph glyph-name="e" unicode="e" horiz-adv-x="456" 
d="M40 143v239q1 47 44 90q49 51 121 51v-49q-57 0 -94 -51q-19 -26 -19 -49v-79h272v79q0 50 -49 81q-31 20 -64 20v48q67 0 120 -49q44 -42 45 -91v-138h-324v-102q0 -31 38 -64q36 -30 76 -30v-49q-88 0 -139 72q-27 38 -27 71zM251 0v52q65 0 102 55q11 17 15 32l49 -17
q-22 -73 -89 -105q-36 -17 -77 -17z" />
    <glyph glyph-name="f" unicode="f" horiz-adv-x="253" 
d="M28 432v50h64v71q0 77 45 118q32 28 80 28h19l-12 -50h-9q-71 -5 -71 -96v-71h64v-50h-64v-432h-52v432h-64z" />
    <glyph glyph-name="g" unicode="g" horiz-adv-x="436" 
d="M29 -182l13 49h183q70 3 105 53q15 21 15 41v88q-27 -34 -76 -45q-15 -4 -30 -4v47q46 0 82 41q24 27 24 54v238q0 54 -57 82q-26 13 -49 13v49q53 0 95 -34q7 -6 11 -11v45h51v-563q0 -42 -38 -87q-47 -55 -117 -56h-212zM38 142v242q1 47 41 91q47 49 115 49v-49
q-53 0 -88 -49q-17 -24 -17 -45v-238q0 -34 35 -66q32 -28 70 -28v-49q-90 1 -135 77q-21 34 -21 65z" />
    <glyph glyph-name="h" unicode="h" horiz-adv-x="449" 
d="M40 0v700h50v-234q43 48 115 50v-49q-51 0 -89 -42q-25 -28 -25 -56v-369h-51zM251 467v49q92 0 136 -65q23 -34 23 -73v-378h-51v369q0 53 -44 81q-27 17 -64 17z" />
    <glyph glyph-name="i" unicode="i" horiz-adv-x="153" 
d="M43 592q0 22 22 31q6 2 12 2q23 0 31 -22q2 -6 2 -11q0 -23 -22 -31q-6 -2 -11 -2q-23 0 -32 21q-2 6 -2 12zM51 0v519h52v-519h-52z" />
    <glyph glyph-name="j" unicode="j" horiz-adv-x="183" 
d="M81 519h52v-555q0 -47 -38 -93q-46 -53 -114 -54h-23l12 49h13q49 3 80 48q18 25 18 50v555zM75 592q0 24 23 31q6 2 11 2q23 0 31 -22q2 -6 2 -11q0 -23 -22 -31q-6 -2 -11 -2q-24 0 -32 22q-2 6 -2 11z" />
    <glyph glyph-name="k" unicode="k" horiz-adv-x="463" 
d="M40 0v700h53v-700h-53zM116 261l256 260h71l-256 -260l256 -261h-71z" />
    <glyph glyph-name="l" unicode="l" horiz-adv-x="138" 
d="M42 0v700h54v-700h-54z" />
    <glyph glyph-name="m" unicode="m" horiz-adv-x="708" 
d="M38 0v382q0 63 43 106q41 38 105 38v-51q-61 0 -86 -53q-10 -22 -10 -47v-375h-52zM230 475v51q75 0 114 -51l10 -14q33 50 82 61q19 4 41 4v-51q-60 0 -86 -52q-11 -23 -11 -48v-375h-52v375q0 60 -47 87q-23 13 -51 13zM521 475v51q93 0 133 -81q16 -32 16 -63v-382
h-52v375q0 62 -49 88q-22 12 -48 12z" />
    <glyph glyph-name="n" unicode="n" horiz-adv-x="455" 
d="M38 0v382q0 48 43 93q51 51 125 51v-52q-55 0 -93 -43q-23 -27 -23 -55v-376h-52zM249 474v52q90 0 142 -74q26 -37 26 -70v-382h-53v376q0 32 -33 64q-35 34 -82 34z" />
    <glyph glyph-name="o" unicode="o" horiz-adv-x="445" 
d="M38 143v238q0 47 42 91q50 51 124 51v-50q-67 0 -100 -56q-14 -25 -14 -49v-212q0 -40 38 -76q34 -31 76 -31v-50q-93 0 -142 75q-24 36 -24 69zM246 -1v50q62 0 94 57q15 25 15 48v214q0 44 -38 78q-31 27 -71 27v50q90 0 138 -73q23 -36 23 -69v-238q0 -48 -41 -92
q-48 -51 -120 -52z" />
    <glyph glyph-name="p" unicode="p" horiz-adv-x="449" 
d="M146 0v50h101q71 0 101 52q12 21 12 43v232q0 37 -38 68q-35 28 -83 28h-99v50h99q98 0 149 -74q24 -36 24 -69v-239q0 -50 -44 -93q-49 -48 -122 -48h-100zM42 -184v707h53v-707h-53z" />
    <glyph glyph-name="q" unicode="q" horiz-adv-x="443" 
d="M204 0q-94 0 -143 73q-23 35 -23 68v239q0 52 43 95q48 48 123 48h99v-50h-99q-71 0 -103 -56q-11 -21 -11 -40v-232q0 -47 44 -76q29 -19 68 -19h94v-50h-92zM348 -184v707h53v-707h-53z" />
    <glyph glyph-name="r" unicode="r" horiz-adv-x="250" 
d="M42 0v523h52v-82q20 42 67 66q31 16 64 16h6l-13 -50q-50 0 -90 -60q-33 -50 -33 -105v-308h-53z" />
    <glyph glyph-name="s" unicode="s" horiz-adv-x="420" 
d="M20 138l50 9q0 -52 55 -85q30 -17 59 -18v-49q-87 0 -136 65q-28 38 -28 78zM24 371q0 91 81 134q38 20 77 20v-50q-47 0 -81 -39q-26 -29 -26 -65q0 -35 49 -54q19 -8 151 -40q7 -2 13 -3q105 -27 112 -108v-10q0 -89 -73 -134q-45 -27 -101 -27v49q52 0 91 37
q32 31 32 74q0 45 -83 71q-5 2 -127 31q-9 2 -16 4q-88 26 -98 92q-1 9 -1 18zM225 474v51q84 0 134 -63q32 -39 32 -82l-50 -8q0 59 -65 89q-28 13 -51 13z" />
    <glyph glyph-name="t" unicode="t" horiz-adv-x="261" 
d="M19 462v51h64v189h52v-189h64v-51h-64v-301q0 -83 56 -103q23 -7 53 -7h4l12 -51h-21q-121 1 -147 94q-9 32 -9 76v292h-64z" />
    <glyph glyph-name="u" unicode="u" horiz-adv-x="455" 
d="M38 139v382h52v-376q0 -39 42 -71q33 -27 74 -27v-52q-94 0 -143 73q-25 37 -25 71zM249 -5v52q62 0 97 49q18 25 18 49v376h53v-382q0 -46 -42 -90q-51 -53 -126 -54z" />
    <glyph glyph-name="v" unicode="v" horiz-adv-x="409" 
d="M10 522h58l163 -477l-17 -45h-27zM219 178l122 344h58l-145 -412h-12z" />
    <glyph glyph-name="w" unicode="w" horiz-adv-x="723" 
d="M10 523l179 -522h27l15 45l-163 477h-58zM219 179l23 -68h12l108 325l150 -435h27l15 45l-163 477h-59zM542 179l23 -68h12l136 412h-58z" />
    <glyph glyph-name="x" unicode="x" horiz-adv-x="384" 
d="M8 0l154 265l-149 258h51l128 -211l127 210h53l-148 -257l152 -265h-52l-132 220l-132 -220h-52z" />
    <glyph glyph-name="y" unicode="y" horiz-adv-x="395" 
d="M4 522h53l164 -409l-98 -297h-52l97 297zM217 228l122 294h52l-146 -356h-6z" />
    <glyph glyph-name="z" unicode="z" horiz-adv-x="360" 
d="M30 0l1 49l242 422h-243v50h300v-44l-243 -427h243v-50h-300z" />
    <glyph glyph-name="braceleft" unicode="{" horiz-adv-x="228" 
d="M15 348q43 18 52 29q9 12 10 31v142q0 135 52 168q28 17 79 17v-43q-46 0 -60 -22q-19 -29 -20 -164v-37v-86q0 -26 -30 -34q-1 -1 -2 -1q31 -11 32 -44v-97q0 -168 43 -195q14 -8 37 -8v-42q-83 0 -111 59q-20 44 -20 124v145q0 25 -31 42q-4 3 -15 8t-16 8z" />
    <glyph glyph-name="bar" unicode="|" horiz-adv-x="144" 
d="M50 -134v888h44v-888h-44z" />
    <glyph glyph-name="braceright" unicode="}" horiz-adv-x="228" 
d="M20 -38v42q41 0 57 31q23 45 23 172v97q2 34 32 44q-31 9 -32 35v86q0 160 -16 194q-13 27 -52 29h-12v43q75 0 103 -40q28 -43 28 -145v-142q1 -32 32 -47q6 -3 30 -13q-44 -23 -49 -27q-13 -13 -13 -31v-145q0 -140 -67 -171q-26 -12 -64 -12z" />
    <glyph glyph-name="asciitilde" unicode="~" horiz-adv-x="628" 
d="M80 314v50q61 35 113 35q43 0 109 -35q65 -35 103 -38h12q58 1 131 45v-48q-76 -46 -137 -46q-47 0 -116 37q-72 34 -108 36q-52 -1 -107 -36z" />
    <glyph glyph-name="exclamdown" unicode="&#xa1;" horiz-adv-x="152" 
d="M20 490q0 25 24 32q6 2 11 2q24 0 32 -23q2 -6 2 -11q0 -24 -23 -32q-6 -2 -11 -2q-25 0 -33 23q-2 6 -2 11zM29 -108v523h52v-523h-52z" />
    <glyph glyph-name="cent" unicode="&#xa2;" horiz-adv-x="425" 
d="M244 588v-116q51 0 80 -42q16 -25 19 -56q1 -5 1 -15l50 18q0 72 -59 116q-26 19 -55 26v69h-36zM165 588v-68q-77 -15 -112 -84q-15 -30 -15 -58v-235q0 -52 40 -95q35 -36 87 -45v-68h35v115q-58 0 -92 49q-17 24 -17 45v229q0 42 39 75q32 25 70 25v115h-35zM244 -65
h36v68q70 16 105 75q20 33 20 68l-50 19q0 -3 -0.5 -10.5t-0.5 -9.5q-8 -55 -59 -83q-25 -13 -51 -13v-114z" />
    <glyph glyph-name="sterling" unicode="&#xa3;" horiz-adv-x="383" 
d="M20 318v47h61v183q0 84 57 128q37 28 88 28h2q34 0 60 -11q51 -22 74 -72l-44 -21q-34 53 -86 54q-60 0 -87 -50q-12 -24 -12 -53v-185h145v-47h-145v-272h229v-47h-281v318h-61z" />
    <glyph glyph-name="currency" unicode="&#xa4;" horiz-adv-x="604" 
d="M40 167l81 74q-7 17 -7 35v178q0 17 8 36l-82 73l31 36l74 -66q49 62 133 63v-49q-67 0 -99 -56q-14 -25 -14 -48v-156q0 -39 37 -74q34 -32 76 -32v-49q-84 1 -133 66l-74 -66zM319 132v48q62 0 94 57q15 25 15 48v158q0 42 -36 76q-32 28 -73 28v49q83 -1 129 -64
l75 67l31 -36l-83 -74q7 -17 7 -35v-178q0 -19 -7 -35l83 -74l-32 -35l-74 65q-49 -64 -129 -65z" />
    <glyph glyph-name="yen" unicode="&#xa5;" horiz-adv-x="452" 
d="M202 0h52v164h183v37h-183v56h183v36h-179l143 405h-54l-119 -337l-120 337h-54l144 -405h-178v-36h182v-56h-182v-37h182v-164z" />
    <glyph glyph-name="brokenbar" unicode="&#xa6;" horiz-adv-x="143" 
d="M42 -135v355h51v-355h-51zM42 400v355h51v-355h-51z" />
    <glyph glyph-name="section" unicode="&#xa7;" horiz-adv-x="602" 
d="M54 355q1 96 75 148q-14 30 -14 72q0 121 104 167q41 18 85 18h100v-50h-73q-136 -1 -160 -96q-4 -17 -4 -36q2 -76 110 -110v-61q-28 6 -39 10q-54 21 -77 44q-53 -42 -54 -110q0 -74 105 -106q25 -8 65 -16v-54q-88 18 -93 20l-6 2q-82 33 -107 80q-17 33 -17 78z
M197 -86h70q116 -1 154 72q14 29 14 64q-2 82 -111 113v57q26 -6 36 -9q59 -17 87 -49q47 47 48 108q0 84 -113 115q-24 7 -58 13v56q14 -4 42 -10q39 -8 54 -13q92 -28 117 -95q11 -31 11 -70q-1 -89 -71 -152q10 -28 10 -68q0 -88 -66 -141q-53 -42 -127 -42h-97v51z" />
    <glyph glyph-name="dieresis" unicode="&#xa8;" horiz-adv-x="287" 
d="M55 679q0 22 22 31q6 2 12 2q25 0 32 -24q1 -5 1 -9q0 -25 -23 -32q-5 -1 -10 -1q-24 0 -32 22q-2 6 -2 11zM165 679q0 22 22 31q6 2 12 2q25 0 32 -24q1 -5 1 -9q0 -25 -23 -32q-5 -1 -10 -1q-24 0 -32 22q-2 6 -2 11z" />
    <glyph glyph-name="copyright" unicode="&#xa9;" horiz-adv-x="772" 
d="M35 339q0 -147 100 -253q93 -97 221 -105q9 -1 18 -1v41q-124 0 -214 96q-85 100 -88 222q0 147 108 242q92 76 194 79v38q-96 1 -189 -65q-125 -89 -146 -239q-4 -27 -4 -55zM245 245q0 -60 40 -99q35 -33 89 -33v37q-53 0 -78 49q-11 23 -11 46v184q0 48 34 78
q23 20 55 20v38q-78 0 -113 -70q-16 -32 -16 -64v-186zM409 -20q117 0 213 88q105 96 118 235q2 18 2 34q0 156 -110 263q-89 87 -200 97q-12 1 -23 1v-38q108 0 195 -84q95 -92 101 -224v-14q0 -119 -83 -214q-84 -96 -198 -103h-15v-41zM409 112q57 0 93 51q23 33 23 69
l-38 14v-11q-2 -48 -41 -73q-18 -12 -37 -12v-38zM409 526q35 0 60 -34q16 -24 16 -52v-8l38 14q0 59 -47 96q-31 23 -67 23v-39z" />
    <glyph glyph-name="ordfeminine" unicode="&#xaa;" horiz-adv-x="232" 
d="M20 384v24h190v-24h-190zM22 503q0 -33 36 -51q20 -9 43 -10v25q-47 0 -53 34q-1 5 -1 9v18q0 12 5 18q8 8 77 24q35 8 49 15v-67q-2 -50 -54 -51v-25q38 1 58 19q14 -18 34 -19v26q-12 0 -12 16v142q0 43 -35 66q-20 13 -45 13v-24q31 0 46 -28q7 -13 7 -27v-8
q0 -12 -79 -31q-41 -10 -51 -15q-25 -14 -25 -46v-23zM26 639l23 -9q0 33 32 46q9 4 20 4v25q-41 0 -65 -32q-10 -17 -10 -34z" />
    <glyph glyph-name="guillemotleft" unicode="&#xab;" horiz-adv-x="473" 
d="M26 278v24l211 156v-60l-147 -106l147 -111v-60zM237 278v24l211 156v-60l-147 -106l147 -111v-60z" />
    <glyph glyph-name="logicalnot" unicode="&#xac;" horiz-adv-x="506" 
d="M40 363v48h416v-203h-50v155h-366z" />
    <glyph glyph-name="uni00AD" unicode="&#xad;" horiz-adv-x="376" 
d="M21 269v50h316v-50h-316z" />
    <glyph glyph-name="registered" unicode="&#xae;" horiz-adv-x="387" 
d="M170 517v21h17q42 1 43 32q-6 34 -52 36h-8v21q69 0 80 -38q2 -9 2 -19q-1 -31 -20 -42q17 -9 20 -36l5 -60h-22l-4 49q-2 30 -31 34q-11 2 -30 2zM185 367q-76 4 -121 66q-31 43 -31 95q0 81 64 129q40 29 88 32v-26q-66 -4 -103 -60q-23 -34 -23 -75q0 -69 55 -109
q32 -23 71 -26v-26zM201 367v26q67 4 104 60q23 35 23 75q0 70 -57 110q-32 23 -70 25v26q75 -4 120 -64q33 -43 33 -97q0 -80 -63 -128q-41 -30 -90 -33zM134 432v195h24v-195h-24z" />
    <glyph glyph-name="macron" unicode="&#xaf;" horiz-adv-x="510" 
d="M39 759h450v-47h-450v47z" />
    <glyph glyph-name="degree" unicode="&#xb0;" horiz-adv-x="221" 
d="M35 583q0 44 39 65q17 10 36 10q43 0 66 -38q10 -18 10 -37q0 -43 -39 -65q-18 -10 -37 -10q-44 0 -65 39q-10 17 -10 36zM72 583q0 -27 25 -36q7 -2 13 -2q28 0 37 26q2 6 2 12q0 28 -26 37q-7 2 -13 2q-26 0 -35 -25q-3 -7 -3 -14z" />
    <glyph glyph-name="plusminus" unicode="&#xb1;" horiz-adv-x="434" 
d="M29 117v50h376v-50h-376zM51 430v50h160v179h51v-179h164v-50h-164v-182h-51v182h-160z" />
    <glyph glyph-name="twosuperior" unicode="&#xb2;" horiz-adv-x="230" 
d="M19 624q5 43 44 65q17 10 36 12v-31q-23 0 -39 -21q-9 -13 -12 -31zM24 387v31h181v-31h-181zM24 437q0 62 87 104l18 9q45 27 50 53q1 5 1 11q0 35 -30 50q-14 6 -31 6v31q70 0 87 -59q4 -14 4 -29q-1 -53 -62 -87q-5 -3 -17 -9q-52 -25 -65 -49q-7 -15 -7 -31h-35z" />
    <glyph glyph-name="threesuperior" unicode="&#xb3;" horiz-adv-x="226" 
d="M118 387v30q37 2 52 32q5 12 5 25q0 36 -33 50q-13 5 -29 5v29q47 0 60 40q2 8 2 16q0 42 -40 53q-8 3 -17 3v30q55 0 78 -45q10 -19 10 -40q-1 -49 -33 -72q33 -23 33 -70q0 -49 -41 -73q-22 -13 -47 -13zM19 463l29 7q1 -8 3.5 -15t5 -12t6 -9t7 -6.5t7 -4.5t6.5 -3
t5.5 -2t3.5 -1h2v-30q-49 4 -68 51q-5 13 -7 25zM19 624q5 47 44 67q15 8 31 9v-30q-19 0 -34 -20q-9 -14 -12 -32z" />
    <glyph glyph-name="acute" unicode="&#xb4;" horiz-adv-x="319" 
d="M115 605l37 152h51l-52 -152h-36z" />
    <glyph glyph-name="uni00B5" unicode="&#xb5;" horiz-adv-x="493" 
d="M37 0h51v247q45 -23 73 -28q21 -4 42 -4v48q-66 0 -101 30q-13 12 -14 24v381h-51v-698zM245 215q83 0 129 36q25 -31 67 -34h12v49q-35 0 -40 28q-2 9 -2 23v383h-51v-383q0 -25 -48 -43q-32 -11 -67 -11v-48z" />
    <glyph glyph-name="paragraph" unicode="&#xb6;" horiz-adv-x="378" 
d="M35 517q0 -115 77 -164q40 -24 92 -24v-334h37v710h-37q-88 0 -137 -75q-32 -50 -32 -113zM287 -5h37v710h-37v-710z" />
    <glyph glyph-name="periodcentered" unicode="&#xb7;" horiz-adv-x="165" 
d="M64 332q0 28 26 39q8 4 17 4q29 0 41 -27q3 -8 3 -16q0 -29 -27 -40q-8 -4 -17 -4q-28 0 -40 27q-3 9 -3 17z" />
    <glyph glyph-name="cedilla" unicode="&#xb8;" horiz-adv-x="403" 
d="M123 -13v45q61 0 87 46q11 21 11 45h47q0 -65 -49 -105q-39 -31 -96 -31z" />
    <glyph glyph-name="onesuperior" unicode="&#xb9;" horiz-adv-x="109" 
d="M9 659v24l20 16h31v-313h-31v273h-20z" />
    <glyph glyph-name="ordmasculine" unicode="&#xba;" horiz-adv-x="230" 
d="M26 406v26h178v-26h-178zM36 532v105q0 28 28 49q21 14 46 14v-22q-36 0 -48 -32q-3 -8 -3 -14v-95q0 -23 24 -39q13 -8 27 -8v-22q-48 0 -68 41q-6 13 -6 23zM128 468v22q32 0 45 31q4 8 4 15v96q0 25 -24 39q-12 7 -25 7v22q46 0 66 -40q6 -12 6 -23v-105
q0 -29 -28 -50q-19 -14 -44 -14z" />
    <glyph glyph-name="guillemotright" unicode="&#xbb;" horiz-adv-x="457" 
d="M15 139v50l165 103l-165 97v51l211 -129v-42zM226 139v50l165 103l-165 97v51l211 -129v-42z" />
    <glyph glyph-name="onequarter" unicode="&#xbc;" horiz-adv-x="499" 
d="M396 0v350h37v-254h27v-35h-27v-61h-37zM61 655v27l23 18h36v-350h-36v305h-23zM232 61v35l140 240v-70l-98 -170h98v-35h-140zM0 0l432 700h41l-431 -700h-42z" />
    <glyph glyph-name="onehalf" unicode="&#xbd;" horiz-adv-x="558" 
d="M308 0v36h207v-36h-207zM0 0l432 700h41l-431 -700h-42zM61 655v27l23 18h36v-350h-36v305h-23zM300 259q5 52 48 79q20 11 42 13v-36q-27 0 -44 -27q-9 -15 -12 -36zM308 58q0 71 100 110q17 7 18 7q46 22 54 53q2 10 2 19q-2 67 -69 68v36q86 0 103 -74q3 -15 3 -30
q-1 -61 -60 -93q-7 -4 -26 -11q-61 -25 -77 -51q-9 -16 -9 -34h-39z" />
    <glyph glyph-name="threequarters" unicode="&#xbe;" horiz-adv-x="618" 
d="M156 346v36q53 0 62 47q2 8 2 16q0 43 -36 57q-14 5 -31 5h-11v32h11q58 0 66 51q1 6 1 11q0 51 -45 61q-10 2 -19 2v36q65 0 90 -53q9 -21 9 -44q-1 -54 -39 -80q39 -27 39 -80q0 -60 -48 -85q-23 -12 -51 -12zM514 0v350h37v-254h27v-35h-27v-61h-37zM350 61v35
l141 240v-70l-99 -170h99v-35h-141zM39 437l34 8q6 -54 49 -62q4 -1 7 -1v-36q-56 4 -80 56q-8 17 -10 35zM39 608q5 54 49 79q19 11 41 13v-36q-29 0 -45 -28q-9 -15 -11 -35zM118 0l432 700h42l-432 -700h-42z" />
    <glyph glyph-name="questiondown" unicode="&#xbf;" horiz-adv-x="445" 
d="M412 78q-58 -73 -138 -88q-24 -4 -50 -4q-125 0 -180 94q-30 51 -32 118q0 40 11.5 74t30 55.5t40.5 38t44.5 25t41 14t30.5 7.5l11 1v193h50v-242q-157 -3 -197 -100q-12 -30 -12 -66q0 -89 66 -133q41 -28 97 -28q96 1 153 76zM278 679q0 -23 -22 -31q-6 -2 -11 -2
q-22 0 -30 22q-2 6 -2 11q0 22 21 30q6 2 11 2q23 0 31 -22q2 -5 2 -10z" />
    <glyph glyph-name="Agrave" unicode="&#xc0;" horiz-adv-x="442" 
d="M162 918h52l37 -152h-37zM30 0l136 597h17l16 -76l-116 -521h-53zM157 129l11 51h153l-114 519h53l153 -699h-53l-27 129h-176z" />
    <glyph glyph-name="Aacute" unicode="&#xc1;" horiz-adv-x="442" 
d="M217 766l37 152h51l-52 -152h-36zM30 0l136 597h17l16 -76l-116 -521h-53zM157 129l11 51h153l-114 519h53l153 -699h-53l-27 129h-176z" />
    <glyph glyph-name="Acircumflex" unicode="&#xc2;" horiz-adv-x="442" 
d="M142 766l75 152h36l76 -152h-42l-52 106l-51 -106h-42zM30 0l136 597h17l16 -76l-116 -521h-53zM157 129l11 51h153l-114 519h53l153 -699h-53l-27 129h-176z" />
    <glyph glyph-name="Atilde" unicode="&#xc3;" horiz-adv-x="442" 
d="M94 782v47q39 22 70 22q25 0 71 -23q35 -18 60 -18q35 1 80 28v-46q-46 -28 -84 -28q-27 0 -74 23q-34 17 -57 17q-31 -1 -66 -22zM30 0l136 597h17l16 -76l-116 -521h-53zM157 129l11 51h153l-114 519h53l153 -699h-53l-27 129h-176z" />
    <glyph glyph-name="Adieresis" unicode="&#xc4;" horiz-adv-x="442" 
d="M146 799q0 22 22 31q6 2 12 2q25 0 32 -24q1 -4 1 -9q0 -25 -23 -32q-5 -1 -10 -1q-24 0 -32 22q-2 6 -2 11zM256 799q0 22 22 31q6 2 12 2q25 0 32 -24q1 -4 1 -9q0 -25 -23 -32q-5 -1 -10 -1q-24 0 -32 22q-2 6 -2 11zM30 0l136 597h17l16 -76l-116 -521h-53zM157 129
l11 51h153l-114 519h53l153 -699h-53l-27 129h-176z" />
    <glyph glyph-name="Aring" unicode="&#xc5;" horiz-adv-x="516" 
d="M68 0l136 597h16l17 -76l-116 -521h-53zM195 129l10 51h153l-113 515q-36 10 -48 47q-4 12 -4 23q0 46 40 66q17 9 35 9q45 0 67 -39q9 -17 9 -36q0 -45 -39 -66q-4 -2 -7 -3l151 -696h-52l-27 129h-175zM231 765q0 -26 25 -35q6 -2 12 -2q29 0 36 26q2 6 2 11
q0 27 -25 36q-7 2 -13 2q-25 0 -34 -24q-3 -7 -3 -14z" />
    <glyph glyph-name="AE" unicode="&#xc6;" horiz-adv-x="727" 
d="M74 0l180 700h447v-52h-267v-274h173v-52h-173v-271h267v-51h-320v183h-156l12 50h144v415h-84l-165 -648h-58z" />
    <glyph glyph-name="Ccedilla" unicode="&#xc7;" horiz-adv-x="513" 
d="M140 -177v45q61 0 87 46q11 21 11 45h47q0 -65 -49 -105q-39 -31 -96 -31zM40 181q0 -58 43 -113q58 -72 157 -73v51q-86 0 -129 74q-18 33 -18 61v337q0 46 38 88q43 47 109 48v51q-115 1 -172 -95q-28 -48 -28 -92v-337zM286 -5q82 0 140 62q50 55 50 125l-48 11
q0 -10 -2 -18q-2 -18 -6 -32q-13 -42 -46.5 -66t-60.5 -27l-27 -4v-51zM286 654l32 -6q74 -24 102 -100q5 -16 6 -28v-17l50 13q0 77 -64 136q-58 53 -126 53v-51z" />
    <glyph glyph-name="Egrave" unicode="&#xc8;" horiz-adv-x="444" 
d="M151 918h52l37 -152h-37zM40 0v700h364v-51h-311v-274h217v-52h-217v-272h311v-51h-364z" />
    <glyph glyph-name="Eacute" unicode="&#xc9;" horiz-adv-x="444" 
d="M240 766l37 152h51l-52 -152h-36zM40 0v700h364v-51h-311v-274h217v-52h-217v-272h311v-51h-364z" />
    <glyph glyph-name="Ecircumflex" unicode="&#xca;" horiz-adv-x="444" 
d="M130 766l75 152h36l76 -152h-42l-52 106l-51 -106h-42zM40 0v700h364v-51h-311v-274h217v-52h-217v-272h311v-51h-364z" />
    <glyph glyph-name="Edieresis" unicode="&#xcb;" horiz-adv-x="444" 
d="M135 799q0 22 22 31q6 2 12 2q25 0 32 -24q1 -4 1 -9q0 -25 -23 -32q-5 -1 -10 -1q-24 0 -32 22q-2 6 -2 11zM245 799q0 22 22 31q6 2 12 2q25 0 32 -24q1 -4 1 -9q0 -25 -23 -32q-5 -1 -10 -1q-24 0 -32 22q-2 6 -2 11zM40 0v700h364v-51h-311v-274h217v-52h-217v-272
h311v-51h-364z" />
    <glyph glyph-name="Igrave" unicode="&#xcc;" horiz-adv-x="137" 
d="M-3 918h52l37 -152h-37zM42 0v700h53v-700h-53z" />
    <glyph glyph-name="Iacute" unicode="&#xcd;" horiz-adv-x="137" 
d="M50 766l37 152h51l-52 -152h-36zM42 0v700h53v-700h-53z" />
    <glyph glyph-name="Icircumflex" unicode="&#xce;" horiz-adv-x="137" 
d="M-25 766l75 152h36l76 -152h-42l-52 106l-51 -106h-42zM42 0v700h53v-700h-53z" />
    <glyph glyph-name="Idieresis" unicode="&#xcf;" horiz-adv-x="137" 
d="M-20 799q0 22 22 31q6 2 12 2q25 0 32 -24q1 -5 1 -9q0 -25 -23 -32q-5 -1 -10 -1q-24 0 -32 22q-2 6 -2 11zM90 799q0 22 22 31q6 2 12 2q25 0 32 -24q1 -4 1 -9q0 -25 -23 -32q-5 -1 -10 -1q-24 0 -32 22q-2 6 -2 11zM42 0v700h53v-700h-53z" />
    <glyph glyph-name="Eth" unicode="&#xd0;" horiz-adv-x="458" 
d="M26 329v50h56v321h53v-321h56v-50h-56v-329h-53v329h-56zM181 0v51q124 0 171 21q68 33 69 125v306q0 106 -89 133q-43 12 -151 13v51q147 0 208 -31q84 -45 85 -166v-306q0 -143 -118 -180q-56 -17 -175 -17z" />
    <glyph glyph-name="Ntilde" unicode="&#xd1;" horiz-adv-x="529" 
d="M124 784v47q39 22 70 22q25 0 71 -23q35 -18 60 -18q35 1 80 28v-46q-46 -28 -84 -28q-27 0 -74 23q-34 17 -57 17q-31 -1 -66 -22zM42 0v582h8l45 -73v-509h-53zM42 667v33h49l396 -632v-68h-27zM434 229v471h53v-545h-8z" />
    <glyph glyph-name="Ograve" unicode="&#xd2;" horiz-adv-x="527" 
d="M189 918h52l37 -152h-37zM40 195v329q0 53 45 108q60 72 152 73v-52q-73 0 -119 -71q-25 -39 -25 -74v-313q0 -77 72 -123q39 -25 71 -25v-52q-57 0 -114 41q-81 60 -82 159zM291 -5v52q47 0 92 40q51 45 52 108v313q0 51 -41 97q-43 47 -103 48v52q101 0 162 -87
q35 -50 35 -94v-329q0 -111 -99 -170q-52 -30 -98 -30z" />
    <glyph glyph-name="Oacute" unicode="&#xd3;" horiz-adv-x="527" 
d="M244 766l37 152h51l-52 -152h-36zM40 195v329q0 53 45 108q60 72 152 73v-52q-73 0 -119 -71q-25 -39 -25 -74v-313q0 -77 72 -123q39 -25 71 -25v-52q-57 0 -114 41q-81 60 -82 159zM291 -5v52q47 0 92 40q51 45 52 108v313q0 51 -41 97q-43 47 -103 48v52
q101 0 162 -87q35 -50 35 -94v-329q0 -111 -99 -170q-52 -30 -98 -30z" />
    <glyph glyph-name="Ocircumflex" unicode="&#xd4;" horiz-adv-x="527" 
d="M168 766l75 152h36l76 -152h-42l-52 106l-51 -106h-42zM40 195v329q0 53 45 108q60 72 152 73v-52q-73 0 -119 -71q-25 -39 -25 -74v-313q0 -77 72 -123q39 -25 71 -25v-52q-57 0 -114 41q-81 60 -82 159zM291 -5v52q47 0 92 40q51 45 52 108v313q0 51 -41 97
q-43 47 -103 48v52q101 0 162 -87q35 -50 35 -94v-329q0 -111 -99 -170q-52 -30 -98 -30z" />
    <glyph glyph-name="Otilde" unicode="&#xd5;" horiz-adv-x="527" 
d="M121 794v47q39 22 70 22q25 0 71 -23q35 -18 60 -18q35 1 80 28v-46q-46 -28 -84 -28q-27 0 -74 23q-34 17 -57 17q-31 -1 -66 -22zM40 195v329q0 53 45 108q60 72 152 73v-52q-73 0 -119 -71q-25 -39 -25 -74v-313q0 -77 72 -123q39 -25 71 -25v-52q-57 0 -114 41
q-81 60 -82 159zM291 -5v52q47 0 92 40q51 45 52 108v313q0 51 -41 97q-43 47 -103 48v52q101 0 162 -87q35 -50 35 -94v-329q0 -111 -99 -170q-52 -30 -98 -30z" />
    <glyph glyph-name="Odieresis" unicode="&#xd6;" horiz-adv-x="527" 
d="M173 799q0 22 22 31q6 2 12 2q25 0 32 -24q1 -4 1 -9q0 -25 -23 -32q-5 -1 -10 -1q-24 0 -32 22q-2 6 -2 11zM283 799q0 22 22 31q6 2 12 2q25 0 32 -24q1 -4 1 -9q0 -25 -23 -32q-5 -1 -10 -1q-24 0 -32 22q-2 6 -2 11zM40 195v329q0 53 45 108q60 72 152 73v-52
q-73 0 -119 -71q-25 -39 -25 -74v-313q0 -77 72 -123q39 -25 71 -25v-52q-57 0 -114 41q-81 60 -82 159zM291 -5v52q47 0 92 40q51 45 52 108v313q0 51 -41 97q-43 47 -103 48v52q101 0 162 -87q35 -50 35 -94v-329q0 -111 -99 -170q-52 -30 -98 -30z" />
    <glyph glyph-name="multiply" unicode="&#xd7;" horiz-adv-x="520" 
d="M147 195l-36 38l184 184l-184 184l37 38l184 -184l186 185l37 -38l-185 -185l185 -186l-37 -38l-186 187z" />
    <glyph glyph-name="Oslash" unicode="&#xd8;" horiz-adv-x="672" 
d="M21 104l87 80v340q0 53 45 108q60 72 152 73v-52q-74 0 -119 -71q-25 -40 -25 -75v-276l338 304q-15 63 -67 97q-34 21 -73 21v52q101 0 161 -87q15 -21 24 -43l63 56l32 -35l-83 -75v-326q0 -111 -99 -170q-52 -30 -98 -30v52q47 0 93 40q50 45 51 108v278l-339 -305
q13 -67 81 -104q33 -17 59 -17v-52q-56 0 -114 42q-51 37 -71 92l-64 -59z" />
    <glyph glyph-name="Ugrave" unicode="&#xd9;" horiz-adv-x="525" 
d="M183 918h52l37 -152h-37zM39 193v507h53v-507q0 -80 82 -125q38 -21 65 -21v-52q-57 0 -116 40q-83 59 -84 158zM286 -5v52q42 0 87 33q59 44 60 113v507h53v-507q0 -112 -101 -169q-52 -29 -99 -29z" />
    <glyph glyph-name="Uacute" unicode="&#xda;" horiz-adv-x="525" 
d="M237 766l37 152h51l-52 -152h-36zM39 193v507h53v-507q0 -80 82 -125q38 -21 65 -21v-52q-57 0 -116 40q-83 59 -84 158zM286 -5v52q42 0 87 33q59 44 60 113v507h53v-507q0 -112 -101 -169q-52 -29 -99 -29z" />
    <glyph glyph-name="Ucircumflex" unicode="&#xdb;" horiz-adv-x="525" 
d="M162 766l75 152h36l76 -152h-42l-52 106l-51 -106h-42zM39 193v507h53v-507q0 -80 82 -125q38 -21 65 -21v-52q-57 0 -116 40q-83 59 -84 158zM286 -5v52q42 0 87 33q59 44 60 113v507h53v-507q0 -112 -101 -169q-52 -29 -99 -29z" />
    <glyph glyph-name="Udieresis" unicode="&#xdc;" horiz-adv-x="525" 
d="M167 799q0 22 22 31q6 2 12 2q25 0 32 -24q1 -4 1 -9q0 -25 -23 -32q-5 -1 -10 -1q-24 0 -32 22q-2 6 -2 11zM277 799q0 22 22 31q6 2 12 2q25 0 32 -24q1 -4 1 -9q0 -25 -23 -32q-5 -1 -10 -1q-24 0 -32 22q-2 6 -2 11zM39 193v507h53v-507q0 -80 82 -125q38 -21 65 -21
v-52q-57 0 -116 40q-83 59 -84 158zM286 -5v52q42 0 87 33q59 44 60 113v507h53v-507q0 -112 -101 -169q-52 -29 -99 -29z" />
    <glyph glyph-name="Yacute" unicode="&#xdd;" horiz-adv-x="482" 
d="M207 766l37 152h51l-52 -152h-36zM28 700h54l177 -447v-253h-54v252zM257 384l143 316h55l-168 -386h-5z" />
    <glyph glyph-name="Thorn" unicode="&#xde;" horiz-adv-x="474" 
d="M70 0v700h53v-700h-53zM174 208v51h42q138 0 169 78q10 27 10 61q0 122 -130 138q-23 3 -51 3h-40v51q176 5 232 -56q40 -44 42 -135q2 -147 -124 -181q-59 -15 -150 -10z" />
    <glyph glyph-name="germandbls" unicode="&#xdf;" horiz-adv-x="522" 
d="M26 0v457q1 88 12 126q37 121 188 122q165 0 179 -156q1 -15 1 -31v-112h-53q-35 0 -46 -26q-2 -6 -2 -10q0 -29 33 -48q21 -12 53 -23q104 -37 105 -145q0 -86 -73 -129q-43 -25 -96 -25h-128v47h104q108 0 137 63q8 20 8 43q0 54 -27 75q-13 11 -49 29q-8 4 -26 12
q-58 25 -76 50q-15 22 -15 52q0 66 74 79q14 2 28 2v12q0 89 -8 118q-24 73 -123 74q-148 -1 -148 -158v-498h-52z" />
    <glyph glyph-name="agrave" unicode="&#xe0;" horiz-adv-x="465" 
d="M134 739h52l37 -152h-37zM38 122q0 -53 52 -89q44 -32 106 -32v49q-78 0 -101 51q-7 16 -7 34v36q0 26 11 37q17 17 125 41q96 22 125 37v-135q-1 -100 -107 -101v-49q67 0 108 31q4 3 7 6q33 -34 70 -37v50q-26 1 -26 34v283q0 70 -50 117q-44 41 -109 41v-48
q49 0 82 -40q24 -30 24 -69v-17q1 -24 -124 -54q-119 -29 -136 -38q-49 -28 -50 -91v-47zM45 394l47 -18q0 57 51 86q25 15 53 15v49q-67 0 -115 -48q-36 -38 -36 -84z" />
    <glyph glyph-name="aacute" unicode="&#xe1;" horiz-adv-x="465" 
d="M188 587l37 152h51l-52 -152h-36zM38 122q0 -53 52 -89q44 -32 106 -32v49q-78 0 -101 51q-7 16 -7 34v36q0 26 11 37q17 17 125 41q96 22 125 37v-135q-1 -100 -107 -101v-49q67 0 108 31q4 3 7 6q33 -34 70 -37v50q-26 1 -26 34v283q0 70 -50 117q-44 41 -109 41v-48
q49 0 82 -40q24 -30 24 -69v-17q1 -24 -124 -54q-119 -29 -136 -38q-49 -28 -50 -91v-47zM45 394l47 -18q0 57 51 86q25 15 53 15v49q-67 0 -115 -48q-36 -38 -36 -84z" />
    <glyph glyph-name="acircumflex" unicode="&#xe2;" horiz-adv-x="465" 
d="M112 587l75 152h36l76 -152h-42l-52 106l-51 -106h-42zM38 122q0 -53 52 -89q44 -32 106 -32v49q-78 0 -101 51q-7 16 -7 34v36q0 26 11 37q17 17 125 41q96 22 125 37v-135q-1 -100 -107 -101v-49q67 0 108 31q4 3 7 6q33 -34 70 -37v50q-26 1 -26 34v283q0 70 -50 117
q-44 41 -109 41v-48q49 0 82 -40q24 -30 24 -69v-17q1 -24 -124 -54q-119 -29 -136 -38q-49 -28 -50 -91v-47zM45 394l47 -18q0 57 51 86q25 15 53 15v49q-67 0 -115 -48q-36 -38 -36 -84z" />
    <glyph glyph-name="atilde" unicode="&#xe3;" horiz-adv-x="465" 
d="M74 605v47q39 22 70 22q25 0 71 -23q35 -18 60 -18q35 1 80 28v-46q-46 -28 -84 -28q-27 0 -74 23q-34 17 -57 17q-31 -1 -66 -22zM38 122q0 -53 52 -89q44 -32 106 -32v49q-78 0 -101 51q-7 16 -7 34v36q0 26 11 37q17 17 125 41q96 22 125 37v-135q-1 -100 -107 -101
v-49q67 0 108 31q4 3 7 6q33 -34 70 -37v50q-26 1 -26 34v283q0 70 -50 117q-44 41 -109 41v-48q49 0 82 -40q24 -30 24 -69v-17q1 -24 -124 -54q-119 -29 -136 -38q-49 -28 -50 -91v-47zM45 394l47 -18q0 57 51 86q25 15 53 15v49q-67 0 -115 -48q-36 -38 -36 -84z" />
    <glyph glyph-name="adieresis" unicode="&#xe4;" horiz-adv-x="465" 
d="M117 620q0 22 22 31q6 2 12 2q25 0 32 -24q1 -4 1 -9q0 -25 -23 -32q-5 -1 -10 -1q-24 0 -32 22q-2 6 -2 11zM227 620q0 22 22 31q6 2 12 2q25 0 32 -24q1 -4 1 -9q0 -25 -23 -32q-5 -1 -10 -1q-24 0 -32 22q-2 6 -2 11zM38 122q0 -53 52 -89q44 -32 106 -32v49
q-78 0 -101 51q-7 16 -7 34v36q0 26 11 37q17 17 125 41q96 22 125 37v-135q-1 -100 -107 -101v-49q67 0 108 31q4 3 7 6q33 -34 70 -37v50q-26 1 -26 34v283q0 70 -50 117q-44 41 -109 41v-48q49 0 82 -40q24 -30 24 -69v-17q1 -24 -124 -54q-119 -29 -136 -38
q-49 -28 -50 -91v-47zM45 394l47 -18q0 57 51 86q25 15 53 15v49q-67 0 -115 -48q-36 -38 -36 -84z" />
    <glyph glyph-name="aring" unicode="&#xe5;" horiz-adv-x="465" 
d="M146 683q0 42 38 63q16 8 33 8q42 0 63 -38q8 -16 8 -33q0 -42 -38 -63q-16 -8 -33 -8q-42 0 -63 38q-8 16 -8 33zM185 683q0 -24 22 -31q6 -1 10 -1q24 0 31 22q1 6 1 10q0 24 -22 31q-6 1 -10 1q-24 0 -31 -22q-1 -6 -1 -10zM38 122q0 -53 52 -89q44 -32 106 -32v49
q-78 0 -101 51q-7 16 -7 34v36q0 26 11 37q17 17 125 41q96 22 125 37v-135q-1 -100 -107 -101v-49q67 0 108 31q4 3 7 6q33 -34 70 -37v50q-26 1 -26 34v283q0 70 -50 117q-44 41 -109 41v-48q49 0 82 -40q24 -30 24 -69v-17q1 -24 -124 -54q-119 -29 -136 -38
q-49 -28 -50 -91v-47zM45 394l47 -18q0 57 51 86q25 15 53 15v49q-67 0 -115 -48q-36 -38 -36 -84z" />
    <glyph glyph-name="ae" unicode="&#xe6;" horiz-adv-x="465" 
d="M26 120q0 -53 53 -89q43 -30 103 -30v48q-81 0 -101 58q-6 17 -6 36v19q-1 53 99 84q21 6 63 16q81 20 96 35v-148q0 -90 -83 -99q-11 -1 -23 -1v-48q96 -1 138 68q38 -63 140 -69h15q151 1 186 120l-45 16q-16 -60 -83 -82q-27 -9 -57 -9q-66 0 -110 41q-26 27 -27 57
v99h321v136q0 61 -63 105q-48 33 -100 33v-46q54 0 91 -43q23 -28 23 -59v-78h-272v70q0 48 43 83q31 25 70 25v48q-86 0 -135 -70q-2 -1 -2 -2q-46 76 -155 76q-88 0 -138 -50q-33 -35 -33 -83l45 -15q0 73 75 95q24 7 50 7q70 0 109 -44q20 -23 20 -49v-20q0 -27 -68 -48
q-14 -4 -45 -12q-111 -29 -151 -59q-42 -34 -43 -82v-40z" />
    <glyph glyph-name="ccedilla" unicode="&#xe7;" horiz-adv-x="435" 
d="M106 -176v45q61 0 87 46q11 21 11 45h47q0 -65 -49 -105q-39 -31 -96 -31zM40 143q0 -54 41 -97q46 -46 120 -46v50q-59 0 -93 49q-16 23 -16 44v232q0 40 39 72q32 26 71 26v50q-92 0 -139 -72q-23 -37 -23 -73v-235zM246 472q51 0 80 -42q16 -23 19 -53v-18l50 18
q0 71 -58 115q-41 31 -91 31v-51zM245 -1q71 0 122 53q40 42 39 94l-49 19q0 -2 -0.5 -8.5t-0.5 -8.5q-7 -57 -59 -86q-25 -13 -52 -13v-50z" />
    <glyph glyph-name="egrave" unicode="&#xe8;" horiz-adv-x="456" 
d="M154 736h52l37 -152h-37zM40 143v239q1 47 44 90q49 51 121 51v-49q-57 0 -94 -51q-19 -26 -19 -49v-79h272v79q0 50 -49 81q-31 20 -64 20v48q67 0 120 -49q44 -42 45 -91v-138h-324v-102q0 -31 38 -64q36 -30 76 -30v-49q-88 0 -139 72q-27 38 -27 71zM251 0v52
q65 0 102 55q11 17 15 32l49 -17q-22 -73 -89 -105q-36 -17 -77 -17z" />
    <glyph glyph-name="eacute" unicode="&#xe9;" horiz-adv-x="456" 
d="M208 584l37 152h51l-52 -152h-36zM40 143v239q1 47 44 90q49 51 121 51v-49q-57 0 -94 -51q-19 -26 -19 -49v-79h272v79q0 50 -49 81q-31 20 -64 20v48q67 0 120 -49q44 -42 45 -91v-138h-324v-102q0 -31 38 -64q36 -30 76 -30v-49q-88 0 -139 72q-27 38 -27 71zM251 0
v52q65 0 102 55q11 17 15 32l49 -17q-22 -73 -89 -105q-36 -17 -77 -17z" />
    <glyph glyph-name="ecircumflex" unicode="&#xea;" horiz-adv-x="456" 
d="M132 584l75 152h36l76 -152h-42l-52 106l-51 -106h-42zM40 143v239q1 47 44 90q49 51 121 51v-49q-57 0 -94 -51q-19 -26 -19 -49v-79h272v79q0 50 -49 81q-31 20 -64 20v48q67 0 120 -49q44 -42 45 -91v-138h-324v-102q0 -31 38 -64q36 -30 76 -30v-49q-88 0 -139 72
q-27 38 -27 71zM251 0v52q65 0 102 55q11 17 15 32l49 -17q-22 -73 -89 -105q-36 -17 -77 -17z" />
    <glyph glyph-name="edieresis" unicode="&#xeb;" horiz-adv-x="456" 
d="M137 617q0 22 22 31q6 2 12 2q25 0 32 -24q1 -4 1 -9q0 -25 -23 -32q-5 -1 -10 -1q-24 0 -32 22q-2 6 -2 11zM247 617q0 22 22 31q6 2 12 2q25 0 32 -24q1 -4 1 -9q0 -25 -23 -32q-5 -1 -10 -1q-24 0 -32 22q-2 6 -2 11zM40 143v239q1 47 44 90q49 51 121 51v-49
q-57 0 -94 -51q-19 -26 -19 -49v-79h272v79q0 50 -49 81q-31 20 -64 20v48q67 0 120 -49q44 -42 45 -91v-138h-324v-102q0 -31 38 -64q36 -30 76 -30v-49q-88 0 -139 72q-27 38 -27 71zM251 0v52q65 0 102 55q11 17 15 32l49 -17q-22 -73 -89 -105q-36 -17 -77 -17z" />
    <glyph glyph-name="igrave" unicode="&#xec;" horiz-adv-x="174" 
d="M16 736h52l37 -152h-37zM63 0v516h50v-516h-50z" />
    <glyph glyph-name="iacute" unicode="&#xed;" horiz-adv-x="174" 
d="M70 584l37 152h51l-52 -152h-36zM63 0v516h50v-516h-50z" />
    <glyph glyph-name="icircumflex" unicode="&#xee;" horiz-adv-x="174" 
d="M-6 584l75 152h36l76 -152h-42l-52 106l-51 -106h-42zM63 0v516h50v-516h-50z" />
    <glyph glyph-name="idieresis" unicode="&#xef;" horiz-adv-x="174" 
d="M-1 617q0 22 22 31q6 2 12 2q25 0 32 -24q1 -5 1 -9q0 -25 -23 -32q-5 -1 -10 -1q-24 0 -32 22q-2 6 -2 11zM109 617q0 22 22 31q6 2 12 2q25 0 32 -24q1 -4 1 -9q0 -25 -23 -32q-5 -1 -10 -1q-24 0 -32 22q-2 6 -2 11zM63 0v516h50v-516h-50z" />
    <glyph glyph-name="eth" unicode="&#xf0;" horiz-adv-x="420" 
d="M28 141v235q0 46 42 89q49 51 122 51v-48q-66 0 -99 -56q-15 -25 -15 -49v-209q0 -38 37 -74q35 -33 77 -33v-48q-92 0 -141 74q-23 36 -23 68zM192 681v33q94 -17 145 -81l58 17l12 -39l-47 -14q32 -65 32 -160v-296q0 -47 -41 -91q-47 -50 -118 -51v48q62 0 94 57
q15 25 15 48l-1 220q0 42 -40 73q-30 23 -68 23v48q62 -1 104 -40q0 61 -24 107l-64 -19l-12 39l54 16q-32 36 -99 62z" />
    <glyph glyph-name="ntilde" unicode="&#xf1;" horiz-adv-x="455" 
d="M87 605v47q39 22 70 22q25 0 71 -23q35 -18 60 -18q35 1 80 28v-46q-46 -28 -84 -28q-27 0 -74 23q-34 17 -57 17q-31 -1 -66 -22zM38 0v382q0 48 43 93q51 51 125 51v-52q-55 0 -93 -43q-23 -27 -23 -55v-376h-52zM249 474v52q90 0 142 -74q26 -37 26 -70v-382h-53v376
q0 32 -33 64q-35 34 -82 34z" />
    <glyph glyph-name="ograve" unicode="&#xf2;" horiz-adv-x="445" 
d="M153 736h52l37 -152h-37zM38 143v238q0 47 42 91q50 51 124 51v-50q-67 0 -100 -56q-14 -25 -14 -49v-212q0 -40 38 -76q34 -31 76 -31v-50q-93 0 -142 75q-24 36 -24 69zM246 -1v50q62 0 94 57q15 25 15 48v214q0 44 -38 78q-31 27 -71 27v50q90 0 138 -73
q23 -36 23 -69v-238q0 -48 -41 -92q-48 -51 -120 -52z" />
    <glyph glyph-name="oacute" unicode="&#xf3;" horiz-adv-x="445" 
d="M207 584l37 152h51l-52 -152h-36zM38 143v238q0 47 42 91q50 51 124 51v-50q-67 0 -100 -56q-14 -25 -14 -49v-212q0 -40 38 -76q34 -31 76 -31v-50q-93 0 -142 75q-24 36 -24 69zM246 -1v50q62 0 94 57q15 25 15 48v214q0 44 -38 78q-31 27 -71 27v50q90 0 138 -73
q23 -36 23 -69v-238q0 -48 -41 -92q-48 -51 -120 -52z" />
    <glyph glyph-name="ocircumflex" unicode="&#xf4;" horiz-adv-x="445" 
d="M131 584l75 152h36l76 -152h-42l-52 106l-51 -106h-42zM38 143v238q0 47 42 91q50 51 124 51v-50q-67 0 -100 -56q-14 -25 -14 -49v-212q0 -40 38 -76q34 -31 76 -31v-50q-93 0 -142 75q-24 36 -24 69zM246 -1v50q62 0 94 57q15 25 15 48v214q0 44 -38 78q-31 27 -71 27
v50q90 0 138 -73q23 -36 23 -69v-238q0 -48 -41 -92q-48 -51 -120 -52z" />
    <glyph glyph-name="otilde" unicode="&#xf5;" horiz-adv-x="445" 
d="M84 602v47q39 22 70 22q25 0 71 -23q35 -18 60 -18q35 1 80 28v-46q-46 -28 -84 -28q-27 0 -74 23q-34 17 -57 17q-31 -1 -66 -22zM38 143v238q0 47 42 91q50 51 124 51v-50q-67 0 -100 -56q-14 -25 -14 -49v-212q0 -40 38 -76q34 -31 76 -31v-50q-93 0 -142 75
q-24 36 -24 69zM246 -1v50q62 0 94 57q15 25 15 48v214q0 44 -38 78q-31 27 -71 27v50q90 0 138 -73q23 -36 23 -69v-238q0 -48 -41 -92q-48 -51 -120 -52z" />
    <glyph glyph-name="odieresis" unicode="&#xf6;" horiz-adv-x="445" 
d="M136 617q0 22 22 31q6 2 12 2q25 0 32 -24q1 -4 1 -9q0 -25 -23 -32q-5 -1 -10 -1q-24 0 -32 22q-2 6 -2 11zM246 617q0 22 22 31q6 2 12 2q25 0 32 -24q1 -4 1 -9q0 -25 -23 -32q-5 -1 -10 -1q-24 0 -32 22q-2 6 -2 11zM38 143v238q0 47 42 91q50 51 124 51v-50
q-67 0 -100 -56q-14 -25 -14 -49v-212q0 -40 38 -76q34 -31 76 -31v-50q-93 0 -142 75q-24 36 -24 69zM246 -1v50q62 0 94 57q15 25 15 48v214q0 44 -38 78q-31 27 -71 27v50q90 0 138 -73q23 -36 23 -69v-238q0 -48 -41 -92q-48 -51 -120 -52z" />
    <glyph glyph-name="divide" unicode="&#xf7;" horiz-adv-x="650" 
d="M96 267v50h450v-50h-450zM286 421q0 28 26 39q8 4 17 4q29 0 41 -27q3 -8 3 -16q0 -29 -27 -41q-8 -3 -17 -3q-28 0 -40 27q-3 9 -3 17zM286 169q0 28 26 39q9 4 17 4q29 0 41 -27q3 -8 3 -16q0 -29 -27 -41q-8 -3 -17 -3q-28 0 -40 27q-3 9 -3 17z" />
    <glyph glyph-name="oslash" unicode="&#xf8;" horiz-adv-x="430" 
d="M12 70l57 51q-3 11 -3 22v233q0 46 42 89q49 51 122 51v-48q-67 0 -99 -57q-14 -25 -14 -48v-198l254 235q-24 54 -77 66q-12 2 -23 2v48q93 0 139 -76q1 -3 2 -4l45 41l31 -33l-60 -54q2 -10 2 -16v-233q0 -47 -41 -91q-47 -50 -118 -51v48q62 0 94 57q15 25 15 48v193
l-252 -230q29 -56 83 -66q10 -2 19 -2v-48q-90 0 -138 71q-2 4 -4 7l-45 -41z" />
    <glyph glyph-name="ugrave" unicode="&#xf9;" horiz-adv-x="455" 
d="M156 736h52l37 -152h-37zM38 139v382h52v-376q0 -39 42 -71q33 -27 74 -27v-52q-94 0 -143 73q-25 37 -25 71zM249 -5v52q62 0 97 49q18 25 18 49v376h53v-382q0 -46 -42 -90q-51 -53 -126 -54z" />
    <glyph glyph-name="uacute" unicode="&#xfa;" horiz-adv-x="455" 
d="M218 584l37 152h51l-52 -152h-36zM38 139v382h52v-376q0 -39 42 -71q33 -27 74 -27v-52q-94 0 -143 73q-25 37 -25 71zM249 -5v52q62 0 97 49q18 25 18 49v376h53v-382q0 -46 -42 -90q-51 -53 -126 -54z" />
    <glyph glyph-name="ucircumflex" unicode="&#xfb;" horiz-adv-x="455" 
d="M134 584l75 152h36l76 -152h-42l-52 106l-51 -106h-42zM38 139v382h52v-376q0 -39 42 -71q33 -27 74 -27v-52q-94 0 -143 73q-25 37 -25 71zM249 -5v52q62 0 97 49q18 25 18 49v376h53v-382q0 -46 -42 -90q-51 -53 -126 -54z" />
    <glyph glyph-name="udieresis" unicode="&#xfc;" horiz-adv-x="455" 
d="M139 617q0 22 22 31q6 2 12 2q25 0 32 -24q1 -4 1 -9q0 -25 -23 -32q-5 -1 -10 -1q-24 0 -32 22q-2 6 -2 11zM249 617q0 22 22 31q6 2 12 2q25 0 32 -24q1 -4 1 -9q0 -25 -23 -32q-5 -1 -10 -1q-24 0 -32 22q-2 6 -2 11zM38 139v382h52v-376q0 -39 42 -71q33 -27 74 -27
v-52q-94 0 -143 73q-25 37 -25 71zM249 -5v52q62 0 97 49q18 25 18 49v376h53v-382q0 -46 -42 -90q-51 -53 -126 -54z" />
    <glyph glyph-name="yacute" unicode="&#xfd;" horiz-adv-x="395" 
d="M188 585l37 152h51l-52 -152h-36zM4 522h53l164 -409l-98 -297h-52l97 297zM217 228l122 294h52l-146 -356h-6z" />
    <glyph glyph-name="thorn" unicode="&#xfe;" horiz-adv-x="422" 
d="M30 -182v882h51v-882h-51zM126 468v48h102q90 0 141 -68q27 -38 27 -73v-236q0 -52 -45 -94q-47 -45 -119 -45h-99v48h101q67 1 97 50q15 26 15 58v209q0 63 -58 91q-27 12 -60 12h-102z" />
    <glyph glyph-name="ydieresis" unicode="&#xff;" horiz-adv-x="395" 
d="M109 618q0 22 22 31q6 2 12 2q25 0 32 -24q1 -5 1 -9q0 -25 -23 -32q-5 -1 -10 -1q-24 0 -32 22q-2 6 -2 11zM219 618q0 22 22 31q6 2 12 2q25 0 32 -24q1 -5 1 -9q0 -25 -23 -32q-5 -1 -10 -1q-24 0 -32 22q-2 6 -2 11zM4 522h53l164 -409l-98 -297h-52l97 297zM217 228
l122 294h52l-146 -356h-6z" />
    <glyph glyph-name="Amacron" unicode="&#x100;" horiz-adv-x="442" 
d="M77 766v36h316v-36h-316zM30 0l136 597h17l16 -76l-116 -521h-53zM157 129l11 51h153l-114 519h53l153 -699h-53l-27 129h-176z" />
    <glyph glyph-name="amacron" unicode="&#x101;" horiz-adv-x="465" 
d="M65 587v36h316v-36h-316zM38 122q0 -53 52 -89q44 -32 106 -32v49q-78 0 -101 51q-7 16 -7 34v36q0 26 11 37q17 17 125 41q96 22 125 37v-135q-1 -100 -107 -101v-49q67 0 108 31q4 3 7 6q33 -34 70 -37v50q-26 1 -26 34v283q0 70 -50 117q-44 41 -109 41v-48
q49 0 82 -40q24 -30 24 -69v-17q1 -24 -124 -54q-119 -29 -136 -38q-49 -28 -50 -91v-47zM45 394l47 -18q0 57 51 86q25 15 53 15v49q-67 0 -115 -48q-36 -38 -36 -84z" />
    <glyph glyph-name="Abreve" unicode="&#x102;" horiz-adv-x="442" 
d="M167 832h36q0 -24 22 -31q6 -1 10 -1q24 0 31 22q1 6 1 10h36q0 -31 -27 -52q-19 -14 -41 -14q-43 0 -62 41q-6 14 -6 25zM30 0l136 597h17l16 -76l-116 -521h-53zM157 129l11 51h153l-114 519h53l153 -699h-53l-27 129h-176z" />
    <glyph glyph-name="abreve" unicode="&#x103;" horiz-adv-x="465" 
d="M138 653h36q0 -24 22 -31q6 -1 10 -1q24 0 31 22q1 6 1 10h36q0 -31 -27 -52q-19 -14 -41 -14q-43 0 -62 41q-6 14 -6 25zM38 122q0 -53 52 -89q44 -32 106 -32v49q-78 0 -101 51q-7 16 -7 34v36q0 26 11 37q17 17 125 41q96 22 125 37v-135q-1 -100 -107 -101v-49
q67 0 108 31q4 3 7 6q33 -34 70 -37v50q-26 1 -26 34v283q0 70 -50 117q-44 41 -109 41v-48q49 0 82 -40q24 -30 24 -69v-17q1 -24 -124 -54q-119 -29 -136 -38q-49 -28 -50 -91v-47zM45 394l47 -18q0 57 51 86q25 15 53 15v49q-67 0 -115 -48q-36 -38 -36 -84z" />
    <glyph glyph-name="Aogonek" unicode="&#x104;" horiz-adv-x="442" 
d="M515 -176q-94 0 -131 75q-14 30 -14 61h47q0 -58 51 -81q22 -10 47 -10v-45zM30 0l136 597h17l16 -76l-116 -521h-53zM157 129l11 51h153l-114 519h53l153 -699h-53l-27 129h-176z" />
    <glyph glyph-name="aogonek" unicode="&#x105;" horiz-adv-x="465" 
d="M483 -176q-94 0 -131 75q-14 30 -14 61h47q0 -58 51 -81q22 -10 47 -10v-45zM38 122q0 -53 52 -89q44 -32 106 -32v49q-78 0 -101 51q-7 16 -7 34v36q0 26 11 37q17 17 125 41q96 22 125 37v-135q-1 -100 -107 -101v-49q67 0 108 31q4 3 7 6q33 -34 70 -37v50
q-26 1 -26 34v283q0 70 -50 117q-44 41 -109 41v-48q49 0 82 -40q24 -30 24 -69v-17q1 -24 -124 -54q-119 -29 -136 -38q-49 -28 -50 -91v-47zM45 394l47 -18q0 57 51 86q25 15 53 15v49q-67 0 -115 -48q-36 -38 -36 -84z" />
    <glyph glyph-name="Cacute" unicode="&#x106;" horiz-adv-x="513" 
d="M269 766l37 152h51l-52 -152h-36zM40 181q0 -58 43 -113q58 -72 157 -73v51q-86 0 -129 74q-18 33 -18 61v337q0 46 38 88q43 47 109 48v51q-115 1 -172 -95q-28 -48 -28 -92v-337zM286 -5q82 0 140 62q50 55 50 125l-48 11q0 -10 -2 -18q-2 -18 -6 -32
q-13 -42 -46.5 -66t-60.5 -27l-27 -4v-51zM286 654l32 -6q74 -24 102 -100q5 -16 6 -28v-17l50 13q0 77 -64 136q-58 53 -126 53v-51z" />
    <glyph glyph-name="cacute" unicode="&#x107;" horiz-adv-x="435" 
d="M204 584l37 152h51l-52 -152h-36zM40 143q0 -54 41 -97q46 -46 120 -46v50q-59 0 -93 49q-16 23 -16 44v232q0 40 39 72q32 26 71 26v50q-92 0 -139 -72q-23 -37 -23 -73v-235zM246 472q51 0 80 -42q16 -23 19 -53v-18l50 18q0 71 -58 115q-41 31 -91 31v-51zM245 -1
q71 0 122 53q40 42 39 94l-49 19q0 -2 -0.5 -8.5t-0.5 -8.5q-7 -57 -59 -86q-25 -13 -52 -13v-50z" />
    <glyph glyph-name="Ccaron" unicode="&#x10c;" horiz-adv-x="513" 
d="M168 918h42l52 -106l51 106h42l-75 -152h-36zM40 181q0 -58 43 -113q58 -72 157 -73v51q-86 0 -129 74q-18 33 -18 61v337q0 46 38 88q43 47 109 48v51q-115 1 -172 -95q-28 -48 -28 -92v-337zM286 -5q82 0 140 62q50 55 50 125l-48 11q0 -10 -2 -18q-2 -18 -6 -32
q-13 -42 -46.5 -66t-60.5 -27l-27 -4v-51zM286 654l32 -6q74 -24 102 -100q5 -16 6 -28v-17l50 13q0 77 -64 136q-58 53 -126 53v-51z" />
    <glyph glyph-name="ccaron" unicode="&#x10d;" horiz-adv-x="435" 
d="M129 736h42l52 -106l51 106h42l-75 -152h-36zM40 143q0 -54 41 -97q46 -46 120 -46v50q-59 0 -93 49q-16 23 -16 44v232q0 40 39 72q32 26 71 26v50q-92 0 -139 -72q-23 -37 -23 -73v-235zM246 472q51 0 80 -42q16 -23 19 -53v-18l50 18q0 71 -58 115q-41 31 -91 31v-51z
M245 -1q71 0 122 53q40 42 39 94l-49 19q0 -2 -0.5 -8.5t-0.5 -8.5q-7 -57 -59 -86q-25 -13 -52 -13v-50z" />
    <glyph glyph-name="Dcaron" unicode="&#x10e;" horiz-adv-x="472" 
d="M144 918h42l52 -106l51 106h42l-75 -152h-36zM40 0v700h53v-700h-53zM140 0v51q123 0 170 21q68 33 69 125v306q0 106 -90 133q-42 12 -149 13v51q147 0 207 -31q84 -45 85 -166v-306q0 -143 -117 -180q-55 -17 -175 -17z" />
    <glyph glyph-name="dcaron" unicode="&#x10f;" horiz-adv-x="432" 
d="M468 555l37 152h51l-37 -152h-51zM30 143v239q0 57 53 102q46 39 102 39h108v-50h-107q-47 0 -82 -41q-22 -27 -22 -54v-233q0 -44 48 -76q29 -19 57 -19h106v-50h-105q-88 0 -135 74q-23 37 -23 69zM339 0v701h53v-701h-53z" />
    <glyph glyph-name="Dcroat" unicode="&#x110;" horiz-adv-x="458" 
d="M26 329v50h56v321h53v-321h56v-50h-56v-329h-53v329h-56zM181 0v51q124 0 171 21q68 33 69 125v306q0 106 -89 133q-43 12 -151 13v51q147 0 208 -31q84 -45 85 -166v-306q0 -143 -118 -180q-56 -17 -175 -17z" />
    <glyph glyph-name="dcroat" unicode="&#x111;" horiz-adv-x="414" 
d="M27 141v236q0 56 52 101q46 38 101 38h107v-48h-106q-48 -1 -83 -43q-21 -26 -21 -52v-230q0 -44 47 -76q30 -19 57 -19h106v-48h-104q-87 0 -133 73q-23 36 -23 68zM266 585v45h67v71h51v-71h64v-45h-64v-585h-51v585h-67z" />
    <glyph glyph-name="Emacron" unicode="&#x112;" horiz-adv-x="444" 
d="M66 766v36h316v-36h-316zM40 0v700h364v-51h-311v-274h217v-52h-217v-272h311v-51h-364z" />
    <glyph glyph-name="emacron" unicode="&#x113;" horiz-adv-x="456" 
d="M68 584v36h316v-36h-316zM40 143v239q1 47 44 90q49 51 121 51v-49q-57 0 -94 -51q-19 -26 -19 -49v-79h272v79q0 50 -49 81q-31 20 -64 20v48q67 0 120 -49q44 -42 45 -91v-138h-324v-102q0 -31 38 -64q36 -30 76 -30v-49q-88 0 -139 72q-27 38 -27 71zM251 0v52
q65 0 102 55q11 17 15 32l49 -17q-22 -73 -89 -105q-36 -17 -77 -17z" />
    <glyph glyph-name="Edotaccent" unicode="&#x116;" horiz-adv-x="444" 
d="M188 802q0 26 24 35q6 2 12 2q25 0 34 -25q2 -6 2 -12q0 -25 -23 -34q-7 -2 -13 -2q-25 0 -34 23q-2 7 -2 13zM40 0v700h364v-51h-311v-274h217v-52h-217v-272h311v-51h-364z" />
    <glyph glyph-name="edotaccent" unicode="&#x117;" horiz-adv-x="456" 
d="M190 620q0 26 24 35q6 2 12 2q25 0 34 -25q2 -6 2 -12q0 -25 -23 -34q-7 -2 -13 -2q-25 0 -34 23q-2 7 -2 13zM40 143v239q1 47 44 90q49 51 121 51v-49q-57 0 -94 -51q-19 -26 -19 -49v-79h272v79q0 50 -49 81q-31 20 -64 20v48q67 0 120 -49q44 -42 45 -91v-138h-324
v-102q0 -31 38 -64q36 -30 76 -30v-49q-88 0 -139 72q-27 38 -27 71zM251 0v52q65 0 102 55q11 17 15 32l49 -17q-22 -73 -89 -105q-36 -17 -77 -17z" />
    <glyph glyph-name="Eogonek" unicode="&#x118;" horiz-adv-x="444" 
d="M412 -176v45q-61 0 -87 46q-11 21 -11 45h-47q0 -65 49 -105q39 -31 96 -31zM40 0v700h364v-51h-311v-274h217v-52h-217v-272h311v-51h-364z" />
    <glyph glyph-name="eogonek" unicode="&#x119;" horiz-adv-x="456" 
d="M351 -176v45q-61 0 -87 46q-11 21 -11 45h-47q0 -65 49 -105q39 -31 96 -31zM40 143v239q1 47 44 90q49 51 121 51v-49q-57 0 -94 -51q-19 -26 -19 -49v-79h272v79q0 50 -49 81q-31 20 -64 20v48q67 0 120 -49q44 -42 45 -91v-138h-324v-102q0 -31 38 -64q36 -30 76 -30
v-49q-88 0 -139 72q-27 38 -27 71zM251 0v52q65 0 102 55q11 17 15 32l49 -17q-22 -73 -89 -105q-36 -17 -77 -17z" />
    <glyph glyph-name="Ecaron" unicode="&#x11a;" horiz-adv-x="444" 
d="M130 918h42l52 -106l51 106h42l-75 -152h-36zM40 0v700h364v-51h-311v-274h217v-52h-217v-272h311v-51h-364z" />
    <glyph glyph-name="ecaron" unicode="&#x11b;" horiz-adv-x="456" 
d="M132 736h42l52 -106l51 106h42l-75 -152h-36zM40 143v239q1 47 44 90q49 51 121 51v-49q-57 0 -94 -51q-19 -26 -19 -49v-79h272v79q0 50 -49 81q-31 20 -64 20v48q67 0 120 -49q44 -42 45 -91v-138h-324v-102q0 -31 38 -64q36 -30 76 -30v-49q-88 0 -139 72
q-27 38 -27 71zM251 0v52q65 0 102 55q11 17 15 32l49 -17q-22 -73 -89 -105q-36 -17 -77 -17z" />
    <glyph glyph-name="Gbreve" unicode="&#x11e;" horiz-adv-x="514" 
d="M193 832h36q0 -24 22 -31q6 -1 10 -1q24 0 31 22q1 6 1 10h36q0 -31 -27 -52q-19 -14 -41 -14q-43 0 -62 41q-6 14 -6 25zM40 192v332q1 56 46 110q60 71 153 71v-51q-70 -1 -115 -58q-31 -40 -31 -88v-316q0 -84 84 -128q36 -18 62 -18v-51q-62 0 -120 42
q-78 58 -79 155zM285 -5v51q40 0 86 42q49 47 50 102v113h-136v50h190v-177q0 -61 -62 -121q-63 -59 -128 -60zM285 654v51q78 1 138 -65q52 -57 52 -124l-52 -19q0 15 -1 19q-7 84 -83 123q-30 15 -54 15z" />
    <glyph glyph-name="gbreve" unicode="&#x11f;" horiz-adv-x="436" 
d="M143 651h36q0 -24 22 -31q6 -1 10 -1q24 0 31 22q1 6 1 10h36q0 -31 -27 -52q-19 -14 -41 -14q-43 0 -62 41q-6 14 -6 25zM29 -182l13 49h183q70 3 105 53q15 21 15 41v88q-27 -34 -76 -45q-15 -4 -30 -4v47q46 0 82 41q24 27 24 54v238q0 54 -57 82q-26 13 -49 13v49
q53 0 95 -34q7 -6 11 -11v45h51v-563q0 -42 -38 -87q-47 -55 -117 -56h-212zM38 142v242q1 47 41 91q47 49 115 49v-49q-53 0 -88 -49q-17 -24 -17 -45v-238q0 -34 35 -66q32 -28 70 -28v-49q-90 1 -135 77q-21 34 -21 65z" />
    <glyph glyph-name="uni0122" unicode="&#x122;" horiz-adv-x="514" 
d="M197 -218l37 152h51l-37 -152h-51zM40 192v332q1 56 46 110q60 71 153 71v-51q-70 -1 -115 -58q-31 -40 -31 -88v-316q0 -84 84 -128q36 -18 62 -18v-51q-62 0 -120 42q-78 58 -79 155zM285 -5v51q40 0 86 42q49 47 50 102v113h-136v50h190v-177q0 -61 -62 -121
q-63 -59 -128 -60zM285 654v51q78 1 138 -65q52 -57 52 -124l-52 -19q0 15 -1 19q-7 84 -83 123q-30 15 -54 15z" />
    <glyph glyph-name="uni0123" unicode="&#x123;" horiz-adv-x="436" 
d="M208 585l37 152h51l-52 -152h-36zM29 -182l13 49h183q70 3 105 53q15 21 15 41v88q-27 -34 -76 -45q-15 -4 -30 -4v47q46 0 82 41q24 27 24 54v238q0 54 -57 82q-26 13 -49 13v49q53 0 95 -34q7 -6 11 -11v45h51v-563q0 -42 -38 -87q-47 -55 -117 -56h-212zM38 142v242
q1 47 41 91q47 49 115 49v-49q-53 0 -88 -49q-17 -24 -17 -45v-238q0 -34 35 -66q32 -28 70 -28v-49q-90 1 -135 77q-21 34 -21 65z" />
    <glyph glyph-name="Imacron" unicode="&#x12a;" horiz-adv-x="137" 
d="M-89 766v36h316v-36h-316zM42 0v700h53v-700h-53z" />
    <glyph glyph-name="imacron" unicode="&#x12b;" horiz-adv-x="174" 
d="M-70 584v36h316v-36h-316zM63 0v516h50v-516h-50z" />
    <glyph glyph-name="Iogonek" unicode="&#x12e;" horiz-adv-x="137" 
d="M190 -175q-94 0 -131 75q-14 30 -14 61h47q0 -58 51 -81q22 -10 47 -10v-45zM42 0v700h53v-700h-53z" />
    <glyph glyph-name="iogonek" unicode="&#x12f;" horiz-adv-x="153" 
d="M198 -174q-94 0 -131 75q-14 30 -14 61h47q0 -58 51 -81q22 -10 47 -10v-45zM43 592q0 22 22 31q6 2 12 2q23 0 31 -22q2 -6 2 -11q0 -23 -22 -31q-6 -2 -11 -2q-23 0 -32 21q-2 6 -2 12zM51 0v519h52v-519h-52z" />
    <glyph glyph-name="Idotaccent" unicode="&#x130;" horiz-adv-x="137" 
d="M33 802q0 26 24 35q6 2 12 2q25 0 34 -25q2 -6 2 -12q0 -25 -23 -34q-7 -2 -13 -2q-25 0 -34 23q-2 7 -2 13zM42 0v700h53v-700h-53z" />
    <glyph glyph-name="dotlessi" unicode="&#x131;" horiz-adv-x="174" 
d="M63 0v516h50v-516h-50z" />
    <glyph glyph-name="uni0136" unicode="&#x136;" horiz-adv-x="491" 
d="M165 -213l37 152h51l-37 -152h-51zM40 0v700h53v-700h-53zM138 341l268 359h61l-268 -359l272 -341h-61z" />
    <glyph glyph-name="uni0137" unicode="&#x137;" horiz-adv-x="463" 
d="M152 -213l37 152h51l-37 -152h-51zM40 0v700h53v-700h-53zM116 261l256 260h71l-256 -260l256 -261h-71z" />
    <glyph glyph-name="Lacute" unicode="&#x139;" horiz-adv-x="436" 
d="M50 766l37 152h51l-52 -152h-36zM40 0v700h53v-649h323v-51h-376z" />
    <glyph glyph-name="lacute" unicode="&#x13a;" horiz-adv-x="138" 
d="M51 767l37 152h51l-52 -152h-36zM42 0v700h54v-700h-54z" />
    <glyph glyph-name="uni013B" unicode="&#x13b;" horiz-adv-x="436" 
d="M176 -213l37 152h51l-37 -152h-51zM40 0v700h53v-649h323v-51h-376z" />
    <glyph glyph-name="uni013C" unicode="&#x13c;" horiz-adv-x="138" 
d="M0 -214l37 152h51l-37 -152h-51zM44 0v700h54v-700h-54z" />
    <glyph glyph-name="Lcaron" unicode="&#x13d;" horiz-adv-x="436" 
d="M159 553l37 152h51l-37 -152h-51zM40 0v700h53v-649h323v-51h-376z" />
    <glyph glyph-name="lcaron" unicode="&#x13e;" horiz-adv-x="161" 
d="M151 554l37 152h51l-37 -152h-51zM41 0v700h54v-700h-54z" />
    <glyph glyph-name="Lslash" unicode="&#x141;" horiz-adv-x="441" 
d="M48 275l81 63v362h53v-322l69 54l32 -40l-101 -77v-264h323v-51h-376v274l-50 -39z" />
    <glyph glyph-name="lslash" unicode="&#x142;" horiz-adv-x="424" 
d="M187 -1h53v362l90 69l-31 40l-59 -45v274h-53v-315l-89 -69l31 -40l58 45v-321z" />
    <glyph glyph-name="Nacute" unicode="&#x143;" horiz-adv-x="529" 
d="M246 766l37 152h51l-52 -152h-36zM42 0v582h8l45 -73v-509h-53zM42 667v33h49l396 -632v-68h-27zM434 229v471h53v-545h-8z" />
    <glyph glyph-name="nacute" unicode="&#x144;" horiz-adv-x="455" 
d="M209 587l37 152h51l-52 -152h-36zM38 0v382q0 48 43 93q51 51 125 51v-52q-55 0 -93 -43q-23 -27 -23 -55v-376h-52zM249 474v52q90 0 142 -74q26 -37 26 -70v-382h-53v376q0 32 -33 64q-35 34 -82 34z" />
    <glyph glyph-name="uni0145" unicode="&#x145;" horiz-adv-x="529" 
d="M211 -213l37 152h51l-37 -152h-51zM42 0v582h8l45 -73v-509h-53zM42 667v33h49l396 -632v-68h-27zM434 229v471h53v-545h-8z" />
    <glyph glyph-name="uni0146" unicode="&#x146;" horiz-adv-x="455" 
d="M174 -213l37 152h51l-37 -152h-51zM38 0v382q0 48 43 93q51 51 125 51v-52q-55 0 -93 -43q-23 -27 -23 -55v-376h-52zM249 474v52q90 0 142 -74q26 -37 26 -70v-382h-53v376q0 32 -33 64q-35 34 -82 34z" />
    <glyph glyph-name="Ncaron" unicode="&#x147;" horiz-adv-x="529" 
d="M171 918h42l52 -106l51 106h42l-75 -152h-36zM42 0v582h8l45 -73v-509h-53zM42 667v33h49l396 -632v-68h-27zM434 229v471h53v-545h-8z" />
    <glyph glyph-name="ncaron" unicode="&#x148;" horiz-adv-x="455" 
d="M133 739h42l52 -106l51 106h42l-75 -152h-36zM38 0v382q0 48 43 93q51 51 125 51v-52q-55 0 -93 -43q-23 -27 -23 -55v-376h-52zM249 474v52q90 0 142 -74q26 -37 26 -70v-382h-53v376q0 32 -33 64q-35 34 -82 34z" />
    <glyph glyph-name="Omacron" unicode="&#x14c;" horiz-adv-x="527" 
d="M104 766v36h316v-36h-316zM40 195v329q0 53 45 108q60 72 152 73v-52q-73 0 -119 -71q-25 -39 -25 -74v-313q0 -77 72 -123q39 -25 71 -25v-52q-57 0 -114 41q-81 60 -82 159zM291 -5v52q47 0 92 40q51 45 52 108v313q0 51 -41 97q-43 47 -103 48v52q101 0 162 -87
q35 -50 35 -94v-329q0 -111 -99 -170q-52 -30 -98 -30z" />
    <glyph glyph-name="omacron" unicode="&#x14d;" horiz-adv-x="445" 
d="M67 584v36h316v-36h-316zM38 143v238q0 47 42 91q50 51 124 51v-50q-67 0 -100 -56q-14 -25 -14 -49v-212q0 -40 38 -76q34 -31 76 -31v-50q-93 0 -142 75q-24 36 -24 69zM246 -1v50q62 0 94 57q15 25 15 48v214q0 44 -38 78q-31 27 -71 27v50q90 0 138 -73
q23 -36 23 -69v-238q0 -48 -41 -92q-48 -51 -120 -52z" />
    <glyph glyph-name="Ohungarumlaut" unicode="&#x150;" horiz-adv-x="527" 
d="M294 766l37 152h51l-52 -152h-36zM197 766l37 152h51l-52 -152h-36zM40 195v329q0 53 45 108q60 72 152 73v-52q-73 0 -119 -71q-25 -39 -25 -74v-313q0 -77 72 -123q39 -25 71 -25v-52q-57 0 -114 41q-81 60 -82 159zM291 -5v52q47 0 92 40q51 45 52 108v313
q0 51 -41 97q-43 47 -103 48v52q101 0 162 -87q35 -50 35 -94v-329q0 -111 -99 -170q-52 -30 -98 -30z" />
    <glyph glyph-name="ohungarumlaut" unicode="&#x151;" horiz-adv-x="445" 
d="M257 584l37 152h51l-52 -152h-36zM160 584l37 152h51l-52 -152h-36zM38 143v238q0 47 42 91q50 51 124 51v-50q-67 0 -100 -56q-14 -25 -14 -49v-212q0 -40 38 -76q34 -31 76 -31v-50q-93 0 -142 75q-24 36 -24 69zM246 -1v50q62 0 94 57q15 25 15 48v214q0 44 -38 78
q-31 27 -71 27v50q90 0 138 -73q23 -36 23 -69v-238q0 -48 -41 -92q-48 -51 -120 -52z" />
    <glyph glyph-name="OE" unicode="&#x152;" horiz-adv-x="461" 
d="M-20 197v308q0 137 97 174q54 21 176 21v-51q-110 -1 -149 -16q-70 -29 -71 -130v-306q0 -104 77 -131q41 -14 143 -14v-52q-131 0 -183 23q-89 41 -90 174zM300 0v52h34v597h-34v51h398v-51h-311v-274h217v-52h-217v-272h311v-51h-398z" />
    <glyph glyph-name="oe" unicode="&#x153;" horiz-adv-x="746" 
d="M370 73q33 -52 112 -68q24 -5 48 -5q151 1 186 120l-45 16q-18 -62 -86 -83q-26 -8 -54 -8q-66 0 -110 41q-26 27 -27 57v99h321v136q0 61 -63 105q-48 33 -100 33v-46q53 0 90 -43q23 -28 23 -59v-78h-271v70q0 48 43 83q31 25 70 25v48q-86 0 -135 -70q-2 -1 -2 -2
q-51 71 -136 72v-48q62 0 95 -55q15 -26 15 -50v-211q0 -42 -36 -76q-32 -29 -74 -29v-48q87 1 136 74zM29 141q0 -45 40 -89q50 -52 124 -53v48q-58 0 -94 54q-19 28 -19 53v209q0 46 39 79q32 26 74 26v48q-90 0 -139 -72q-25 -36 -25 -68v-235z" />
    <glyph glyph-name="Racute" unicode="&#x154;" horiz-adv-x="508" 
d="M199 766l37 152h51l-52 -152h-36zM42 0v700h53v-700h-53zM141 314v50h141q94 0 114 79q7 27 7 63q0 117 -83 141q-26 7 -60 7h-119v46h139q175 -10 176 -194q-1 -126 -69 -167q69 -32 76 -122l17 -217h-52l-15 178q-8 89 -42 116q-28 21 -79 20h-151z" />
    <glyph glyph-name="racute" unicode="&#x155;" horiz-adv-x="250" 
d="M116 584l37 152h51l-52 -152h-36zM42 0v523h52v-82q20 42 67 66q31 16 64 16h6l-13 -50q-50 0 -90 -60q-33 -50 -33 -105v-308h-53z" />
    <glyph glyph-name="uni0156" unicode="&#x156;" horiz-adv-x="508" 
d="M207 -213l37 152h51l-37 -152h-51zM42 0v700h53v-700h-53zM141 314v50h141q94 0 114 79q7 27 7 63q0 117 -83 141q-26 7 -60 7h-119v46h139q175 -10 176 -194q-1 -126 -69 -167q69 -32 76 -122l17 -217h-52l-15 178q-8 89 -42 116q-28 21 -79 20h-151z" />
    <glyph glyph-name="uni0157" unicode="&#x157;" horiz-adv-x="250" 
d="M3 -213l37 152h51l-37 -152h-51zM42 0v523h52v-82q20 42 67 66q31 16 64 16h6l-13 -50q-50 0 -90 -60q-33 -50 -33 -105v-308h-53z" />
    <glyph glyph-name="Rcaron" unicode="&#x158;" horiz-adv-x="508" 
d="M122 918h42l52 -106l51 106h42l-75 -152h-36zM42 0v700h53v-700h-53zM141 314v50h141q94 0 114 79q7 27 7 63q0 117 -83 141q-26 7 -60 7h-119v46h139q175 -10 176 -194q-1 -126 -69 -167q69 -32 76 -122l17 -217h-52l-15 178q-8 89 -42 116q-28 21 -79 20h-151z" />
    <glyph glyph-name="rcaron" unicode="&#x159;" horiz-adv-x="250" 
d="M43 736h42l52 -106l51 106h42l-75 -152h-36zM42 0v523h52v-82q20 42 67 66q31 16 64 16h6l-13 -50q-50 0 -90 -60q-33 -50 -33 -105v-308h-53z" />
    <glyph glyph-name="Sacute" unicode="&#x15a;" horiz-adv-x="498" 
d="M212 766l37 152h51l-52 -152h-36zM29 158l48 17q18 -92 107 -121l32 -7v-50q-90 0 -150 76q-36 46 -37 85zM37 513q0 107 94 161q45 26 85 26v-50q-36 -1 -76 -33q-50 -43 -51 -108q0 -75 108 -107q11 -4 113 -25q20 -4 32 -8q92 -28 117 -95q11 -31 11 -70
q0 -85 -67 -148q-62 -59 -141 -59v50q44 0 93 40q61 51 62 121q0 85 -115 117q-9 2 -106 21q-24 5 -36 9q-81 32 -106 79q-17 33 -17 79zM262 650v50q90 0 149 -82q26 -36 31 -65l-50 -16q-8 30 -24 53t-34 34t-34.5 17.5t-27.5 7.5z" />
    <glyph glyph-name="sacute" unicode="&#x15b;" horiz-adv-x="420" 
d="M185 585l37 152h51l-52 -152h-36zM20 138l50 9q0 -52 55 -85q30 -17 59 -18v-49q-87 0 -136 65q-28 38 -28 78zM24 371q0 91 81 134q38 20 77 20v-50q-47 0 -81 -39q-26 -29 -26 -65q0 -35 49 -54q19 -8 151 -40q7 -2 13 -3q105 -27 112 -108v-10q0 -89 -73 -134
q-45 -27 -101 -27v49q52 0 91 37q32 31 32 74q0 45 -83 71q-5 2 -127 31q-9 2 -16 4q-88 26 -98 92q-1 9 -1 18zM225 474v51q84 0 134 -63q32 -39 32 -82l-50 -8q0 59 -65 89q-28 13 -51 13z" />
    <glyph glyph-name="uni015E" unicode="&#x15e;" horiz-adv-x="498" 
d="M110 -176v45q61 0 87 46q11 21 11 45h47q0 -65 -49 -105q-39 -31 -96 -31zM29 158l48 17q18 -92 107 -121l32 -7v-50q-90 0 -150 76q-36 46 -37 85zM37 513q0 107 94 161q45 26 85 26v-50q-36 -1 -76 -33q-50 -43 -51 -108q0 -75 108 -107q11 -4 113 -25q20 -4 32 -8
q92 -28 117 -95q11 -31 11 -70q0 -85 -67 -148q-62 -59 -141 -59v50q44 0 93 40q61 51 62 121q0 85 -115 117q-9 2 -106 21q-24 5 -36 9q-81 32 -106 79q-17 33 -17 79zM262 650v50q90 0 149 -82q26 -36 31 -65l-50 -16q-8 30 -24 53t-34 34t-34.5 17.5t-27.5 7.5z" />
    <glyph glyph-name="uni015F" unicode="&#x15f;" horiz-adv-x="420" 
d="M169 -176v45q61 0 87 46q11 21 11 45h47q0 -65 -49 -105q-39 -31 -96 -31zM20 138l50 9q0 -52 55 -85q30 -17 59 -18v-49q-87 0 -136 65q-28 38 -28 78zM24 371q0 91 81 134q38 20 77 20v-50q-47 0 -81 -39q-26 -29 -26 -65q0 -35 49 -54q19 -8 151 -40q7 -2 13 -3
q105 -27 112 -108v-10q0 -89 -73 -134q-45 -27 -101 -27v49q52 0 91 37q32 31 32 74q0 45 -83 71q-5 2 -127 31q-9 2 -16 4q-88 26 -98 92q-1 9 -1 18zM225 474v51q84 0 134 -63q32 -39 32 -82l-50 -8q0 59 -65 89q-28 13 -51 13z" />
    <glyph glyph-name="Scaron" unicode="&#x160;" horiz-adv-x="498" 
d="M128 918h42l52 -106l51 106h42l-75 -152h-36zM22 158l48 17q18 -92 107 -121l32 -7v-50q-90 0 -150 76q-36 46 -37 85zM30 513q0 107 94 161q45 26 85 26v-50q-36 -1 -76 -33q-50 -43 -51 -108q0 -75 108 -107q11 -4 113 -25q20 -4 32 -8q92 -28 117 -95q11 -31 11 -70
q0 -85 -67 -148q-62 -59 -141 -59v50q44 0 93 40q61 51 62 121q0 85 -115 117q-9 2 -106 21q-24 5 -36 9q-81 32 -106 79q-17 33 -17 79zM255 650v50q90 0 149 -82q26 -36 31 -65l-50 -16q-8 30 -24 53t-34 34t-34.5 17.5t-26.5 7.5z" />
    <glyph glyph-name="scaron" unicode="&#x161;" horiz-adv-x="420" 
d="M112 737h42l52 -106l51 106h42l-75 -152h-36zM24 138l50 9q0 -52 55 -85q30 -17 59 -18v-49q-87 0 -136 65q-28 38 -28 78zM28 371q0 91 81 134q38 20 77 20v-50q-47 0 -81 -39q-26 -29 -26 -65q0 -35 49 -54q19 -8 151 -40q7 -2 13 -3q105 -27 112 -108v-10
q0 -89 -73 -134q-45 -27 -101 -27v49q52 0 91 37q32 31 32 74q0 45 -83 71q-5 2 -127 31q-9 2 -16 4q-88 26 -98 92q-1 9 -1 18zM229 474v51q84 0 134 -63q32 -39 32 -82l-50 -8q0 59 -65 89q-28 13 -51 13z" />
    <glyph glyph-name="uni0162" unicode="&#x162;" horiz-adv-x="472" 
d="M110 -176v45q61 0 87 46q11 21 11 45h47q0 -65 -49 -105q-39 -31 -96 -31zM19 649v51h433v-51h-190v-649h-53v649h-190z" />
    <glyph glyph-name="uni0163" unicode="&#x163;" horiz-adv-x="261" 
d="M113 -173v45q61 0 87 46q11 21 11 45h47q0 -65 -49 -105q-39 -31 -96 -31zM19 462v51h64v189h52v-189h64v-51h-64v-301q0 -83 56 -103q23 -7 53 -7h4l12 -51h-21q-121 1 -147 94q-9 32 -9 76v292h-64z" />
    <glyph glyph-name="Tcaron" unicode="&#x164;" horiz-adv-x="472" 
d="M138 918h42l52 -106l51 106h42l-75 -152h-36zM19 649v51h433v-51h-190v-649h-53v649h-190z" />
    <glyph glyph-name="tcaron" unicode="&#x165;" horiz-adv-x="290" 
d="M189 556l37 152h51l-37 -152h-51zM19 462v51h64v189h52v-189h64v-51h-64v-301q0 -83 56 -103q23 -7 53 -7h4l12 -51h-21q-121 1 -147 94q-9 32 -9 76v292h-64z" />
    <glyph glyph-name="Umacron" unicode="&#x16a;" horiz-adv-x="525" 
d="M98 766v36h316v-36h-316zM39 193v507h53v-507q0 -80 82 -125q38 -21 65 -21v-52q-57 0 -116 40q-83 59 -84 158zM286 -5v52q42 0 87 33q59 44 60 113v507h53v-507q0 -112 -101 -169q-52 -29 -99 -29z" />
    <glyph glyph-name="umacron" unicode="&#x16b;" horiz-adv-x="455" 
d="M69 584v36h316v-36h-316zM38 139v382h52v-376q0 -39 42 -71q33 -27 74 -27v-52q-94 0 -143 73q-25 37 -25 71zM249 -5v52q62 0 97 49q18 25 18 49v376h53v-382q0 -46 -42 -90q-51 -53 -126 -54z" />
    <glyph glyph-name="Uring" unicode="&#x16e;" horiz-adv-x="525" 
d="M185 862q0 42 38 63q16 8 33 8q42 0 63 -38q8 -16 8 -33q0 -42 -38 -63q-16 -8 -33 -8q-42 0 -63 38q-8 16 -8 33zM224 862q0 -24 22 -31q6 -1 10 -1q24 0 31 22q1 6 1 10q0 24 -22 31q-6 1 -10 1q-24 0 -31 -22q-1 -6 -1 -10zM39 193v507h53v-507q0 -80 82 -125
q38 -21 65 -21v-52q-57 0 -116 40q-83 59 -84 158zM286 -5v52q42 0 87 33q59 44 60 113v507h53v-507q0 -112 -101 -169q-52 -29 -99 -29z" />
    <glyph glyph-name="uring" unicode="&#x16f;" horiz-adv-x="455" 
d="M156 680q0 42 38 63q16 8 33 8q42 0 63 -38q8 -16 8 -33q0 -42 -38 -63q-16 -8 -33 -8q-42 0 -63 38q-8 16 -8 33zM195 680q0 -24 22 -31q6 -1 10 -1q24 0 31 22q1 6 1 10q0 24 -22 31q-6 1 -10 1q-24 0 -31 -22q-1 -6 -1 -10zM38 139v382h52v-376q0 -39 42 -71
q33 -27 74 -27v-52q-94 0 -143 73q-25 37 -25 71zM249 -5v52q62 0 97 49q18 25 18 49v376h53v-382q0 -46 -42 -90q-51 -53 -126 -54z" />
    <glyph glyph-name="Uhungarumlaut" unicode="&#x170;" horiz-adv-x="525" 
d="M313 766l37 152h51l-52 -152h-36zM216 766l37 152h51l-52 -152h-36zM39 193v507h53v-507q0 -80 82 -125q38 -21 65 -21v-52q-57 0 -116 40q-83 59 -84 158zM286 -5v52q42 0 87 33q59 44 60 113v507h53v-507q0 -112 -101 -169q-52 -29 -99 -29z" />
    <glyph glyph-name="uhungarumlaut" unicode="&#x171;" horiz-adv-x="455" 
d="M250 584l37 152h51l-52 -152h-36zM153 584l37 152h51l-52 -152h-36zM38 139v382h52v-376q0 -39 42 -71q33 -27 74 -27v-52q-94 0 -143 73q-25 37 -25 71zM249 -5v52q62 0 97 49q18 25 18 49v376h53v-382q0 -46 -42 -90q-51 -53 -126 -54z" />
    <glyph glyph-name="Uogonek" unicode="&#x172;" horiz-adv-x="525" 
d="M377 -176q-94 0 -131 75q-14 30 -14 61h47q0 -58 51 -81q22 -10 47 -10v-45zM39 193v507h53v-507q0 -80 82 -125q38 -21 65 -21v-52q-57 0 -116 40q-83 59 -84 158zM286 -5v52q42 0 87 33q59 44 60 113v507h53v-507q0 -112 -101 -169q-52 -29 -99 -29z" />
    <glyph glyph-name="uogonek" unicode="&#x173;" horiz-adv-x="455" 
d="M350 -177q-94 0 -131 75q-14 30 -14 61h47q0 -58 51 -81q22 -10 47 -10v-45zM38 139v382h52v-376q0 -39 42 -71q33 -27 74 -27v-52q-94 0 -143 73q-25 37 -25 71zM249 -5v52q62 0 97 49q18 25 18 49v376h53v-382q0 -46 -42 -90q-51 -53 -126 -54z" />
    <glyph glyph-name="Ydieresis" unicode="&#x178;" horiz-adv-x="482" 
d="M137 799q0 22 22 31q6 2 12 2q25 0 32 -24q1 -4 1 -9q0 -25 -23 -32q-5 -1 -10 -1q-24 0 -32 22q-2 6 -2 11zM247 799q0 22 22 31q6 2 12 2q25 0 32 -24q1 -4 1 -9q0 -25 -23 -32q-5 -1 -10 -1q-24 0 -32 22q-2 6 -2 11zM28 700h54l177 -447v-253h-54v252zM257 384
l143 316h55l-168 -386h-5z" />
    <glyph glyph-name="Zacute" unicode="&#x179;" horiz-adv-x="444" 
d="M195 766l37 152h51l-52 -152h-36zM39 0v49l308 600h-308v51h366v-48l-309 -600h310l-1 -52h-366z" />
    <glyph glyph-name="zacute" unicode="&#x17a;" horiz-adv-x="360" 
d="M162 584l37 152h51l-52 -152h-36zM30 0l1 49l242 422h-243v50h300v-44l-243 -427h243v-50h-300z" />
    <glyph glyph-name="Zdotaccent" unicode="&#x17b;" horiz-adv-x="444" 
d="M177 802q0 26 24 35q6 2 12 2q25 0 34 -25q2 -6 2 -12q0 -25 -23 -34q-7 -2 -13 -2q-25 0 -34 23q-2 7 -2 13zM39 0v49l308 600h-308v51h366v-48l-309 -600h310l-1 -52h-366z" />
    <glyph glyph-name="zdotaccent" unicode="&#x17c;" horiz-adv-x="360" 
d="M144 620q0 26 24 35q6 2 12 2q25 0 34 -25q2 -6 2 -12q0 -25 -23 -34q-7 -2 -13 -2q-25 0 -34 23q-2 7 -2 13zM30 0l1 49l242 422h-243v50h300v-44l-243 -427h243v-50h-300z" />
    <glyph glyph-name="Zcaron" unicode="&#x17d;" horiz-adv-x="444" 
d="M119 918h42l52 -106l51 106h42l-75 -152h-36zM39 0v49l308 600h-308v51h366v-48l-309 -600h310l-1 -52h-366z" />
    <glyph glyph-name="zcaron" unicode="&#x17e;" horiz-adv-x="360" 
d="M88 736h42l52 -106l51 106h42l-75 -152h-36zM30 0l1 49l242 422h-243v50h300v-44l-243 -427h243v-50h-300z" />
    <glyph glyph-name="florin" unicode="&#x192;" horiz-adv-x="382" 
d="M26 -168l12 47h33q69 1 70 79v475h-63v48h63v56q0 67 48 115q44 43 106 44h61l-11 -48h-28q-124 -2 -125 -118v-50l66 1v-48h-66v-463q0 -131 -114 -138h-14h-38z" />
    <glyph glyph-name="uni0218" unicode="&#x218;" horiz-adv-x="498" 
d="M179 -216l37 152h51l-37 -152h-51zM29 158l48 17q18 -92 107 -121l32 -7v-50q-90 0 -150 76q-36 46 -37 85zM37 513q0 107 94 161q45 26 85 26v-50q-36 -1 -76 -33q-50 -43 -51 -108q0 -75 108 -107q11 -4 113 -25q20 -4 32 -8q92 -28 117 -95q11 -31 11 -70
q0 -85 -67 -148q-62 -59 -141 -59v50q44 0 93 40q61 51 62 121q0 85 -115 117q-9 2 -106 21q-24 5 -36 9q-81 32 -106 79q-17 33 -17 79zM262 650v50q90 0 149 -82q26 -36 31 -65l-50 -16q-8 30 -24 53t-34 34t-34.5 17.5t-27.5 7.5z" />
    <glyph glyph-name="uni0219" unicode="&#x219;" horiz-adv-x="420" 
d="M138 -218l37 152h51l-37 -152h-51zM20 138l50 9q0 -52 55 -85q30 -17 59 -18v-49q-87 0 -136 65q-28 38 -28 78zM24 371q0 91 81 134q38 20 77 20v-50q-47 0 -81 -39q-26 -29 -26 -65q0 -35 49 -54q19 -8 151 -40q7 -2 13 -3q105 -27 112 -108v-10q0 -89 -73 -134
q-45 -27 -101 -27v49q52 0 91 37q32 31 32 74q0 45 -83 71q-5 2 -127 31q-9 2 -16 4q-88 26 -98 92q-1 9 -1 18zM225 474v51q84 0 134 -63q32 -39 32 -82l-50 -8q0 59 -65 89q-28 13 -51 13z" />
    <glyph glyph-name="uni021A" unicode="&#x21a;" horiz-adv-x="472" 
d="M172 -213l37 152h51l-37 -152h-51zM19 649v51h433v-51h-190v-649h-53v649h-190z" />
    <glyph glyph-name="uni021B" unicode="&#x21b;" horiz-adv-x="261" 
d="M135 -213l37 152h51l-37 -152h-51zM19 462v51h64v189h52v-189h64v-51h-64v-301q0 -83 56 -103q23 -7 53 -7h4l12 -51h-21q-121 1 -147 94q-9 32 -9 76v292h-64z" />
    <glyph glyph-name="circumflex" unicode="&#x2c6;" horiz-adv-x="270" 
d="M41 514l75 152h36l76 -152h-42l-52 106l-51 -106h-42z" />
    <glyph glyph-name="caron" unicode="&#x2c7;" horiz-adv-x="270" 
d="M41 666h42l52 -106l51 106h42l-75 -152h-36z" />
    <glyph glyph-name="uni02C9" unicode="&#x2c9;" horiz-adv-x="416" 
d="M50 537v36h316v-36h-316z" />
    <glyph glyph-name="breve" unicode="&#x2d8;" horiz-adv-x="244" 
d="M54 526h36q0 -24 22 -31q6 -1 10 -1q24 0 31 22q1 6 1 10h36q0 -31 -27 -52q-19 -14 -41 -14q-43 0 -62 41q-6 13 -6 25z" />
    <glyph glyph-name="dotaccent" unicode="&#x2d9;" horiz-adv-x="202" 
d="M65 678q0 26 24 35q6 2 12 2q25 0 34 -25q2 -6 2 -12q0 -25 -23 -34q-7 -2 -13 -2q-25 0 -34 23q-2 7 -2 13z" />
    <glyph glyph-name="ring" unicode="&#x2da;" horiz-adv-x="244" 
d="M51 526q0 42 38 63q16 8 33 8q42 0 63 -38q8 -16 8 -33q0 -42 -38 -63q-16 -8 -33 -8q-42 0 -63 38q-8 16 -8 33zM90 526q0 -24 22 -31q6 -1 10 -1q24 0 31 22q1 6 1 10q0 24 -22 31q-6 1 -10 1q-24 0 -31 -22q-1 -6 -1 -10z" />
    <glyph glyph-name="ogonek" unicode="&#x2db;" horiz-adv-x="219" 
d="M106 -176q-94 0 -131 75q-14 30 -14 61h47q0 -58 51 -81q22 -10 47 -10v-45z" />
    <glyph glyph-name="tilde" unicode="&#x2dc;" horiz-adv-x="333" 
d="M26 132v47q39 22 70 22q25 0 71 -23q35 -18 60 -18q35 1 80 28v-46q-46 -28 -84 -28q-27 0 -74 23q-34 17 -57 17q-31 -1 -66 -22z" />
    <glyph glyph-name="hungarumlaut" unicode="&#x2dd;" horiz-adv-x="275" 
d="M196 605l37 152h51l-52 -152h-36zM99 605l37 152h51l-52 -152h-36z" />
    <glyph glyph-name="pi" unicode="&#x3c0;" horiz-adv-x="436" 
d="M-20 466v50h479v-50h-90v-324q0 -86 49 -96q11 -2 27 -2v-48q-121 9 -126 137v333h-198v-469h-51v469h-90z" />
    <glyph glyph-name="anusvara" unicode="&#xd82;" horiz-adv-x="452" 
d="M251 45v52q89 0 110 72q8 30 8 79v63q0 104 -47 134q-28 17 -71 17v52h21q149 -1 149 -203v-63q-2 -202 -149 -203h-21zM180 45q-150 1 -150 203v63q2 202 150 203h21v-52q-91 0 -111 -76q-8 -30 -8 -75v-63q0 -100 42 -131q28 -20 77 -20v-52h-21z" />
    <glyph glyph-name="visarga" unicode="&#xd83;" horiz-adv-x="385" 
d="M217 -7v48q56 0 76 51q7 17 7 36q0 53 -41 77q-19 10 -42 10v48h14q76 0 109 -69q14 -31 14 -66q0 -75 -51 -113q-31 -22 -72 -22h-14zM154 -7q-78 0 -109 70q-14 30 -14 65q0 73 50 111q31 24 73 24h13v-48q-57 0 -76 -52q-6 -17 -6 -35q0 -53 40 -76q19 -11 42 -11v-48
h-13zM217 298v48q56 0 76 51q7 17 7 36q0 53 -41 77q-19 10 -42 10v48h14q76 0 109 -69q14 -31 14 -66q0 -75 -51 -113q-31 -22 -72 -22h-14zM154 298q-78 0 -109 70q-14 30 -14 65q0 73 50 111q31 24 73 24h13v-48q-57 0 -76 -52q-6 -17 -6 -35q0 -53 40 -76q18 -11 42 -11
v-48h-13z" />
    <glyph glyph-name="si_A" unicode="&#xd85;" horiz-adv-x="541" 
d="M382 -169h51v169h61v54h-61v370q0 64 46 94q15 9 32 13l-10 51q-71 -18 -102 -77q-57 72 -159 74q-89 0 -141 -61q-23 -27 -32 -62l49 -16q17 62 84 81q21 6 43 6q81 0 118 -54q21 -31 21 -71h-126q-143 0 -198 -92q-28 -47 -28 -111q0 -128 110 -176q52 -23 117 -23h70
v52h-70q-119 0 -158 80q-14 31 -14 67q0 101 83 136q34 14 79 14h135v-518z" />
    <glyph glyph-name="si_Aa" unicode="&#xd86;" horiz-adv-x="796" 
d="M382 -169h51v169h61v54h-61v370q0 64 46 94q15 9 32 13l-10 51q-71 -18 -102 -77q-57 72 -159 74q-89 0 -141 -61q-23 -27 -32 -62l49 -16q17 62 84 81q21 6 43 6q81 0 118 -54q21 -31 21 -71h-126q-143 0 -198 -92q-28 -47 -28 -111q0 -128 110 -176q52 -23 117 -23h70
v52h-70q-119 0 -158 80q-14 31 -14 67q0 101 83 136q34 14 79 14h135v-518zM564 0h20q152 0 177 131q5 29 5 64v166q0 162 -124 188q-26 6 -58 6h-20v-52h20q91 0 117 -69q11 -31 11 -75v-164q0 -133 -106 -142q-11 -1 -22 -1h-20v-52z" />
    <glyph glyph-name="si_Ae" unicode="&#xd87;" horiz-adv-x="793" 
d="M382 -169h51v169h61v54h-61v370q0 64 46 94q15 9 32 13l-10 51q-71 -18 -102 -77q-57 72 -159 74q-89 0 -141 -61q-23 -27 -32 -62l49 -16q17 62 84 81q21 6 43 6q81 0 118 -54q21 -31 21 -71h-126q-143 0 -198 -92q-28 -47 -28 -111q0 -128 110 -176q52 -23 117 -23h70
v52h-70q-119 0 -158 80q-14 31 -14 67q0 101 83 136q34 14 79 14h135v-518zM733 0h30v53h-31q-114 7 -116 132v116q0 57 16 85q24 41 131 136v52h-200v-53h127q-86 -77 -107 -114q-20 -38 -20 -104v-117q0 -142 107 -177q29 -9 63 -9z" />
    <glyph glyph-name="si_Aae" unicode="&#xd88;" horiz-adv-x="794" 
d="M382 -169h51v169h61v54h-61v370q0 64 46 94q15 9 32 13l-10 51q-71 -18 -102 -77q-57 72 -159 74q-89 0 -141 -61q-23 -27 -32 -62l49 -16q17 62 84 81q21 6 43 6q81 0 118 -54q21 -31 21 -71h-126q-143 0 -198 -92q-28 -47 -28 -111q0 -128 110 -176q52 -23 117 -23h70
v52h-70q-119 0 -158 80q-14 31 -14 67q0 101 83 136q34 14 79 14h135v-518zM564 208v-46q0 -141 124 -159q21 -3 46 -3h30v53h-31q-103 0 -114 79q-2 14 -2 33v42q0 36 18 59q28 36 129 106v50h-126l126 103v49h-200v-49h124l-124 -103v-50h118q-90 -62 -108 -105
q-10 -23 -10 -59z" />
    <glyph glyph-name="si_I" unicode="&#xd89;" horiz-adv-x="557" 
d="M193 0h91q165 0 220 126q23 53 23 123v130q0 111 -90 162q-50 29 -112 29h-16v-53q97 0 140 -58q25 -35 25 -86v-120q0 -144 -115 -188q-39 -14 -84 -14h-82v-51zM70 -77q18 -77 99 -111q39 -16 82 -16q89 0 142 57q38 43 38 102h-53q0 -60 -62 -92q-33 -16 -68 -16
q-65 0 -104 44q-17 20 -23 45zM21 313q0 -89 77 -124q33 -14 71 -14q84 0 121 55q17 26 17 60v75h-52v-66q0 -47 -49 -63q-17 -6 -36 -6q-61 0 -84 44q-10 19 -10 42v67q0 85 95 120q36 14 67 14h16v53h-16q-94 0 -159 -58q-57 -52 -58 -127v-72z" />
    <glyph glyph-name="si_Ii" unicode="&#xd8a;" horiz-adv-x="537" 
d="M30 236q0 -181 125 -228q37 -14 80 -14v54q-151 2 -152 187v185q0 72 19 107q18 31 54 61l225 189l-63 16l-199 -167q-85 -70 -89 -176v-23v-191zM150 513v-1h153q109 0 128 -101q5 -25 5 -55v-121q0 -149 -88 -178q-25 -8 -57 -8v-54q137 0 178 106q20 54 20 134v127
q-2 201 -176 202h-111zM365 666q0 -41 37 -62q17 -10 36 -10q43 0 64 38q9 16 9 34q0 43 -38 64q-17 9 -35 9q-43 0 -64 -38q-9 -17 -9 -35zM50 769q0 -41 37 -62q17 -10 36 -10q43 0 64 38q9 16 9 34q0 43 -38 64q-17 9 -35 9q-43 0 -64 -38q-9 -17 -9 -35z" />
    <glyph glyph-name="si_U" unicode="&#xd8b;" horiz-adv-x="547" 
d="M324 -115q148 0 187 110q4 12 7 23l51 -14q-32 -153 -206 -170q-19 -2 -39 -2v53zM128 464q21 67 103 96q41 15 85 15q103 0 158 -69q36 -46 39 -112v-50h-245q-127 0 -166 -94q-19 -48 -19 -117v-48q0 -129 114 -182q42 -19 71 -19v-53q-87 0 -157 63q-81 74 -81 191v48
q2 263 238 264h192q-9 91 -91 118q-25 8 -52 8q-73 0 -117 -41q-18 -16 -24 -36z" />
    <glyph glyph-name="si_Uu" unicode="&#xd8c;" horiz-adv-x="938" 
d="M324 -115q148 0 187 110q4 12 7 23l51 -14q-32 -153 -206 -170q-19 -2 -39 -2v53zM128 464q21 67 103 96q41 15 85 15q103 0 158 -69q36 -46 39 -112v-50h-245q-127 0 -166 -94q-19 -48 -19 -117v-48q0 -129 114 -182q42 -19 71 -19v-53q-87 0 -157 63q-81 74 -81 191v48
q2 263 238 264h192q-9 91 -91 118q-25 8 -52 8q-73 0 -117 -41q-18 -16 -24 -36zM739 -8q-88 0 -137 58q-35 42 -35 101v51h51v-52q0 -64 63 -92q28 -12 60 -12q68 0 101 46q17 26 17 58v310q0 40 -36 50q-7 2 -14 2q-35 0 -46 -31q-4 -10 -4 -21v-51q0 -66 -54 -91
q-20 -8 -41 -8q-55 0 -82 45q-15 25 -15 58v151h47v-147q0 -39 34 -50q8 -2 16 -2q33 0 46 30q4 10 4 22v48q0 68 55 93q20 9 42 9q56 0 84 -46q15 -26 15 -60v-310q0 -95 -81 -137q-41 -22 -90 -22z" />
    <glyph glyph-name="si_vocalicR" unicode="&#xd8d;" horiz-adv-x="973" 
d="M805 0q69 0 111 55q29 38 29 85v259q0 129 -84 158q-22 8 -48 8h-90v-51h90q60 0 76 -72q5 -21 5 -45v-257q0 -51 -43 -77q-22 -13 -46 -13q-49 0 -76 42q-14 23 -14 48q0 50 44 76q22 13 46 13h36v50h-36q-73 0 -115 -59q-25 -37 -25 -80q0 -72 58 -113q37 -27 82 -27z
M30 143q0 -81 68 -121q39 -23 88 -23q85 0 128 61q1 2 2 3q44 -63 131 -64q86 0 130 60q26 37 26 84v50h-53v-48q0 -67 -62 -87q-20 -6 -42 -6q-73 0 -96 53q-8 18 -8 40v48h-51v-48q0 -68 -64 -87q-19 -6 -41 -6q-73 0 -96 53q-7 19 -7 40v48h-53v-50zM37 475l49 -17
q22 56 103 57q73 0 95 -62q7 -19 7 -40v-11h-140q-108 0 -119 -87q-2 -13 -2 -28v-45h53v42q0 62 55 67q7 1 15 1h327q58 0 68 -45q2 -11 2 -23v-42h53v45q0 92 -74 110q-21 5 -47 5h-140v11q0 65 50 90q22 12 52 12q81 -1 103 -57l49 17q-37 89 -152 90q-81 0 -122 -53
q-3 -5 -6 -9q-42 61 -128 62q-110 0 -147 -81q-2 -5 -4 -9z" />
    <glyph glyph-name="si_vocalicRr" unicode="&#xd8e;" horiz-adv-x="1312" 
d="M30 143q0 -81 68 -121q39 -23 88 -23q85 0 128 61q1 2 2 3q44 -63 131 -64q86 0 130 60q26 37 26 84v50h-53v-48q0 -67 -62 -87q-20 -6 -42 -6q-73 0 -96 53q-8 18 -8 40v48h-51v-48q0 -68 -64 -87q-19 -6 -41 -6q-73 0 -96 53q-7 19 -7 40v48h-53v-50zM37 475l49 -17
q22 56 103 57q73 0 95 -62q7 -19 7 -40v-11h-140q-108 0 -119 -87q-2 -13 -2 -28v-45h53v42q0 62 55 67q7 1 15 1h327q58 0 68 -45q2 -11 2 -23v-42h53v45q0 92 -74 110q-21 5 -47 5h-140v11q0 65 50 90q22 12 52 12q81 -1 103 -57l49 17q-37 89 -152 90q-81 0 -122 -53
q-3 -5 -6 -9q-42 61 -128 62q-110 0 -147 -81q-2 -5 -4 -9zM805 0q69 0 111 55q29 38 29 85v259q0 129 -84 158q-22 8 -48 8h-90v-51h90q60 0 76 -72q5 -21 5 -45v-257q0 -51 -43 -77q-22 -13 -46 -13q-49 0 -76 42q-14 23 -14 48q0 50 44 76q22 13 46 13h36v50h-36
q-73 0 -115 -59q-25 -37 -25 -80q0 -72 58 -113q37 -27 82 -27zM1144 0q71 0 113 56q27 38 27 84v259q0 132 -87 160q-21 6 -44 6h-91v-51h90q62 0 78 -75q4 -19 4 -42l-1 -257q0 -51 -43 -77q-22 -13 -46 -13q-50 0 -76 44q-13 22 -13 46q0 50 42 76q22 13 47 13h36v50h-36
q-73 0 -115 -59q-25 -37 -25 -80q0 -71 58 -113q38 -27 82 -27z" />
    <glyph glyph-name="si_vocalicL" unicode="&#xd8f;" horiz-adv-x="896" 
d="M418 -7h61q155 1 210 66q7 -41 46 -58q15 -7 31 -7q45 0 68 39q1 1 1 2q31 61 31 167h-52q0 -34 -6 -65q-21 12 -42 12q-24 -1 -43 -13q5 31 5 58h-53q0 -105 -80 -133q-42 -15 -115 -15h-64q-127 0 -167 50q-28 35 -28 98h-53q0 -29 5 -58q-20 13 -43 13q-23 -1 -42 -13
q-6 33 -6 66h-52q0 -104 31 -165q25 -39 69 -43q46 0 68 40q7 12 9 25q56 -66 211 -66zM168 243h53q0 73 42 95q27 14 71 14h225q89 0 108 -49q8 -22 8 -60h53q0 118 -81 147q-36 12 -90 12h-83v11q0 65 50 90q22 12 52 12q81 -1 102 -57l33 11q11 3 25 3q70 0 77 -88
q1 -10 1 -20v-113h52v115q0 105 -65 143q-28 16 -61 16q-17 0 -40 -5q-44 45 -124 45q-81 0 -122 -53q-3 -5 -6 -9q-43 59 -128 62q-80 -1 -124 -45q-23 5 -40 5q-77 0 -109 -72q-17 -38 -17 -87v-115h52v113q9 101 78 108q14 0 24 -3l34 -11q22 56 102 57q73 0 95 -62
q7 -19 7 -40v-11h-90q-140 0 -160 -113q-4 -21 -4 -46z" />
    <glyph glyph-name="si_vocalicLL" unicode="&#xd90;" horiz-adv-x="1297" 
d="M30 202q0 -104 31 -165q25 -39 69 -43q46 0 68 40q7 12 9 25q56 -66 211 -66h61q155 1 210 66q7 -41 46 -58q15 -7 31 -7q45 0 68 39q1 1 1 2q31 61 31 167h-52q0 -34 -6 -65q-21 12 -42 12q-24 -1 -43 -13q5 31 5 58h-53q0 -105 -80 -133q-42 -15 -115 -15h-64
q-127 0 -167 50q-28 35 -28 98h-53q0 -29 5 -58q-20 13 -43 13q-23 -1 -42 -13q-6 33 -6 66h-52zM168 243h53q0 73 42 95q27 14 71 14h225q89 0 108 -49q8 -22 8 -60h53q0 118 -81 147q-36 12 -90 12h-83v11q0 65 50 90q22 12 52 12q81 -1 102 -57l33 11q11 3 25 3
q70 0 77 -88q1 -10 1 -20v-113h52v115q0 105 -65 143q-28 16 -61 16q-17 0 -40 -5q-44 45 -124 45q-81 0 -122 -53q-3 -5 -6 -9q-43 59 -128 62q-80 -1 -124 -45q-23 5 -40 5q-77 0 -109 -72q-17 -38 -17 -87v-115h52v113q9 101 78 108q14 0 24 -3l34 -11q22 56 102 57
q73 0 95 -62q7 -19 7 -40v-11h-90q-140 0 -160 -113q-4 -21 -4 -46zM1098 -8q88 0 137 58q35 42 35 101v310q-1 71 -57 97q-20 9 -42 9q-56 0 -83 -45q-15 -25 -15 -57v-48q0 -39 -34 -50q-8 -2 -16 -2q-33 0 -46 30q-4 10 -4 22v147h-47v-151q0 -69 56 -94q20 -9 41 -9
q55 0 82 44q14 24 14 55v51q0 40 35 50q7 2 14 2q35 0 46 -31q4 -10 4 -21v-310q0 -68 -64 -94q-26 -10 -54 -10q-68 0 -103 45q-19 26 -19 59v52h-52v-51q0 -94 80 -137q42 -22 92 -22z" />
    <glyph glyph-name="si_E" unicode="&#xd91;" horiz-adv-x="591" 
d="M76 399l46 -12q23 43 77 46q53 0 78 -40q12 -19 12 -43h-259v-48h81q-39 -44 -39 -111q0 -89 65 -144q57 -48 143 -48v54q-101 0 -139 76q-14 29 -14 63q0 66 43 96q21 14 46 14h121v51q-1 62 -42 96q-38 33 -95 33q-74 0 -109 -50q-10 -15 -15 -33zM454 463v46
q-86 1 -112 69q-9 25 -9 56v68q122 0 156 -88q17 -44 17 -116v-256q-5 -186 -171 -189v-54q196 0 222 181q4 29 4 62v275q0 226 -205 237q-12 1 -23 1h-45v-121q0 -109 79 -151q38 -19 87 -20z" />
    <glyph glyph-name="si_Ee" unicode="&#xd92;" horiz-adv-x="591" 
d="M30 302h81q-39 -44 -39 -111q0 -89 65 -144q57 -48 143 -48v54q-101 0 -139 76q-14 29 -14 63q0 66 43 96q21 14 46 14h121v51q-1 62 -42 96q-38 33 -95 33q-74 0 -109 -50q-10 -15 -15 -33l46 -12q23 43 77 46q53 0 78 -40q12 -19 12 -43h-259v-48zM288 634
q0 -109 79 -151q38 -19 87 -20v46q-86 1 -112 69q-9 25 -9 56v68q122 0 156 -88q17 -44 17 -116v-256q-5 -186 -171 -189v-54q196 0 222 181q4 29 4 62v275v1v301h-54v-126q-57 62 -174 62h-45v-121z" />
    <glyph glyph-name="si_Ai" unicode="&#xd93;" horiz-adv-x="1038" 
d="M249 512q107 0 124 -94l51 13q-8 60 -57 100q-42 33 -97 33h-62q-131 0 -167 -118q-11 -36 -11 -75v-173q0 -137 78 -183q34 -20 80 -20h21v52q-103 0 -122 93q-5 25 -5 58v173q8 136 129 141h38zM233 302h78q49 0 60 -29q4 -11 4 -27v-91q-2 -107 -118 -108v-52h23
q101 0 134 88q13 34 13 74v98q0 91 -88 98q-9 1 -19 1h-87v-52zM523 399l46 -12q23 43 77 46q53 0 78 -40q12 -19 12 -43h-259v-48h81q-39 -44 -39 -111q0 -89 65 -144q57 -48 143 -48v54q-101 0 -139 76q-14 29 -14 63q0 66 43 96q21 14 46 14h121v51q-1 62 -42 96
q-38 33 -95 33q-74 0 -109 -50q-10 -15 -15 -33zM901 463v46q-86 1 -112 69q-9 25 -9 56v68q122 0 156 -88q17 -44 17 -116v-256q-5 -186 -171 -189v-54q196 0 222 181q4 29 4 62v275q0 226 -205 237q-11 1 -23 1h-45v-121q0 -109 79 -151q38 -19 87 -20z" />
    <glyph glyph-name="si_Os" unicode="&#xd94;" horiz-adv-x="583" 
d="M175 -1q78 1 117 56q38 -55 116 -56q88 0 126 64q19 33 19 74v378q0 170 -108 218q-52 22 -130 22v-53q125 0 163 -77q21 -43 21 -112v-370q0 -46 -34 -73q-25 -18 -58 -18q-63 0 -85 58q-6 17 -6 33v50h-49v-50q0 -46 -34 -73q-24 -19 -57 -19q-64 0 -85 58q-7 18 -7 34
v218q0 47 39 62q11 4 22 4q39 0 55 -34q5 -13 5 -28v-54q0 -55 50 -75q16 -6 33 -6q52 0 75 41q11 19 11 43v155h-47v-150q0 -29 -29 -35q-5 -1 -9 -1q-30 0 -37 26q-1 5 -1 10v50q0 73 -60 100q-22 10 -47 10q-60 0 -93 -47q-21 -30 -21 -69v-226q0 -83 67 -120
q35 -18 78 -18zM87 550q0 83 74 126q44 26 97 26v53q-92 0 -160 -59q-62 -56 -63 -133z" />
    <glyph glyph-name="si_Oo" unicode="&#xd95;" horiz-adv-x="583" 
d="M175 -1q78 1 117 56q38 -55 116 -56q88 0 126 64q19 33 19 74v337q0 113 -68 152q-49 26 -137 26h-161q-49 0 -63 39q-3 10 -3 20q0 38 36 53q14 5 30 5h85v50h-87q-65 0 -99 -49q-18 -25 -18 -53q1 -41 27 -65h-35v-52h288q97 0 127 -38q24 -31 24 -98v-321
q0 -46 -34 -73q-25 -18 -58 -18q-63 0 -85 58q-6 17 -6 33v50h-49v-50q0 -46 -34 -73q-24 -19 -57 -19q-64 0 -85 58q-7 18 -7 34v218q0 47 39 62q11 4 22 4q39 0 55 -34q5 -13 5 -28v-54q0 -56 50 -75q17 -6 34 -6q51 0 74 40q11 20 11 44v155h-47v-150q0 -29 -29 -35
q-5 -1 -9 -1q-30 0 -37 26q-1 5 -1 10v50q0 73 -60 100q-22 10 -47 10q-60 0 -93 -47q-21 -30 -21 -69v-226q0 -83 67 -120q35 -18 78 -18zM497 673h52q0 78 -32 110q-38 36 -126 36h-64v-50h60q63 0 83 -17q27 -22 27 -79z" />
    <glyph glyph-name="si_Au" unicode="&#xd96;" horiz-adv-x="1001" 
d="M175 -1q78 1 117 56q38 -55 116 -56q88 0 126 64q19 33 19 74v378q0 170 -108 218q-52 22 -130 22v-53q125 0 163 -77q21 -43 21 -112v-370q0 -46 -34 -73q-25 -18 -58 -18q-63 0 -85 58q-6 17 -6 33v50h-49v-50q0 -46 -34 -73q-24 -19 -57 -19q-64 0 -85 58q-7 18 -7 34
v218q0 47 39 62q11 4 22 4q39 0 55 -34q5 -13 5 -28v-54q0 -55 50 -75q16 -6 33 -6q52 0 75 41q11 19 11 43v155h-47v-150q0 -29 -29 -35q-5 -1 -9 -1q-30 0 -37 26q-1 5 -1 10v50q0 73 -60 100q-22 10 -47 10q-60 0 -93 -47q-21 -30 -21 -69v-226q0 -83 67 -120
q35 -18 78 -18zM87 550q0 83 74 126q44 26 97 26v53q-92 0 -160 -59q-62 -56 -63 -133zM802 -8q87 0 136 58q35 42 35 101v310q0 70 -56 96q-21 10 -43 10q-56 0 -83 -45q-14 -25 -14 -57v-48q0 -39 -34 -50q-8 -2 -16 -2q-33 0 -46 30q-4 10 -4 22v147h-47v-151
q0 -69 56 -94q20 -9 41 -9q56 0 82 45q13 24 13 54v51q0 40 36 50q7 2 14 2q35 0 46 -31q4 -10 4 -21v-310q0 -68 -64 -94q-26 -10 -54 -10q-68 0 -103 45q-20 26 -20 59v52h-51v-51q0 -94 80 -137q42 -22 92 -22z" />
    <glyph glyph-name="si_Ka" unicode="&#xd9a;" horiz-adv-x="765" 
d="M33 450l49 -15q36 70 101 76q56 0 85 -41q5 -7 8 -13l-246 -209v-57q6 3 14 3q21 -1 21 -51v-30q0 -69 59 -102q29 -16 62 -16q56 1 92 41q44 -40 104 -40q70 0 105 52q19 30 19 69v120q0 112 -80 146q-21 8 -50 14l-46 -39q84 -15 107 -48q18 -27 18 -75v-115
q0 -46 -46 -64q-17 -6 -35 -6q-50 0 -67 40q-5 14 -5 30v73h-48v-73q0 -53 -44 -67q-11 -3 -21 -3q-44 0 -64 35q-9 16 -9 35v51q-1 35 -25 57l268 229q61 52 141 52q92 0 144 -68q38 -52 38 -128v-119q0 -121 -82 -138q-18 -4 -43 -4v-53q129 0 163 89q15 41 15 106v121
q0 154 -106 217q-53 30 -119 30q-107 -1 -192 -70l-1 -1q-25 52 -91 69q-21 5 -42 5q-84 0 -129 -70q-14 -21 -22 -45z" />
    <glyph glyph-name="si_Kha" unicode="&#xd9b;" horiz-adv-x="591" 
d="M416 -5q76 0 117 58q28 40 28 96v363q0 201 -151 235q-34 8 -75 8h-14v-53h14q141 0 165 -125q6 -30 6 -65v-366q0 -62 -54 -84q-18 -7 -38 -7q-55 0 -81 42q-13 22 -13 49v140q0 99 -73 140q-33 18 -71 18q-73 0 -115 -57q-31 -42 -31 -104v-104q0 -134 92 -166
q37 -13 89 -13v53q-87 0 -113 48q-15 30 -15 79v101q0 71 53 97q18 9 39 9q52 0 78 -46q14 -26 14 -60v-346h53v92q42 -32 96 -32zM95 550q0 83 74 127q44 25 96 25v53q-91 0 -158 -59q-63 -56 -64 -133z" />
    <glyph glyph-name="si_Ga" unicode="&#xd9c;" 
d="M217 -8v53q-96 0 -124 95q-10 33 -10 74v127q0 138 92 165q20 5 42 5v53q-120 0 -165 -105q-22 -50 -22 -117v-128q0 -143 89 -197q42 -25 98 -25zM487 -8q124 0 168 110q19 49 20 112v128q-1 147 -93 199q-41 23 -95 23v-53q108 0 130 -113q5 -27 5 -57v-127
q0 -128 -84 -160q-23 -9 -51 -9v-53zM252 267h51q88 -1 88 -110q-2 -111 -118 -112v-53q125 0 159 92q10 29 10 64v23q0 98 -66 132q-27 13 -62 13h-8v44q0 122 85 146q19 5 40 5v53q-128 0 -166 -115q-13 -40 -13 -90v-92z" />
    <glyph glyph-name="si_Gha" unicode="&#xd9d;" horiz-adv-x="678" 
d="M208 -1q124 2 125 133q7 25 29 27q27 -7 29 -27q2 -132 125 -133q70 0 108 55q24 37 24 87v52h-53v-50q0 -64 -48 -87q-16 -7 -33 -7q-71 0 -80 70q-1 13 -1 26q0 48 -39 57q-12 2 -26 2h-11q-56 0 -64 -39q-2 -10 -2 -21q0 -85 -64 -94q-8 -1 -17 -1q-48 0 -70 44
q-11 23 -11 50v50h-53v-52q0 -88 67 -125q30 -17 65 -17zM83 475l49 -17q23 56 103 57q73 0 95 -62q7 -19 7 -40v-11h-307v-50h71q-25 -14 -25 -66v-44h53v41q0 63 55 68q7 1 15 1h326q58 0 68 -44q2 -12 2 -25v-41h53v45q0 87 -65 108q-24 7 -56 7h-138v11q0 65 50 90
q22 12 52 12q81 -1 102 -57l50 17q-37 89 -152 90q-84 0 -125 -57q-2 -3 -3 -5q-43 59 -128 62q-116 -1 -152 -90z" />
    <glyph glyph-name="si_Nga" unicode="&#xd9e;" horiz-adv-x="582" 
d="M176 -1q78 1 115 56q40 -55 117 -56q85 0 124 62q20 33 20 76v378q0 177 -120 222q-48 18 -116 18v-53q125 0 162 -81q19 -43 19 -109v-369q0 -46 -34 -73q-24 -18 -57 -18q-65 0 -86 60q-5 16 -5 31v50h-49v-50q0 -46 -34 -73q-23 -18 -56 -18q-65 0 -86 59q-6 17 -6 32
v84q0 45 27 60q29 15 98 15h46q66 0 91 55q9 20 9 43q0 56 -45 82q-24 14 -55 14h-82q-116 -6 -120 -97h48q0 43 57 48q8 1 16 1h84q39 0 49 -33q2 -7 2 -14q0 -34 -31 -47q-11 -4 -23 -4h-93q-115 0 -129 -93q-3 -16 -3 -34v-86q0 -84 68 -120q35 -18 78 -18zM35 563
l52 -13q0 81 74 125q45 27 98 27v53q-90 0 -158 -58q-65 -56 -66 -134z" />
    <glyph glyph-name="si_Nnga" unicode="&#xd9f;" horiz-adv-x="852" 
d="M30 209q0 -99 22 -150q15 -34 43 -70l54 19q-56 67 -64 131q-3 24 -3 70v78q0 110 24 156q36 66 126 68q-55 -60 -55 -169v-128q0 -143 89 -197q42 -25 98 -25v53q-96 0 -124 95q-10 33 -10 74v127q0 138 92 165q20 5 42 5v53h-99q-160 0 -207 -100q-28 -59 -28 -177v-78
zM634 -8q124 0 168 110q19 49 20 112v128q-1 147 -93 199q-41 23 -95 23v-53q108 0 130 -113q5 -27 5 -57v-127q0 -128 -84 -160q-23 -9 -51 -9v-53zM399 267h51q88 -1 88 -110q-2 -111 -118 -112v-53q129 0 160 96q9 28 9 60v23q0 98 -66 132q-27 13 -62 13h-8v44
q0 122 85 146q19 5 40 5v53q-128 0 -166 -115q-13 -40 -13 -90v-92z" />
    <glyph glyph-name="si_Ca" unicode="&#xda0;" horiz-adv-x="592" 
d="M280 -1v53q-101 0 -139 76q-14 30 -14 64q0 64 42 95q21 15 47 15h121v51q-1 62 -42 96q-38 33 -95 33q-74 0 -109 -50q-10 -15 -15 -33l46 -12q23 43 77 46q53 0 78 -40q12 -19 12 -43h-259v-48h81q-39 -44 -39 -111q0 -89 65 -144q57 -48 143 -48zM336 -1
q196 0 222 181q4 29 4 62v273q0 205 -162 235q-30 5 -64 5v-53q145 0 168 -132q4 -26 4 -58v-270q-2 -189 -172 -190v-53zM121 550q0 75 65 121q44 31 94 31v53q-81 0 -146 -58q-64 -58 -65 -134z" />
    <glyph glyph-name="si_Cha" unicode="&#xda1;" horiz-adv-x="625" 
d="M282 -7h61q175 0 224 87q25 44 25 114v71q-7 42 -48 45h-104q-56 0 -87 47q-17 26 -17 56q0 56 47 87q27 17 57 17q57 0 87 -48q5 -8 8 -15l47 11q-22 65 -86 90q-27 11 -56 11q-9 0 -14 -1l157 207l-53 14l-208 -274q-7 -7 -11 -14q-34 62 -119 67h-10q-113 0 -149 -84
q-2 -3 -3 -6l49 -17q23 56 103 57q76 0 96 -71q6 -20 6 -42h-88q-140 0 -160 -113q-4 -21 -4 -46h53q0 73 43 95q27 14 71 14h98q28 -64 96 -85q23 -7 47 -7h99v-66q0 -105 -80 -133q-42 -15 -115 -15h-63q-127 0 -168 49q-28 36 -28 99h-53q0 -133 94 -176q57 -25 156 -25z
" />
    <glyph glyph-name="si_Ja" unicode="&#xda2;" horiz-adv-x="624" 
d="M31 475l49 -17q22 56 103 57q73 0 95 -62q7 -19 7 -40v-11h-90q-140 0 -160 -113q-4 -21 -4 -46h53q0 71 39 94q27 15 74 15h225q88 0 108 -49q8 -22 8 -60h53q0 118 -81 147q-36 12 -90 12h-84v11q0 65 50 90q23 12 52 12q82 -1 103 -57l49 17q-39 87 -152 90
q-11 0 -18 -1l158 208l-53 14l-204 -270q-5 -6 -8 -11l-2 -2q-43 59 -128 62q-113 0 -149 -84q-2 -3 -3 -6zM280 -7h61q176 0 226 88q24 44 24 113h-53q0 -106 -83 -134q-42 -14 -113 -14h-63q-125 0 -166 48q-29 35 -29 100h-53q0 -133 93 -175q57 -26 156 -26z" />
    <glyph glyph-name="si_Jha" unicode="&#xda3;" horiz-adv-x="1108" 
d="M30 191q6 3 14 3q21 -1 21 -51v-30q0 -69 59 -102q29 -16 62 -16q56 1 92 41q44 -40 104 -40q70 0 105 52q19 30 19 69v120q0 112 -80 146q-21 8 -50 14l-46 -39q84 -15 107 -48q18 -27 18 -75v-115q0 -46 -46 -64q-17 -6 -35 -6q-50 0 -67 40q-5 14 -5 30v73h-48v-73
q0 -53 -44 -67q-11 -3 -21 -3q-44 0 -64 35q-9 16 -9 35v51q-1 35 -25 57l268 229q83 69 182 69q91 -1 136 -57q-86 -20 -112 -108q-9 -29 -9 -60v-164q0 -84 68 -120q35 -18 78 -18q78 1 115 56q40 -55 117 -56q85 0 124 62q20 33 20 76v378q0 180 -125 224q-47 16 -112 16
v-53q127 0 163 -82q19 -43 19 -108v-369q0 -45 -34 -72q-24 -19 -58 -19q-65 0 -85 60q-5 16 -5 31v50h-49v-50q0 -46 -34 -73q-23 -18 -56 -18q-65 0 -86 59q-6 17 -6 32v153q0 72 49 107q32 23 81 23h20q-31 112 -141 142q-34 9 -71 9q-121 -1 -226 -81l-6 -5
q-23 51 -88 68q-22 6 -44 6q-84 0 -129 -70q-14 -21 -22 -45l49 -15q36 70 101 76q57 0 87 -44l6 -10l-246 -209v-57zM585 642l52 -19q21 63 110 76q19 3 37 3v53q-100 0 -161 -57q-26 -25 -38 -56z" />
    <glyph glyph-name="si_Nya" unicode="&#xda4;" horiz-adv-x="1120" 
d="M173 191q7 3 14 3q21 -1 21 -51v-30q0 -69 59 -102q29 -16 62 -16q56 1 92 41q44 -40 105 -40q70 0 105 52q11 18 16 39q54 -81 181 -87h15h39q96 0 157 63q29 32 45 75l-49 13q-46 -98 -153 -99h-39q-119 0 -158 80q-14 31 -14 67q0 101 83 136q34 14 79 14h186v41
q0 148 -154 189q-49 13 -106 13v-53q178 0 203 -104q4 -16 4 -34h-124q-142 0 -199 -92q-1 -3 -2 -4q-20 67 -104 88l-18 4l-46 -39q84 -15 107 -48q18 -27 18 -75v-115q0 -45 -46 -63q-17 -7 -34 -7q-50 0 -67 39q-6 15 -6 31v73h-48v-73q0 -53 -44 -67q-11 -3 -21 -3
q-44 0 -64 35q-9 16 -9 35v51q-1 35 -25 57l268 229q99 82 202 82v53q-115 -1 -239 -97l-5 -4q-25 52 -92 69q-21 5 -41 5q-82 -1 -128 -68q-17 3 -33 3q-87 0 -120 -84q-16 -41 -16 -98v-124q0 -99 24 -152q15 -33 42 -68l54 19q-57 67 -65 132q-3 24 -3 69v124
q0 112 66 128q9 2 19 2q12 0 25 -3l33 -10q34 72 102 76q55 0 85 -42q5 -6 8 -12l-247 -209v-57zM948 -204q89 0 140 61q24 29 32 66l-51 13q-16 -65 -81 -84q-18 -5 -37 -5q-65 0 -100 46q-21 27 -21 62h-53q0 -94 79 -137q42 -22 92 -22z" />
    <glyph glyph-name="si_Jnya" unicode="&#xda5;" horiz-adv-x="1055" 
d="M778 -1h39q96 0 157 63q29 32 45 75l-49 13q-46 -98 -153 -99h-39q-116 0 -156 79q-15 30 -15 67q0 105 100 130q28 7 61 7h186v41q-1 198 -260 198v-54q176 0 203 -98q4 -17 4 -35h-125q-152 0 -202 -95q-7 -12 -11 -25q-34 49 -102 50h-8v44q0 104 91 142q38 16 86 17
h9v54h-9q-138 -2 -197 -90q-34 -51 -34 -124v-92h51q88 -1 88 -110q-2 -111 -118 -112v-53q123 0 157 88q2 6 4 11q52 -82 172 -91q13 -1 25 -1zM30 207q0 -99 24 -152q15 -33 42 -68l54 19q-57 67 -65 132q-3 24 -3 69v80q0 110 24 156q36 66 126 68q-55 -60 -55 -169v-128
q0 -143 89 -197q42 -25 98 -25v53q-96 0 -124 95q-10 33 -10 74v127q0 138 92 165q20 5 42 5v53h-99q-160 0 -207 -100q-28 -59 -28 -177v-80zM883 -205q89 0 140 61q24 29 32 66l-51 13q-16 -65 -81 -84q-18 -5 -37 -5q-65 0 -100 46q-21 27 -21 62h-53q0 -94 79 -137
q42 -22 92 -22z" />
    <glyph glyph-name="si_Ndja" unicode="&#xda6;" horiz-adv-x="773" 
d="M429 -7h61q175 0 224 87q25 44 25 114h-53q0 -105 -80 -133q-42 -15 -115 -15h-63q-127 0 -168 49q-28 36 -28 99h-53q0 -133 94 -176q57 -25 156 -25zM96 -12l53 19q-56 67 -64 132q-3 24 -3 68v137q0 113 69 126q9 2 17 2q18 0 33 -4l28 -10q22 56 103 57q73 0 95 -62
q7 -19 7 -40v-11h-91q-136 0 -158 -107q-5 -24 -5 -52h52q0 73 43 95q27 14 71 14h225q88 0 108 -49q8 -22 8 -60h52q0 118 -81 147q-36 12 -90 12h-83v11q0 65 50 90q23 12 52 12q82 -1 103 -57l49 17q-39 87 -152 90q-12 0 -18 -1l158 208l-53 14l-199 -263q-7 -7 -16 -20
q-42 61 -128 62q-78 -1 -122 -44q-18 4 -43 4q-88 0 -120 -83q-16 -40 -16 -95v-140q0 -97 22 -148q15 -34 44 -71z" />
    <glyph glyph-name="si_Tta" unicode="&#xda7;" horiz-adv-x="552" 
d="M36 269q0 112 74 166q51 36 130 36v-53q-108 0 -140 -87q-10 -28 -10 -62v-66q0 -82 60 -125q39 -26 90 -26v-53q-125 0 -178 100q-26 48 -26 102v68zM296 -1v53q161 0 171 167q1 11 1 23v271q0 168 -134 187q-18 2 -38 2v53q185 0 218 -156q8 -37 8 -84v-275
q0 -230 -206 -241h-20zM30 563q0 86 78 145q62 47 132 47v-53q-70 0 -119 -54q-39 -43 -39 -98z" />
    <glyph glyph-name="si_Ttha" unicode="&#xda8;" horiz-adv-x="593" 
d="M188 -1q78 1 115 56q38 -55 117 -56q86 0 124 63q19 33 19 75v380q0 226 -205 237q-11 1 -23 1h-45v-121q0 -108 78 -150q38 -20 88 -21v46q-86 1 -112 69q-9 25 -9 56v68q122 0 156 -88q17 -44 17 -116v-355q0 -46 -34 -73q-24 -18 -57 -18q-65 0 -85 60q-5 16 -5 31v50
h-50v-50q0 -46 -34 -73q-23 -18 -56 -18q-64 0 -85 59q-6 17 -6 32v153q0 75 51 109q32 21 79 21h37v53h-37q-130 0 -171 -102q-14 -36 -14 -76v-164q0 -83 68 -120q35 -18 79 -18z" />
    <glyph glyph-name="si_Dda" unicode="&#xda9;" horiz-adv-x="625" 
d="M220 -1q78 1 115 56q38 -55 117 -56q86 0 124 63q19 33 19 75v378q0 181 -125 225q-45 15 -107 15v-53q127 0 162 -90q15 -41 15 -100v-369q0 -46 -34 -73q-24 -18 -57 -18q-65 0 -85 60q-5 16 -5 31v50h-50v-50q0 -46 -34 -73q-23 -18 -56 -18q-64 0 -85 59q-6 17 -6 32
v90q0 62 55 67q7 1 15 1h161v52q-1 61 -42 96q-38 33 -96 33q-72 0 -108 -49q-11 -16 -16 -34l47 -12q23 43 77 46q53 0 78 -40q11 -19 12 -43h-281v-49h69q-25 -14 -25 -68v-96q0 -84 68 -120q35 -18 78 -18zM83 563l52 -13q0 82 74 126q45 26 98 26v53q-91 0 -160 -59
q-63 -56 -64 -133z" />
    <glyph glyph-name="si_Ddha" unicode="&#xdaa;" horiz-adv-x="625" 
d="M220 -1q78 1 115 56q38 -55 117 -56q86 0 124 63q19 33 19 75v380q0 226 -205 237q-12 1 -23 1h-45v-121q0 -108 78 -150q38 -20 88 -21v46q-86 1 -112 69q-9 25 -9 56v68q122 0 156 -88q17 -44 17 -116v-355q0 -46 -34 -73q-24 -18 -57 -18q-65 0 -85 60q-5 16 -5 31v50
h-50v-50q0 -46 -34 -73q-23 -18 -56 -18q-64 0 -85 59q-6 17 -6 32v90q0 62 55 67q7 1 15 1h161v52q-1 61 -42 96q-38 33 -96 33q-72 0 -108 -49q-11 -16 -16 -34l47 -12q23 43 77 46q53 0 78 -40q11 -19 12 -43h-281v-49h69q-25 -14 -25 -68v-96q0 -84 68 -120
q35 -18 78 -18z" />
    <glyph glyph-name="si_Nna" unicode="&#xdab;" horiz-adv-x="970" 
d="M9 8l51 -13q21 46 87 46q30 0 91 -23q49 -18 83 -18q68 0 116 50q48 51 48 135v193q-1 128 -69 185l156 207l-59 15l-147 -194q-44 15 -96 15q-103 0 -164 -69q-49 -56 -49 -139q0 -108 73 -166q48 -38 107 -38h68v52h-47q-113 0 -142 102q-7 25 -7 50q0 61 38 106
q44 50 123 50q112 0 148 -92q14 -37 14 -84v-193q0 -94 -73 -123q-21 -8 -42 -8q-27 0 -85 22q-49 18 -88 18q-94 -2 -135 -86zM675 243h52v181q0 59 48 79q16 6 32 6q50 0 71 -43q9 -19 9 -42v-181h53v185q0 88 -69 122q-30 14 -63 14q-66 0 -103 -49q-2 -3 -3 -5
q-38 52 -105 54q-50 -1 -85 -30l23 -51q24 26 60 26q48 0 70 -42q10 -21 10 -46v-178zM537 161q0 -95 87 -141q51 -27 115 -27q100 0 158 60q43 45 43 110v31h-53v-31q0 -72 -74 -103q-35 -14 -75 -14q-82 0 -124 49q-24 30 -24 69v30h-53v-33z" />
    <glyph glyph-name="si_Nndda" unicode="&#xdac;" horiz-adv-x="736" 
d="M331 -1q78 1 115 56q38 -55 117 -56q86 0 124 63q19 33 19 75v378q0 180 -124 224q-45 16 -109 16v-53q127 0 162 -89q16 -41 16 -101v-369q0 -46 -34 -73q-24 -18 -57 -18q-65 0 -85 60q-5 16 -5 31v50h-50v-50q0 -46 -34 -73q-23 -18 -56 -18q-64 0 -85 59q-6 17 -6 32
v87q0 63 55 68q7 1 15 1h161v52q0 80 -68 114q-34 17 -73 17q-62 -1 -99 -37q-26 8 -54 8q-86 0 -125 -71q-21 -40 -21 -94v-119q0 -84 25 -133q13 -23 31 -47l53 20q-52 61 -57 124q-1 15 -1 33v118q0 87 60 109q16 6 37 6q23 0 50 -7l22 -7q23 44 79 46q53 0 79 -40
q11 -20 12 -44h-277l1 -48h66q-25 -16 -25 -69v-93q0 -84 68 -120q35 -18 78 -18zM194 563l52 -13q0 83 74 126q45 26 97 26v53q-90 0 -158 -58q-64 -56 -65 -134z" />
    <glyph glyph-name="si_Ta" unicode="&#xdad;" horiz-adv-x="761" 
d="M30 191q6 1 13 1q25 0 44 -38q3 -6 9 -19q12 -25 19 -38q57 -97 182 -102h15q124 0 173 93q23 44 23 100q0 112 -49 160q-33 33 -89 47l-45 -39q101 -22 122 -87q9 -27 9 -79q0 -86 -65 -123q-34 -19 -80 -19q-106 0 -155 80q-8 14 -22 43q-23 49 -41 60l266 227
q61 50 139 50q94 0 145 -71q35 -50 35 -124v-119q0 -120 -79 -138q-19 -4 -46 -4v-53q129 0 163 89q15 41 15 106v121q0 153 -106 215q-52 31 -118 31q-90 -1 -170 -55q-34 46 -99 57q-13 2 -25 2q-84 0 -130 -70q-13 -21 -22 -45l50 -15q24 67 88 75q7 1 13 1q53 -1 83 -38
l-265 -225v-57z" />
    <glyph glyph-name="si_Tha" unicode="&#xdae;" horiz-adv-x="546" 
d="M243 634q0 -108 78 -150q38 -20 88 -21v46q-86 1 -112 69q-9 25 -9 56v68q122 0 156 -88q17 -44 17 -116v-256q-5 -186 -171 -189v-54q190 0 220 167q6 35 6 76v275q0 226 -205 237q-12 1 -23 1h-45v-121zM30 269v-68q0 -86 56 -144t148 -58v54q-88 0 -129 69
q-21 37 -21 81v66q0 97 73 133q33 16 77 16v53q-150 0 -191 -122q-13 -37 -13 -80z" />
    <glyph glyph-name="si_Da" unicode="&#xdaf;" horiz-adv-x="535" 
d="M362 -204q-89 0 -138 60q-32 42 -32 99h52q0 -64 60 -94q29 -14 62 -14q69 0 102 53q10 17 15 36l52 -13q-19 -83 -100 -114q-35 -13 -73 -13zM30 199q0 132 110 181q50 22 116 22h126q0 81 -73 112q-30 13 -66 13q-72 0 -109 -50q-13 -17 -18 -37l-49 16q21 80 103 111
q34 12 71 12q97 0 151 -66q41 -50 41 -123v-41h-186q-115 0 -150 -84q-12 -30 -12 -66q0 -93 80 -129q40 -18 92 -18h39q108 1 153 99l49 -13q-39 -109 -153 -133q-25 -5 -49 -5h-39q-128 0 -189 77q-38 50 -38 122z" />
    <glyph glyph-name="si_Dha" unicode="&#xdb0;" horiz-adv-x="582" 
d="M176 -1q78 1 115 56q40 -55 117 -56q85 0 124 62q20 33 20 76v378q0 184 -130 226q-44 14 -103 14v-53q127 0 162 -89q16 -41 16 -101v-369q0 -46 -34 -73q-24 -18 -57 -18q-65 0 -86 60q-5 16 -5 31v50h-49v-50q0 -46 -34 -73q-23 -18 -56 -18q-65 0 -86 59q-6 17 -6 32
v153q0 72 50 107q32 23 81 23h37v53h-37q-130 0 -171 -102q-14 -36 -14 -76v-164q0 -84 68 -120q35 -18 78 -18zM40 563l52 -13q0 83 74 126q44 26 97 26v53q-90 0 -158 -58q-64 -56 -65 -134z" />
    <glyph glyph-name="si_Na" unicode="&#xdb1;" horiz-adv-x="732" 
d="M523 -2q128 0 162 86q16 42 17 109v143q0 136 -104 197q-56 32 -124 32q-99 0 -161 -58l-4 -4q-30 46 -94 59q-16 3 -31 3q-85 0 -131 -72q-12 -20 -20 -43l49 -15q34 72 102 76q55 0 86 -43q3 -4 5 -8q-21 -28 -70 -93q-5 -7 -6 -8q-70 -89 -118 -97v8v74h-51v-88
q0 -148 103 -219q62 -42 141 -42q106 0 169 71q51 58 51 141q0 97 -68 154q-28 24 -64 36l-31 -42q105 -43 106 -148q0 -91 -74 -134q-40 -24 -88 -24q-94 0 -149 71q-28 37 -39 86q66 7 149 114q8 9 16 20l78 103q52 66 139 67q83 0 137 -59q43 -48 43 -117v-141
q0 -121 -81 -138q-19 -4 -45 -4v-53z" />
    <glyph glyph-name="si_Nda" unicode="&#xdb3;" horiz-adv-x="681" 
d="M404 0h39q96 0 157 63q29 32 45 75l-49 13q-46 -98 -153 -99h-39q-119 0 -158 80q-14 31 -14 67q0 101 83 136q34 14 79 14h186v39q0 119 -93 168q-45 23 -99 23q-93 0 -146 -64q-5 -6 -9 -12q-17 3 -33 3q-83 0 -131 -69q-39 -56 -39 -140v-88q0 -99 22 -150
q15 -34 43 -70l54 19q-56 67 -64 131q-3 24 -3 70v88q0 85 50 129q31 26 71 26q21 0 48 -8l11 -4q17 61 83 81q22 6 44 6q79 0 117 -53q22 -31 22 -73h-125q-142 0 -198 -91q-28 -47 -28 -111q0 -128 110 -176q52 -23 117 -23zM509 -204q89 0 140 61q24 29 32 66l-51 13
q-16 -65 -81 -84q-18 -5 -37 -5q-65 0 -100 46q-21 27 -21 62h-53q0 -94 79 -137q42 -22 92 -22z" />
    <glyph glyph-name="si_Pa" unicode="&#xdb4;" horiz-adv-x="621" 
d="M31 475l49 -17q22 56 103 57q73 0 95 -62q7 -19 7 -40v-11h-90q-140 0 -160 -113q-4 -21 -4 -46h53q0 71 39 94q27 15 74 15h225q88 0 108 -49q8 -22 8 -60h53q0 118 -81 147q-36 12 -90 12h-84v11q0 65 50 90q23 12 52 12q82 -1 103 -57l49 17q-39 87 -152 90
q-82 0 -122 -55q-3 -4 -5 -7q-43 59 -128 62q-113 0 -149 -84q-2 -3 -3 -6zM280 -7h61q176 0 226 88q24 44 24 113h-53q0 -106 -83 -134q-42 -14 -113 -14h-63q-125 0 -166 48q-29 35 -29 100h-53q0 -133 93 -175q57 -26 156 -26z" />
    <glyph glyph-name="si_Pha" unicode="&#xdb5;" horiz-adv-x="551" 
d="M238 -1v54q-92 0 -135 64q-20 31 -20 66q0 79 54 103q38 16 121 16h53v54q0 78 -69 111q-32 15 -68 15q-74 0 -109 -51q-10 -15 -15 -32l47 -12q25 42 77 46q52 0 77 -38q12 -19 12 -43q-123 0 -172 -33q-12 -8 -21 -18q-40 -41 -40 -119q0 -80 68 -135q60 -48 140 -48z
M247 634q0 -108 78 -150q38 -20 88 -21v46q-88 1 -112 73q-8 23 -8 52v68q123 0 157 -90q16 -44 16 -114v-256q-2 -188 -172 -189v-54q196 0 222 177q5 31 5 66v275q0 226 -205 237q-12 1 -23 1h-46v-121z" />
    <glyph glyph-name="si_Ba" unicode="&#xdb6;" horiz-adv-x="589" 
d="M30 178q0 -133 91 -165q37 -13 90 -13v53q-87 0 -112 47q-16 30 -16 79v103q0 71 53 96q18 9 38 9q53 0 78 -47q13 -25 13 -58v-141q0 -90 72 -128q34 -17 72 -17q78 0 120 57q30 39 30 95v364q0 224 -191 241q-17 2 -35 2h-12v-53h12q155 0 169 -156q2 -18 2 -37v-364
q0 -61 -53 -84q-19 -8 -39 -8q-55 0 -81 43q-13 22 -13 49v137q0 102 -72 144q-33 18 -70 18q-73 0 -116 -58q-30 -42 -30 -102v-106zM41 563l52 -13q0 83 74 126q44 26 97 26v53q-92 0 -160 -59q-62 -56 -63 -133z" />
    <glyph glyph-name="si_Bha" unicode="&#xdb7;" horiz-adv-x="744" 
d="M346 315v45q0 129 93 148q15 3 32 3v53q-101 -1 -146 -72q-28 59 -101 70q-13 2 -25 2q-72 0 -108 -49q-11 -16 -16 -34l47 -12q25 42 76 46q55 0 79 -41q11 -19 11 -42h-258v-51h87q-47 -43 -47 -130v-55q0 -118 77 -172q46 -32 110 -32v53q-89 0 -121 79q-13 32 -13 72
v53q0 105 78 126q24 6 56 6h36q-1 -8 -1 -22v-92h51q88 -1 88 -110q-2 -111 -118 -112v-53q127 0 159 94q9 28 9 62v23q0 107 -79 135q-25 9 -56 9zM527 -8q122 0 167 108q20 49 20 114v128q0 146 -91 198q-42 24 -96 24v-53q112 0 131 -122q3 -22 3 -47v-128
q0 -130 -85 -161q-23 -8 -49 -8v-53z" />
    <glyph glyph-name="si_Ma" unicode="&#xdb8;" horiz-adv-x="574" 
d="M30 252v79q0 97 64 133q24 14 51 14q55 0 81 -46q13 -24 13 -54v-59q0 -29 29 -35q5 -1 9 -1q30 0 37 26q1 5 1 10v150h47v-155q0 -58 -51 -78q-17 -6 -34 -6q-52 0 -74 40q-10 19 -10 41v62q0 38 -33 50q-9 3 -17 3q-39 0 -55 -45q-7 -20 -7 -46v-83q0 -158 112 -192
q25 -8 52 -8v-53q-168 0 -206 164q-9 41 -9 89zM301 -1v53q171 0 187 157q2 16 2 33v270q-2 189 -189 190v53q211 0 239 -186q4 -27 4 -57v-270q0 -200 -168 -236q-34 -7 -75 -7zM31 563q0 86 80 145q63 47 134 47v-53q-70 0 -120 -52q-42 -44 -42 -100z" />
    <glyph glyph-name="si_Mba" unicode="&#xdb9;" horiz-adv-x="586" 
d="M186 -11q-90 0 -132 77q-24 44 -24 100v196q0 74 61 104q25 13 53 13q62 0 91 -49q15 -27 15 -61v-50q0 -29 29 -35q5 -1 9 -1q31 0 38 26q1 5 1 10v150h46v-155q0 -58 -50 -78q-17 -6 -34 -6q-52 0 -74 40q-10 19 -10 41v54q0 45 -39 58q-10 4 -21 4q-40 0 -56 -35
q-6 -14 -6 -31v-194q0 -62 42 -100q27 -24 61 -24q32 0 36 26q1 6 1 13q0 5 -2 20q-8 72 15 92q14 10 34 10h46q60 0 51 -83q0 -7 -2 -18q-2 -16 -2 -21q0 -34 24 -38q6 -1 12 -1q58 0 89 59q15 32 15 65v345q0 177 -165 189q-12 1 -24 1v53q217 0 240 -196q2 -22 2 -45
v-348q0 -102 -67 -150q-39 -27 -89 -27q-72 1 -76 63q0 12 4 77q-9 31 -36 33q-31 -7 -34 -33q0 -8 2 -33q2 -33 2 -44q-5 -62 -76 -63zM88 550l-51 13q0 92 85 149q63 43 137 43v-53q-84 0 -134 -56q-37 -41 -37 -96z" />
    <glyph glyph-name="si_Ya" unicode="&#xdba;" horiz-adv-x="633" 
d="M30 143q0 -81 68 -121q39 -23 88 -23q85 0 128 61q1 2 2 3q44 -63 131 -64q86 0 130 60q26 37 26 84v50h-53v-48q0 -67 -62 -87q-20 -6 -42 -6q-73 0 -96 53q-8 18 -8 40v48h-51v-48q0 -68 -64 -87q-19 -6 -41 -6q-73 0 -96 53q-7 19 -7 40v48h-53v-50zM295 352h186
q50 0 63 -26q6 -14 6 -34v-49h53v51q0 74 -52 96q-28 12 -72 12h-133q0 86 54 105q20 7 47 7q82 -1 103 -56l48 17q-37 88 -151 89q-83 0 -124 -57q-28 -39 -28 -98v-57zM30 243h53v95q0 116 83 156q35 17 80 17h19v52h-17q-116 0 -176 -80q-42 -57 -42 -143v-97z" />
    <glyph glyph-name="si_Ra" unicode="&#xdbb;" horiz-adv-x="519" 
d="M30 236q0 -181 125 -228q37 -14 80 -14v54q-151 2 -152 187v185q0 72 19 107q18 31 54 61l225 189l-63 16l-199 -167q-85 -70 -89 -176v-23v-191zM150 513v-1h153q109 0 128 -101q5 -25 5 -55v-121q0 -149 -88 -178q-25 -8 -57 -8v-54q137 0 178 106q20 54 20 134v127
q-2 201 -176 202h-111z" />
    <glyph glyph-name="si_La" unicode="&#xdbd;" horiz-adv-x="609" 
d="M272 232q0 -86 70 -124q34 -19 78 -19q82 0 127 62q32 45 32 109v75q0 212 -192 233q-26 3 -55 3v-53q149 0 182 -105q10 -34 10 -78v-75q0 -76 -60 -104q-22 -10 -46 -10q-56 0 -81 44q-11 20 -11 45v50h70v50h-193v-50h69v-53zM272 -169v53q-135 0 -174 107
q-13 37 -13 84v251q1 149 120 183q31 9 67 9v53q-164 0 -218 -119q-24 -53 -24 -126v-251q0 -191 158 -234q39 -10 84 -10zM332 -117v-53q181 2 234 160l-51 15q-42 -115 -165 -122h-18z" />
    <glyph glyph-name="si_Va" unicode="&#xdc0;" horiz-adv-x="553" 
d="M241 -1q-101 0 -163 70q-45 51 -45 113q1 79 40 119q44 46 152 50q19 1 41 1q0 53 -51 74q-19 7 -39 7q-53 0 -74 -40l-3 -6l-46 12q16 61 85 78q19 5 39 5q74 0 113 -51q24 -32 24 -75v-54h-54q-115 0 -149 -36q-25 -27 -25 -83q0 -62 54 -101q42 -30 101 -30v-53z
M297 -1v53q171 2 172 190v270q0 167 -130 187q-20 3 -42 3v53q191 0 220 -168q6 -33 6 -72v-273q0 -204 -156 -237q-33 -6 -70 -6zM30 563q0 86 79 146q62 46 132 46v-53q-71 0 -120 -54q-39 -43 -39 -98z" />
    <glyph glyph-name="si_Sha" unicode="&#xdc1;" 
d="M487 -8q124 0 168 110q19 49 20 112v128q-1 147 -93 199q-41 23 -95 23v-53q108 0 130 -113q5 -27 5 -57v-127q0 -128 -84 -160q-23 -9 -51 -9v-53zM217 -8v53q-96 0 -124 95q-10 33 -10 74v127q0 138 92 165q20 5 42 5v53q-120 0 -165 -105q-22 -50 -22 -117v-128
q0 -143 89 -197q42 -25 98 -25zM252 267h52q87 -1 87 -110q-2 -111 -118 -112v-53q124 0 158 92q10 28 11 62q8 74 95 87q16 2 34 2v48q-96 -1 -141 -47q-28 76 -113 78h-11v46q0 129 93 148q15 3 32 3v53q-128 0 -166 -115q-13 -40 -13 -90v-92z" />
    <glyph glyph-name="si_Ssa" unicode="&#xdc2;" horiz-adv-x="625" 
d="M33 475l49 -17q23 56 103 57q73 0 95 -62q7 -19 7 -40v-10h-93q-138 0 -159 -110q-5 -23 -5 -50h53q0 73 42 95q27 14 71 14h202q-89 -43 -114 -131q-7 -26 -7 -53h52q0 91 91 150q23 15 54 30q54 -11 64 -61q4 -18 4 -44h53q0 119 -81 148q-36 12 -90 12h-85v10
q0 65 50 90q23 12 52 12q81 -1 102 -57l50 17q-37 89 -152 90q-84 0 -125 -57q-2 -3 -3 -5q-43 59 -128 62q-116 -1 -152 -90zM280 -7h66q175 0 224 87q25 44 25 114h-53q0 -105 -80 -133q-42 -15 -115 -15h-69q-125 0 -166 48q-29 35 -29 100h-53q0 -133 94 -176
q57 -25 156 -25z" />
    <glyph glyph-name="si_Sa" unicode="&#xdc3;" horiz-adv-x="678" 
d="M76 143q0 -82 69 -122q39 -22 87 -22q85 0 128 61q1 2 2 3q37 -59 119 -64h11q88 0 131 62q25 36 25 82v51h-53v-49q0 -68 -64 -88q-18 -5 -39 -5q-73 0 -96 53q-8 18 -8 40v49h-52v-49q0 -69 -64 -88q-19 -5 -40 -5q-73 0 -96 53q-7 18 -7 40v49h-53v-51zM83 475l49 -17
q23 56 103 57q73 0 95 -62q7 -19 7 -40v-11h-307v-50h71q-25 -14 -25 -67v-42h53v7.5v13.5t1 16v6q0 60 53 65q8 1 16 1h326q56 0 66 -40q3 -12 3 -26q1 -1 1 -43h53v44q0 87 -65 108q-24 7 -56 7h-138v11q0 65 50 90q22 12 52 12q81 -1 102 -57l50 17q-37 89 -152 90
q-84 0 -125 -57q-2 -3 -3 -5q-43 59 -128 62q-116 -1 -152 -90z" />
    <glyph glyph-name="si_Ha" unicode="&#xdc4;" 
d="M306 315v45q0 129 93 148q15 3 32 3v53q-99 -1 -145 -70q-28 57 -100 68q-13 2 -25 2q-73 0 -109 -49q-11 -16 -16 -34l47 -12q25 42 77 46q54 0 79 -40q10 -19 11 -42h-35q-155 -1 -180 -125q-5 -28 -5 -60v-52q0 -117 76 -171q47 -33 111 -33v53q-88 0 -120 77
q-14 33 -14 74v51q0 105 78 126q24 6 56 6h36q-1 -7 -1 -20v-92h52q87 -1 87 -110q-2 -111 -118 -112v-53q125 0 159 92q10 29 10 64v23q0 103 -75 133q-27 11 -61 11zM487 -8q124 0 168 110q19 49 20 112v128q-1 147 -93 199q-41 23 -95 23v-53q108 0 130 -113q5 -27 5 -57
v-127q0 -128 -84 -160q-23 -9 -51 -9v-53z" />
    <glyph glyph-name="si_Lla" unicode="&#xdc5;" horiz-adv-x="609" 
d="M109 416l50 10q2 88 73 89q48 0 65 -45q5 -16 6 -34h45q1 58 45 75q13 4 25 4q62 0 71 -61q1 -8 1 -17h50q0 105 -88 124q-17 4 -36 4q-60 -1 -91 -45q-31 44 -91 45q-89 0 -116 -72q-9 -25 -9 -55v-22zM30 77q0 -169 130 -225q54 -22 123 -22v54q-128 0 -175 89
q-23 43 -23 104v112q1 62 35 102q11 -118 88 -167q45 -29 108 -29h50q122 0 170 98l4 10l-50 14q-35 -69 -125 -72h-48q-113 0 -143 124q-6 27 -7 55q26 12 55 12h318v52h-325q-76 0 -131 -56q-54 -56 -54 -138v-117zM344 -117v-53q209 2 245 170l-52 14q-33 -130 -193 -131
z" />
    <glyph glyph-name="si_Fa" unicode="&#xdc6;" horiz-adv-x="633" 
d="M30 243v177q0 83 70 123q38 21 86 21q84 0 127 -58q2 -4 4 -6q44 62 130 64q85 0 129 -60q27 -36 27 -84v-177h-53v175q0 65 -60 86q-20 7 -44 7q-73 0 -96 -53q-8 -18 -8 -40v-175h-51v175q0 65 -61 86q-21 7 -44 7q-70 0 -94 -51q-9 -19 -9 -42v-175h-53zM30 193h53
q0 -84 60 -120q34 -20 82 -20v-53q-134 0 -178 104q-17 40 -17 89zM408 0v53q108 0 135 91q7 24 7 49h53q0 -115 -81 -165q-47 -28 -114 -28z" />
    <glyph glyph-name="si_Halant" unicode="&#xdca;" horiz-adv-x="112" 
d="M30 619v200h52v-200h-52z" />
    <glyph glyph-name="si_MatraAa" unicode="&#xdcf;" horiz-adv-x="262" 
d="M30 0v53h20q90 0 116 68q12 32 12 77v168q0 136 -106 145q-10 1 -22 1h-20v53h20q151 0 176 -132q6 -30 6 -66v-169q0 -168 -128 -193q-25 -5 -54 -5h-20z" />
    <glyph glyph-name="si_MatraAe" unicode="&#xdd0;" horiz-adv-x="260" 
d="M200 0h30v53h-31q-114 7 -116 132v116q0 57 16 85q24 41 131 136v52h-200v-53h127q-86 -77 -107 -114q-20 -38 -20 -104v-117q0 -142 107 -177q29 -9 63 -9z" />
    <glyph glyph-name="si_MatraAae" unicode="&#xdd1;" horiz-adv-x="277" 
d="M47 208v-46q0 -141 124 -159q21 -3 46 -3h30v53h-31q-101 0 -113 78q-2 14 -2 34v42q0 37 17 59q28 36 129 106v50h-125l125 103v49h-200v-49h124l-124 -103v-50h118q-89 -62 -108 -105q-10 -23 -10 -59z" />
    <glyph glyph-name="si_MatraI" unicode="&#xdd2;" horiz-adv-x="0" 
d="M-583 602v28q0 84 70 129q46 30 106 30h171q94 0 144 -64q32 -42 32 -95v-28h-51q-8 131 -141 135h-139q-139 -2 -140 -135h-52z" />
    <glyph glyph-name="si_MatraIi" unicode="&#xdd3;" horiz-adv-x="0" 
d="M-151 597q54 0 80 46q12 21 12 47q0 98 -104 121q-26 5 -55 5h-190q-82 0 -136 -70q-40 -53 -40 -115v-29h52q0 136 101 158q19 4 39 4h150q13 0 42 -2q-41 -27 -42 -75q0 -51 44 -77q22 -13 47 -13z" />
    <glyph glyph-name="si_MatraU" unicode="&#xdd4;" horiz-adv-x="0" 
d="M-109 132v-284h-157v-53h210v337h-53zM-504 -152v-53h182v53h-182z" />
    <glyph glyph-name="si_MatraUu" unicode="&#xdd6;" horiz-adv-x="0" 
d="M-512 -111v-55q40 -34 74 -34q19 0 65 20q32 14 55 14v54q-24 0 -71 -21q-29 -13 -48 -13q-35 1 -75 35zM-109 -205h53v328h-53v-271q-12 6 -24 11t-22 8.5t-21 6t-19 4.5t-17 3t-15 1.5t-13 1t-10 0.5h-8h-4v-54q80 -1 153 -39z" />
    <glyph glyph-name="si_MatraR" unicode="&#xdd8;" horiz-adv-x="322" 
d="M151 0q-69 0 -111 55q-28 38 -28 85q0 70 55 111q37 28 84 28h36v-50h-36q-50 0 -76 -42q-13 -22 -13 -47q0 -50 43 -77q22 -13 46 -13q50 0 77 43q13 22 13 47v257q0 92 -55 112q-13 5 -27 5h-90v51h91q103 0 125 -108q6 -27 6 -58v-259q0 -73 -59 -115q-37 -25 -81 -25
z" />
    <glyph glyph-name="si_MatraE" unicode="&#xdd9;" horiz-adv-x="457" 
d="M249 512q107 0 124 -94l51 13q-8 60 -57 100q-42 33 -97 33h-62q-131 0 -167 -118q-11 -36 -11 -75v-173q0 -137 78 -183q34 -20 80 -20h21v52q-103 0 -122 93q-5 25 -5 58v173q8 136 129 141h38zM233 302h78q49 0 60 -29q4 -11 4 -27v-91q-2 -107 -118 -108v-52h23
q101 0 134 88q13 34 13 74v98q0 91 -88 98q-9 1 -19 1h-87v-52z" />
    <glyph glyph-name="si_MatraEe" unicode="&#xdda;" horiz-adv-x="712" 
d="M249 512q107 0 124 -94l51 13q-8 60 -57 100q-42 33 -97 33h-62q-131 0 -167 -118q-11 -36 -11 -75v-173q0 -137 78 -183q34 -20 80 -20h21v52q-103 0 -122 93q-5 25 -5 58v173q8 136 129 141h38zM233 302h78q49 0 60 -29q4 -11 4 -27v-91q-2 -107 -118 -108v-52h23
q101 0 134 88q13 34 13 74v98q0 91 -88 98q-9 1 -19 1h-87v-52zM630 619h52v200h-52v-200z" />
    <glyph glyph-name="si_MatraAi" unicode="&#xddb;" horiz-adv-x="888" 
d="M249 512q107 0 124 -94l51 13q-8 60 -57 100q-42 33 -97 33h-62q-131 0 -167 -118q-11 -36 -11 -75v-173q0 -137 78 -183q34 -20 80 -20h21v52q-103 0 -122 93q-5 25 -5 58v173q8 136 129 141h38zM233 302h78q49 0 60 -29q4 -11 4 -27v-91q-2 -107 -118 -108v-52h23
q101 0 134 88q13 34 13 74v98q0 91 -88 98q-9 1 -19 1h-87v-52zM680 515q107 0 124 -94l51 13q-8 60 -57 100q-42 33 -97 33h-62q-131 0 -167 -118q-11 -36 -11 -75v-173q0 -137 78 -183q34 -20 80 -20h21v52q-103 0 -122 93q-5 25 -5 58v173q8 136 129 141h38zM664 305h78
q49 0 60 -29q4 -11 4 -27v-91q-2 -107 -118 -108v-52h23q101 0 134 88q13 34 13 74v98q0 91 -88 98q-9 1 -19 1h-87v-52z" />
    <glyph glyph-name="si_MatraO" unicode="&#xddc;" horiz-adv-x="786" 
d="M249 512q107 0 124 -94l51 13q-8 60 -57 100q-42 33 -97 33h-62q-131 0 -167 -118q-11 -36 -11 -75v-173q0 -137 78 -183q34 -20 80 -20h21v52q-103 0 -122 93q-5 25 -5 58v173q8 136 129 141h38zM233 302h78q49 0 60 -29q4 -11 4 -27v-91q-2 -107 -118 -108v-52h23
q101 0 134 88q13 34 13 74v98q0 91 -88 98q-9 1 -19 1h-87v-52zM554 0h20q155 0 178 141q4 26 4 57v169q0 163 -120 192q-28 6 -62 6h-20v-53h20q91 0 116 -69q12 -32 12 -77v-168q0 -134 -105 -144q-11 -1 -23 -1h-20v-53z" />
    <glyph glyph-name="si_MatraOo" unicode="&#xddd;" horiz-adv-x="786" 
d="M249 512q107 0 124 -94l51 13q-8 60 -57 100q-42 33 -97 33h-62q-131 0 -167 -118q-11 -36 -11 -75v-173q0 -137 78 -183q34 -20 80 -20h21v52q-103 0 -122 93q-5 25 -5 58v173q8 136 129 141h38zM233 302h78q49 0 60 -29q4 -11 4 -27v-91q-2 -107 -118 -108v-52h23
q101 0 134 88q13 34 13 74v98q0 91 -88 98q-9 1 -19 1h-87v-52zM554 0h20q155 0 178 141q4 26 4 57v169q0 163 -120 192q-28 6 -62 6h-20v-53h20q91 0 116 -69q12 -32 12 -77v-168q0 -134 -105 -144q-11 -1 -23 -1h-20v-53zM553 619h52v200h-52v-200z" />
    <glyph glyph-name="si_MatraAu" unicode="&#xdde;" horiz-adv-x="1003" 
d="M249 512q107 0 124 -94l51 13q-8 60 -57 100q-42 33 -97 33h-62q-131 0 -167 -118q-11 -36 -11 -75v-173q0 -137 78 -183q34 -20 80 -20h21v52q-103 0 -122 93q-5 25 -5 58v173q8 136 129 141h38zM233 302h78q49 0 60 -29q4 -11 4 -27v-91q-2 -107 -118 -108v-52h23
q101 0 134 88q13 34 13 74v98q0 91 -88 98q-9 1 -19 1h-87v-52zM805 -8q86 0 136 58q35 42 35 101v310q-1 71 -57 97q-20 9 -42 9q-56 0 -83 -45q-15 -25 -15 -57v-48q0 -39 -34 -50q-8 -2 -16 -2q-33 0 -46 30q-4 10 -4 22v147h-46v-151q0 -69 55 -94q20 -9 41 -9
q55 0 82 44q14 24 14 55v51q0 40 36 50q7 2 14 2q35 0 46 -32q3 -10 3 -20v-310q0 -68 -64 -94q-25 -10 -54 -10q-68 0 -103 45q-19 26 -19 59v52h-51v-51q0 -94 80 -137q42 -22 92 -22z" />
    <glyph glyph-name="si_MatraLs" unicode="&#xddf;" horiz-adv-x="386" 
d="M185 -8q-88 0 -137 58q-35 42 -35 101v51h51v-52q0 -64 63 -92q28 -12 59 -12q70 0 102 48q16 24 16 56v310q0 40 -35 50q-7 2 -14 2q-35 0 -46 -31q-4 -10 -4 -21v-51q0 -66 -55 -91q-19 -8 -41 -8q-56 0 -82 46q-14 25 -14 57v151h46v-147q0 -39 34 -50q8 -2 16 -2
q33 0 46 30q4 10 4 22v48q0 68 56 93q20 9 42 9q57 0 84 -47q14 -26 15 -59v-310q0 -95 -81 -137q-41 -22 -90 -22z" />
    <glyph glyph-name="si_MatraRr" unicode="&#xdf2;" horiz-adv-x="677" 
d="M171 0q-70 0 -112 55q-28 38 -28 85q0 70 56 112q36 27 84 27h35v-50h-35q-51 0 -77 -43q-13 -22 -13 -46q0 -50 43 -77q22 -13 47 -13q48 0 75 42q14 22 14 48v257q0 95 -58 114q-12 3 -24 3h-90v51h91q103 0 125 -108q6 -27 6 -58v-259q0 -73 -59 -115q-37 -25 -80 -25
zM507 0q-70 0 -112 55q-28 38 -28 85q0 69 55 111q37 28 85 28h36v-50h-36q-50 0 -77 -43q-13 -22 -13 -46q0 -49 42 -76q23 -14 48 -14q50 0 76 43q13 22 13 47v257q0 94 -56 113q-12 4 -25 4h-90v51h90q101 0 125 -103q7 -29 7 -63v-259q0 -72 -58 -114q-38 -26 -82 -26z
" />
    <glyph glyph-name="si_MatraLl" unicode="&#xdf3;" horiz-adv-x="386" 
d="M185 -8q-88 0 -137 58q-35 42 -35 101v51h51v-52q0 -63 62 -91q28 -13 60 -13q70 0 102 47q17 25 17 57v310q0 40 -36 50q-7 2 -14 2q-35 0 -46 -31q-4 -10 -4 -21v-51q0 -66 -54 -91q-20 -8 -41 -8q-55 0 -82 45q-15 25 -15 58v151h47v-147q0 -39 34 -50q8 -2 16 -2
q34 0 45 31q4 10 4 21v48q0 68 56 93q20 9 42 9q56 0 84 -46q15 -26 15 -60v-310q0 -95 -81 -137q-41 -22 -90 -22z" />
    <glyph glyph-name="si_kundaliya" unicode="&#xdf4;" horiz-adv-x="1491" 
d="M605 458l45 -24q-124 -243 -155 -293q-58 -93 -115 -121q-43 -20 -110 -20h-120v49h120q76 0 119 38q47 41 125 191q25 48 91 180zM732 465l45 -24l-217 -441l-46 24zM808 365l45 -23l-169 -342l-46 24zM809 0l-45 25l121 247q22 -16 65 -49q138 -105 204 -138
q74 -36 137 -36h102v-49h-104q-117 0 -259 98q-33 23 -127 95z" />
    <glyph glyph-name="zwnj" unicode="&#x200c;" horiz-adv-x="0" 
d="M-26 8v749h51v-749h-51z" />
    <glyph glyph-name="zwj" unicode="&#x200d;" horiz-adv-x="0" 
d="M-25 8h50v563l118 -82l27 38l-129 89l138 96l-27 38l-152 -105l-151 105l-28 -38l138 -96l-129 -89l28 -38l117 81v-562z" />
    <glyph glyph-name="endash" unicode="&#x2013;" horiz-adv-x="532" 
d="M26 269v50h480v-50h-480z" />
    <glyph glyph-name="emdash" unicode="&#x2014;" horiz-adv-x="906" 
d="M26 268v50h854v-50h-854z" />
    <glyph glyph-name="quoteleft" unicode="&#x2018;" horiz-adv-x="129" 
d="M38 465v271h52v-271h-52z" />
    <glyph glyph-name="quoteright" unicode="&#x2019;" horiz-adv-x="129" 
d="M38 465v271h52v-271h-52z" />
    <glyph glyph-name="quotesinglbase" unicode="&#x201a;" horiz-adv-x="129" 
d="M38 465v271h52v-271h-52z" />
    <glyph glyph-name="quotedblleft" unicode="&#x201c;" horiz-adv-x="233" 
d="M38 465v271h52v-271h-52zM143 465v271h51v-271h-51z" />
    <glyph glyph-name="quotedblright" unicode="&#x201d;" horiz-adv-x="233" 
d="M38 465v271h52v-271h-52zM143 465v271h51v-271h-51z" />
    <glyph glyph-name="quotedblbase" unicode="&#x201e;" horiz-adv-x="245" 
d="M116 -23l37 152h51l-37 -152h-51zM23 -23l37 152h51l-37 -152h-51z" />
    <glyph glyph-name="dagger" unicode="&#x2020;" horiz-adv-x="453" 
d="M26 487v50h174v227h53v-227h174v-50h-174v-543h-53v543h-174z" />
    <glyph glyph-name="daggerdbl" unicode="&#x2021;" horiz-adv-x="453" 
d="M26 168v50h174v272h-174v50h174v224h54v-224h173v-50h-173v-272h173v-50h-173v-224h-54v224h-174z" />
    <glyph glyph-name="bullet" unicode="&#x2022;" horiz-adv-x="352" 
d="M104 345q0 44 38 64q17 8 34 8q44 0 64 -38q8 -16 8 -34q0 -45 -39 -65q-16 -7 -33 -7q-44 0 -64 38q-8 16 -8 34z" />
    <glyph glyph-name="ellipsis" unicode="&#x2026;" horiz-adv-x="650" 
d="M47 11q0 22 22 30q6 2 11 2q22 0 30 -21q2 -6 2 -11q0 -23 -22 -31q-5 -2 -10 -2q-23 0 -31 22q-2 6 -2 11zM293 11q0 22 21 30q6 2 11 2q23 0 31 -22q2 -5 2 -10q0 -23 -22 -31q-6 -2 -11 -2q-22 0 -30 22q-2 6 -2 11zM538 11q0 22 21 30q6 2 11 2q23 0 31 -22
q2 -5 2 -10q0 -23 -22 -31q-6 -2 -11 -2q-22 0 -30 22q-2 6 -2 11z" />
    <glyph glyph-name="perthousand" unicode="&#x2030;" horiz-adv-x="897" 
d="M120 352v35q-37 3 -54 53q-11 33 -11 82v27q1 84 46 111q10 5 20 6v35q-63 -3 -88 -77q-14 -40 -14 -96q0 -145 77 -172q12 -4 24 -4zM151 352q57 2 84 68q17 43 17 108q0 140 -76 168q-13 4 -26 5v-35q31 -1 51 -42q14 -32 15 -75v-27q0 -114 -54 -133q-6 -1 -11 -2v-35
zM487 0v35q-37 3 -54 53q-11 34 -11 82v27q1 84 46 111q10 5 20 6v35q-63 -3 -88 -77q-14 -40 -14 -96q0 -145 77 -172q12 -4 24 -4zM518 0q57 2 84 68q17 43 17 108q0 140 -76 168q-13 4 -26 5v-35q31 -1 51 -42q14 -32 15 -75v-27q0 -114 -54 -133q-6 -1 -11 -2v-35z
M746 0v35q-37 3 -54 53q-11 34 -11 82v27q1 84 46 111q10 5 20 6v35q-62 -3 -88 -74q-15 -41 -15 -99q0 -145 78 -172q12 -4 24 -4zM777 0q57 2 84 68q17 43 17 108q0 140 -76 168q-13 4 -26 5v-35q31 -1 51 -42q14 -32 15 -75v-27q0 -114 -54 -133q-6 -1 -11 -2v-35zM86 0
h42l431 700h-41z" />
    <glyph glyph-name="guilsinglleft" unicode="&#x2039;" horiz-adv-x="338" 
d="M70 292l131 208h63l-131 -208l131 -213h-63z" />
    <glyph glyph-name="guilsinglright" unicode="&#x203a;" horiz-adv-x="338" 
d="M71 79l131 213l-131 208h64l131 -208l-131 -213h-64z" />
    <glyph glyph-name="fraction" unicode="&#x2044;" horiz-adv-x="480" 
d="M3 0l432 700h42l-432 -700h-42z" />
    <glyph glyph-name="Euro" unicode="&#x20ac;" horiz-adv-x="503" 
d="M51 279v38h39v60h-39v38h39v100q0 61 45 117q58 72 153 72v-51q-85 0 -126 -73q-19 -33 -19 -63v-102h266v-38h-266v-60h266v-38h-266v-95q0 -51 40 -94q42 -43 105 -43v-51q-113 1 -169 94q-28 46 -29 91v98h-39zM335 -4v51q39 0 78 25q42 28 56 75q7 25 8 49l47 -13
q0 -85 -69 -142q-55 -45 -120 -45zM335 653v51q79 1 139 -65q50 -56 50 -123l-49 -15q0 27 -6 44q-30 87 -112 105q-14 3 -22 3z" />
    <glyph glyph-name="uni2113" unicode="&#x2113;" horiz-adv-x="186" 
d="M67 173v527h52v-527q0 -110 76 -125q9 -2 19 -2v-51q-82 0 -121 66q-26 44 -26 112z" />
    <glyph glyph-name="trademark" unicode="&#x2122;" horiz-adv-x="455" 
d="M26 675v24h133v-24h-54v-190h-26v190h-53zM181 485v157h5l21 -49v-108h-26zM182 689v10h23l69 -167l58 127h7v-43l-58 -131h-14zM352 485v214h25v-214h-25z" />
    <glyph glyph-name="uni2126" unicode="&#x2126;" horiz-adv-x="427" 
d="M21 -1v35h77q-50 37 -60 92q-2 8 -2 15v235q0 46 42 89q49 51 122 51v-48q-67 0 -99 -57q-14 -25 -14 -48v-209q0 -39 37 -74q34 -32 76 -32v-49h-179zM243 -1v49q62 0 94 56q15 25 15 49v210q0 42 -36 76q-32 29 -73 29v48q90 0 137 -73q23 -35 23 -67v-235
q0 -44 -39 -87q-10 -11 -21 -20h75v-35h-175z" />
    <glyph glyph-name="estimated" unicode="&#x212e;" horiz-adv-x="531" 
d="M217 0q-101 0 -153 85q-34 55 -34 124v288q0 91 59 153q53 55 128 55v-51q-72 -1 -110 -67q-24 -43 -24 -101v-142h322v142q0 102 -65 146q-31 21 -68 22v51q97 0 151 -84q35 -56 35 -123v-205h-375v-72q0 -115 74 -154q27 -15 60 -15v-52zM273 0v53q64 1 109 47
q20 22 25 44l52 -16q-17 -65 -87 -103q-47 -25 -99 -25z" />
    <glyph glyph-name="partialdiff" unicode="&#x2202;" horiz-adv-x="420" 
d="M28 141v235q0 46 42 89q49 51 122 51v-48q-66 0 -99 -57q-15 -25 -15 -49v-208q0 -38 37 -74q35 -33 77 -33v-48q-92 0 -141 74q-23 36 -23 68zM70 681v33q202 0 273 -87q49 -63 49 -178v-308q0 -47 -41 -91q-47 -50 -118 -51v48q62 0 94 57q15 26 15 49l-1 217
q0 43 -40 74q-30 24 -68 24v48q62 -1 104 -40q-3 204 -267 205z" />
    <glyph glyph-name="uni2206" unicode="&#x2206;" horiz-adv-x="498" 
d="M37 0l163 610h9l18 -80l-128 -479h295l-174 654h49l193 -705h-425z" />
    <glyph glyph-name="product" unicode="&#x220f;" horiz-adv-x="468" 
d="M6 647v48h456v-48h-59v-787h-49v787h-241v-787h-49v787h-58z" />
    <glyph glyph-name="summation" unicode="&#x2211;" horiz-adv-x="573" 
d="M161 650l-36 44v9h403v-53h-367zM30 -140v54l281 377l-281 365v47h32l317 -413l-282 -377l431 1v-54h-498z" />
    <glyph glyph-name="minus" unicode="&#x2212;" horiz-adv-x="416" 
d="M41 269v50h316v-50h-316z" />
    <glyph glyph-name="uni2215" unicode="&#x2215;" horiz-adv-x="480" 
d="M3 0l432 700h42l-432 -700h-42z" />
    <glyph glyph-name="uni2219" unicode="&#x2219;" horiz-adv-x="250" 
d="M39 409q0 28 26 39q8 4 17 4q29 0 40 -27q4 -8 4 -16q0 -29 -27 -41q-8 -3 -17 -3q-28 0 -40 27q-3 9 -3 17z" />
    <glyph glyph-name="radical" unicode="&#x221a;" horiz-adv-x="569" 
d="M6 513l168 59l193 -479l139 726h53l-153 -821h-59l-208 512l-119 -42z" />
    <glyph glyph-name="infinity" unicode="&#x221e;" horiz-adv-x="798" 
d="M235 -1v49q46 0 69 36q5 8 8 15l63 159l-63 159q-16 42 -63 50q-7 1 -14 1v48q62 0 102 -47q13 -15 20 -32l45 -115l44 114q20 50 76 71q23 8 46 8v-48q-46 0 -69 -36q-5 -8 -8 -15l-63 -158l63 -158q16 -43 63 -51q7 -1 14 -1v-48q-62 0 -102 47q-12 16 -19 32l-45 115
l-46 -116q-20 -51 -76 -71q-23 -8 -45 -8zM194 -1q-92 0 -141 74q-23 36 -23 68v235q0 46 42 89q49 51 122 51v-48q-66 0 -99 -56q-15 -25 -15 -49v-209q0 -38 37 -74q35 -32 77 -32v-49zM609 -2v49q58 0 95 55q18 27 18 51v209q0 46 -39 79q-32 26 -74 26v48q90 0 139 -72
q24 -36 24 -68v-235q0 -46 -40 -90q-49 -51 -123 -52z" />
    <glyph glyph-name="integral" unicode="&#x222b;" horiz-adv-x="292" 
d="M5 -143q51 -15 86 21q36 38 36 119v628q0 113 73 159q44 26 86 14v-32q-42 15 -78 -17q-42 -39 -42 -124v-628q0 -116 -73 -159q-43 -25 -88 -13v32z" />
    <glyph glyph-name="approxequal" unicode="&#x2248;" horiz-adv-x="568" 
d="M50 248v49q61 35 113 35q43 0 109 -35q65 -35 103 -38h12q58 1 131 45v-47q-76 -46 -137 -46q-47 0 -116 37q-72 34 -108 36q-52 -1 -107 -36zM50 402v49q61 35 113 35q43 0 109 -35q65 -35 103 -38h12q58 1 131 45v-47q-76 -46 -137 -46q-47 0 -116 37q-72 34 -108 36
q-52 -1 -107 -36z" />
    <glyph glyph-name="notequal" unicode="&#x2260;" horiz-adv-x="418" 
d="M80 -69h52l65 276h171v51h-159l16 67h143v51h-131l69 294h-51l-70 -294h-135v-51h123l-16 -67h-107v-51h95z" />
    <glyph glyph-name="lessequal" unicode="&#x2264;" horiz-adv-x="422" 
d="M380 146l-362 195v35l362 190v-51l-297 -157l297 -161v-51zM27 46v47h365v-47h-365z" />
    <glyph glyph-name="greaterequal" unicode="&#x2265;" horiz-adv-x="422" 
d="M30 146v51l296 161l-296 157v51l362 -190v-35zM27 46v47h365v-47h-365z" />
    <glyph glyph-name="lozenge" unicode="&#x25ca;" horiz-adv-x="425" 
d="M-3 352l195 354h36l190 -354l-195 -354h-36zM49 352l156 -291l162 291l-158 291z" />
    <glyph glyph-name="dottedcircle" unicode="&#x25cc;" horiz-adv-x="636" 
d="M165 484q0 25 25 34q6 2 12 2q26 0 35 -24q2 -6 2 -12q0 -26 -25 -35q-6 -2 -12 -2q-26 0 -35 24q-2 7 -2 13zM80 398q0 26 24 35q6 2 12 2q26 0 35 -25q2 -6 2 -12q0 -26 -24 -35q-7 -2 -13 -2q-25 0 -34 25q-2 6 -2 12zM165 72q0 26 25 35q6 2 12 2q26 0 35 -24
q2 -7 2 -13q0 -25 -25 -34q-6 -2 -12 -2q-26 0 -35 24q-2 6 -2 12zM80 158q0 26 24 35q6 2 12 2q26 0 35 -25q2 -6 2 -12q0 -26 -24 -35q-7 -2 -13 -2q-25 0 -34 25q-2 6 -2 12zM405 72q0 26 25 35q6 2 12 2q26 0 35 -24q2 -7 2 -13q0 -25 -25 -34q-6 -2 -12 -2
q-26 0 -35 24q-2 6 -2 12zM491 158q0 26 24 35q7 2 13 2q25 0 34 -25q2 -6 2 -12q0 -26 -24 -35q-6 -2 -12 -2q-26 0 -35 25q-2 6 -2 12zM491 398q0 26 24 35q7 2 13 2q25 0 34 -25q2 -6 2 -12q0 -26 -24 -35q-6 -2 -12 -2q-26 0 -35 25q-2 6 -2 12zM405 484q0 25 25 34
q6 2 12 2q26 0 35 -24q2 -6 2 -12q0 -26 -25 -35q-6 -2 -12 -2q-26 0 -35 24q-2 7 -2 13zM523 278q0 24 23 34q7 3 14 3q24 0 34 -23q3 -7 3 -14q0 -24 -23 -34q-7 -3 -14 -3q-24 0 -34 23q-3 7 -3 14zM285 40q0 24 23 34q7 3 14 3q24 0 34 -23q3 -7 3 -14q0 -24 -23 -34
q-7 -3 -14 -3q-24 0 -34 23q-3 7 -3 14zM47 278q0 24 23 34q7 3 14 3q24 0 34 -23q3 -7 3 -14q0 -24 -23 -34q-7 -3 -14 -3q-24 0 -34 23q-3 7 -3 14zM285 516q0 24 23 34q7 3 14 3q24 0 34 -23q3 -7 3 -14q0 -24 -23 -34q-7 -3 -14 -3q-24 0 -34 23q-3 7 -3 14z" />
    <glyph glyph-name="uni5713" unicode="&#x5713;" horiz-adv-x="843" 
d="M50 488v210h32v-89h19v-32h-19v-89h-32zM117 577v32h20v89h32v-210h-32v89h-20zM198 488v210h32v-210h-32zM242 602l50 96h32l-49 -96l50 -114h-32zM359 158l49 17q18 -92 107 -121l32 -7v-94h-36v48q-78 15 -126 88q-25 38 -26 69zM367 513q0 105 94 160q25 14 50 21v56
h36v-100q-36 -1 -76 -33q-50 -43 -51 -108q0 -77 112 -108q7 -2 15 -4v-55q-38 7 -57 13q-82 33 -107 80q-16 33 -16 78zM593 -47v94q43 0 92 40q61 51 62 121q0 85 -118 116q-17 4 -36 8v54q56 -9 79 -17q92 -28 117 -95q11 -31 11 -70q0 -85 -66 -148q-47 -44 -106 -55
v-48h-35zM593 650v100h35v-55q77 -17 124 -93q16 -28 20 -49l-50 -16q-22 85 -104 108z" />
    <glyph glyph-name="mooniak" horiz-adv-x="952" 
d="M675 693q0 61 51 95q29 19 64 19q60 0 94 -50q20 -29 20 -64q0 -60 -50 -94q-29 -20 -64 -20q-62 0 -96 50q-19 30 -19 64zM22 375q0 131 93 223q92 92 221 92q131 0 223 -93t92 -222q0 -131 -93 -223t-222 -92t-221 92q-93 93 -93 223z" />
    <glyph glyph-name="quotedbl.alt" horiz-adv-x="233" 
d="M39 476v224h51v-224h-51zM143 476v224h51v-224h-51z" />
    <glyph glyph-name="si_B.halant" horiz-adv-x="589" 
d="M30 178q0 -133 91 -165q37 -13 90 -13v53q-87 0 -112 47q-16 30 -16 79v103q0 71 53 96q18 9 38 9q53 0 78 -47q13 -25 13 -58v-141q0 -90 72 -128q34 -17 72 -17q78 0 120 57q30 39 30 95v271q0 192 -150 226q-34 7 -76 7h-171q-44 0 -57 38q-3 10 -3 20q0 38 32 53
q13 6 28 6h98v50h-90q-82 0 -110 -61q-9 -21 -9 -44q1 -37 22 -62h-32v-53h292q144 0 167 -128q4 -25 4 -56v-270q0 -61 -53 -84q-19 -8 -39 -8q-55 0 -81 43q-13 22 -13 49v137q0 102 -72 144q-33 18 -70 18q-73 0 -116 -58q-30 -42 -30 -102v-106zM486 673h52
q-4 144 -138 146h-85v-50h81q60 0 78 -35q12 -23 12 -61z" />
    <glyph glyph-name="si_BI" horiz-adv-x="589" 
d="M30 178q0 -133 91 -165q37 -13 90 -13v53q-87 0 -112 47q-16 30 -16 79v103q0 71 53 96q18 9 38 9q53 0 78 -47q13 -25 13 -58v-141q0 -90 72 -128q34 -17 72 -17q78 0 120 57q30 39 30 95v271q0 192 -150 226q-34 7 -76 7h-176q-43 0 -56 38q-3 10 -3 20q0 39 33 54
q12 5 26 5h103v50h-91q-78 0 -109 -61q-11 -23 -11 -49q0 -65 53 -94q29 -16 67 -16h164q147 0 167 -132q4 -24 4 -51v-271q0 -61 -53 -84q-19 -8 -39 -8q-55 0 -81 43q-13 22 -13 49v137q0 102 -72 144q-33 18 -70 18q-73 0 -116 -58q-30 -42 -30 -102v-106zM315 769h81
q60 0 78 -35q12 -23 12 -61h52q0 129 -110 144q-14 2 -28 2h-85v-50z" />
    <glyph glyph-name="si_BIi" horiz-adv-x="589" 
d="M308 820v-50h72q29 0 44 -2q-39 -20 -45 -65q-1 -6 -1 -11q0 -23 12 -45q-23 4 -56 4h-173q-44 0 -56 40q-3 10 -3 19q0 41 34 55q12 5 25 5h91v50h-81q-77 0 -107 -60q-12 -24 -12 -50q0 -62 50 -92q29 -18 68 -18h163q147 0 167 -132q4 -24 4 -51v-272q0 -61 -53 -84
q-19 -8 -39 -8q-55 0 -81 43q-13 22 -13 49v137q0 102 -72 144q-33 18 -70 18q-73 0 -116 -58q-30 -42 -30 -102v-106q0 -133 91 -165q37 -13 90 -13v53q-87 0 -112 47q-16 30 -16 79v103q0 71 53 96q18 9 38 9q53 0 78 -47q13 -25 13 -58v-141q0 -90 72 -128q34 -17 72 -17
q78 0 120 57q30 39 30 95v270q-1 133 -69 188q47 12 64 58q5 16 5 32q0 101 -111 120q-23 4 -48 4h-92z" />
    <glyph glyph-name="si_BR.halant" horiz-adv-x="589" 
d="M30 178q0 -133 91 -165q37 -13 90 -13v53q-87 0 -112 47q-16 30 -16 79v103q0 71 53 96q18 9 38 9q53 0 78 -47q13 -25 13 -58v-141q0 -90 72 -128q34 -17 72 -17q41 0 74 18q19 -24 19 -60q0 -66 -66 -102q-49 -26 -118 -26v-52q140 0 203 78q36 44 36 103q-1 55 -30 94
q32 41 32 99v271q0 192 -150 226q-34 7 -76 7h-171q-44 0 -57 38q-3 10 -3 20q0 38 32 53q13 6 28 6h98v50h-90q-82 0 -110 -61q-9 -21 -9 -44q1 -37 22 -62h-32v-53h292q144 0 167 -128q4 -25 4 -56v-270q0 -61 -53 -84q-19 -8 -39 -8q-55 0 -81 43q-13 22 -13 49v137
q0 102 -72 144q-33 18 -70 18q-73 0 -116 -58q-30 -42 -30 -102v-106zM486 673h52q-4 144 -138 146h-85v-50h81q60 0 78 -35q12 -23 12 -61zM262 -226v52q-104 0 -152 51q-29 31 -29 76h-53q0 -114 109 -158q54 -21 125 -21z" />
    <glyph glyph-name="si_BRI" horiz-adv-x="589" 
d="M30 178q0 -133 91 -165q37 -13 90 -13v53q-87 0 -112 47q-16 30 -16 79v103q0 71 53 96q18 9 38 9q53 0 78 -47q13 -25 13 -58v-141q0 -90 72 -128q34 -17 72 -17q41 0 74 18q19 -24 19 -60q0 -66 -66 -102q-49 -26 -118 -26v-52q140 0 203 78q36 44 36 103q-1 55 -30 94
q32 41 32 99v271q0 192 -150 226q-34 7 -76 7h-176q-43 0 -56 38q-3 10 -3 20q0 39 33 54q12 5 26 5h103v50h-91q-78 0 -109 -61q-11 -23 -11 -49q0 -65 53 -94q29 -16 67 -16h164q147 0 167 -132q4 -24 4 -51v-271q0 -61 -53 -84q-19 -8 -39 -8q-55 0 -81 43q-13 22 -13 49
v137q0 102 -72 144q-33 18 -70 18q-73 0 -116 -58q-30 -42 -30 -102v-106zM315 769h81q60 0 78 -35q12 -23 12 -61h52q0 129 -110 144q-14 2 -28 2h-85v-50zM262 -226v52q-104 0 -152 51q-29 31 -29 76h-53q0 -114 109 -158q54 -21 125 -21z" />
    <glyph glyph-name="si_BRIi" horiz-adv-x="589" 
d="M318 -226q140 0 203 78q36 44 36 103q-1 55 -30 94q32 41 32 99v270q-1 133 -69 188q47 12 64 58q5 16 5 32q0 101 -111 120q-23 4 -48 4h-92v-50h72q29 0 44 -2q-39 -20 -45 -65q-1 -6 -1 -11q0 -23 12 -45q-23 4 -56 4h-173q-44 0 -56 40q-3 10 -3 19q0 41 34 55
q12 5 25 5h91v50h-81q-77 0 -107 -60q-12 -24 -12 -50q0 -62 50 -92q29 -18 68 -18h163q147 0 167 -132q4 -24 4 -51v-272q0 -61 -53 -84q-19 -8 -39 -8q-55 0 -81 43q-13 22 -13 49v137q0 102 -72 144q-33 18 -70 18q-73 0 -116 -58q-30 -42 -30 -102v-106q0 -133 91 -165
q37 -13 90 -13v53q-87 0 -112 47q-16 30 -16 79v103q0 71 53 96q18 9 38 9q53 0 78 -47q13 -25 13 -58v-141q0 -90 72 -128q34 -17 72 -17q41 0 74 18q19 -24 19 -60q0 -66 -66 -102q-49 -26 -118 -26v-52zM262 -226v52q-104 0 -152 51q-29 31 -29 76h-53q0 -114 109 -158
q54 -21 125 -21z" />
    <glyph glyph-name="si_BRa" horiz-adv-x="589" 
d="M30 178q0 -133 91 -165q37 -13 90 -13v53q-87 0 -112 47q-16 30 -16 79v103q0 71 53 96q18 9 38 9q53 0 78 -47q13 -25 13 -58v-141q0 -90 72 -128q34 -17 72 -17q44 1 77 19q20 -25 20 -61q0 -66 -66 -102q-49 -26 -118 -26v-52q139 0 202 77q37 45 37 105q-1 58 -32 96
q30 38 30 96v364q0 224 -191 241q-17 2 -35 2h-12v-53h12q155 0 169 -156q2 -18 2 -37v-364q0 -61 -53 -84q-19 -8 -39 -8q-55 0 -81 43q-13 22 -13 49v137q0 102 -72 144q-33 18 -70 18q-73 0 -116 -58q-30 -42 -30 -102v-106zM41 563l52 -13q0 83 74 126q44 26 97 26v53
q-92 0 -160 -59q-62 -56 -63 -133zM266 -226v52q-104 0 -152 51q-29 31 -29 76h-53q0 -114 109 -158q54 -21 125 -21z" />
    <glyph glyph-name="si_BU" horiz-adv-x="589" 
d="M30 178q0 -133 91 -165q37 -13 90 -13v53q-87 0 -112 47q-16 30 -16 79v103q0 71 53 96q18 9 38 9q53 0 78 -47q13 -25 13 -58v-141q0 -90 72 -128q34 -17 72 -17q42 0 79 20v-168h-167v-53h220v276q18 35 18 77v364q0 224 -191 241q-17 2 -35 2h-12v-53h12
q155 0 169 -156q2 -18 2 -37v-364q0 -61 -53 -84q-19 -8 -39 -8q-55 0 -81 43q-13 22 -13 49v137q0 102 -72 144q-33 18 -70 18q-73 0 -116 -58q-30 -42 -30 -102v-106zM41 563l52 -13q0 83 74 126q44 26 97 26v53q-92 0 -160 -59q-62 -56 -63 -133zM50 -152v-53h215v53
h-215z" />
    <glyph glyph-name="si_BUu" horiz-adv-x="589" 
d="M30 178q0 -133 91 -165q37 -13 90 -13v53q-87 0 -112 47q-16 30 -16 79v103q0 71 53 96q18 9 38 9q53 0 78 -47q13 -25 13 -58v-141q0 -90 72 -128q34 -17 72 -17q42 0 79 20v-164q-80 31 -167 31v-55q88 -1 167 -33h53v276q18 35 18 77v364q0 224 -191 241q-17 2 -35 2
h-12v-53h12q155 0 169 -156q2 -18 2 -37v-364q0 -61 -53 -84q-19 -8 -39 -8q-55 0 -81 43q-13 22 -13 49v137q0 102 -72 144q-33 18 -70 18q-73 0 -116 -58q-30 -42 -30 -102v-106zM41 563l52 -13q0 83 74 126q44 26 97 26v53q-92 0 -160 -59q-62 -56 -63 -133zM52 -129v-54
q33 -18 68 -18q20 0 75 17q38 12 70 12v55q-32 0 -90 -20q-32 -11 -53 -11q-35 1 -70 19z" />
    <glyph glyph-name="si_Ba.reph" horiz-adv-x="589" 
d="M30 178q0 -133 91 -165q37 -13 90 -13v53q-87 0 -112 47q-16 30 -16 79v103q0 71 53 96q18 9 38 9q53 0 78 -47q13 -25 13 -58v-141q0 -90 72 -128q34 -17 72 -17q78 0 120 57q30 39 30 95v364q0 224 -191 241q-17 2 -35 2h-12v-53h12q155 0 169 -156q2 -18 2 -37v-364
q0 -61 -53 -84q-19 -8 -39 -8q-55 0 -81 43q-13 22 -13 49v137q0 102 -72 144q-33 18 -70 18q-73 0 -116 -58q-30 -42 -30 -102v-106zM41 563l52 -13q0 83 74 126q44 26 97 26v53q-92 0 -160 -59q-62 -56 -63 -133zM231 775q94 0 104 89q1 10 1 20h-45q0 -52 -43 -61
q-8 -2 -17 -2q-45 0 -60 40q-4 12 -4 24q0 45 43 64q21 9 47 9h62q93 -2 94 -72v-81h48v82q0 71 -64 103q-33 16 -74 16h-66q-88 0 -122 -65q-13 -26 -13 -55q0 -63 48 -94q27 -17 61 -17z" />
    <glyph glyph-name="si_Ba.touch" horiz-adv-x="589" 
d="M30 178q0 -133 91 -165q37 -13 90 -13v53q-87 0 -112 47q-16 30 -16 79v103q0 71 53 96q18 9 38 9q53 0 78 -47q13 -25 13 -58v-141q0 -90 72 -128q34 -17 72 -17q78 0 120 57q30 39 30 95v364q0 224 -191 241q-17 2 -35 2h-12v-53h12q155 0 169 -156q2 -18 2 -37v-364
q0 -61 -53 -84q-19 -8 -39 -8q-55 0 -81 43q-13 22 -13 49v137q0 102 -72 144q-33 18 -70 18q-73 0 -116 -58q-30 -42 -30 -102v-106zM41 563l52 -13q0 83 74 126q44 26 97 26v53q-92 0 -160 -59q-62 -56 -63 -133z" />
    <glyph glyph-name="si_Bh.halant" horiz-adv-x="744" 
d="M346 315v45q0 129 93 148q15 3 32 3v53q-101 -1 -146 -72q-28 59 -101 70q-13 2 -25 2q-72 0 -108 -49q-11 -16 -16 -34l47 -12q25 42 76 46q55 0 79 -41q11 -19 11 -42h-258v-51h87q-47 -43 -47 -130v-55q0 -118 77 -172q46 -32 110 -32v53q-89 0 -121 79q-13 32 -13 72
v53q0 105 78 126q24 6 56 6h36q-1 -8 -1 -22v-92h51q88 -1 88 -110q-2 -111 -118 -112v-53q127 0 159 94q9 28 9 62v23q0 107 -79 135q-25 9 -56 9zM527 -8q122 0 167 108q20 49 20 114v128q0 146 -91 198q-42 24 -96 24v-53q112 0 131 -122q3 -22 3 -47v-128
q0 -130 -85 -161q-23 -8 -49 -8v-53zM527 619h52v200h-52v-200z" />
    <glyph glyph-name="si_BhI" horiz-adv-x="744" 
d="M346 315v45q0 129 93 148q15 3 32 3v53q-101 -1 -146 -72q-28 59 -101 70q-13 2 -25 2q-72 0 -108 -49q-11 -16 -16 -34l47 -12q25 42 76 46q55 0 79 -41q11 -19 11 -42h-258v-51h87q-47 -43 -47 -130v-55q0 -118 77 -172q46 -32 110 -32v53q-89 0 -121 79q-13 32 -13 72
v53q0 105 78 126q24 6 56 6h36q-1 -8 -1 -22v-92h51q88 -1 88 -110q-2 -111 -118 -112v-53q127 0 159 94q9 28 9 62v23q0 107 -79 135q-25 9 -56 9zM527 -8q122 0 167 108q20 49 20 114v128q0 146 -91 198q-42 24 -96 24v-53q112 0 131 -122q3 -22 3 -47v-128
q0 -130 -85 -161q-23 -8 -49 -8v-53zM137 606h52q5 132 140 135h139q140 -2 141 -135h51v28q1 84 -69 129q-47 30 -107 30h-171q-94 0 -144 -64q-32 -42 -32 -95v-28z" />
    <glyph glyph-name="si_BhIi" horiz-adv-x="744" 
d="M346 315v45q0 129 93 148q15 3 32 3v53q-101 -1 -146 -72q-28 59 -101 70q-13 2 -25 2q-72 0 -108 -49q-11 -16 -16 -34l47 -12q25 42 76 46q55 0 79 -41q11 -19 11 -42h-258v-51h87q-47 -43 -47 -130v-55q0 -118 77 -172q46 -32 110 -32v53q-89 0 -121 79q-13 32 -13 72
v53q0 105 78 126q24 6 56 6h36q-1 -8 -1 -22v-92h51q88 -1 88 -110q-2 -111 -118 -112v-53q127 0 159 94q9 28 9 62v23q0 107 -79 135q-25 9 -56 9zM527 -8q122 0 167 108q20 49 20 114v128q0 146 -91 198q-42 24 -96 24v-53q112 0 131 -122q3 -22 3 -47v-128
q0 -130 -85 -161q-23 -8 -49 -8v-53zM570 601q52 0 79 45q13 23 13 48q0 100 -107 121q-24 5 -52 5h-189q-83 0 -137 -71q-39 -52 -39 -114v-29h51q0 127 90 156q23 7 51 7h150q21 0 42 -3q-40 -28 -43 -75q0 -51 44 -77q22 -13 47 -13z" />
    <glyph glyph-name="si_BhRI" horiz-adv-x="744" 
d="M137 606h52q5 132 140 135h139q140 -2 141 -135h51v28q1 84 -69 129q-47 30 -107 30h-171q-94 0 -144 -64q-32 -42 -32 -95v-28zM346 315v45q0 129 93 148q15 3 32 3v53q-101 -1 -146 -72q-28 59 -101 70q-13 2 -25 2q-72 0 -108 -49q-11 -16 -16 -34l47 -12q25 42 76 46
q55 0 79 -41q11 -19 11 -42h-258v-51h87q-47 -43 -47 -130v-55q0 -118 77 -172q46 -32 110 -32v53q-89 0 -121 79q-13 32 -13 72v53q0 105 78 126q24 6 56 6h36q-1 -8 -1 -22v-92h51q88 -1 88 -110q-2 -111 -118 -112v-53q127 0 159 94q9 28 9 62v23q0 107 -79 135
q-25 9 -56 9zM527 -8q76 1 122 43q23 -74 -35 -141q-61 -69 -159 -75q-8 -1 -16 -1h-10v-52h15q131 0 209 90q65 75 56 165q-5 36 -21 66q26 54 26 127v128q0 146 -91 198q-42 24 -96 24v-53q112 0 131 -122q3 -22 3 -47v-128q0 -130 -85 -161q-23 -8 -49 -8v-53zM374 -234
v52h-20q-72 0 -137 36q-75 42 -76 109h-53q0 -100 103 -156q73 -41 163 -41h20z" />
    <glyph glyph-name="si_BhRIi" horiz-adv-x="744" 
d="M570 601q52 0 79 45q13 23 13 48q0 100 -107 121q-24 5 -52 5h-189q-83 0 -137 -71q-39 -52 -39 -114v-29h51q0 127 90 156q23 7 51 7h150q21 0 42 -3q-40 -28 -43 -75q0 -51 44 -77q22 -13 47 -13zM346 315v45q0 129 93 148q15 3 32 3v53q-101 -1 -146 -72
q-28 59 -101 70q-13 2 -25 2q-72 0 -108 -49q-11 -16 -16 -34l47 -12q25 42 76 46q55 0 79 -41q11 -19 11 -42h-258v-51h87q-47 -43 -47 -130v-55q0 -118 77 -172q46 -32 110 -32v53q-89 0 -121 79q-13 32 -13 72v53q0 105 78 126q24 6 56 6h36q-1 -8 -1 -22v-92h51
q88 -1 88 -110q-2 -111 -118 -112v-53q127 0 159 94q9 28 9 62v23q0 107 -79 135q-25 9 -56 9zM527 -8q76 1 122 43q23 -74 -35 -141q-61 -69 -159 -75q-8 -1 -16 -1h-10v-52h15q131 0 209 90q65 75 56 165q-5 36 -21 66q26 54 26 127v128q0 146 -91 198q-42 24 -96 24v-53
q112 0 131 -122q3 -22 3 -47v-128q0 -130 -85 -161q-23 -8 -49 -8v-53zM374 -234v52h-20q-72 0 -137 36q-75 42 -76 109h-53q0 -100 103 -156q73 -41 163 -41h20z" />
    <glyph glyph-name="si_BhRa" horiz-adv-x="744" 
d="M346 315v45q0 129 93 148q15 3 32 3v53q-101 -1 -146 -72q-28 59 -101 70q-13 2 -25 2q-72 0 -108 -49q-11 -16 -16 -34l47 -12q25 42 76 46q55 0 79 -41q11 -19 11 -42h-258v-51h87q-47 -43 -47 -130v-55q0 -118 77 -172q46 -32 110 -32v53q-89 0 -121 79q-13 32 -13 72
v53q0 105 78 126q24 6 56 6h36q-1 -8 -1 -22v-92h51q88 -1 88 -110q-2 -111 -118 -112v-53q127 0 159 94q9 28 9 62v23q0 107 -79 135q-25 9 -56 9zM527 -8q76 1 122 43q23 -74 -35 -141q-61 -69 -159 -75q-8 -1 -16 -1h-10v-52h15q131 0 209 90q65 75 56 165q-5 36 -21 66
q26 54 26 127v128q0 146 -91 198q-42 24 -96 24v-53q112 0 131 -122q3 -22 3 -47v-128q0 -130 -85 -161q-23 -8 -49 -8v-53zM374 -234v52h-20q-72 0 -137 36q-75 42 -76 109h-53q0 -100 103 -156q73 -41 163 -41h20z" />
    <glyph glyph-name="si_BhRa.halant" horiz-adv-x="744" 
d="M527 619h52v200h-52v-200zM346 315v45q0 129 93 148q15 3 32 3v53q-101 -1 -146 -72q-28 59 -101 70q-13 2 -25 2q-72 0 -108 -49q-11 -16 -16 -34l47 -12q25 42 76 46q55 0 79 -41q11 -19 11 -42h-258v-51h87q-47 -43 -47 -130v-55q0 -118 77 -172q46 -32 110 -32v53
q-89 0 -121 79q-13 32 -13 72v53q0 105 78 126q24 6 56 6h36q-1 -8 -1 -22v-92h51q88 -1 88 -110q-2 -111 -118 -112v-53q127 0 159 94q9 28 9 62v23q0 107 -79 135q-25 9 -56 9zM527 -8q76 1 122 43q23 -74 -35 -141q-61 -69 -159 -75q-8 -1 -16 -1h-10v-52h15
q131 0 209 90q65 75 56 165q-5 36 -21 66q26 54 26 127v128q0 146 -91 198q-42 24 -96 24v-53q112 0 131 -122q3 -22 3 -47v-128q0 -130 -85 -161q-23 -8 -49 -8v-53zM374 -234v52h-20q-72 0 -137 36q-75 42 -76 109h-53q0 -100 103 -156q73 -41 163 -41h20z" />
    <glyph glyph-name="si_BhU" horiz-adv-x="744" 
d="M658 -205h56v53h-56q-71 4 -73 101v24q2 99 73 100h56v269q0 146 -91 198q-42 24 -96 24v-53q110 0 130 -118q4 -24 4 -52v-214h-3q-79 0 -111 -70q-15 -35 -15 -82v-28q0 -116 82 -145q21 -7 44 -7zM346 315v45q0 129 93 148q15 3 32 3v53q-101 -1 -146 -72
q-28 59 -101 70q-13 2 -25 2q-72 0 -108 -49q-11 -16 -16 -34l47 -12q25 42 76 46q55 0 79 -41q11 -19 11 -42h-258v-51h87q-47 -43 -47 -130v-55q0 -118 77 -172q46 -32 110 -32v53q-89 0 -121 79q-13 32 -13 72v53q0 105 78 126q24 6 56 6h36q-1 -8 -1 -22v-92h51
q88 -1 88 -110q-2 -111 -118 -112v-53q127 0 159 94q9 28 9 62v23q0 107 -79 135q-25 9 -56 9z" />
    <glyph glyph-name="si_BhUu" horiz-adv-x="744" 
d="M603 157h-39v-40h120l-120 -75v-39h49q-30 -22 -31 -63v-41q0 -62 51 -91q24 -13 52 -13h79v52h-74q-48 0 -54 45q-1 6 -1 11v39q0 46 49 58q14 3 29 3h53v39h-121l121 75v40h-64q12 16 12 48v137q0 146 -91 198q-42 24 -96 24v-53q110 0 130 -118q4 -24 4 -52v-137
q-2 -46 -58 -47zM346 315v45q0 129 93 148q15 3 32 3v53q-101 -1 -146 -72q-28 59 -101 70q-13 2 -25 2q-72 0 -108 -49q-11 -16 -16 -34l47 -12q25 42 76 46q55 0 79 -41q11 -19 11 -42h-258v-51h87q-47 -43 -47 -130v-55q0 -118 77 -172q46 -32 110 -32v53q-89 0 -121 79
q-13 32 -13 72v53q0 105 78 126q24 6 56 6h36q-1 -8 -1 -22v-92h51q88 -1 88 -110q-2 -111 -118 -112v-53q127 0 159 94q9 28 9 62v23q0 107 -79 135q-25 9 -56 9z" />
    <glyph glyph-name="si_Bha.reph" horiz-adv-x="744" 
d="M346 315v45q0 129 93 148q15 3 32 3v53q-101 -1 -146 -72q-28 59 -101 70q-13 2 -25 2q-72 0 -108 -49q-11 -16 -16 -34l47 -12q25 42 76 46q55 0 79 -41q11 -19 11 -42h-258v-51h87q-47 -43 -47 -130v-55q0 -118 77 -172q46 -32 110 -32v53q-89 0 -121 79q-13 32 -13 72
v53q0 105 78 126q24 6 56 6h36q-1 -8 -1 -22v-92h51q88 -1 88 -110q-2 -111 -118 -112v-53q127 0 159 94q9 28 9 62v23q0 107 -79 135q-25 9 -56 9zM527 -8q122 0 167 108q20 49 20 114v128q0 146 -91 198q-42 24 -96 24v-53q112 0 131 -122q3 -22 3 -47v-128
q0 -130 -85 -161q-23 -8 -49 -8v-53zM322 588q94 0 104 89q1 10 1 20h-46q-8 -58 -59 -63q-45 0 -60 40q-4 12 -4 24q0 45 43 64q21 9 47 9h62q93 -2 94 -72v-81h48v82q0 71 -64 103q-33 16 -74 16h-67q-88 0 -121 -66q-13 -26 -13 -54q0 -63 48 -94q27 -17 61 -17z" />
    <glyph glyph-name="si_Bha.touch" horiz-adv-x="744" 
d="M346 315v45q0 129 93 148q15 3 32 3v53q-101 -1 -146 -72q-28 59 -101 70q-13 2 -25 2q-72 0 -108 -49q-11 -16 -16 -34l47 -12q25 42 76 46q55 0 79 -41q11 -19 11 -42h-258v-51h87q-47 -43 -47 -130v-55q0 -118 77 -172q46 -32 110 -32v53q-89 0 -121 79q-13 32 -13 72
v53q0 105 78 126q24 6 56 6h36q-1 -8 -1 -22v-92h51q88 -1 88 -110q-2 -111 -118 -112v-53q127 0 159 94q9 28 9 62v23q0 107 -79 135q-25 9 -56 9zM527 -8q122 0 167 108q20 49 20 114v128q0 146 -91 198q-42 24 -96 24v-53q112 0 131 -122q3 -22 3 -47v-128
q0 -130 -85 -161q-23 -8 -49 -8v-53z" />
    <glyph glyph-name="si_C.halant" horiz-adv-x="591" 
d="M30 302h81q-39 -44 -39 -111q0 -89 65 -144q57 -48 143 -48v53q-101 0 -139 76q-14 30 -14 64q0 64 42 95q21 15 47 15h121v51q-1 62 -42 96q-38 33 -95 33q-74 0 -109 -50q-10 -15 -15 -33l46 -12q23 43 77 46q53 0 78 -40q12 -19 12 -43h-259v-48zM86 600h250
q153 0 169 -145q2 -19 2 -38v-174q-2 -190 -171 -191v-53q203 0 223 194q2 23 2 48v178q0 194 -153 226q-33 7 -72 7h-132q-43 0 -56 38q-3 10 -3 20q0 39 33 54q12 5 26 5h76v50h-67q-77 -1 -107 -58q-11 -22 -11 -47q1 -37 22 -62h-31v-52zM335 769h67q60 0 78 -33
q13 -24 13 -63h52q-4 144 -138 146h-72v-50z" />
    <glyph glyph-name="si_CI" horiz-adv-x="591" 
d="M30 302h81q-39 -44 -39 -111q0 -89 65 -144q57 -48 143 -48v53q-101 0 -139 76q-14 30 -14 64q0 64 42 95q21 15 47 15h121v51q-1 62 -42 96q-38 33 -95 33q-74 0 -109 -50q-10 -15 -15 -33l46 -12q23 43 77 46q53 0 78 -40q12 -19 12 -43h-259v-48zM194 600h142
q153 0 169 -145q2 -19 2 -38v-174q0 -182 -154 -191h-17v-53q203 0 223 194q2 23 2 48v178q0 194 -153 226q-33 7 -72 7h-154q-43 0 -56 38q-3 10 -3 20q0 39 33 54q12 5 26 5h98v50h-86q-78 0 -109 -61q-11 -23 -11 -49q0 -64 53 -93q29 -16 67 -16zM335 769h67
q60 0 78 -33q13 -24 13 -63h52q0 125 -104 143q-16 3 -34 3h-72v-50z" />
    <glyph glyph-name="si_CIi" horiz-adv-x="591" 
d="M280 -1v53q-101 0 -139 76q-14 30 -14 64q0 64 42 95q21 15 47 15h121v51q-1 62 -42 96q-38 33 -95 33q-74 0 -109 -50q-10 -15 -15 -33l46 -12q23 43 77 46q53 0 78 -40q12 -19 12 -43h-259v-48h81q-39 -44 -39 -111q0 -89 65 -144q57 -48 143 -48zM336 -1
q203 0 223 194q2 23 2 48v178q-1 129 -68 187q48 10 65 56q6 17 6 34q0 104 -115 121q-21 3 -44 3h-69v-50h49q34 0 44 -2q-39 -20 -45 -65q-1 -6 -1 -11q1 -25 12 -44q-20 3 -43 3h-168q-44 0 -57 39q-3 10 -3 20q0 40 34 55q12 5 26 5h95v50h-85q-77 0 -107 -60
q-12 -24 -12 -50q0 -62 50 -92q29 -18 68 -18h143q153 0 169 -145q2 -19 2 -38v-176q-5 -186 -171 -189v-53z" />
    <glyph glyph-name="si_CR.halant" horiz-adv-x="591" 
d="M30 302h81q-39 -44 -39 -111q0 -89 65 -144q57 -48 143 -48v53q-101 0 -139 76q-14 30 -14 64q0 64 42 95q21 15 47 15h121v51q-1 62 -42 96q-38 33 -95 33q-74 0 -109 -50q-10 -15 -15 -33l46 -12q23 43 77 46q53 0 78 -40q12 -19 12 -43h-259v-48zM86 600h250
q153 0 169 -145q2 -19 2 -38v-174q-2 -190 -171 -191v-53q81 0 134 31q41 -27 41 -77q0 -69 -67 -104q-44 -23 -108 -23v-52q140 0 198 80q31 42 31 99q-1 73 -54 111q50 61 50 177v178q0 194 -153 226q-33 7 -72 7h-132q-43 0 -56 38q-3 10 -3 20q0 39 33 54q12 5 26 5h76
v50h-67q-77 -1 -107 -58q-11 -22 -11 -47q1 -37 22 -62h-31v-52zM335 769h67q60 0 78 -33q13 -24 13 -63h52q-4 144 -138 146h-72v-50zM279 -226v52q-59 0 -107 32q-51 35 -52 94h-51v-15q0 -83 84 -131q57 -32 126 -32z" />
    <glyph glyph-name="si_CRI" horiz-adv-x="591" 
d="M30 302h81q-39 -44 -39 -111q0 -89 65 -144q57 -48 143 -48v53q-101 0 -139 76q-14 30 -14 64q0 64 42 95q21 15 47 15h121v51q-1 62 -42 96q-38 33 -95 33q-74 0 -109 -50q-10 -15 -15 -33l46 -12q23 43 77 46q53 0 78 -40q12 -19 12 -43h-259v-48zM194 600h142
q153 0 169 -145q2 -19 2 -38v-174q0 -182 -154 -191h-17v-53q81 0 134 31q41 -27 41 -77q0 -69 -67 -104q-44 -23 -108 -23v-52q140 0 198 80q31 42 31 99q-1 73 -54 111q50 61 50 177v178q0 194 -153 226q-33 7 -72 7h-154q-43 0 -56 38q-3 10 -3 20q0 39 33 54q12 5 26 5
h98v50h-86q-78 0 -109 -61q-11 -23 -11 -49q0 -64 53 -93q29 -16 67 -16zM335 769h67q60 0 78 -33q13 -24 13 -63h52q0 125 -104 143q-16 3 -34 3h-72v-50zM279 -226v52q-59 0 -107 32q-51 35 -52 94h-51v-15q0 -83 84 -131q57 -32 126 -32z" />
    <glyph glyph-name="si_CRIi" horiz-adv-x="592" 
d="M280 -1v53q-101 0 -139 76q-14 30 -14 64q0 64 42 95q21 15 47 15h121v51q-1 62 -42 96q-38 33 -95 33q-74 0 -109 -50q-10 -15 -15 -33l46 -12q23 43 77 46q53 0 78 -40q12 -19 12 -43h-259v-48h81q-39 -44 -39 -111q0 -89 65 -144q57 -48 143 -48zM336 -226
q140 0 198 80q31 42 31 99q-1 73 -54 111q50 61 50 177v178q-1 129 -68 187q48 10 65 56q6 17 6 34q0 104 -115 121q-21 3 -44 3h-69v-50h49q34 0 44 -2q-39 -20 -45 -65q-1 -6 -1 -11q1 -25 12 -44q-20 3 -43 3h-168q-44 0 -57 39q-3 10 -3 20q0 40 34 55q12 5 26 5h95v50
h-85q-77 0 -107 -60q-12 -24 -12 -50q0 -62 50 -92q29 -18 68 -18h143q153 0 169 -145q2 -19 2 -38v-176q-5 -186 -171 -189v-53q81 0 134 31q41 -27 41 -77q0 -69 -67 -104q-44 -23 -108 -23v-52zM279 -226v52q-59 0 -107 32q-51 35 -52 94h-51v-15q0 -83 84 -131
q57 -32 126 -32z" />
    <glyph glyph-name="si_CRa" horiz-adv-x="592" 
d="M280 -1v53q-101 0 -139 76q-14 30 -14 64q0 64 42 95q21 15 47 15h121v51q-1 62 -42 96q-38 33 -95 33q-74 0 -109 -50q-10 -15 -15 -33l46 -12q23 43 77 46q53 0 78 -40q12 -19 12 -43h-259v-48h81q-39 -44 -39 -111q0 -89 65 -144q57 -48 143 -48zM121 550q0 75 65 121
q44 31 94 31v53q-81 0 -146 -58q-64 -58 -65 -134zM336 -226q140 0 198 80q31 42 31 99q-1 72 -54 111q51 61 51 178v273q0 205 -162 235q-30 5 -64 5v-53q145 0 168 -132q4 -26 4 -58v-270q-2 -189 -172 -190v-53q84 0 134 31q40 -27 41 -77q0 -69 -67 -104
q-44 -23 -108 -23v-52zM279 -226v52q-59 0 -107 32q-51 35 -52 94h-51v-15q0 -83 84 -131q57 -32 126 -32z" />
    <glyph glyph-name="si_CU" horiz-adv-x="592" 
d="M280 -1v53q-101 0 -139 76q-14 30 -14 64q0 64 42 95q21 15 47 15h121v51q-1 62 -42 96q-38 33 -95 33q-74 0 -109 -50q-10 -15 -15 -33l46 -12q23 43 77 46q53 0 78 -40q12 -19 12 -43h-259v-48h81q-39 -44 -39 -111q0 -89 65 -144q57 -48 143 -48zM336 -1q102 1 157 47
v-198h-157v-53h210v333q16 47 16 114v273q0 205 -162 235q-30 5 -64 5v-53q145 0 168 -132q4 -26 4 -58v-270q-2 -189 -172 -190v-53zM121 550q0 75 65 121q44 31 94 31v53q-81 0 -146 -58q-64 -58 -65 -134zM98 -152v-53h182v53h-182z" />
    <glyph glyph-name="si_CUu" horiz-adv-x="592" 
d="M280 -1v53q-101 0 -139 76q-14 30 -14 64q0 64 42 95q21 15 47 15h121v51q-1 62 -42 96q-38 33 -95 33q-74 0 -109 -50q-10 -15 -15 -33l46 -12q23 43 77 46q53 0 78 -40q12 -19 12 -43h-259v-48h81q-39 -44 -39 -111q0 -89 65 -144q57 -48 143 -48zM336 -1q97 1 152 43
v-190q-12 6 -24 11t-22 8.5t-20.5 6t-19 4.5t-17.5 3t-14.5 1.5t-12.5 1t-10 0.5h-8h-4v-54q79 -1 152 -39h53v319q21 53 21 128v273q0 205 -162 235q-30 5 -64 5v-53q145 0 168 -132q4 -26 4 -58v-270q-2 -189 -172 -190v-53zM121 550q0 75 65 121q44 31 94 31v53
q-81 0 -146 -58q-64 -58 -65 -134zM85 -111v-55q40 -34 75 -34q19 0 65 20q32 14 55 14v54q-25 0 -72 -21q-29 -13 -48 -13q-34 1 -75 35z" />
    <glyph glyph-name="si_Ca.reph" horiz-adv-x="592" 
d="M280 -1v53q-101 0 -139 76q-14 30 -14 64q0 64 42 95q21 15 47 15h121v51q-1 62 -42 96q-38 33 -95 33q-74 0 -109 -50q-10 -15 -15 -33l46 -12q23 43 77 46q53 0 78 -40q12 -19 12 -43h-259v-48h81q-39 -44 -39 -111q0 -89 65 -144q57 -48 143 -48zM336 -1
q196 0 222 181q4 29 4 62v273q0 205 -162 235q-30 5 -64 5v-53q145 0 168 -132q4 -26 4 -58v-270q-2 -189 -172 -190v-53zM121 550q0 75 65 121q44 31 94 31v53q-81 0 -146 -58q-64 -58 -65 -134zM247 775q96 0 103 95q1 7 1 14h-45q-8 -58 -60 -63q-43 0 -59 39
q-5 12 -5 25q0 45 43 64q21 9 47 9h62q94 -2 95 -72v-81h47v82q0 70 -63 102q-32 17 -74 17h-67q-88 0 -122 -65q-13 -26 -13 -55q0 -62 47 -93q28 -18 63 -18z" />
    <glyph glyph-name="si_Ca.touch" horiz-adv-x="592" 
d="M280 -1v53q-101 0 -139 76q-14 30 -14 64q0 64 42 95q21 15 47 15h121v51q-1 62 -42 96q-38 33 -95 33q-74 0 -109 -50q-10 -15 -15 -33l46 -12q23 43 77 46q53 0 78 -40q12 -19 12 -43h-259v-48h81q-39 -44 -39 -111q0 -89 65 -144q57 -48 143 -48zM336 -1
q196 0 222 181q4 29 4 62v273q0 205 -162 235q-30 5 -64 5v-53q145 0 168 -132q4 -26 4 -58v-270q-2 -189 -172 -190v-53zM121 550q0 75 65 121q44 31 94 31v53q-81 0 -146 -58q-64 -58 -65 -134z" />
    <glyph glyph-name="si_Ch.halant" horiz-adv-x="626" 
d="M282 -7h61q175 0 224 87q25 44 25 114v71q-7 42 -48 45h-104q-56 0 -87 47q-17 26 -17 56q0 56 47 87q27 17 57 17q57 0 87 -48q5 -8 8 -15l47 11q-22 65 -86 90q-27 11 -56 11q-9 0 -14 -1l157 207l-53 14l-166 -218v251h-52v-319l-1 -2q-34 62 -119 67h-10
q-113 0 -149 -84q-2 -3 -3 -6l49 -17q23 56 103 57q76 0 96 -71q6 -20 6 -42h-88q-140 0 -160 -113q-4 -21 -4 -46h53q0 73 43 95q27 14 71 14h98q28 -64 96 -85q23 -7 47 -7h99v-66q0 -105 -80 -133q-42 -15 -115 -15h-63q-127 0 -168 49q-28 36 -28 99h-53q0 -133 94 -176
q57 -25 156 -25z" />
    <glyph glyph-name="si_ChI" horiz-adv-x="625" 
d="M282 -7h61q175 0 224 87q25 44 25 114v71q-7 42 -48 45h-104q-56 0 -87 47q-17 26 -17 56q0 56 47 87q27 17 57 17q57 0 87 -48q5 -8 8 -15l47 11q-22 65 -86 90q-27 11 -56 11q-9 0 -14 -1l157 207l-53 14l-208 -274q-7 -7 -11 -14q-34 62 -119 67h-10q-113 0 -149 -84
q-2 -3 -3 -6l49 -17q23 56 103 57q76 0 96 -71q6 -20 6 -42h-88q-140 0 -160 -113q-4 -21 -4 -46h53q0 73 43 95q27 14 71 14h98q28 -64 96 -85q23 -7 47 -7h99v-66q0 -105 -80 -133q-42 -15 -115 -15h-63q-127 0 -168 49q-28 36 -28 99h-53q0 -133 94 -176q57 -25 156 -25z
M294 579l29 38q-46 34 -40 67q4 15 16 31l47 62q36 47 85 14q7 -5 15 -11l29 38l-17 13q-82 61 -155 -33l-38 -49q-69 -95 12 -157z" />
    <glyph glyph-name="si_ChIi" horiz-adv-x="626" 
d="M282 -7h61q175 0 224 87q25 44 25 114v71q-7 42 -48 45h-104q-56 0 -87 47q-17 26 -17 56q0 56 47 87q27 17 57 17q57 0 87 -48q5 -8 8 -15l47 11q-22 65 -86 90q-27 11 -56 11q-9 0 -14 -1l157 207l-53 14l-208 -274q-7 -7 -11 -14q-34 62 -119 67h-10q-113 0 -149 -84
q-2 -3 -3 -6l49 -17q23 56 103 57q76 0 96 -71q6 -20 6 -42h-88q-140 0 -160 -113q-4 -21 -4 -46h53q0 73 43 95q27 14 71 14h98q28 -64 96 -85q23 -7 47 -7h99v-66q0 -105 -80 -133q-42 -15 -115 -15h-63q-127 0 -168 49q-28 36 -28 99h-53q0 -133 94 -176q57 -25 156 -25z
M268 608l29 38q-42 32 -40 59q1 18 16 38l59 76q1 -36 31 -60q39 -29 82 -7q17 9 29 24q29 38 8 82q-9 19 -25 31q-83 66 -174 -57l-43 -55q-68 -94 10 -155z" />
    <glyph glyph-name="si_ChU" horiz-adv-x="626" 
d="M282 -7h61q116 0 174 36v-181h-178v-53h231v290q22 43 22 109v71q-7 42 -48 45h-104q-56 0 -87 47q-17 26 -17 56q0 56 47 87q27 17 57 17q57 0 87 -48q5 -8 8 -15l47 11q-22 65 -86 90q-27 11 -56 11q-9 0 -14 -1l157 207l-53 14l-208 -274q-7 -7 -11 -14
q-34 62 -119 67h-10q-113 0 -149 -84q-2 -3 -3 -6l49 -17q23 56 103 57q76 0 96 -71q6 -20 6 -42h-88q-140 0 -160 -113q-4 -21 -4 -46h53q0 73 43 95q27 14 71 14h98q28 -64 96 -85q23 -7 47 -7h99v-66q0 -105 -80 -133q-42 -15 -115 -15h-63q-127 0 -168 49q-28 36 -28 99
h-53q0 -133 94 -176q57 -25 156 -25zM46 -152v-53h237v53h-237z" />
    <glyph glyph-name="si_ChUu" horiz-adv-x="626" 
d="M282 -7h61q120 0 178 38v-179q-117 37 -182 37v-54h2q56 1 178 -39l1 -1h1h53v298q18 43 18 101v71q-7 42 -48 45h-104q-56 0 -87 47q-17 26 -17 56q0 56 47 87q27 17 57 17q57 0 87 -48q5 -8 8 -15l47 11q-22 65 -86 90q-27 11 -56 11q-9 0 -14 -1l157 207l-53 14
l-208 -274q-7 -7 -11 -14q-34 62 -119 67h-10q-113 0 -149 -84q-2 -3 -3 -6l49 -17q23 56 103 57q76 0 96 -71q6 -20 6 -42h-88q-140 0 -160 -113q-4 -21 -4 -46h53q0 73 43 95q27 14 71 14h98q28 -64 96 -85q23 -7 47 -7h99v-66q0 -105 -80 -133q-42 -15 -115 -15h-63
q-127 0 -168 49q-28 36 -28 99h-53q0 -133 94 -176q57 -25 156 -25zM41 -111v-54q50 -40 95 -40q26 0 81 23q40 17 65 17v54q-25 0 -79 -24q-40 -17 -66 -17q-48 1 -96 41z" />
    <glyph glyph-name="si_Cha.touch" horiz-adv-x="625" 
d="M282 -7h61q175 0 224 87q25 44 25 114v71q-7 42 -48 45h-104q-56 0 -87 47q-17 26 -17 56q0 56 47 87q27 17 57 17q57 0 87 -48q5 -8 8 -15l47 11q-22 65 -86 90q-27 11 -56 11q-9 0 -14 -1l157 207l-53 14l-208 -274q-7 -7 -11 -14q-34 62 -119 67h-10q-113 0 -149 -84
q-2 -3 -3 -6l49 -17q23 56 103 57q76 0 96 -71q6 -20 6 -42h-88q-140 0 -160 -113q-4 -21 -4 -46h53q0 73 43 95q27 14 71 14h98q28 -64 96 -85q23 -7 47 -7h99v-66q0 -105 -80 -133q-42 -15 -115 -15h-63q-127 0 -168 49q-28 36 -28 99h-53q0 -133 94 -176q57 -25 156 -25z
" />
    <glyph glyph-name="si_D.halant" horiz-adv-x="535" 
d="M362 -204q-89 0 -138 60q-32 42 -32 99h52q0 -64 60 -94q29 -14 62 -14q69 0 102 53q10 17 15 36l52 -13q-19 -83 -100 -114q-35 -13 -73 -13zM30 199q0 132 110 181q50 22 116 22h126q0 81 -73 112q-30 13 -66 13q-72 0 -109 -50q-13 -17 -18 -37l-49 16q21 80 103 111
q34 12 71 12q97 0 151 -66q41 -50 41 -123v-41h-186q-115 0 -150 -84q-12 -30 -12 -66q0 -93 80 -129q40 -18 92 -18h39q108 1 153 99l49 -13q-39 -109 -153 -133q-25 -5 -49 -5h-39q-128 0 -189 77q-38 50 -38 122zM297 619v200h52v-200h-52z" />
    <glyph glyph-name="si_DDdh.halant" horiz-adv-x="729" 
d="M324 -1q78 1 115 56q40 -55 117 -56q86 0 124 63q19 33 19 75v282q0 192 -150 226q-34 7 -76 7h-157q-43 0 -56 38q-3 10 -3 20q0 39 33 54q12 5 26 5h96v50h-88q-80 0 -109 -60q-10 -22 -10 -45q1 -36 23 -62h-33v-52h278q147 0 167 -132q4 -24 4 -51v-274
q0 -46 -34 -73q-24 -18 -57 -18q-65 0 -85 60q-5 16 -5 31v50h-49v-50q0 -48 -35 -74q-24 -17 -56 -17q-64 0 -85 59q-6 17 -6 32v153q0 72 49 107q32 23 81 23h37v53h-158q-155 0 -195 -97q-16 -39 -16 -92v-82q0 -100 18 -149q13 -33 37 -70l54 20q-49 67 -55 135
q-2 21 -2 60v86q0 107 90 130q23 5 50 6q-44 -49 -44 -125v-164q0 -84 68 -120q35 -18 78 -18zM467 769h80q60 0 78 -33q13 -24 13 -63h52q-4 144 -138 146h-85v-50z" />
    <glyph glyph-name="si_DDhI" horiz-adv-x="729" 
d="M324 -1q78 1 115 56q40 -55 117 -56q86 0 124 63q19 33 19 75v282q0 192 -150 226q-34 7 -76 7h-161q-44 0 -56 39q-3 10 -3 19q0 39 33 54q12 5 26 5h100v50h-89q-77 0 -108 -59q-12 -25 -12 -51q0 -65 53 -94q29 -16 67 -16h150q147 0 167 -132q4 -24 4 -51v-273
q0 -46 -34 -73q-24 -18 -57 -18q-65 0 -85 60q-5 16 -5 31v50h-49v-50q0 -48 -35 -74q-24 -17 -56 -17q-64 0 -85 59q-6 17 -6 32v153q0 72 49 107q32 23 81 23h37v53h-158q-155 0 -195 -97q-16 -39 -16 -92v-82q0 -100 18 -149q13 -33 37 -70l54 20q-49 67 -55 135
q-2 21 -2 60v86q0 107 90 130q23 5 50 6q-44 -49 -44 -125v-164q0 -84 68 -120q35 -18 78 -18zM638 673h52q0 129 -110 144q-13 2 -28 2h-85v-50h81q60 0 78 -35q12 -23 12 -61z" />
    <glyph glyph-name="si_DDhIi" horiz-adv-x="735" 
d="M465 820v-50h60q28 0 44 -2q-40 -20 -45 -66q-1 -5 -1 -10q1 -24 13 -45q-22 4 -51 4h-172q-45 0 -57 40q-3 9 -3 19q0 40 34 55q12 5 26 5h96v50h-86q-78 0 -109 -61q-11 -23 -11 -49q0 -61 50 -92q29 -18 69 -18h151q147 0 167 -132q4 -24 4 -51v-274q0 -46 -34 -73
q-24 -18 -57 -18q-65 0 -85 60q-5 16 -5 31v50h-49v-50q0 -48 -35 -74q-24 -17 -56 -17q-64 0 -85 59q-6 17 -6 32v153q0 72 49 107q32 23 81 23h37v53h-37q-14 0 -20 -1q-36 1 -101 1q-163 0 -199 -109q-12 -36 -12 -81v-82q0 -100 18 -148q13 -34 37 -70l54 19
q-49 67 -55 135q-2 21 -2 60v86q0 110 94 131q21 5 46 6q-44 -49 -44 -125v-164q0 -84 68 -120q35 -18 78 -18q78 1 115 56q40 -55 117 -56q86 0 124 63q19 33 19 75v282q-1 129 -67 187q46 9 65 54q7 17 7 36q0 101 -111 120q-23 4 -48 4h-80z" />
    <glyph glyph-name="si_DDhU" horiz-adv-x="729" 
d="M463 -152v-53h224v282q12 26 12 60v378q0 181 -125 225q-45 15 -107 15v-53q127 0 162 -90q15 -41 15 -100v-369q0 -46 -34 -73q-24 -18 -57 -18q-65 0 -85 60q-5 16 -5 31v50h-49v-50q0 -48 -35 -74q-24 -17 -56 -17q-64 0 -85 59q-6 17 -6 32v153q0 72 49 107
q32 23 81 23h37v53h-158q-155 0 -195 -97q-16 -39 -16 -92v-82q0 -100 18 -149q13 -33 37 -70l54 20q-49 67 -55 135q-2 21 -2 60v86q0 107 90 130q23 5 50 6q-44 -49 -44 -125v-164q0 -84 68 -120q35 -18 78 -18q78 1 115 56q40 -55 117 -56q43 0 78 19v-170h-171z
M198 -152v-53h209v53h-209zM187 563l52 -13q0 82 74 126q45 26 98 26v53q-90 0 -158 -58q-65 -56 -66 -134z" />
    <glyph glyph-name="si_DDhUu" horiz-adv-x="729" 
d="M199 -129v-54q34 -18 67 -18q20 0 73 17q37 12 68 12v55q-31 0 -88 -20q-31 -11 -52 -11q-33 1 -68 19zM463 -117v-55q92 -1 171 -33h53v282q12 26 12 60v378q0 181 -125 225q-45 15 -107 15v-53q127 0 162 -90q15 -41 15 -100v-369q0 -46 -34 -73q-24 -18 -57 -18
q-65 0 -85 60q-5 16 -5 31v50h-49v-50q0 -48 -35 -74q-24 -17 -56 -17q-64 0 -85 59q-6 17 -6 32v153q0 72 49 107q32 23 81 23h37v53h-158q-155 0 -195 -97q-16 -39 -16 -92v-82q0 -100 18 -149q13 -33 37 -70l54 20q-49 67 -55 135q-2 21 -2 60v86q0 107 90 130q23 5 50 6
q-44 -49 -44 -125v-164q0 -84 68 -120q35 -18 78 -18q78 1 115 56q40 -55 117 -56q43 0 78 19v-166q-80 31 -171 31zM187 563l52 -13q0 82 74 126q45 26 98 26v53q-90 0 -158 -58q-65 -56 -66 -134z" />
    <glyph glyph-name="si_DDha" horiz-adv-x="729" 
d="M324 -1q78 1 115 56q40 -55 117 -56q86 0 124 63q19 33 19 75v378q0 181 -125 225q-45 15 -107 15v-53q127 0 162 -90q15 -41 15 -100v-369q0 -46 -34 -73q-24 -18 -57 -18q-65 0 -85 60q-5 16 -5 31v50h-49v-50q0 -48 -35 -74q-24 -17 -56 -17q-64 0 -85 59q-6 17 -6 32
v153q0 72 49 107q32 23 81 23h37v53h-158q-155 0 -195 -97q-16 -39 -16 -92v-82q0 -100 18 -149q13 -33 37 -70l54 20q-49 67 -55 135q-2 21 -2 60v86q0 107 90 130q23 5 50 6q-44 -49 -44 -125v-164q0 -84 68 -120q35 -18 78 -18zM187 563l52 -13q0 82 74 126q45 26 98 26
v53q-90 0 -158 -58q-65 -56 -66 -134z" />
    <glyph glyph-name="si_DI" horiz-adv-x="539" 
d="M366 -204q-89 0 -138 60q-32 42 -32 99h53q0 -63 59 -93q29 -15 62 -15q68 0 102 52q11 17 16 37l51 -13q-19 -83 -100 -114q-35 -13 -73 -13zM34 199q0 132 110 181q50 22 116 22h126q0 81 -73 112q-30 13 -66 13q-73 0 -110 -51q-11 -17 -17 -36l-49 16q21 80 103 111
q34 12 71 12q98 0 153 -66q40 -50 40 -123v-41h-186q-114 0 -150 -83q-13 -30 -13 -67q0 -92 79 -129q40 -18 93 -18h39q108 1 153 99l49 -13q-39 -109 -154 -133q-24 -5 -48 -5h-39q-128 0 -189 77q-38 50 -38 122zM30 602v28q0 84 70 129q46 30 106 30h87q94 0 144 -64
q32 -42 32 -95v-28h-52q-5 132 -140 135h-55q-137 -8 -140 -135h-52z" />
    <glyph glyph-name="si_DIi" horiz-adv-x="543" 
d="M371 -204q92 0 142 63q22 28 30 64l-51 13q-16 -65 -81 -84q-18 -5 -37 -5q-65 0 -100 46q-21 27 -21 62h-53q0 -94 79 -137q42 -22 92 -22zM39 199q0 -128 110 -176q52 -23 117 -23h38q98 0 159 65q29 31 44 73l-49 13q-48 -98 -154 -99h-38q-119 0 -158 80
q-14 31 -14 67q0 101 83 136q34 14 79 14h186v41q0 114 -90 164q-46 25 -103 25q-92 0 -143 -63q-22 -27 -31 -60l50 -16q16 60 81 80q23 7 46 7q80 0 117 -54q21 -31 21 -71h-125q-143 0 -198 -93q-28 -46 -28 -110zM394 601q52 0 78 46q13 22 13 48q0 98 -105 120
q-26 5 -54 5h-112q-96 0 -142 -69q-26 -39 -26 -90v-28h52q0 79 36 109q34 27 96 27h74q20 0 41 -3q-40 -28 -43 -75q0 -50 43 -77q23 -13 49 -13z" />
    <glyph glyph-name="si_DR.halant" horiz-adv-x="530" 
d="M30 199q0 -128 110 -176q52 -23 117 -23h38q89 1 149 58v-77q0 -100 -66 -142q-34 -21 -80 -21v-52q198 2 199 236v140h-53q-45 -89 -151 -90h-36q-117 0 -157 79q-15 31 -15 68q0 100 82 135q36 15 81 15h186v41q0 113 -89 163q-47 26 -104 26q-90 0 -142 -61
q-23 -27 -32 -62l49 -16q17 62 84 81q21 6 43 6q81 0 118 -54q21 -31 21 -71h-126q-140 0 -197 -90q-29 -48 -29 -113zM242 -234v52q-70 0 -116 39q-41 36 -41 96h-52v-12q0 -95 88 -145q55 -30 121 -30zM297 619h53v200h-53v-200z" />
    <glyph glyph-name="si_DRI" horiz-adv-x="530" 
d="M30 199q0 -128 110 -176q52 -23 117 -23h38q89 1 149 58v-77q0 -100 -66 -142q-34 -21 -80 -21v-52q198 2 199 236v140h-53q-45 -89 -151 -90h-36q-117 0 -157 79q-15 31 -15 68q0 100 82 135q36 15 81 15h186v41q0 113 -89 163q-47 26 -104 26q-90 0 -142 -61
q-23 -27 -32 -62l49 -16q17 62 84 81q21 6 43 6q81 0 118 -54q21 -31 21 -71h-126q-140 0 -197 -90q-29 -48 -29 -113zM242 -234v52q-70 0 -116 39q-41 36 -41 96h-52v-12q0 -95 88 -145q55 -30 121 -30zM30 602h52q5 132 140 135h55q139 -2 140 -135h52v28q0 84 -70 129
q-46 30 -106 30h-87q-94 0 -144 -64q-32 -42 -32 -95v-28z" />
    <glyph glyph-name="si_DRIi" horiz-adv-x="530" 
d="M30 199q0 -128 110 -176q52 -23 117 -23h38q89 1 149 58v-77q0 -100 -66 -142q-34 -21 -80 -21v-52q198 2 199 236v140h-53q-45 -89 -151 -90h-36q-117 0 -157 79q-15 31 -15 68q0 100 82 135q36 15 81 15h186v41q0 113 -89 163q-47 26 -104 26q-90 0 -142 -61
q-23 -27 -32 -62l49 -16q17 62 84 81q21 6 43 6q81 0 118 -54q21 -31 21 -71h-126q-140 0 -197 -90q-29 -48 -29 -113zM242 -234v52q-70 0 -116 39q-41 36 -41 96h-52v-12q0 -95 88 -145q55 -30 121 -30zM389 601q52 0 78 46q13 22 13 48q0 98 -105 120q-26 5 -54 5h-112
q-96 0 -142 -69q-26 -39 -26 -90v-28h52q0 79 36 109q34 27 96 27h74q20 0 41 -3q-40 -28 -43 -75q0 -50 43 -77q23 -13 49 -13z" />
    <glyph glyph-name="si_DRa" horiz-adv-x="530" 
d="M30 199q0 -128 110 -176q52 -23 117 -23h38q89 1 149 58v-77q0 -100 -66 -142q-34 -21 -80 -21v-52q198 2 199 236v140h-53q-45 -89 -151 -90h-36q-117 0 -157 79q-15 31 -15 68q0 100 82 135q36 15 81 15h186v41q0 113 -89 163q-47 26 -104 26q-90 0 -142 -61
q-23 -27 -32 -62l49 -16q17 62 84 81q21 6 43 6q81 0 118 -54q21 -31 21 -71h-126q-140 0 -197 -90q-29 -48 -29 -113zM242 -234v52q-70 0 -116 39q-41 36 -41 96h-52v-12q0 -95 88 -145q55 -30 121 -30z" />
    <glyph glyph-name="si_DU" horiz-adv-x="475" 
d="M391 -205v258h54v-258h-54zM36 -205v53h300v-53h-300zM257 0q-128 0 -189 77q-38 50 -38 122q0 134 112 182q50 21 114 21h126q0 81 -73 112q-30 13 -66 13q-73 0 -110 -51q-11 -17 -17 -36l-49 16q21 80 102 110q34 13 71 13q98 0 153 -66q40 -50 40 -122v-42h-186
q-115 0 -150 -84q-12 -30 -12 -66q0 -93 80 -129q40 -18 92 -18h79v-52h-79z" />
    <glyph glyph-name="si_DUu" horiz-adv-x="475" 
d="M257 0q-128 0 -189 77q-38 50 -38 122q0 134 112 182q50 21 114 21h126q0 81 -73 112q-30 13 -66 13q-73 0 -110 -51q-11 -17 -17 -36l-49 16q21 80 102 110q34 13 71 13q98 0 153 -66q40 -50 40 -122v-42h-186q-115 0 -150 -84q-12 -30 -12 -66q0 -93 80 -129
q40 -18 92 -18h79v-52h-79zM391 -205v258h54v-258h-54zM336 -205q-47 23 -87 23q-28 0 -86 -16q-25 -7 -43 -7q-54 1 -84 26v50q29 -26 84 -26q17 0 69 14q33 9 60 9q36 0 87 -19v-54z" />
    <glyph glyph-name="si_DV.halant" horiz-adv-x="693" 
d="M381 -1v53q-92 0 -135 65q-20 31 -20 66q0 79 54 103q38 16 121 16h53v54q0 78 -69 111q-32 15 -68 15q-63 -1 -98 -38q-23 6 -44 6q-85 0 -122 -82q-23 -50 -23 -122v-42q0 -95 21 -145q15 -33 43 -70l53 20q-54 65 -62 127q-3 24 -3 68v42q0 130 71 150q13 4 26 4
q9 0 14 -1l47 -12q25 42 77 46q52 0 77 -38q12 -20 12 -43q-123 0 -172 -33q-12 -8 -21 -18q-40 -41 -40 -119q0 -80 68 -135q60 -48 140 -48zM194 600h243q151 0 169 -140q3 -20 3 -43v-174q-5 -188 -172 -191v-53q210 0 225 208q1 17 1 34v178q0 192 -150 226q-34 7 -76 7
h-126q-43 0 -56 38q-3 10 -3 20q0 39 33 54q12 5 26 5h76v50h-68q-74 0 -104 -56q-12 -23 -12 -49q1 -37 21 -62h-30v-52zM601 673h52q0 122 -100 143q-18 3 -37 3h-73v-50h69q58 0 77 -33q12 -24 12 -63z" />
    <glyph glyph-name="si_DVI" horiz-adv-x="694" 
d="M381 -1v53q-92 0 -135 65q-20 31 -20 66q0 79 54 103q38 16 121 16h53v54q0 78 -69 111q-32 15 -68 15q-63 -1 -98 -38q-23 6 -44 6q-85 0 -122 -82q-23 -50 -23 -122v-42q0 -95 21 -145q15 -33 43 -70l53 20q-54 65 -62 127q-3 24 -3 68v42q0 130 71 150q13 4 26 4
q9 0 14 -1l47 -12q25 42 77 46q52 0 77 -38q12 -20 12 -43q-123 0 -172 -33q-12 -8 -21 -18q-40 -41 -40 -119q0 -80 68 -135q60 -48 140 -48zM437 -1q210 0 225 208q1 17 1 34v178q0 190 -146 225q-33 7 -74 8h-144q-43 0 -56 38q-3 10 -3 20q0 39 33 54q12 5 26 5h88v50
h-77q-77 0 -107 -60q-12 -24 -12 -50q0 -65 53 -94q29 -15 66 -15h127q151 0 169 -140q3 -20 3 -43v-174q0 -178 -149 -190q-11 -1 -23 -1v-53zM609 673h53q0 108 -88 137q-27 9 -59 9h-72v-50h67q70 0 89 -42q10 -22 10 -54z" />
    <glyph glyph-name="si_DVIi" horiz-adv-x="694" 
d="M381 -1v53q-92 0 -135 65q-20 31 -20 66q0 79 54 103q38 16 121 16h53v54q0 78 -69 111q-32 15 -68 15q-63 -1 -98 -38q-23 6 -44 6q-85 0 -122 -82q-23 -50 -23 -122v-42q0 -95 21 -145q15 -33 43 -70l53 20q-54 65 -62 127q-3 24 -3 68v42q0 130 71 150q13 4 26 4
q9 0 14 -1l47 -12q25 42 77 46q52 0 77 -38q12 -20 12 -43q-123 0 -172 -33q-12 -8 -21 -18q-40 -41 -40 -119q0 -80 68 -135q60 -48 140 -48zM437 -1q210 0 225 208q1 17 1 34v178q-1 132 -65 188q46 10 63 56q6 16 6 33q0 102 -114 121q-22 3 -46 3h-70v-49h51q22 0 44 -3
q-40 -20 -45 -66q-1 -5 -1 -10q1 -25 12 -44q-22 3 -46 3h-152q-44 0 -56 40q-3 10 -3 19q0 41 34 55q12 5 25 5h82v50h-72q-77 0 -107 -60q-12 -24 -12 -50q0 -62 50 -92q29 -18 68 -18h128q151 0 169 -140q3 -20 3 -43v-176q0 -182 -158 -189h-14v-53z" />
    <glyph glyph-name="si_DVU" horiz-adv-x="696" 
d="M440 -152v-53h210v332q16 49 16 115v273q0 205 -162 235q-30 5 -64 5v-53q145 0 168 -132q4 -26 4 -58v-270q-2 -189 -172 -190v-53q102 1 157 47v-198h-157zM202 -152v-53h182v53h-182zM384 -1v53q-92 0 -135 65q-20 31 -20 66q0 79 55 103q38 16 119 16h54v54
q0 78 -69 111q-32 15 -68 15q-63 -1 -99 -38q-23 6 -46 6q-85 0 -122 -82q-23 -50 -23 -122v-42q0 -95 21 -145q15 -33 43 -70l53 20q-54 65 -62 127q-3 24 -3 68v42q0 130 71 150q13 4 26 4q6 0 21 -2l42 -11q25 42 77 46q54 0 78 -39q12 -19 12 -42q-123 0 -172 -33
q-12 -8 -21 -18q-40 -41 -40 -119q0 -80 68 -135q60 -48 140 -48zM173 563l52 -13q0 75 65 121q44 31 94 31v53q-81 0 -146 -58q-64 -58 -65 -134z" />
    <glyph glyph-name="si_DVUu" horiz-adv-x="696" 
d="M190 -111v-55q40 -34 74 -34q19 0 65 20q32 14 55 14v54q-24 0 -71 -21q-29 -13 -48 -13q-35 1 -75 35zM593 -205h53v321q20 51 20 126v273q0 205 -162 235q-30 5 -64 5v-53q145 0 168 -132q4 -26 4 -58v-270q-2 -189 -172 -190v-53q98 1 153 43v-190q-12 6 -24 11
t-22 8.5t-21 6t-19 4.5t-17 3t-15 1.5t-13 1t-10 0.5h-8h-4v-54q80 -1 153 -39zM384 -1v53q-92 0 -135 65q-20 31 -20 66q0 79 55 103q38 16 119 16h54v54q0 78 -69 111q-32 15 -68 15q-63 -1 -99 -38q-23 6 -46 6q-85 0 -122 -82q-23 -50 -23 -122v-42q0 -95 21 -145
q15 -33 43 -70l53 20q-54 65 -62 127q-3 24 -3 68v42q0 130 71 150q13 4 26 4q6 0 21 -2l42 -11q25 42 77 46q54 0 78 -39q12 -19 12 -42q-123 0 -172 -33q-12 -8 -21 -18q-40 -41 -40 -119q0 -80 68 -135q60 -48 140 -48zM173 563l52 -13q0 75 65 121q44 31 94 31v53
q-81 0 -146 -58q-64 -58 -65 -134z" />
    <glyph glyph-name="si_DVa" horiz-adv-x="696" 
d="M384 -1v53q-92 0 -135 65q-20 31 -20 66q0 79 55 103q38 16 119 16h54v54q0 78 -69 111q-32 15 -68 15q-63 -1 -99 -38q-23 6 -46 6q-85 0 -122 -82q-23 -50 -23 -122v-42q0 -95 21 -145q15 -33 43 -70l53 20q-54 65 -62 127q-3 24 -3 68v42q0 130 71 150q13 4 26 4
q6 0 21 -2l42 -11q25 42 77 46q54 0 78 -39q12 -19 12 -42q-123 0 -172 -33q-12 -8 -21 -18q-40 -41 -40 -119q0 -80 68 -135q60 -48 140 -48zM440 -1q190 0 220 167q6 35 6 76v273q0 205 -162 235q-30 5 -64 5v-53q145 0 168 -132q4 -26 4 -58v-270q-2 -189 -172 -190v-53z
M173 563l52 -13q0 75 65 121q44 31 94 31v53q-81 0 -146 -58q-64 -58 -65 -134z" />
    <glyph glyph-name="si_Da.reph" horiz-adv-x="535" 
d="M362 -204q-89 0 -138 60q-32 42 -32 99h52q0 -64 60 -94q29 -14 62 -14q69 0 102 53q10 17 15 36l52 -13q-19 -83 -100 -114q-35 -13 -73 -13zM30 199q0 132 110 181q50 22 116 22h126q0 81 -73 112q-30 13 -66 13q-72 0 -109 -50q-13 -17 -18 -37l-49 16q21 80 103 111
q34 12 71 12q97 0 151 -66q41 -50 41 -123v-41h-186q-115 0 -150 -84q-12 -30 -12 -66q0 -93 80 -129q40 -18 92 -18h39q108 1 153 99l49 -13q-39 -109 -153 -133q-25 -5 -49 -5h-39q-128 0 -189 77q-38 50 -38 122zM189 588q-69 0 -98 58q-12 25 -12 53q0 64 53 98
q34 22 82 22h67q82 0 119 -56q18 -28 18 -63v-82h-47v81q-1 72 -95 72h-62q-66 0 -85 -47q-5 -13 -5 -26q0 -40 34 -57q14 -7 30 -7q55 9 60 63h45q0 -100 -88 -108q-8 -1 -16 -1z" />
    <glyph glyph-name="si_Da.touch" horiz-adv-x="535" 
d="M362 -204q-89 0 -138 60q-32 42 -32 99h52q0 -64 60 -94q29 -14 62 -14q69 0 102 53q10 17 15 36l52 -13q-19 -83 -100 -114q-35 -13 -73 -13zM30 199q0 132 110 181q50 22 116 22h126q0 81 -73 112q-30 13 -66 13q-72 0 -109 -50q-13 -17 -18 -37l-49 16q21 80 103 111
q34 12 71 12q97 0 151 -66q41 -50 41 -123v-41h-186q-115 0 -150 -84q-12 -30 -12 -66q0 -93 80 -129q40 -18 92 -18h39q108 1 153 99l49 -13q-39 -109 -153 -133q-25 -5 -49 -5h-39q-128 0 -189 77q-38 50 -38 122z" />
    <glyph glyph-name="si_Dd.halant" horiz-adv-x="625" 
d="M220 -1q78 1 115 56q38 -55 117 -56q86 0 124 63q19 33 19 75v282q0 192 -150 226q-34 7 -76 7h-162q-44 0 -57 38q-3 10 -3 20q0 39 33 54q13 5 27 5h95v50h-88q-81 0 -109 -61q-9 -21 -9 -44q1 -37 22 -62h-32v-52h283q147 0 167 -132q4 -24 4 -51v-274q0 -46 -34 -73
q-24 -18 -57 -18q-65 0 -85 60q-5 16 -5 31v50h-50v-50q0 -46 -34 -73q-23 -18 -56 -18q-64 0 -85 59q-6 17 -6 32v90q0 62 55 67q7 1 15 1h161v52q-1 61 -42 96q-38 33 -96 33q-72 0 -108 -49q-11 -16 -16 -34l47 -12q23 43 77 46q53 0 78 -40q11 -19 12 -43h-281v-49h69
q-25 -14 -25 -68v-96q0 -84 68 -120q35 -18 78 -18zM528 673h53q-2 145 -139 146h-84v-50h80q60 0 78 -35q12 -23 12 -61z" />
    <glyph glyph-name="si_DdI" horiz-adv-x="625" 
d="M220 -1q78 1 115 56q38 -55 117 -56q86 0 124 63q19 33 19 75v282q0 192 -150 226q-34 7 -76 7h-167q-43 0 -56 38q-3 10 -3 20q0 39 33 54q12 5 26 5h100v50h-88q-78 0 -109 -61q-11 -23 -11 -49q0 -65 53 -94q29 -16 67 -16h155q144 0 167 -128q4 -26 4 -56v-272
q0 -46 -34 -73q-24 -18 -57 -18q-65 0 -85 60q-5 16 -5 31v50h-50v-50q0 -46 -34 -73q-23 -18 -56 -18q-64 0 -85 59q-6 17 -6 32v90q0 62 55 67q7 1 15 1h161v52q0 79 -67 113q-32 16 -71 16q-72 0 -108 -49q-11 -16 -16 -34l47 -12q23 43 77 46q54 0 79 -41q10 -19 11 -42
h-281v-49h69q-25 -14 -25 -68v-96q0 -84 68 -120q35 -18 78 -18zM529 673h52q0 126 -106 143q-16 3 -33 3h-84v-50h80q60 0 78 -33q13 -24 13 -63z" />
    <glyph glyph-name="si_DdIi" horiz-adv-x="625" 
d="M346 820v-49h63q21 0 43 -3q-39 -20 -45 -65q-1 -6 -1 -11q0 -22 12 -44q-23 3 -49 3h-166q-44 0 -56 40q-3 10 -3 19q0 41 34 55q12 5 25 5h87v50h-76q-78 0 -109 -61q-11 -23 -11 -49q0 -62 50 -92q29 -18 68 -18h157q147 0 167 -132q4 -24 4 -51v-274q0 -46 -34 -73
q-24 -18 -57 -18q-65 0 -85 60q-5 16 -5 31v50h-50v-50q0 -46 -34 -73q-23 -18 -56 -18q-64 0 -85 59q-6 17 -6 32v90q0 62 55 67q7 1 15 1h161v52q0 79 -67 113q-32 16 -71 16q-72 0 -108 -49q-11 -16 -16 -34l47 -12q23 43 77 46q54 0 79 -41q10 -19 11 -42h-281v-49h69
q-25 -14 -25 -68v-96q0 -84 68 -120q35 -18 78 -18q78 1 115 56q38 -55 117 -56q86 0 124 63q19 33 19 75v282q-1 134 -71 189q45 15 59 61q4 14 4 27q0 104 -115 121q-21 3 -44 3h-82z" />
    <glyph glyph-name="si_DdR.halant" horiz-adv-x="625" 
d="M220 -1q78 1 115 56q38 -55 117 -56q40 0 70 15q20 -25 20 -60q0 -65 -66 -102q-49 -26 -119 -26v-52q140 0 203 78q36 44 36 103q-1 54 -30 94q29 36 29 88v282q0 192 -150 226q-34 7 -76 7h-162q-44 0 -57 38q-3 10 -3 20q0 39 33 54q13 5 27 5h95v50h-88
q-81 0 -109 -61q-9 -21 -9 -44q1 -37 22 -62h-32v-52h283q147 0 167 -132q4 -24 4 -51v-274q0 -46 -34 -73q-24 -18 -57 -18q-65 0 -85 60q-5 16 -5 31v50h-50v-50q0 -46 -34 -73q-23 -18 -56 -18q-64 0 -85 59q-6 17 -6 32v90q0 62 55 67q7 1 15 1h161v52q-1 61 -42 96
q-38 33 -96 33q-72 0 -108 -49q-11 -16 -16 -34l47 -12q23 43 77 46q53 0 78 -40q11 -19 12 -43h-281v-49h69q-25 -14 -25 -68v-96q0 -84 68 -120q35 -18 78 -18zM528 673h53q-2 145 -139 146h-84v-50h80q60 0 78 -35q12 -23 12 -61zM301 -226v52q-62 0 -117 30
q-63 36 -64 97h-53q0 -94 94 -145q63 -34 140 -34z" />
    <glyph glyph-name="si_DdRI" horiz-adv-x="625" 
d="M220 -1q78 1 115 56q38 -55 117 -56q42 0 74 17q21 -28 21 -62q0 -65 -66 -101q-49 -27 -118 -27v-52q139 0 202 77q36 45 36 104q-1 56 -32 97q26 34 26 85v282q0 192 -150 226q-34 7 -76 7h-167q-43 0 -56 38q-3 10 -3 20q0 39 33 54q12 5 26 5h100v50h-88
q-78 0 -109 -61q-11 -23 -11 -49q0 -65 53 -94q29 -16 67 -16h155q144 0 167 -128q4 -26 4 -56v-272q0 -46 -34 -73q-24 -18 -57 -18q-65 0 -85 60q-5 16 -5 31v50h-50v-50q0 -46 -34 -73q-23 -18 -56 -18q-64 0 -85 59q-6 17 -6 32v90q0 62 55 67q7 1 15 1h161v52
q0 79 -67 113q-32 16 -71 16q-72 0 -108 -49q-11 -16 -16 -34l47 -12q23 43 77 46q54 0 79 -41q10 -19 11 -42h-281v-49h69q-25 -14 -25 -68v-96q0 -84 68 -120q35 -18 78 -18zM529 673h52q0 126 -106 143q-16 3 -33 3h-84v-50h80q60 0 78 -33q13 -24 13 -63zM307 -226v52
q-63 0 -118 31q-62 36 -63 96h-54q0 -95 95 -146q63 -33 140 -33z" />
    <glyph glyph-name="si_DdRIi" horiz-adv-x="625" 
d="M363 -226q139 0 202 77q36 45 36 104q-1 56 -32 97q26 34 26 85v282q-1 134 -71 189q45 15 59 61q4 14 4 27q0 104 -115 121q-21 3 -44 3h-82v-49h63q21 0 43 -3q-39 -20 -45 -65q-1 -6 -1 -11q0 -22 12 -44q-23 3 -49 3h-166q-44 0 -56 40q-3 10 -3 19q0 41 34 55
q12 5 25 5h87v50h-76q-78 0 -109 -61q-11 -23 -11 -49q0 -62 50 -92q29 -18 68 -18h157q147 0 167 -132q4 -24 4 -51v-274q0 -46 -34 -73q-24 -18 -57 -18q-65 0 -85 60q-5 16 -5 31v50h-50v-50q0 -46 -34 -73q-23 -18 -56 -18q-64 0 -85 59q-6 17 -6 32v90q0 62 55 67
q7 1 15 1h161v52q0 79 -67 113q-32 16 -71 16q-72 0 -108 -49q-11 -16 -16 -34l47 -12q23 43 77 46q54 0 79 -41q10 -19 11 -42h-281v-49h69q-25 -14 -25 -68v-96q0 -84 68 -120q35 -18 78 -18q78 1 115 56q38 -55 117 -56q42 0 74 17q21 -28 21 -62q0 -65 -66 -101
q-49 -27 -118 -27v-52zM307 -226v52q-63 0 -118 31q-62 36 -63 96h-54q0 -95 95 -146q63 -33 140 -33z" />
    <glyph glyph-name="si_DdRa" horiz-adv-x="625" 
d="M220 -1q78 1 115 56q38 -55 117 -56q42 0 74 17q21 -28 21 -62q0 -65 -66 -101q-49 -27 -118 -27v-52q139 0 202 77q36 45 36 104q-1 56 -32 97q26 34 26 85v378q0 181 -125 225q-45 15 -107 15v-53q127 0 162 -90q15 -41 15 -100v-369q0 -46 -34 -73q-24 -18 -57 -18
q-65 0 -85 60q-5 16 -5 31v50h-50v-50q0 -46 -34 -73q-23 -18 -56 -18q-64 0 -85 59q-6 17 -6 32v90q0 62 55 67q7 1 15 1h161v52q-1 61 -42 96q-38 33 -96 33q-72 0 -108 -49q-11 -16 -16 -34l47 -12q23 43 77 46q53 0 78 -40q11 -19 12 -43h-281v-49h69q-25 -14 -25 -68
v-96q0 -84 68 -120q35 -18 78 -18zM83 563l52 -13q0 82 74 126q45 26 98 26v53q-91 0 -160 -59q-63 -56 -64 -133zM307 -226v52q-63 0 -118 31q-62 36 -63 96h-54q0 -95 95 -146q63 -33 140 -33z" />
    <glyph glyph-name="si_DdU" horiz-adv-x="625" 
d="M220 -1q78 1 115 56q38 -55 117 -56q43 0 76 18v-169h-165v-53h218v277q14 30 14 65v378q0 181 -125 225q-45 15 -107 15v-53q127 0 162 -90q15 -41 15 -100v-369q0 -46 -34 -73q-24 -18 -57 -18q-65 0 -85 60q-5 16 -5 31v50h-50v-50q0 -46 -34 -73q-23 -18 -56 -18
q-64 0 -85 59q-6 17 -6 32v90q0 62 55 67q7 1 15 1h161v52q-1 61 -42 96q-38 33 -96 33q-72 0 -108 -49q-11 -16 -16 -34l47 -12q23 43 77 46q53 0 78 -40q11 -19 12 -43h-281v-49h69q-25 -14 -25 -68v-96q0 -84 68 -120q35 -18 78 -18zM83 563l52 -13q0 82 74 126
q45 26 98 26v53q-91 0 -160 -59q-63 -56 -64 -133zM94 -152v-53h213v53h-213z" />
    <glyph glyph-name="si_DdUu" horiz-adv-x="625" 
d="M220 -1q78 1 115 56q38 -55 117 -56q46 0 80 20v-167q-80 31 -169 31v-55q90 -1 169 -33h53v286q10 25 10 56v378q0 181 -125 225q-45 15 -107 15v-53q127 0 162 -90q15 -41 15 -100v-369q0 -46 -34 -73q-24 -18 -57 -18q-65 0 -85 60q-5 16 -5 31v50h-50v-50
q0 -46 -34 -73q-23 -18 -56 -18q-64 0 -85 59q-6 17 -6 32v90q0 62 55 67q7 1 15 1h161v52q-1 61 -42 96q-38 33 -96 33q-72 0 -108 -49q-11 -16 -16 -34l47 -12q23 43 77 46q53 0 78 -40q11 -19 12 -43h-281v-49h69q-25 -14 -25 -68v-96q0 -84 68 -120q35 -18 78 -18z
M83 563l52 -13q0 82 74 126q45 26 98 26v53q-91 0 -160 -59q-63 -56 -64 -133zM93 -129v-54q34 -18 68 -18q20 0 76 17q39 12 70 12v55q-32 0 -91 -20q-32 -11 -53 -11q-35 1 -70 19z" />
    <glyph glyph-name="si_Dda.reph" horiz-adv-x="625" 
d="M220 -1q78 1 115 56q38 -55 117 -56q86 0 124 63q19 33 19 75v378q0 181 -125 225q-45 15 -107 15v-53q127 0 162 -90q15 -41 15 -100v-369q0 -46 -34 -73q-24 -18 -57 -18q-65 0 -85 60q-5 16 -5 31v50h-50v-50q0 -46 -34 -73q-23 -18 -56 -18q-64 0 -85 59q-6 17 -6 32
v90q0 62 55 67q7 1 15 1h161v52q-1 61 -42 96q-38 33 -96 33q-72 0 -108 -49q-11 -16 -16 -34l47 -12q23 43 77 46q53 0 78 -40q11 -19 12 -43h-281v-49h69q-25 -14 -25 -68v-96q0 -84 68 -120q35 -18 78 -18zM83 563l52 -13q0 82 74 126q45 26 98 26v53q-91 0 -160 -59
q-63 -56 -64 -133zM275 775q94 0 104 89q1 10 1 20h-46q-8 -58 -59 -63q-45 0 -60 40q-4 12 -4 24q0 45 43 64q21 9 47 9h62q93 -2 94 -72v-81h48v82q0 71 -64 103q-33 16 -74 16h-67q-87 0 -121 -65q-13 -26 -13 -55q0 -63 48 -94q27 -17 61 -17z" />
    <glyph glyph-name="si_Dda.touch" horiz-adv-x="625" 
d="M220 -1q78 1 115 56q38 -55 117 -56q86 0 124 63q19 33 19 75v378q0 181 -125 225q-45 15 -107 15v-53q127 0 162 -90q15 -41 15 -100v-369q0 -46 -34 -73q-24 -18 -57 -18q-65 0 -85 60q-5 16 -5 31v50h-50v-50q0 -46 -34 -73q-23 -18 -56 -18q-64 0 -85 59q-6 17 -6 32
v90q0 62 55 67q7 1 15 1h161v52q-1 61 -42 96q-38 33 -96 33q-72 0 -108 -49q-11 -16 -16 -34l47 -12q23 43 77 46q53 0 78 -40q11 -19 12 -43h-281v-49h69q-25 -14 -25 -68v-96q0 -84 68 -120q35 -18 78 -18zM83 563l52 -13q0 82 74 126q45 26 98 26v53q-91 0 -160 -59
q-63 -56 -64 -133z" />
    <glyph glyph-name="si_Ddh.halant" horiz-adv-x="625" 
d="M220 -1q78 1 115 56q38 -55 117 -56q86 0 124 63q19 33 19 75v380v1v301h-54v-126q-57 62 -174 62h-45v-121q0 -108 78 -150q38 -20 88 -21v46q-86 1 -112 69q-9 25 -9 56v68q122 0 156 -88q17 -44 17 -116v-355q0 -46 -34 -73q-24 -18 -57 -18q-65 0 -85 60q-5 16 -5 31
v50h-50v-50q0 -46 -34 -73q-23 -18 -56 -18q-64 0 -85 59q-6 17 -6 32v90q0 62 55 67q7 1 15 1h161v52q-1 61 -42 96q-38 33 -96 33q-72 0 -108 -49q-11 -16 -16 -34l47 -12q23 43 77 46q53 0 78 -40q11 -19 12 -43h-281v-49h69q-25 -14 -25 -68v-96q0 -84 68 -120
q35 -18 78 -18z" />
    <glyph glyph-name="si_DdhI" horiz-adv-x="625" 
d="M220 -1q78 1 115 56q38 -55 117 -56q86 0 124 63q19 33 19 75v380q0 226 -205 237q-12 1 -23 1h-45v-121q0 -108 78 -150q38 -20 88 -21v46q-86 1 -112 69q-9 25 -9 56v68q122 0 156 -88q17 -44 17 -116v-355q0 -46 -34 -73q-24 -18 -57 -18q-65 0 -85 60q-5 16 -5 31v50
h-50v-50q0 -46 -34 -73q-23 -18 -56 -18q-64 0 -85 59q-6 17 -6 32v90q0 62 55 67q7 1 15 1h161v52q-1 61 -42 96q-38 33 -96 33q-72 0 -108 -49q-11 -16 -16 -34l47 -12q23 43 77 46q53 0 78 -40q11 -19 12 -43h-281v-49h69q-25 -14 -25 -68v-96q0 -84 68 -120
q35 -18 78 -18zM269 922q-77 0 -107 -59q-12 -24 -12 -49q0 -60 50 -91q30 -18 69 -18v50q-46 0 -60 38q-4 11 -4 21q0 38 35 52q14 6 29 6h163q76 0 97 -58q6 -17 6 -38h53q0 93 -71 129q-34 17 -79 17h-169z" />
    <glyph glyph-name="si_DdhIi" horiz-adv-x="628" 
d="M220 -1q78 1 115 56q38 -55 117 -56q86 0 124 63q19 33 19 75v380q-1 131 -67 189h3q51 0 78 44q14 23 14 49q0 97 -102 118q-25 5 -52 5h-200q-77 0 -107 -59q-12 -24 -12 -49q0 -60 50 -91q30 -18 69 -18v50q-46 0 -60 38q-4 11 -4 21q0 38 35 52q14 6 29 6h173
q28 0 43 -3q-40 -28 -44 -73q1 -29 18 -53q-43 12 -92 12h-45v-121q0 -108 78 -150q38 -20 88 -21v46q-86 1 -112 69q-9 25 -9 56v68q122 0 156 -88q17 -44 17 -116v-355q0 -46 -34 -73q-24 -18 -57 -18q-65 0 -85 60q-5 16 -5 31v50h-50v-50q0 -46 -34 -73q-23 -18 -56 -18
q-64 0 -85 59q-6 17 -6 32v90q0 62 55 67q7 1 15 1h161v52q-1 61 -42 96q-38 33 -96 33q-72 0 -108 -49q-11 -16 -16 -34l47 -12q23 43 77 46q53 0 78 -40q11 -19 12 -43h-281v-49h69q-25 -14 -25 -68v-96q0 -84 68 -120q35 -18 78 -18z" />
    <glyph glyph-name="si_DdhU" horiz-adv-x="625" 
d="M220 -1q78 1 115 56q38 -55 117 -56q43 0 75 17v-168h-165v-53h218v275q15 29 15 67v380q0 226 -205 237q-12 1 -23 1h-45v-121q0 -108 78 -150q38 -20 88 -21v46q-86 1 -112 69q-9 25 -9 56v68q122 0 156 -88q17 -44 17 -116v-355q0 -46 -34 -73q-24 -18 -57 -18
q-65 0 -85 60q-5 16 -5 31v50h-50v-50q0 -46 -34 -73q-23 -18 -56 -18q-64 0 -85 59q-6 17 -6 32v90q0 62 55 67q7 1 15 1h161v52q-1 61 -42 96q-38 33 -96 33q-72 0 -108 -49q-11 -16 -16 -34l47 -12q23 43 77 46q53 0 78 -40q11 -19 12 -43h-281v-49h69q-25 -14 -25 -68
v-96q0 -84 68 -120q35 -18 78 -18zM93 -152v-53h213v53h-213z" />
    <glyph glyph-name="si_DdhUu" horiz-adv-x="625" 
d="M220 -1q78 1 115 56q38 -55 117 -56q43 0 78 19v-166q-80 31 -165 31v-55q86 -1 165 -33h53v282q12 26 12 60v380q0 226 -205 237q-12 1 -23 1h-45v-121q0 -108 78 -150q38 -20 88 -21v46q-86 1 -112 69q-9 25 -9 56v68q122 0 156 -88q17 -44 17 -116v-355q0 -46 -34 -73
q-24 -18 -57 -18q-65 0 -85 60q-5 16 -5 31v50h-50v-50q0 -46 -34 -73q-23 -18 -56 -18q-64 0 -85 59q-6 17 -6 32v90q0 62 55 67q7 1 15 1h161v52q-1 61 -42 96q-38 33 -96 33q-72 0 -108 -49q-11 -16 -16 -34l47 -12q23 43 77 46q53 0 78 -40q11 -19 12 -43h-281v-49h69
q-25 -14 -25 -68v-96q0 -84 68 -120q35 -18 78 -18zM95 -129v-54q34 -18 68 -18q20 0 76 17q39 12 70 12v55q-32 0 -91 -20q-33 -11 -54 -11q-34 1 -69 19z" />
    <glyph glyph-name="si_Ddha.touch" horiz-adv-x="625" 
d="M220 -1q78 1 115 56q38 -55 117 -56q86 0 124 63q19 33 19 75v380q0 226 -205 237q-12 1 -23 1h-45v-121q0 -108 78 -150q38 -20 88 -21v46q-86 1 -112 69q-9 25 -9 56v68q122 0 156 -88q17 -44 17 -116v-355q0 -46 -34 -73q-24 -18 -57 -18q-65 0 -85 60q-5 16 -5 31v50
h-50v-50q0 -46 -34 -73q-23 -18 -56 -18q-64 0 -85 59q-6 17 -6 32v90q0 62 55 67q7 1 15 1h161v52q-1 61 -42 96q-38 33 -96 33q-72 0 -108 -49q-11 -16 -16 -34l47 -12q23 43 77 46q53 0 78 -40q11 -19 12 -43h-281v-49h69q-25 -14 -25 -68v-96q0 -84 68 -120
q35 -18 78 -18z" />
    <glyph glyph-name="si_Dh.halant" horiz-adv-x="582" 
d="M176 -1q78 1 115 56q40 -55 117 -56q85 0 124 62q20 33 20 76v282q0 199 -162 228q-30 5 -64 5h-157q-44 0 -57 38q-3 10 -3 20q0 39 33 54q13 5 27 5h95v50h-88q-81 0 -109 -61q-9 -21 -9 -44q1 -37 22 -62h-32v-52h278q147 0 167 -132q4 -24 4 -51v-274q0 -46 -34 -73
q-24 -18 -57 -18q-65 0 -86 60q-5 16 -5 31v50h-49v-50q0 -46 -34 -73q-23 -18 -56 -18q-65 0 -86 59q-6 17 -6 32v153q0 72 50 107q32 23 81 23h37v53h-37q-130 0 -171 -102q-14 -36 -14 -76v-164q0 -84 68 -120q35 -18 78 -18zM320 769h80q60 0 78 -35q12 -23 12 -61h52
q-4 144 -138 146h-84v-50z" />
    <glyph glyph-name="si_DhI" horiz-adv-x="582" 
d="M176 -1q78 1 115 56q40 -55 117 -56q85 0 124 62q20 33 20 76v282q0 199 -162 228q-30 5 -64 5h-162q-43 0 -56 38q-3 10 -3 20q0 39 33 54q12 5 26 5h100v50h-89q-77 0 -107 -60q-12 -24 -12 -50q0 -66 53 -95q29 -15 66 -15h151q147 0 167 -132q4 -24 4 -51v-273
q0 -46 -34 -73q-24 -18 -57 -18q-65 0 -86 60q-5 16 -5 31v50h-49v-50q0 -46 -34 -73q-23 -18 -56 -18q-65 0 -86 59q-6 17 -6 32v153q0 72 50 107q32 23 81 23h37v53h-37q-130 0 -171 -102q-14 -36 -14 -76v-164q0 -84 68 -120q35 -18 78 -18zM490 673h53q0 126 -106 143
q-16 3 -33 3h-84v-50h80q60 0 78 -35q12 -23 12 -61z" />
    <glyph glyph-name="si_DhIi" horiz-adv-x="583" 
d="M317 820v-50h61q28 0 43 -2q-39 -20 -45 -65q-1 -6 -1 -11q1 -24 13 -45q-22 4 -50 4h-173q-44 0 -57 39q-3 10 -3 20q0 40 34 55q12 5 26 5h97v50h-87q-77 0 -107 -60q-12 -24 -12 -50q0 -62 50 -92q29 -18 68 -18h152q147 0 167 -132q4 -24 4 -51v-274q0 -46 -34 -73
q-24 -18 -57 -18q-65 0 -86 60q-5 16 -5 31v50h-49v-50q0 -46 -34 -73q-23 -18 -56 -18q-65 0 -86 59q-6 17 -6 32v153q0 72 50 107q32 23 81 23h37v53h-37q-130 0 -171 -102q-14 -36 -14 -76v-164q0 -84 68 -120q35 -18 78 -18q78 1 115 56q40 -55 117 -56q85 0 124 62
q20 33 20 76v282q-1 129 -67 187q47 10 64 55q7 18 7 35q0 104 -115 121q-21 3 -44 3h-80z" />
    <glyph glyph-name="si_DhR.halant" horiz-adv-x="582" 
d="M176 -1q78 1 115 56q40 -55 117 -56q41 0 75 17q20 -25 20 -62q0 -66 -66 -102q-49 -26 -118 -26v-52q140 0 203 78q36 44 36 103q-1 56 -32 97q26 38 26 85v282q0 199 -162 228q-30 5 -64 5h-157q-44 0 -57 38q-3 10 -3 20q0 39 33 54q13 5 27 5h95v50h-88
q-81 0 -109 -61q-9 -21 -9 -44q1 -37 22 -62h-32v-52h278q147 0 167 -132q4 -24 4 -51v-274q0 -46 -34 -73q-24 -18 -57 -18q-65 0 -86 60q-5 16 -5 31v50h-49v-50q0 -46 -34 -73q-23 -18 -56 -18q-65 0 -86 59q-6 17 -6 32v153q0 72 50 107q32 23 81 23h37v53h-37
q-130 0 -171 -102q-14 -36 -14 -76v-164q0 -84 68 -120q35 -18 78 -18zM320 769h80q60 0 78 -35q12 -23 12 -61h52q-4 144 -138 146h-84v-50zM263 -226v52q-62 0 -117 30q-63 36 -64 97h-53q0 -94 94 -145q63 -34 140 -34z" />
    <glyph glyph-name="si_DhRI" horiz-adv-x="582" 
d="M176 -1q78 1 115 56q40 -55 117 -56q41 0 75 17q20 -25 20 -62q0 -66 -66 -102q-49 -26 -118 -26v-52q140 0 203 78q36 44 36 103q-1 56 -32 97q26 38 26 85v282q0 199 -162 228q-30 5 -64 5h-162q-43 0 -56 38q-3 10 -3 20q0 39 33 54q12 5 26 5h100v50h-89
q-77 0 -107 -60q-12 -24 -12 -50q0 -66 53 -95q29 -15 66 -15h151q147 0 167 -132q4 -24 4 -51v-273q0 -46 -34 -73q-24 -18 -57 -18q-65 0 -86 60q-5 16 -5 31v50h-49v-50q0 -46 -34 -73q-23 -18 -56 -18q-65 0 -86 59q-6 17 -6 32v153q0 72 50 107q32 23 81 23h37v53h-37
q-130 0 -171 -102q-14 -36 -14 -76v-164q0 -84 68 -120q35 -18 78 -18zM490 673h53q0 126 -106 143q-16 3 -33 3h-84v-50h80q60 0 78 -35q12 -23 12 -61zM263 -226v52q-62 0 -117 30q-63 36 -64 97h-53q0 -94 94 -145q63 -34 140 -34z" />
    <glyph glyph-name="si_DhRIi" horiz-adv-x="583" 
d="M319 -226q140 0 203 78q36 44 36 103q-1 56 -32 97q26 38 26 85v282q-1 129 -67 187q47 10 64 55q7 18 7 35q0 104 -115 121q-21 3 -44 3h-80v-50h61q28 0 43 -2q-39 -20 -45 -65q-1 -6 -1 -11q1 -24 13 -45q-22 4 -50 4h-173q-44 0 -57 39q-3 10 -3 20q0 40 34 55
q12 5 26 5h97v50h-87q-77 0 -107 -60q-12 -24 -12 -50q0 -62 50 -92q29 -18 68 -18h152q147 0 167 -132q4 -24 4 -51v-274q0 -46 -34 -73q-24 -18 -57 -18q-65 0 -86 60q-5 16 -5 31v50h-49v-50q0 -46 -34 -73q-23 -18 -56 -18q-65 0 -86 59q-6 17 -6 32v153q0 72 50 107
q32 23 81 23h37v53h-37q-130 0 -171 -102q-14 -36 -14 -76v-164q0 -84 68 -120q35 -18 78 -18q78 1 115 56q40 -55 117 -56q41 0 75 17q20 -25 20 -62q0 -66 -66 -102q-49 -26 -118 -26v-52zM263 -226v52q-62 0 -117 30q-63 36 -64 97h-53q0 -94 94 -145q63 -34 140 -34z
" />
    <glyph glyph-name="si_DhRa" horiz-adv-x="582" 
d="M176 -1q78 1 115 56q40 -55 117 -56q41 0 75 17q20 -25 20 -62q0 -66 -66 -102q-49 -26 -118 -26v-52q140 0 203 78q36 44 36 103q-1 56 -32 97q26 38 26 85v378q0 184 -130 226q-44 14 -103 14v-53q127 0 162 -89q16 -41 16 -101v-369q0 -46 -34 -73q-24 -18 -57 -18
q-65 0 -86 60q-5 16 -5 31v50h-49v-50q0 -46 -34 -73q-23 -18 -56 -18q-65 0 -86 59q-6 17 -6 32v153q0 72 50 107q32 23 81 23h37v53h-37q-130 0 -171 -102q-14 -36 -14 -76v-164q0 -84 68 -120q35 -18 78 -18zM40 563l52 -13q0 83 74 126q44 26 97 26v53q-90 0 -158 -58
q-64 -56 -65 -134zM263 -226v52q-62 0 -117 30q-63 36 -64 97h-53q0 -94 94 -145q63 -34 140 -34z" />
    <glyph glyph-name="si_DhU" horiz-adv-x="582" 
d="M176 -1q78 1 115 56q40 -55 117 -56q43 0 78 19v-170h-170v-53h223v280q13 30 13 62v378q0 184 -130 226q-44 14 -103 14v-53q127 0 162 -89q16 -41 16 -101v-369q0 -46 -34 -73q-24 -18 -57 -18q-65 0 -86 60q-5 16 -5 31v50h-49v-50q0 -46 -34 -73q-23 -18 -56 -18
q-65 0 -86 59q-6 17 -6 32v153q0 72 50 107q32 23 81 23h37v53h-37q-130 0 -171 -102q-14 -36 -14 -76v-164q0 -84 68 -120q35 -18 78 -18zM40 563l52 -13q0 83 74 126q44 26 97 26v53q-90 0 -158 -58q-64 -56 -65 -134zM50 -152v-53h209v53h-209z" />
    <glyph glyph-name="si_DhUu" horiz-adv-x="582" 
d="M176 -1q78 1 115 56q40 -55 117 -56q43 0 78 19v-166q-80 31 -170 31v-55q92 -1 170 -33h53v280q13 30 13 62v378q0 184 -130 226q-44 14 -103 14v-53q127 0 162 -89q16 -41 16 -101v-369q0 -46 -34 -73q-24 -18 -57 -18q-65 0 -86 60q-5 16 -5 31v50h-49v-50
q0 -46 -34 -73q-23 -18 -56 -18q-65 0 -86 59q-6 17 -6 32v153q0 72 50 107q32 23 81 23h37v53h-37q-130 0 -171 -102q-14 -36 -14 -76v-164q0 -84 68 -120q35 -18 78 -18zM40 563l52 -13q0 83 74 126q44 26 97 26v53q-90 0 -158 -58q-64 -56 -65 -134zM51 -129v-54
q34 -18 68 -18q19 0 72 17q38 12 69 12v55q-32 0 -89 -20q-31 -11 -51 -11q-33 1 -69 19z" />
    <glyph glyph-name="si_Dha.reph" horiz-adv-x="582" 
d="M176 -1q78 1 115 56q40 -55 117 -56q85 0 124 62q20 33 20 76v378q0 184 -130 226q-44 14 -103 14v-53q127 0 162 -89q16 -41 16 -101v-369q0 -46 -34 -73q-24 -18 -57 -18q-65 0 -86 60q-5 16 -5 31v50h-49v-50q0 -46 -34 -73q-23 -18 -56 -18q-65 0 -86 59q-6 17 -6 32
v153q0 72 50 107q32 23 81 23h37v53h-37q-130 0 -171 -102q-14 -36 -14 -76v-164q0 -84 68 -120q35 -18 78 -18zM40 563l52 -13q0 83 74 126q44 26 97 26v53q-90 0 -158 -58q-64 -56 -65 -134zM232 775q96 0 103 95q1 7 1 14h-45q-8 -58 -60 -63q-43 0 -59 39q-5 12 -5 25
q0 45 43 64q21 9 47 9h62q94 -2 95 -72v-81h47v82q0 70 -63 102q-32 17 -74 17h-67q-88 0 -121 -66q-13 -26 -13 -54q0 -63 48 -94q27 -17 61 -17z" />
    </font>
</defs>
</svg>
