<?xml version="1.0" standalone="no"?>
<!DOCTYPE svg PUBLIC "-//W3C//DTD SVG 1.1//EN" "http://www.w3.org/Graphics/SVG/1.1/DTD/svg11.dtd" >
<svg xmlns="http://www.w3.org/2000/svg" xmlns:xlink="http://www.w3.org/1999/xlink" version="1.1">
<metadata>
Created by FontForge 20170731 at Thu Feb 16 20:25:03 2017
 By Aleksey,,,
Copyright (c) 2013-2015 Gall Productions Pvt. Ltd (http://www.sticknobillsonline.com) Copyright (c) 2015 mooniak (http://mooniak.com)
</metadata>
<defs>
<font id="PostNoBillsColombo-SemiBold" horiz-adv-x="639" >
  <font-face 
    font-family="Post No Bills Colombo"
    font-weight="700"
    font-stretch="normal"
    units-per-em="1024"
    panose-1="2 0 7 3 0 0 0 0 0 0"
    ascent="819"
    descent="-205"
    x-height="540"
    cap-height="700"
    bbox="-594 -235 1441 1006"
    underline-thickness="0"
    underline-position="0"
    unicode-range="U+0020-FB02"
  />
<missing-glyph horiz-adv-x="631" 
d="M50 -93v847h531v-847h-531zM264 106q0 26 23 33q6 1 10 1q24 0 31 -23q2 -6 2 -11q0 -23 -22 -31q-6 -2 -11 -2q-25 0 -32 24q-1 5 -1 9zM121 678v-699h389v699h-389zM190 477q51 61 120 62q86 0 119 -69q13 -29 14 -63q1 -90 -74 -125q-23 -11 -44 -12v-105h-56v155
q90 1 111 43q8 17 8 42q0 50 -41 72q-18 9 -40 9q-48 -1 -81 -45z" />
    <glyph glyph-name="fi" unicode="fi" horiz-adv-x="494" 
d="M47 421h63v-421h79v421h114v-421h79v495h-193v57q2 63 52 69h22l17 75h-34q-88 0 -123 -84q-13 -31 -13 -60v-57h-63v-74zM293 605q0 -31 29 -44q10 -4 20 -4q31 0 45 28q4 10 4 20q0 32 -29 45q-9 4 -20 4q-32 0 -45 -29q-4 -10 -4 -20z" />
    <glyph glyph-name="fl" unicode="fl" horiz-adv-x="393" 
d="M47 421h63v-421h79v421h64v74l-64 -1v58q0 37 23 57q14 11 33 12h66v-621h80v696h-145q-88 0 -123 -84q-13 -31 -13 -60v-57h-63v-74z" />
    <glyph glyph-name=".notdef" horiz-adv-x="631" 
d="M50 -93v847h531v-847h-531zM264 106q0 26 23 33q6 1 10 1q24 0 31 -23q2 -6 2 -11q0 -23 -22 -31q-6 -2 -11 -2q-25 0 -32 24q-1 5 -1 9zM121 678v-699h389v699h-389zM190 477q51 61 120 62q86 0 119 -69q13 -29 14 -63q1 -90 -74 -125q-23 -11 -44 -12v-105h-56v155
q90 1 111 43q8 17 8 42q0 50 -41 72q-18 9 -40 9q-48 -1 -81 -45z" />
    <glyph glyph-name=".null" horiz-adv-x="0" 
 />
    <glyph glyph-name="nonmarkingreturn" horiz-adv-x="341" 
 />
    <glyph glyph-name="space" unicode=" " horiz-adv-x="235" 
 />
    <glyph glyph-name="exclam" unicode="!" horiz-adv-x="185" 
d="M43 37q0 32 29 46q10 4 20 4q32 0 45 -30q4 -10 4 -20q0 -32 -29 -45q-10 -4 -20 -4q-32 0 -45 29q-4 10 -4 20zM52 166v534h82v-534h-82z" />
    <glyph glyph-name="quotedbl" unicode="&#x22;" horiz-adv-x="297" 
d="M41 465v271h81v-271h-81zM175 465v271h81v-271h-81z" />
    <glyph glyph-name="numbersign" unicode="#" horiz-adv-x="751" 
d="M34 198l16 77h159l26 151h-167l13 77h167l32 179h78l-32 -179h149l31 179h78l-31 -179h159l-12 -78l-161 1l-26 -152h164l-11 -77l-167 1l-31 -176h-77l30 176h-148l-31 -176h-78l31 176h-161zM287 275l148 -1l26 152h-148z" />
    <glyph glyph-name="dollar" unicode="$" horiz-adv-x="502" 
d="M31 158l79 28q7 -42 33.5 -69t49.5 -33l23 -6v-125h-49v53q-73 20 -115 90q-20 34 -21 62zM39 511q0 106 93 160q17 11 35 17v62h49v-132q-35 -4 -65 -37q-28 -31 -28 -71q0 -59 82 -86q6 -2 11 -4v-94q-43 12 -54 17q-85 35 -109 92q-14 33 -14 76zM266 -47v125
q41 2 79 39q38 39 39 89q0 66 -87 97q-14 4 -31 9v91q64 -18 78 -24q90 -37 115 -101q13 -32 13 -72q0 -86 -68 -150q-40 -37 -89 -51v-52h-49zM266 618v132h49v-60q70 -22 112 -95q14 -25 17 -42l-82 -27q-16 70 -81 89z" />
    <glyph glyph-name="percent" unicode="%" horiz-adv-x="452" 
d="M41 581q0 38 34 56q15 8 31 8q39 0 57 -35q7 -14 7 -29q0 -40 -35 -58q-14 -7 -29 -7q-40 0 -58 36q-7 14 -7 29zM96 -18l175 739h81l-174 -739h-82zM280 121q0 40 36 58q14 7 29 7q40 0 58 -36q7 -14 7 -29q0 -38 -34 -56q-15 -8 -31 -8q-40 0 -58 35q-7 14 -7 29z" />
    <glyph glyph-name="ampersand" unicode="&#x26;" horiz-adv-x="646" 
d="M345 123q-39 -38 -91 -38q-65 0 -105 49q-26 34 -26 77q1 56 49 98l-58 66q-78 -66 -79 -162q0 -102 79 -165q61 -48 139 -48q86 1 150 58zM394 538q-6 46 -42 71q-16 11 -33 14v83q82 -11 128 -81q20 -31 27 -66zM264 623q-42 -5 -64 -44q-11 -22 -11 -47q0 -33 36 -74
q5 -6 7 -8l209 -228q37 40 48 103q2 11 2 20h88q-6 -109 -77 -192l109 -121l-90 -24l-353 390q-50 57 -58 99q-3 17 -3 35q0 85 68 137q39 30 89 37v-83z" />
    <glyph glyph-name="quotesingle" unicode="'" horiz-adv-x="163" 
d="M41 465v271h81v-271h-81z" />
    <glyph glyph-name="parenleft" unicode="(" horiz-adv-x="217" 
d="M40 189q0 -89 40 -136q35 -39 107 -73v54q-53 33 -68 88q-9 32 -9 73v327q0 89 49 127q10 7 27 17v53q-76 -33 -104 -65q-42 -51 -42 -144v-321z" />
    <glyph glyph-name="parenright" unicode=")" horiz-adv-x="221" 
d="M31 -22v53q44 28 61 63q20 43 20 111v316q-1 92 -62 135q-9 6 -19 12v53q104 -39 134 -113q16 -41 16 -98v-317q0 -123 -95 -186q-25 -16 -55 -29z" />
    <glyph glyph-name="asterisk" unicode="*" horiz-adv-x="340" 
d="M29 698l32 44l81 -51v94h55v-98l84 55l31 -44l-98 -65l98 -68l-32 -44l-83 60v-103h-55v102l-82 -56l-31 44l98 66z" />
    <glyph glyph-name="plus" unicode="+" horiz-adv-x="432" 
d="M28 254v80h146v164h81v-164h148v-80h-148v-167h-81v167h-146z" />
    <glyph glyph-name="comma" unicode="," horiz-adv-x="207" 
d="M45 -23l37 152h81l-37 -152h-81z" />
    <glyph glyph-name="hyphen" unicode="-" horiz-adv-x="405" 
d="M45 254v80h316v-80h-316z" />
    <glyph glyph-name="period" unicode="." horiz-adv-x="182" 
d="M35 51q0 36 32 51q12 6 24 6q35 0 51 -33q5 -12 5 -24q0 -34 -31 -49q-13 -6 -25 -6q-35 0 -50 31q-6 12 -6 24z" />
    <glyph glyph-name="slash" unicode="/" horiz-adv-x="345" 
d="M45 -18l175 739h80l-174 -739h-81z" />
    <glyph glyph-name="zero" unicode="0" horiz-adv-x="503" 
d="M222 0v83q-46 7 -75 79q-27 69 -27 177v42q3 144 58 208q21 24 45 27v83q-104 -4 -153 -122q-35 -87 -35 -225q0 -280 130 -339q27 -12 57 -13zM281 0q104 3 152 124q34 87 34 228q0 270 -125 332q-29 14 -62 15v-83q46 -6 76 -79q27 -66 27 -156v-42q0 -210 -82 -250
q-10 -4 -20 -6v-83z" />
    <glyph glyph-name="one" unicode="1" horiz-adv-x="215" 
d="M35 572v82l57 46h88v-700h-88v572h-57z" />
    <glyph glyph-name="two" unicode="2" horiz-adv-x="503" 
d="M36 520q5 80 67 135q50 42 112 45v-81q-31 0 -61 -26q-35 -32 -42 -88zM56 0v85h404v-85h-404zM56 132q0 107 141 192q13 8 36 20q22 13 30 18q70 43 90 64q32 34 32 72q0 97 -81 117q-18 4 -39 4v81q142 0 187 -109q16 -42 16 -92q-1 -84 -67 -141q-21 -17 -52 -37
q-13 -8 -44 -24q-91 -49 -122 -85q-32 -37 -32 -80h-95z" />
    <glyph glyph-name="three" unicode="3" horiz-adv-x="506" 
d="M270 -2v81q84 3 110 66q8 22 8 48q0 106 -122 115q-12 1 -24 1v80q145 1 146 115q0 84 -74 108q-21 6 -44 7v81q102 0 159 -69q41 -52 41 -125q-1 -108 -74 -157q74 -51 74 -157q0 -110 -86 -163q-50 -31 -114 -31zM36 177l76 15q11 -86 81 -109q13 -4 22 -4v-81
q-88 4 -142 78q-34 47 -37 101zM36 520q5 80 67 135q50 42 112 45v-81q-69 -9 -94 -75q-6 -19 -9 -39z" />
    <glyph glyph-name="four" unicode="4" horiz-adv-x="496" 
d="M25 144v81l244 415v-155l-153 -260h153v-81h-244zM319 0v701h88v-476h54v-81h-54v-144h-88z" />
    <glyph glyph-name="five" unicode="5" horiz-adv-x="520" 
d="M42 354l29 346h357v-81l-281 -1l-16 -199q44 28 94 28v-78q-68 -3 -108 -60zM274 0v79q60 5 99 54q31 39 31 91q0 91 -74 129q-28 15 -56 16v78q126 -1 181 -102q30 -55 30 -122q0 -120 -89 -183q-55 -38 -122 -40zM36 139l75 23q25 -70 102 -80q5 -1 10 -1v-81
q-85 0 -144 62q-33 36 -43 77z" />
    <glyph glyph-name="six" unicode="6" horiz-adv-x="520" 
d="M240 -1v81q-71 4 -99 80q-9 27 -9 51q0 77 52 114q25 17 56 19v81q-76 0 -114 -52q-4 -4 -6 -8q0 210 97 246q11 4 23 6v81q-152 -8 -193 -209q-12 -63 -12 -136q0 -247 97 -320q44 -32 108 -34zM294 -1q86 1 142 70q49 61 49 143q0 116 -74 175q-48 38 -117 38v-80
q62 -6 92 -62q16 -32 16 -72q0 -61 -42 -102q-29 -26 -66 -29v-81zM392 548l68 46q-35 70 -107 95q-29 10 -59 10v-81q55 0 87 -49q7 -11 11 -21z" />
    <glyph glyph-name="seven" unicode="7" horiz-adv-x="444" 
d="M434 618h-399v82h399v-82zM184 0q12 229 100 453q25 63 53 116h90q-116 -220 -148 -490q-5 -41 -7 -79h-88z" />
    <glyph glyph-name="eight" unicode="8" horiz-adv-x="506" 
d="M225 -1q-87 0 -144 70q-46 56 -46 128q1 107 75 152q-66 44 -73 134v15q0 90 67 151q55 50 123 50v-81q-71 -5 -98 -71q-9 -24 -9 -50q0 -67 53 -95q24 -11 53 -13v-80q-80 -6 -102 -66q-7 -19 -7 -41q0 -81 65 -111q20 -9 43 -11v-81zM281 -1v81q70 6 97 64q12 26 12 58
q0 79 -77 101q-16 5 -32 6v80q77 4 99 68q7 20 7 40q0 64 -46 99q-27 19 -61 22v81q82 0 140 -68q49 -59 49 -133q0 -95 -66 -144q-4 -3 -7 -5q74 -45 75 -152q0 -91 -68 -151q-54 -47 -122 -47z" />
    <glyph glyph-name="nine" unicode="9" horiz-adv-x="519" 
d="M277 1q153 -1 194 201q12 63 12 139q0 257 -100 328q-44 31 -106 31v-82q66 -4 96 -72q13 -29 13 -57q0 -99 -72 -125q-18 -7 -37 -8v-82q27 0 50.5 7.5t33.5 14.5t24 20l14 13q0 -173 -72 -228q-23 -17 -50 -19v-81zM229 274v82q-77 5 -103 75q-9 25 -9 55q0 59 41 100
q30 28 71 32v82q-85 -1 -143 -69q-51 -61 -51 -145q0 -125 82 -181q47 -31 112 -31zM55 111q42 -82 124 -104q25 -7 50 -7v82q-56 1 -92 50q-9 11 -14 23z" />
    <glyph glyph-name="colon" unicode=":" horiz-adv-x="199" 
d="M50 77q0 32 29 45q10 4 20 4q32 0 45 -29q4 -9 4 -20q0 -32 -29 -45q-10 -4 -20 -4q-32 0 -45 29q-4 10 -4 20zM51 367q0 33 30 45q9 4 19 4q32 0 45 -29q4 -10 4 -20q0 -32 -29 -45q-10 -4 -20 -4q-33 0 -45 30q-4 10 -4 19z" />
    <glyph glyph-name="semicolon" unicode=";" horiz-adv-x="242" 
d="M50 -23l37 152h80l-37 -152h-80zM94 334q0 32 29 46q10 4 20 4q32 0 45 -30q4 -10 4 -20q0 -32 -29 -45q-10 -4 -20 -4q-32 0 -45 29q-4 10 -4 20z" />
    <glyph glyph-name="less" unicode="&#x3c;" horiz-adv-x="425" 
d="M35 268v47l354 185v-82l-246 -126l246 -132v-81z" />
    <glyph glyph-name="equal" unicode="=" horiz-adv-x="418" 
d="M50 177v81h318v-81h-318zM50 325v81h318v-81h-318z" />
    <glyph glyph-name="greater" unicode="&#x3e;" horiz-adv-x="425" 
d="M35 79v81l246 132l-246 126v82l354 -185v-47z" />
    <glyph glyph-name="question" unicode="?" horiz-adv-x="471" 
d="M35 611q58 73 138 88q24 4 50 4q125 0 180 -94q30 -51 32 -118q0 -55 -20 -97.5t-48 -63.5t-56 -34.5t-48 -16.5l-20 -3v-160h-81v233q152 3 184 85q9 26 9 58q0 74 -60 110q-33 20 -75 20q-82 -1 -132 -66zM153 27q0 32 29 46q10 4 20 4q31 0 45 -29q5 -10 5 -21
q0 -32 -30 -45q-10 -4 -20 -4q-32 0 -45 29q-4 9 -4 20z" />
    <glyph glyph-name="at" unicode="@" horiz-adv-x="785" 
d="M29 309q0 158 109 268q113 112 286 118h16q123 0 215 -72q100 -80 101 -210q0 -181 -123 -247q-50 -26 -103 -26q-40 0 -69 35q-8 9 -11 17q-22 -36 -74 -46q-13 -2 -27 -2q-60 0 -97 59q-26 42 -26 94q0 111 85 170q46 33 95 33q53 0 86 -33l4 -4l7 24h60l-45 -179
q-6 -23 -9 -42q-3 -24 16 -40q11 -9 23 -9q48 0 85 43q46 54 46 152q0 101 -91 164q-68 46 -147 46q-137 0 -234 -88q-100 -91 -101 -224q0 -155 106 -241q82 -66 197 -66q137 1 258 85l33 -61q-89 -74 -225 -91q-32 -4 -62 -4q-183 0 -290 116q-94 103 -94 261z" />
    <glyph glyph-name="A" unicode="A" horiz-adv-x="476" 
d="M31 0l133 591h16l34 -155l-97 -436h-86zM191 112l19 85h107l-111 502h87l158 -699h-87l-25 112h-148z" />
    <glyph glyph-name="B" unicode="B" horiz-adv-x="501" 
d="M35 0h87v700h-87v-700zM172 -1h83q117 0 175 85q35 52 35 117q-1 96 -71 150q57 42 67 122q2 14 2 27q0 94 -65 151q-56 49 -145 49h-81v-78h71q85 0 119 -69q14 -28 14 -58q0 -87 -83 -102q-15 -3 -32 -3h-89v-78h89q94 0 113 -74q4 -15 4 -32q0 -70 -57 -106
q-39 -23 -96 -23h-53v-78z" />
    <glyph glyph-name="C" unicode="C" horiz-adv-x="506" 
d="M39 181q0 -58 43 -113q58 -72 156 -73v86q-69 0 -100 61q-11 22 -11 39v337q0 35 30 67q33 33 81 34v86q-114 1 -170 -94q-29 -49 -29 -93v-337zM287 -5q80 0 137 61q51 55 51 126l-83 20q0 -11 -1 -16q-2 -23 -6 -34q-9 -29 -33.5 -47t-44.5 -21l-20 -3v-86zM287 619
l29 -7q50 -21 69 -70q4 -12 6 -32v-16l84 22q0 76 -63 136q-58 53 -125 53v-86z" />
    <glyph glyph-name="D" unicode="D" horiz-adv-x="472" 
d="M41 0v700h87v-700h-87zM178 0v86q102 0 137 32q30 28 30 79v306q0 88 -101 106q-28 5 -66 5v86q178 0 233 -104q22 -40 22 -93v-306q0 -188 -229 -197h-26z" />
    <glyph glyph-name="E" unicode="E" horiz-adv-x="444" 
d="M41 0v700h364v-86h-277v-222h183v-87h-183v-219h277v-86h-364z" />
    <glyph glyph-name="F" unicode="F" horiz-adv-x="438" 
d="M41 1v699h364v-86h-277v-222h183v-87h-183v-304h-87z" />
    <glyph glyph-name="G" unicode="G" horiz-adv-x="511" 
d="M39 192v332q4 61 51 116q59 65 147 65v-86q-60 -1 -92 -52q-18 -29 -18 -59v-316q0 -68 70 -100q24 -11 40 -11v-86q-60 0 -118 42q-79 58 -80 155zM286 -5v86q30 0 65 34q34 35 35 75v82h-100v81h188v-177q0 -61 -62 -121q-63 -59 -126 -60zM286 619v86q76 1 136 -64
q52 -58 52 -125l-85 -31v3v4.5t-0.5 5.5t-0.5 6v5v2q-5 70 -66 99q-19 8 -36 9z" />
    <glyph glyph-name="H" unicode="H" horiz-adv-x="484" 
d="M40 0v700h87v-305h90v-85h-90v-310h-87zM267 310v85h89v305h88v-700h-88v310h-89z" />
    <glyph glyph-name="I" unicode="I" horiz-adv-x="171" 
d="M42 0v700h87v-700h-87z" />
    <glyph glyph-name="J" unicode="J" horiz-adv-x="491" 
d="M18 193v49h87v-45q1 -70 62 -103q22 -12 40 -12v-87q-55 0 -111 42q-77 60 -78 156zM257 -5v87q30 0 66 27q44 34 45 84v507h87v-507q0 -111 -100 -168q-52 -30 -98 -30z" />
    <glyph glyph-name="K" unicode="K" horiz-adv-x="490" 
d="M41 0v700h87v-700h-87zM171 341l205 359h92l-205 -359l209 -341h-91z" />
    <glyph glyph-name="L" unicode="L" horiz-adv-x="435" 
d="M41 0v700h87v-614h289v-86h-376z" />
    <glyph glyph-name="M" unicode="M" horiz-adv-x="696" 
d="M42 0v500h9l78 -190v-310h-87zM42 645v55h71l230 -557l164 371h10v-194l-141 -320h-66zM567 0v700h87v-700h-87z" />
    <glyph glyph-name="N" unicode="N" horiz-adv-x="529" 
d="M42 0v547h8l79 -128v-419h-87zM42 644v56h75l370 -593v-107h-43zM400 334v366h87v-494h-8z" />
    <glyph glyph-name="O" unicode="O" horiz-adv-x="526" 
d="M39 195v329q0 53 45 108q60 72 152 73v-87q-61 0 -95 -62q-14 -27 -14 -48v-313q0 -63 62 -98q26 -15 46 -15v-87q-57 0 -114 41q-81 60 -82 159zM290 -5v87q35 0 71 31q38 34 39 82v313q0 39 -32 75q-33 34 -78 35v87q101 0 162 -87q35 -50 35 -94v-329q0 -111 -99 -170
q-52 -30 -98 -30z" />
    <glyph glyph-name="P" unicode="P" horiz-adv-x="482" 
d="M42 0h87v700h-87v-700zM179 313h108q131 1 164 100q13 40 13 95q0 183 -165 192h-12h-108v-84h94q101 -2 102 -108q-2 -109 -101 -110h-95v-85z" />
    <glyph glyph-name="Q" unicode="Q" horiz-adv-x="527" 
d="M39 195v329q0 53 44 107q61 74 155 74v-86q-64 -1 -97 -62q-14 -27 -14 -49v-313q0 -74 76 -104q22 -9 35 -9v-87q-61 0 -120 43q-78 59 -79 157zM288 -5v87q24 0 58 21q53 33 53 92v313q0 41 -34 77q-32 33 -77 34v86q103 1 164 -86q35 -51 35 -95v-329
q-1 -110 -113 -172l57 -83l-70 -47z" />
    <glyph glyph-name="R" unicode="R" horiz-adv-x="507" 
d="M42 0v700h87v-700h-87zM179 303v79h91q106 2 107 118q-2 119 -121 120h-77v80h93q145 -5 179 -121q10 -33 10 -72q-1 -116 -69 -163q58 -31 70 -113l2 -14l17 -217h-82l-15 178q-8 86 -44 110q-24 16 -65 15h-96z" />
    <glyph glyph-name="S" unicode="S" horiz-adv-x="492" 
d="M25 158l80 28q6 -42 32.5 -69t50.5 -33l23 -6v-81q-88 0 -148 75q-37 47 -38 86zM33 511q0 108 93 162q46 27 85 27v-82q-35 -4 -66 -37q-28 -31 -28 -71q0 -61 88 -92q22 -7 67 -19q47 -13 66 -20q90 -37 115 -101q13 -32 13 -72q0 -87 -67 -151q-61 -58 -138 -58v81
q41 2 79 39q38 39 39 89q0 70 -97 102q-21 7 -64 17q-46 11 -62 18q-85 35 -109 92q-14 33 -14 76zM261 618v82q87 0 145 -77q29 -39 32 -70l-81 -27q-14 70 -80 89z" />
    <glyph glyph-name="T" unicode="T" horiz-adv-x="468" 
d="M18 615v85h433v-85h-173v-615h-88v615h-172z" />
    <glyph glyph-name="U" unicode="U" horiz-adv-x="520" 
d="M36 193v507h88v-507q0 -66 69 -99q25 -12 42 -12v-87q-58 0 -116 41q-82 59 -83 157zM285 -5v87q33 0 68 27q42 33 43 84v507h87v-507q0 -112 -100 -169q-51 -29 -98 -29z" />
    <glyph glyph-name="V" unicode="V" horiz-adv-x="474" 
d="M9 700h88l178 -608l-32 -92h-31zM253 329l124 371h88q-9 -29 -75 -232q-77 -236 -88 -271h-10z" />
    <glyph glyph-name="W" unicode="W" horiz-adv-x="792" 
d="M10 700l203 -700h30l31 98l-176 602h-88zM250 338l38 -133h10q16 52 95 337l149 -542h30l31 94l-166 606h-88zM587 338l39 -133h10l146 495h-88z" />
    <glyph glyph-name="X" unicode="X" horiz-adv-x="458" 
d="M23 0l163 362l-151 338h85l109 -231l109 231h85l-151 -338l163 -362h-89l-117 251l-117 -251h-89z" />
    <glyph glyph-name="Y" unicode="Y" horiz-adv-x="470" 
d="M22 700h90l158 -447v-253h-89v252zM256 455l103 245h90l-145 -380h-7z" />
    <glyph glyph-name="Z" unicode="Z" horiz-adv-x="437" 
d="M35 0v85l270 529h-270v86h366v-83l-270 -529h271l-1 -88h-366z" />
    <glyph glyph-name="bracketleft" unicode="[" horiz-adv-x="217" 
d="M50 -36v775h134v-72h-50l-3 -631h53v-72h-134z" />
    <glyph glyph-name="backslash" unicode="\" horiz-adv-x="338" 
d="M41 716h81l175 -739h-82z" />
    <glyph glyph-name="bracketright" unicode="]" horiz-adv-x="213" 
d="M33 -36v72h52l-3 631h-49v72h134v-775h-134z" />
    <glyph glyph-name="asciicircum" unicode="^" horiz-adv-x="464" 
d="M55 460l149 296h56l149 -296h-80l-98 196l-97 -196h-79z" />
    <glyph glyph-name="underscore" unicode="_" horiz-adv-x="521" 
d="M35 -135h450v-70h-450v70z" />
    <glyph glyph-name="grave" unicode="`" horiz-adv-x="246" 
d="M41 757h81l37 -152h-58z" />
    <glyph glyph-name="a" unicode="a" horiz-adv-x="468" 
d="M33 126q0 -55 54 -93q46 -32 108 -32v78q-87 2 -88 66v27q1 22 12 32q12 11 107 34q74 18 100 32v-115q0 -65 -63 -75q-10 -1 -19 -1v-78q70 1 110 35q31 -35 81 -35v79q-26 2 -27 33v274q0 64 -49 112q-46 44 -115 44v-77q47 0 70 -38q12 -20 12 -44v-19q0 -25 -119 -58
q-107 -30 -123 -38q-51 -30 -51 -95v-48zM40 407l74 -28q0 56 46 78q17 8 36 8v78q-69 0 -118 -50q-38 -38 -38 -86z" />
    <glyph glyph-name="b" unicode="b" horiz-adv-x="446" 
d="M41 0v707h86v-707h-86zM176 0v81h79q39 0 66 35q13 18 13 34v242q0 30 -33 53q-22 15 -45 15h-80v81h80q80 0 130 -67q29 -39 30 -78v-248q0 -46 -40 -92q-49 -55 -122 -56h-78z" />
    <glyph glyph-name="c" unicode="c" horiz-adv-x="443" 
d="M39 148q0 -53 41 -97q48 -51 127 -51v80q-54 0 -77 40q-8 14 -8 28v243q0 32 33 55q23 15 52 15v80q-96 0 -144 -75q-24 -37 -24 -73v-245zM252 460q49 0 68 -42q7 -16 8 -33v-24l78 30q0 73 -60 119q-42 31 -94 31v-81zM252 -1q71 -1 124 54q42 45 42 98l-78 29v-2v-4
v-5v-4.5v-4.5l-1 -2q-5 -56 -56 -73q-15 -5 -31 -5v-81z" />
    <glyph glyph-name="d" unicode="d" horiz-adv-x="444" 
d="M30 148v247q1 54 49 100q47 45 110 45h79v-81h-78q-41 0 -67 -37q-11 -17 -11 -32v-240q0 -32 36 -55q21 -14 43 -14h77v-81h-76q-89 0 -138 77q-24 38 -24 71zM316 0l1 707h86v-707h-87z" />
    <glyph glyph-name="e" unicode="e" horiz-adv-x="468" 
d="M39 148v248q1 46 44 91q52 53 126 54v-79q-48 0 -75 -42q-11 -18 -11 -33v-68h224v68q0 45 -46 66q-21 10 -43 10v78q69 0 123 -49q45 -43 46 -95v-159h-304v-90q0 -28 32 -52q26 -18 55 -18v-78q-91 0 -143 74q-28 39 -28 74zM258 0v79q60 0 90 52q6 11 9 21l71 -26
q-18 -69 -82 -104q-41 -22 -88 -22z" />
    <glyph glyph-name="f" unicode="f" horiz-adv-x="280" 
d="M23 415v82h66v58q0 56 37 102q41 48 106 49h37l-19 -81h-19q-57 -3 -58 -70v-59l68 1v-82h-68v-415h-84v415h-66z" />
    <glyph glyph-name="g" unicode="g" horiz-adv-x="444" 
d="M25 -185l21 78h188q56 2 82 44q8 14 8 25v72q-41 -29 -82 -31v77q44 0 70 37q12 17 12 34v245q0 38 -42 60q-20 10 -40 10v79q45 0 79 -28q2 -1 3 -2v30h81v-583q0 -43 -39 -89q-49 -57 -121 -58h-220zM35 150v250q1 47 42 92q49 52 121 53v-79q-49 0 -74 -42
q-9 -15 -9 -27v-246q0 -30 31 -53q23 -16 52 -16v-79q-92 1 -140 78q-23 37 -23 69z" />
    <glyph glyph-name="h" unicode="h" horiz-adv-x="458" 
d="M41 -3v709h79v-209q37 33 91 34v-78q-45 0 -76 -40q-14 -19 -14 -35v-381h-80zM258 453v78q93 0 140 -67q25 -36 25 -77v-390h-80v381q0 38 -34 61q-22 14 -51 14z" />
    <glyph glyph-name="i" unicode="i" horiz-adv-x="189" 
d="M46 615q0 31 29 44q10 4 20 4q30 0 44 -28q4 -10 4 -20q0 -30 -28 -44q-10 -4 -20 -4q-31 0 -45 28q-4 10 -4 20zM53 0v527h84v-527h-84z" />
    <glyph glyph-name="j" unicode="j" horiz-adv-x="206" 
d="M70 527h85v-565q0 -48 -40 -95q-48 -56 -119 -57h-38l19 81h20q41 2 64 41q9 16 9 30v565zM64 615q0 31 29 44q10 4 20 4q32 0 44 -30q4 -8 4 -18q0 -32 -29 -44q-9 -4 -19 -4q-31 0 -45 28q-4 10 -4 20z" />
    <glyph glyph-name="k" unicode="k" horiz-adv-x="478" 
d="M41 0v706h86v-706h-86zM152 271l204 269h101l-206 -269l207 -271h-100z" />
    <glyph glyph-name="l" unicode="l" horiz-adv-x="173" 
d="M42 0v706h89v-706h-89z" />
    <glyph glyph-name="m" unicode="m" horiz-adv-x="729" 
d="M38 0v395q0 56 42 100q47 48 119 48v-82q-54 0 -71 -47q-5 -15 -5 -30v-384h-85zM244 461v82q76 -2 120 -53q50 51 120 53v-82q-54 0 -72 -47q-5 -14 -5 -30v-384h-85v384q0 51 -43 70q-16 7 -35 7zM529 461v82q95 0 141 -78q21 -36 21 -70v-395h-85v384q0 55 -46 72
q-14 5 -31 5z" />
    <glyph glyph-name="n" unicode="n" horiz-adv-x="467" 
d="M38 0v395q0 48 43 94q53 54 131 54v-83q-51 0 -78 -40q-11 -17 -11 -35v-385h-85zM256 460v83q93 0 145 -75q28 -39 28 -73v-395h-85v385q0 31 -31 55q-25 20 -57 20z" />
    <glyph glyph-name="o" unicode="o" horiz-adv-x="457" 
d="M38 148v247q0 47 42 92q52 54 130 54v-81q-59 0 -82 -49q-7 -15 -7 -30v-220q0 -37 34 -63q24 -18 55 -18v-81q-95 0 -147 77q-25 38 -25 72zM253 -1v81q53 0 76 48q8 16 8 31v222q0 41 -35 65q-22 14 -50 14v81q92 0 142 -75q25 -37 25 -71v-247q0 -49 -42 -95
q-49 -53 -124 -54z" />
    <glyph glyph-name="p" unicode="p" horiz-adv-x="461" 
d="M179 0v81h75q57 0 78 44q6 13 6 25v241q0 28 -30 50q-25 19 -60 19h-73v81h73q97 0 148 -76q25 -37 25 -71v-247q0 -49 -42 -94q-50 -53 -126 -53h-74zM40 -190v731h88v-731h-88z" />
    <glyph glyph-name="q" unicode="q" horiz-adv-x="456" 
d="M207 0q-94 0 -144 75q-24 38 -24 72v247q0 50 42 95q49 52 126 52h73v-81h-73q-59 0 -80 -47q-5 -12 -5 -22v-241q0 -35 34 -56q22 -13 50 -13h71v-81h-70zM328 -190v731h87v-731h-87z" />
    <glyph glyph-name="r" unicode="r" horiz-adv-x="293" 
d="M42 0v541h85v-74q26 44 78 65q28 11 55 11h18l-20 -82q-55 -1 -98 -59q-33 -46 -33 -95v-307h-85z" />
    <glyph glyph-name="s" unicode="s" horiz-adv-x="433" 
d="M20 142l79 15q0 -45 47 -71q23 -11 44 -12v-79q-97 0 -145 70q-25 37 -25 77zM25 388q0 91 83 135q40 21 80 21v-78q-46 0 -71 -38q-13 -19 -13 -40q0 -32 50 -52q38 -16 147 -42q68 -14 97 -67q15 -28 15 -63q0 -96 -77 -142q-45 -27 -103 -27v79q46 0 77 32
q22 23 22 54q0 40 -79 64q-20 6 -64 17q-47 11 -68 18q-76 30 -92 91q-4 18 -4 38zM232 465v79q86 0 139 -64q33 -41 33 -86l-79 -13q0 55 -60 77q-18 7 -33 7z" />
    <glyph glyph-name="t" unicode="t" horiz-adv-x="286" 
d="M17 454v81h66v173h85v-173h64v-82h-64v-287q0 -71 58 -79q11 -2 22 -2h14l19 -85h-36q-123 1 -151 92q-10 34 -10 84l-1 278h-66z" />
    <glyph glyph-name="u" unicode="u" horiz-adv-x="467" 
d="M38 144v396h85v-386q0 -36 36 -60q24 -15 53 -15v-84q-96 0 -148 75q-26 38 -26 74zM256 -5v84q54 0 79 43q9 16 9 32v386h85v-396q0 -47 -43 -93q-52 -55 -130 -56z" />
    <glyph glyph-name="v" unicode="v" horiz-adv-x="422" 
d="M9 541h93l157 -460l-28 -81h-46zM229 278l91 263h94l-131 -385h-12z" />
    <glyph glyph-name="w" unicode="w" horiz-adv-x="723" 
d="M9 541l177 -540h46l27 81l-157 459h-93zM229 278l42 -121h12l79 242l130 -398h46l27 81l-157 459h-93zM535 278l42 -121h12l125 384h-93z" />
    <glyph glyph-name="x" unicode="x" horiz-adv-x="396" 
d="M8 0l142 274l-138 267h85l101 -179l101 179h86l-138 -267l141 -274h-85l-105 188l-105 -188h-85z" />
    <glyph glyph-name="y" unicode="y" horiz-adv-x="408" 
d="M5 541h89l152 -423l-103 -308h-85l98 309zM226 309l91 232h88l-133 -349h-9z" />
    <glyph glyph-name="z" unicode="z" horiz-adv-x="370" 
d="M30 0v81l216 378h-216v81h310v-78l-214 -380h214v-82h-310z" />
    <glyph glyph-name="braceleft" unicode="{" horiz-adv-x="253" 
d="M15 348q43 18 52 29q9 12 10 31v124q0 150 65 186q32 17 91 17v-65q-46 0 -60 -27q-15 -30 -15 -163v-11v-86q-2 -26 -37 -35q36 -13 37 -44v-97q0 -143 34 -170q15 -10 41 -10v-65q-83 0 -116 37q-40 46 -40 164v127q0 25 -31 42q-4 3 -15 8t-16 8z" />
    <glyph glyph-name="bar" unicode="|" horiz-adv-x="168" 
d="M50 -134v888h68v-888h-68z" />
    <glyph glyph-name="braceright" unicode="}" horiz-adv-x="253" 
d="M20 -38v65q41 0 56 30q19 40 19 150v97q2 32 37 44q-36 10 -37 35v86q0 140 -14 171q-19 29 -61 30v65q85 0 118 -40q38 -46 38 -163v-124q1 -32 32 -47q6 -3 30 -13q-44 -23 -49 -27q-13 -13 -13 -31v-127q0 -151 -71 -186q-31 -15 -85 -15z" />
    <glyph glyph-name="asciitilde" unicode="~" horiz-adv-x="628" 
d="M80 297v83q61 35 113 35q43 0 109 -35q65 -35 103 -38h12q58 1 131 45v-81q-76 -46 -137 -46q-47 0 -116 37q-72 34 -108 36q-52 -1 -107 -36z" />
    <glyph glyph-name="exclamdown" unicode="&#xa1;" horiz-adv-x="188" 
d="M21 492q0 32 29 46q12 6 23 6q33 0 47 -31q5 -10 5 -21q0 -33 -30 -47q-11 -5 -22 -5q-32 0 -46 29q-6 11 -6 23zM32 -143v540h84v-540h-84z" />
    <glyph glyph-name="cent" unicode="&#xa2;" horiz-adv-x="437" 
d="M251 617v-158q44 0 65 -37q10 -17 11 -38v-24l78 30q0 72 -59 118q-25 18 -54 26v83h-41zM165 617v-81q-76 -17 -112 -87q-15 -30 -15 -57v-244q0 -53 41 -97q35 -36 86 -47v-81h41v158q-50 0 -76 42q-9 15 -9 29v231q0 39 35 62q22 15 50 15v157h-41zM251 -77h41v81
q70 19 106 79q19 33 19 68l-78 29q0 -20 -1 -25q-5 -51 -54 -69q-16 -6 -33 -6v-157z" />
    <glyph glyph-name="sterling" unicode="&#xa3;" horiz-adv-x="413" 
d="M20 306h59v-306h311v71h-228v237h144v70h-143v160q0 68 56 84q13 4 27 4q53 -1 81 -57l65 32q-22 65 -85 91q-29 12 -65 12h-2q-105 0 -144 -87q-17 -37 -17 -82v-159h-59v-70z" />
    <glyph glyph-name="currency" unicode="&#xa4;" horiz-adv-x="621" 
d="M40 176l87 78q-4 11 -4 27v167q0 19 5 29l-88 77l47 54l75 -66q48 53 125 54v-76q-57 0 -79 -46q-8 -16 -8 -31v-157q0 -35 34 -61q24 -17 53 -17v-76q-77 1 -125 57l-75 -66zM328 132v76q52 0 75 45q8 17 8 32v157q0 39 -34 63q-22 15 -49 15v76q76 -1 120 -55l75 67
l48 -54l-88 -78q4 -16 4 -27v-168q0 -11 -4 -27l87 -78l-47 -53l-74 65q-48 -55 -121 -56z" />
    <glyph glyph-name="yen" unicode="&#xa5;" horiz-adv-x="451" 
d="M187 0h86v193h165v46h-165v25l9 29h156v46h-141l116 359h-86l-96 -288l-98 288h-86l116 -359h-144v-46h159l9 -28v-26h-168v-46h168v-193z" />
    <glyph glyph-name="brokenbar" unicode="&#xa6;" horiz-adv-x="171" 
d="M42 -137v356h79v-356h-79zM42 403v356h79v-356h-79z" />
    <glyph glyph-name="section" unicode="&#xa7;" horiz-adv-x="602" 
d="M54 354q1 93 74 148q-13 32 -13 72q0 118 98 165q43 21 87 21h104v-83h-85q-95 0 -116 -67q-5 -16 -5 -33q1 -56 78 -86v-98q-28 8 -38 12q-38 16 -57 32q-39 -32 -40 -84q0 -66 97 -97q17 -5 38 -10v-90q-83 23 -87 25q-6 2 -10 4q-82 38 -107 88q-18 34 -18 81z
M197 -54h84q89 0 115 61q8 19 8 42q-1 60 -79 88v95q20 -5 36 -11q45 -16 64 -35q36 33 36 83q0 68 -92 98q-18 7 -44 13v91q74 -21 95 -30q90 -37 115 -101q13 -32 13 -72q-1 -90 -71 -150q10 -28 10 -70q0 -97 -75 -150q-50 -35 -112 -35h-103v83z" />
    <glyph glyph-name="dieresis" unicode="&#xa8;" horiz-adv-x="343" 
d="M55 679q0 32 30 46q10 4 20 4q33 0 46 -30q4 -10 4 -20q0 -33 -30 -46q-10 -4 -20 -4q-33 0 -46 30q-4 10 -4 20zM188 679q0 31 29 45q11 5 22 5q32 0 45 -30q4 -10 4 -20q0 -33 -29 -46q-10 -4 -20 -4q-34 0 -47 30q-4 10 -4 20z" />
    <glyph glyph-name="copyright" unicode="&#xa9;" horiz-adv-x="792" 
d="M35 339q0 -155 107 -264q95 -96 222 -106q10 -1 19 -1v62q-119 2 -205 94t-86 215q0 142 104 235q83 74 183 77h4v58q-99 1 -195 -69q-127 -91 -149 -244q-4 -28 -4 -57zM256 239q0 -53 38 -92q35 -34 89 -34v58q-44 0 -62 42q-6 13 -6 26v197q0 38 29 59q17 12 39 12v58
q-78 0 -113 -70q-14 -29 -14 -58v-198zM418 -32q121 2 220 92q110 99 123 246q1 14 1 27q0 166 -115 277q-91 87 -205 98q-12 1 -24 1v-58q105 -1 189 -82q95 -100 98 -233q0 -119 -84 -210q-84 -92 -198 -96h-5v-62zM418 112q55 0 92 50q25 33 25 70l-58 21v-15
q-1 -43 -34 -61q-13 -7 -25 -7v-58zM418 507q29 0 47 -30q11 -18 11 -40v-12l58 21q0 57 -48 95q-32 24 -68 24v-58z" />
    <glyph glyph-name="ordfeminine" unicode="&#xaa;" horiz-adv-x="238" 
d="M20 361v41h196v-41h-196zM20 496q0 -34 36 -52q20 -10 44 -10v38q-42 2 -44 34v13q1 11 6 16q5 4 65 20q27 7 39 13v-58q-2 -37 -41 -38v-38q35 0 55 17q16 -17 40 -17v39q-12 1 -13 17v136q0 40 -34 64q-21 14 -48 14v-38q29 0 38 -26q3 -7 3 -15v-9q0 -14 -74 -33
q-38 -11 -47 -15q-25 -16 -25 -48v-24zM23 636l37 -14q0 33 29 42l12 2v38q-42 0 -66 -33q-12 -17 -12 -35z" />
    <glyph glyph-name="guillemotleft" unicode="&#xab;" horiz-adv-x="467" 
d="M24 271v38l211 156v-85l-125 -88l125 -94v-84zM235 271v38l211 156v-85l-125 -88l125 -94v-84z" />
    <glyph glyph-name="logicalnot" unicode="&#xac;" horiz-adv-x="519" 
d="M40 349v74h429v-215h-76v141h-353z" />
    <glyph glyph-name="uni00AD" unicode="&#xad;" horiz-adv-x="376" 
d="M25 254v80h316v-80h-316z" />
    <glyph glyph-name="registered" unicode="&#xae;" horiz-adv-x="393" 
d="M181 515v27h12q35 1 36 27q-2 30 -42 31h-6v27q74 -2 75 -57q-1 -30 -20 -41q18 -11 20 -37l4 -60h-27l-3 49q-3 29 -29 33q-9 1 -20 1zM188 362q-74 3 -122 64q-34 45 -34 101q0 90 72 139q41 26 85 28v-32q-61 -2 -99 -54q-27 -36 -27 -81q1 -69 56 -109q31 -22 68 -24
zM205 362v32q65 4 102 59q23 35 23 75q0 71 -57 111q-32 22 -68 23v32q68 -2 116 -57q41 -47 41 -109q0 -84 -67 -133q-41 -30 -90 -33zM138 431v196h29v-196h-29z" />
    <glyph glyph-name="macron" unicode="&#xaf;" horiz-adv-x="510" 
d="M35 782h450v-70h-450v70z" />
    <glyph glyph-name="degree" unicode="&#xb0;" horiz-adv-x="252" 
d="M35 583q0 50 43 77q23 14 48 14q50 0 77 -43q14 -23 14 -48q0 -50 -43 -77q-22 -14 -48 -14q-50 0 -77 43q-14 23 -14 48zM88 583q0 -27 25 -36q7 -2 13 -2q28 0 37 26q2 6 2 12q0 28 -26 37q-7 2 -13 2q-26 0 -35 -25q-3 -7 -3 -14z" />
    <glyph glyph-name="plusminus" unicode="&#xb1;" horiz-adv-x="431" 
d="M28 87v80h376v-80h-376zM41 415v80h146v164h81v-164h148v-80h-148v-167h-81v167h-146z" />
    <glyph glyph-name="twosuperior" unicode="&#xb2;" horiz-adv-x="227" 
d="M15 624q2 41 40 65q19 12 40 13v-41q-20 0 -33 -19q-6 -12 -8 -26zM21 388v43h181v-43h-181zM21 452q0 49 69 88q23 13 24 14q44 28 50 50q2 5 2 11q0 33 -30 43q-9 3 -18 3v41q69 0 86 -58q4 -15 4 -30q0 -49 -58 -85q-1 -1 -2 -1q-6 -4 -20 -11q-43 -24 -53 -45
q-4 -9 -4 -20h-50z" />
    <glyph glyph-name="threesuperior" unicode="&#xb3;" horiz-adv-x="228" 
d="M119 387v41q35 2 45 30q3 9 3 17q0 41 -45 47q-8 1 -15 1v41q52 0 59 40q1 5 1 9q0 37 -37 45q-6 2 -11 2v41q51 0 77 -40q13 -22 13 -47q-1 -49 -32 -70q32 -23 32 -70q0 -54 -49 -78q-20 -9 -41 -9zM17 465l39 8q8 -38 39 -45v-41q-45 2 -68 44q-9 17 -10 34zM17 623
q2 43 40 66q18 11 38 12v-41q-23 -8 -31 -22q-6 -9 -8 -23z" />
    <glyph glyph-name="acute" unicode="&#xb4;" horiz-adv-x="349" 
d="M115 605l37 152h81l-60 -152h-58z" />
    <glyph glyph-name="uni00B5" unicode="&#xb5;" horiz-adv-x="497" 
d="M41 0h80v222q51 -21 86 -21v77q-57 0 -80 27q-6 9 -6 16v377h-80v-698zM249 201q73 1 120 35q34 -33 88 -33v77q-38 0 -41 30q-1 5 -1 11v379h-79v-379q0 -24 -41 -37q-22 -6 -46 -6v-77z" />
    <glyph glyph-name="paragraph" unicode="&#xb6;" horiz-adv-x="418" 
d="M35 517q0 -115 77 -164q40 -24 92 -24v-334h55v710h-55q-88 0 -137 -75q-32 -50 -32 -113zM310 -5h54v710h-54v-710z" />
    <glyph glyph-name="periodcentered" unicode="&#xb7;" horiz-adv-x="198" 
d="M60 343q0 36 32 51q12 6 24 6q35 0 51 -33q5 -12 5 -24q0 -34 -31 -49q-13 -6 -25 -6q-35 0 -50 31q-6 12 -6 24z" />
    <glyph glyph-name="cedilla" unicode="&#xb8;" horiz-adv-x="412" 
d="M123 -22v63q60 0 81 45q8 17 8 37h65q0 -74 -54 -115q-40 -30 -100 -30z" />
    <glyph glyph-name="onesuperior" unicode="&#xb9;" horiz-adv-x="126" 
d="M10 642v37l26 20h43v-314h-43v257h-26z" />
    <glyph glyph-name="ordmasculine" unicode="&#xba;" horiz-adv-x="230" 
d="M26 389v43h178v-43h-178zM30 528v110q0 28 28 50q22 15 49 16v-37q-30 0 -38 -26q-2 -5 -2 -9v-98q0 -21 21 -32q10 -4 19 -4v-36q-49 0 -70 42q-7 13 -7 24zM126 462v36q27 0 36 26q1 5 2 9v99q0 23 -23 32q-7 3 -15 3v37q47 0 68 -42q6 -13 6 -24v-110q0 -30 -28 -51
q-20 -15 -46 -15z" />
    <glyph glyph-name="guillemotright" unicode="&#xbb;" horiz-adv-x="457" 
d="M15 124v79l135 89l-135 82v80l211 -139v-50zM226 124v79l135 89l-135 82v80l211 -139v-50z" />
    <glyph glyph-name="onequarter" unicode="&#xbc;" horiz-adv-x="503" 
d="M386 0v350h54v-240h27v-49h-27v-61h-54zM57 636v41l28 23h54v-350h-54v286h-28zM233 61v49l128 219v-98l-69 -121h69v-49h-128zM0 0l432 700h55l-429 -700h-58z" />
    <glyph glyph-name="onehalf" unicode="&#xbd;" horiz-adv-x="567" 
d="M308 0v51h218v-51h-218zM0 0l432 700h55l-429 -700h-58zM57 636v41l28 23h54v-350h-54v286h-28zM302 255q3 53 50 81q22 13 47 15v-53q-27 0 -41 -26q-6 -12 -7 -27zM308 75q0 57 82 93q4 2 11 5t10 4q53 24 63 47q4 9 4 19q-2 54 -55 55v53q85 0 104 -72q5 -17 5 -36
q-1 -60 -66 -93q-8 -4 -25 -11q-55 -22 -67 -43q-5 -11 -5 -21h-61z" />
    <glyph glyph-name="threequarters" unicode="&#xbe;" horiz-adv-x="601" 
d="M159 348v52q41 0 49 37q1 7 1 13q0 32 -28 45q-12 5 -28 5h-13v48h13q47 0 55 41q1 5 1 9q0 40 -35 48q-8 2 -15 2v52q57 0 86 -46q14 -23 14 -52q-1 -54 -37 -78q36 -25 37 -78q0 -59 -51 -86q-23 -12 -49 -12zM485 0v350h53v-240h27v-49h-27v-61h-53zM332 61v49
l127 219v-98l-69 -121h69v-49h-127zM36 443l48 10q4 -47 47 -54h1v-52q-53 3 -82 49q-13 23 -14 47zM36 604q2 52 48 81q23 14 48 15v-52q-43 -7 -48 -50v-3zM98 0l432 700h55l-429 -700h-58z" />
    <glyph glyph-name="questiondown" unicode="&#xbf;" horiz-adv-x="445" 
d="M417 79q-58 -73 -138 -88q-24 -4 -50 -4q-125 0 -180 94q-30 51 -32 118q0 55 20 97.5t48 63.5t56 34.5t48 16.5l20 3v160h81v-233q-152 -3 -184 -85q-9 -26 -9 -58q0 -74 60 -110q33 -20 75 -20q82 1 132 66zM299 663q0 -32 -29 -46q-10 -4 -20 -4q-31 0 -45 29
q-5 10 -5 21q0 32 30 45q10 4 20 4q32 0 45 -29q4 -10 4 -20z" />
    <glyph glyph-name="Agrave" unicode="&#xc0;" horiz-adv-x="476" 
d="M158 918h81l37 -152h-58zM31 0l133 591h16l34 -155l-97 -436h-86zM191 112l19 85h107l-111 502h87l158 -699h-87l-25 112h-148z" />
    <glyph glyph-name="Aacute" unicode="&#xc1;" horiz-adv-x="476" 
d="M222 766l37 152h81l-60 -152h-58zM31 0l133 591h16l34 -155l-97 -436h-86zM191 112l19 85h107l-111 502h87l158 -699h-87l-25 112h-148z" />
    <glyph glyph-name="Acircumflex" unicode="&#xc2;" horiz-adv-x="476" 
d="M151 766l75 152h48l76 -152h-57l-43 87l-42 -87h-57zM31 0l133 591h16l34 -155l-97 -436h-86zM191 112l19 85h107l-111 502h87l158 -699h-87l-25 112h-148z" />
    <glyph glyph-name="Atilde" unicode="&#xc3;" horiz-adv-x="476" 
d="M110 776v69q39 22 70 22q25 0 71 -23q35 -18 60 -18q35 1 80 28v-68q-46 -28 -84 -28q-27 0 -74 23q-34 17 -57 17q-31 -1 -66 -22zM31 0l133 591h16l34 -155l-97 -436h-86zM191 112l19 85h107l-111 502h87l158 -699h-87l-25 112h-148z" />
    <glyph glyph-name="Adieresis" unicode="&#xc4;" horiz-adv-x="476" 
d="M134 816q0 32 30 46q10 4 20 4q33 0 46 -30q4 -10 4 -20q0 -33 -30 -46q-10 -4 -20 -4q-33 0 -46 30q-4 10 -4 20zM267 816q0 31 29 45q11 5 22 5q32 0 45 -30q4 -10 4 -20q0 -33 -29 -46q-10 -4 -20 -4q-34 0 -47 30q-4 10 -4 20zM31 0l133 591h16l34 -155l-97 -436h-86
zM191 112l19 85h107l-111 502h87l158 -699h-87l-25 112h-148z" />
    <glyph glyph-name="Aring" unicode="&#xc5;" horiz-adv-x="516" 
d="M51 0l134 591h16l33 -155l-96 -436h-87zM212 112l18 85h107l-109 499q-37 18 -42 59q-1 5 -1 10q0 47 41 71q19 12 42 12q49 0 73 -41q11 -20 11 -42q-1 -45 -38 -68l151 -697h-85l-25 112h-143zM233 765q0 -25 24 -33q5 -2 11 -2q28 0 35 25q1 6 1 10q0 27 -24 34
q-7 2 -12 2q-24 0 -33 -23q-2 -7 -2 -13z" />
    <glyph glyph-name="AE" unicode="&#xc6;" horiz-adv-x="727" 
d="M55 0l180 700h466v-86h-250v-223h156v-86h-156v-219h250v-86h-337v169h-121l19 78h102v367h-58l-154 -614h-97z" />
    <glyph glyph-name="Ccedilla" unicode="&#xc7;" horiz-adv-x="506" 
d="M140 -186v63q60 0 81 45q8 17 8 37h65q0 -74 -54 -115q-40 -30 -100 -30zM39 181q0 -58 43 -113q58 -72 156 -73v86q-69 0 -100 61q-11 22 -11 39v337q0 35 30 67q33 33 81 34v86q-114 1 -170 -94q-29 -49 -29 -93v-337zM287 -5q80 0 137 61q51 55 51 126l-83 20
q0 -11 -1 -16q-2 -23 -6 -34q-9 -29 -33.5 -47t-44.5 -21l-20 -3v-86zM287 619l29 -7q50 -21 69 -70q4 -12 6 -32v-16l84 22q0 76 -63 136q-58 53 -125 53v-86z" />
    <glyph glyph-name="Egrave" unicode="&#xc8;" horiz-adv-x="444" 
d="M131 918h81l37 -152h-58zM41 0v700h364v-86h-277v-222h183v-87h-183v-219h277v-86h-364z" />
    <glyph glyph-name="Eacute" unicode="&#xc9;" horiz-adv-x="444" 
d="M241 766l37 152h81l-60 -152h-58zM41 0v700h364v-86h-277v-222h183v-87h-183v-219h277v-86h-364z" />
    <glyph glyph-name="Ecircumflex" unicode="&#xca;" horiz-adv-x="444" 
d="M124 766l75 152h48l76 -152h-57l-43 87l-42 -87h-57zM41 0v700h364v-86h-277v-222h183v-87h-183v-219h277v-86h-364z" />
    <glyph glyph-name="Edieresis" unicode="&#xcb;" horiz-adv-x="444" 
d="M107 816q0 32 30 46q9 4 20 4q33 0 46 -30q4 -10 4 -20q0 -33 -30 -46q-10 -4 -20 -4q-33 0 -46 30q-4 10 -4 20zM240 816q0 31 29 45q11 5 22 5q32 0 45 -30q4 -10 4 -20q0 -33 -29 -46q-10 -4 -20 -4q-34 0 -47 30q-4 10 -4 20zM41 0v700h364v-86h-277v-222h183v-87
h-183v-219h277v-86h-364z" />
    <glyph glyph-name="Igrave" unicode="&#xcc;" horiz-adv-x="171" 
d="M-4 918h81l37 -152h-58zM42 0v700h87v-700h-87z" />
    <glyph glyph-name="Iacute" unicode="&#xcd;" horiz-adv-x="171" 
d="M57 766l37 152h81l-60 -152h-58zM42 0v700h87v-700h-87z" />
    <glyph glyph-name="Icircumflex" unicode="&#xce;" horiz-adv-x="171" 
d="M-14 766l75 152h48l76 -152h-57l-43 87l-42 -87h-57zM42 0v700h87v-700h-87z" />
    <glyph glyph-name="Idieresis" unicode="&#xcf;" horiz-adv-x="171" 
d="M-31 816q0 32 30 46q9 4 20 4q33 0 46 -30q4 -10 4 -20q0 -33 -30 -46q-10 -4 -20 -4q-33 0 -46 30q-4 10 -4 20zM102 816q0 31 29 45q11 5 22 5q32 0 45 -30q4 -10 4 -20q0 -33 -29 -46q-10 -4 -20 -4q-34 0 -47 30q-4 10 -4 20zM42 0v700h87v-700h-87z" />
    <glyph glyph-name="Eth" unicode="&#xd0;" horiz-adv-x="475" 
d="M26 315v80h56v305h88v-305h56v-80h-56v-315h-88v315h-56zM219 0v86q102 0 138 31q30 28 30 80v306q0 88 -100 106q-29 5 -68 5v86q181 0 235 -107q20 -40 20 -90v-306q0 -188 -229 -197h-26z" />
    <glyph glyph-name="Ntilde" unicode="&#xd1;" horiz-adv-x="529" 
d="M124 784v69q39 22 70 22q25 0 71 -23q35 -18 60 -18q35 1 80 28v-68q-46 -28 -84 -28q-27 0 -74 23q-34 17 -57 17q-31 -1 -66 -22zM42 0v547h8l79 -128v-419h-87zM42 644v56h75l370 -593v-107h-43zM400 334v366h87v-494h-8z" />
    <glyph glyph-name="Ograve" unicode="&#xd2;" horiz-adv-x="526" 
d="M169 918h81l37 -152h-58zM39 195v329q0 53 45 108q60 72 152 73v-87q-61 0 -95 -62q-14 -27 -14 -48v-313q0 -63 62 -98q26 -15 46 -15v-87q-57 0 -114 41q-81 60 -82 159zM290 -5v87q35 0 71 31q38 34 39 82v313q0 39 -32 75q-33 34 -78 35v87q101 0 162 -87
q35 -50 35 -94v-329q0 -111 -99 -170q-52 -30 -98 -30z" />
    <glyph glyph-name="Oacute" unicode="&#xd3;" horiz-adv-x="526" 
d="M233 766l37 152h81l-60 -152h-58zM39 195v329q0 53 45 108q60 72 152 73v-87q-61 0 -95 -62q-14 -27 -14 -48v-313q0 -63 62 -98q26 -15 46 -15v-87q-57 0 -114 41q-81 60 -82 159zM290 -5v87q35 0 71 31q38 34 39 82v313q0 39 -32 75q-33 34 -78 35v87q101 0 162 -87
q35 -50 35 -94v-329q0 -111 -99 -170q-52 -30 -98 -30z" />
    <glyph glyph-name="Ocircumflex" unicode="&#xd4;" horiz-adv-x="526" 
d="M162 766l75 152h48l76 -152h-57l-43 87l-42 -87h-57zM39 195v329q0 53 45 108q60 72 152 73v-87q-61 0 -95 -62q-14 -27 -14 -48v-313q0 -63 62 -98q26 -15 46 -15v-87q-57 0 -114 41q-81 60 -82 159zM290 -5v87q35 0 71 31q38 34 39 82v313q0 39 -32 75q-33 34 -78 35
v87q101 0 162 -87q35 -50 35 -94v-329q0 -111 -99 -170q-52 -30 -98 -30z" />
    <glyph glyph-name="Otilde" unicode="&#xd5;" horiz-adv-x="526" 
d="M121 783v69q39 22 70 22q25 0 71 -23q35 -18 60 -18q35 1 80 28v-68q-46 -28 -84 -28q-27 0 -74 23q-34 17 -57 17q-31 -1 -66 -22zM39 195v329q0 53 45 108q60 72 152 73v-87q-61 0 -95 -62q-14 -27 -14 -48v-313q0 -63 62 -98q26 -15 46 -15v-87q-57 0 -114 41
q-81 60 -82 159zM290 -5v87q35 0 71 31q38 34 39 82v313q0 39 -32 75q-33 34 -78 35v87q101 0 162 -87q35 -50 35 -94v-329q0 -111 -99 -170q-52 -30 -98 -30z" />
    <glyph glyph-name="Odieresis" unicode="&#xd6;" horiz-adv-x="526" 
d="M145 816q0 32 30 46q10 4 20 4q33 0 46 -30q4 -10 4 -20q0 -33 -30 -46q-10 -4 -20 -4q-33 0 -46 30q-4 10 -4 20zM278 816q0 31 29 45q11 5 22 5q32 0 45 -30q4 -10 4 -20q0 -33 -29 -46q-10 -4 -20 -4q-34 0 -47 30q-4 10 -4 20zM39 195v329q0 53 45 108q60 72 152 73
v-87q-61 0 -95 -62q-14 -27 -14 -48v-313q0 -63 62 -98q26 -15 46 -15v-87q-57 0 -114 41q-81 60 -82 159zM290 -5v87q35 0 71 31q38 34 39 82v313q0 39 -32 75q-33 34 -78 35v87q101 0 162 -87q35 -50 35 -94v-329q0 -111 -99 -170q-52 -30 -98 -30z" />
    <glyph glyph-name="multiply" unicode="&#xd7;" horiz-adv-x="589" 
d="M164 184l-57 58l174 175l-174 175l57 58l175 -175l175 175l58 -58l-175 -175l175 -175l-58 -58l-175 176z" />
    <glyph glyph-name="Oslash" unicode="&#xd8;" horiz-adv-x="668" 
d="M13 115l95 86v323q0 53 45 108q60 72 152 73v-87q-63 0 -96 -62q-14 -27 -14 -51v-225l271 243q-12 58 -57 83q-23 12 -50 12v87q103 0 163 -89q9 -15 16 -29l60 55l50 -56l-92 -83v-308q0 -111 -99 -170q-52 -30 -98 -30v87q35 0 71 31q38 34 39 82v229l-272 -244
q9 -58 69 -87q22 -11 38 -11v-87q-56 0 -114 42q-44 32 -65 78l-61 -56z" />
    <glyph glyph-name="Ugrave" unicode="&#xd9;" horiz-adv-x="520" 
d="M162 918h81l37 -152h-58zM36 193v507h88v-507q0 -66 69 -99q25 -12 42 -12v-87q-58 0 -116 41q-82 59 -83 157zM285 -5v87q33 0 68 27q42 33 43 84v507h87v-507q0 -112 -100 -169q-51 -29 -98 -29z" />
    <glyph glyph-name="Uacute" unicode="&#xda;" horiz-adv-x="520" 
d="M227 766l37 152h81l-60 -152h-58zM36 193v507h88v-507q0 -66 69 -99q25 -12 42 -12v-87q-58 0 -116 41q-82 59 -83 157zM285 -5v87q33 0 68 27q42 33 43 84v507h87v-507q0 -112 -100 -169q-51 -29 -98 -29z" />
    <glyph glyph-name="Ucircumflex" unicode="&#xdb;" horiz-adv-x="520" 
d="M156 766l75 152h48l76 -152h-57l-43 87l-42 -87h-57zM36 193v507h88v-507q0 -66 69 -99q25 -12 42 -12v-87q-58 0 -116 41q-82 59 -83 157zM285 -5v87q33 0 68 27q42 33 43 84v507h87v-507q0 -112 -100 -169q-51 -29 -98 -29z" />
    <glyph glyph-name="Udieresis" unicode="&#xdc;" horiz-adv-x="520" 
d="M139 816q0 32 30 46q9 4 20 4q33 0 46 -30q4 -10 4 -20q0 -33 -30 -46q-10 -4 -20 -4q-33 0 -46 30q-4 10 -4 20zM272 816q0 31 29 45q11 5 22 5q32 0 45 -30q4 -10 4 -20q0 -33 -29 -46q-10 -4 -20 -4q-34 0 -47 30q-4 10 -4 20zM36 193v507h88v-507q0 -66 69 -99
q25 -12 42 -12v-87q-58 0 -116 41q-82 59 -83 157zM285 -5v87q33 0 68 27q42 33 43 84v507h87v-507q0 -112 -100 -169q-51 -29 -98 -29z" />
    <glyph glyph-name="Yacute" unicode="&#xdd;" horiz-adv-x="470" 
d="M197 766l37 152h81l-60 -152h-58zM22 700h90l158 -447v-253h-89v252zM256 455l103 245h90l-145 -380h-7z" />
    <glyph glyph-name="Thorn" unicode="&#xde;" horiz-adv-x="474" 
d="M53 0v700h87v-700h-87zM192 208v85h39q126 4 129 105q-1 107 -130 107h-38v85q175 4 226 -70q29 -43 30 -120q1 -140 -109 -177q-56 -18 -147 -15z" />
    <glyph glyph-name="germandbls" unicode="&#xdf;" horiz-adv-x="522" 
d="M26 0v457q1 88 12 126q37 121 188 122q165 0 179 -156q1 -15 1 -31v-112h-57q-35 -2 -43 -32q-1 -4 -1 -8q0 -30 46 -51q18 -9 40 -16q104 -37 105 -143q0 -89 -74 -132q-42 -24 -95 -24h-128v71h113q82 2 103 52q6 14 6 30q0 43 -32 64q-4 2 -55 28q-58 29 -76 48
q-28 31 -28 78q0 74 78 98q12 3 24 5v12q0 88 -29 117q-26 26 -77 26q-117 -1 -118 -131v-498h-82z" />
    <glyph glyph-name="agrave" unicode="&#xe0;" horiz-adv-x="468" 
d="M122 756h81l37 -152h-58zM33 126q0 -55 54 -93q46 -32 108 -32v78q-87 2 -88 66v27q1 22 12 32q12 11 107 34q74 18 100 32v-115q0 -65 -63 -75q-10 -1 -19 -1v-78q70 1 110 35q31 -35 81 -35v79q-26 2 -27 33v274q0 64 -49 112q-46 44 -115 44v-77q47 0 70 -38
q12 -20 12 -44v-19q0 -25 -119 -58q-107 -30 -123 -38q-51 -30 -51 -95v-48zM40 407l74 -28q0 56 46 78q17 8 36 8v78q-69 0 -118 -50q-38 -38 -38 -86z" />
    <glyph glyph-name="aacute" unicode="&#xe1;" horiz-adv-x="468" 
d="M183 604l37 152h81l-60 -152h-58zM33 126q0 -55 54 -93q46 -32 108 -32v78q-87 2 -88 66v27q1 22 12 32q12 11 107 34q74 18 100 32v-115q0 -65 -63 -75q-10 -1 -19 -1v-78q70 1 110 35q31 -35 81 -35v79q-26 2 -27 33v274q0 64 -49 112q-46 44 -115 44v-77q47 0 70 -38
q12 -20 12 -44v-19q0 -25 -119 -58q-107 -30 -123 -38q-51 -30 -51 -95v-48zM40 407l74 -28q0 56 46 78q17 8 36 8v78q-69 0 -118 -50q-38 -38 -38 -86z" />
    <glyph glyph-name="acircumflex" unicode="&#xe2;" horiz-adv-x="468" 
d="M112 604l75 152h48l76 -152h-57l-43 87l-42 -87h-57zM33 126q0 -55 54 -93q46 -32 108 -32v78q-87 2 -88 66v27q1 22 12 32q12 11 107 34q74 18 100 32v-115q0 -65 -63 -75q-10 -1 -19 -1v-78q70 1 110 35q31 -35 81 -35v79q-26 2 -27 33v274q0 64 -49 112
q-46 44 -115 44v-77q47 0 70 -38q12 -20 12 -44v-19q0 -25 -119 -58q-107 -30 -123 -38q-51 -30 -51 -95v-48zM40 407l74 -28q0 56 46 78q17 8 36 8v78q-69 0 -118 -50q-38 -38 -38 -86z" />
    <glyph glyph-name="atilde" unicode="&#xe3;" horiz-adv-x="468" 
d="M77 622v69q39 22 70 22q25 0 71 -23q35 -18 60 -18q35 1 80 28v-68q-46 -28 -84 -28q-27 0 -74 23q-34 17 -57 17q-31 -1 -66 -22zM33 126q0 -55 54 -93q46 -32 108 -32v78q-87 2 -88 66v27q1 22 12 32q12 11 107 34q74 18 100 32v-115q0 -65 -63 -75q-10 -1 -19 -1v-78
q70 1 110 35q31 -35 81 -35v79q-26 2 -27 33v274q0 64 -49 112q-46 44 -115 44v-77q47 0 70 -38q12 -20 12 -44v-19q0 -25 -119 -58q-107 -30 -123 -38q-51 -30 -51 -95v-48zM40 407l74 -28q0 56 46 78q17 8 36 8v78q-69 0 -118 -50q-38 -38 -38 -86z" />
    <glyph glyph-name="adieresis" unicode="&#xe4;" horiz-adv-x="468" 
d="M95 654q0 32 30 46q9 4 20 4q33 0 46 -30q4 -10 4 -20q0 -33 -30 -46q-10 -4 -20 -4q-33 0 -46 30q-4 10 -4 20zM228 654q0 31 29 45q11 5 22 5q32 0 45 -30q4 -10 4 -20q0 -33 -29 -46q-10 -4 -20 -4q-34 0 -47 30q-4 10 -4 20zM33 126q0 -55 54 -93q46 -32 108 -32v78
q-87 2 -88 66v27q1 22 12 32q12 11 107 34q74 18 100 32v-115q0 -65 -63 -75q-10 -1 -19 -1v-78q70 1 110 35q31 -35 81 -35v79q-26 2 -27 33v274q0 64 -49 112q-46 44 -115 44v-77q47 0 70 -38q12 -20 12 -44v-19q0 -25 -119 -58q-107 -30 -123 -38q-51 -30 -51 -95v-48z
M40 407l74 -28q0 56 46 78q17 8 36 8v78q-69 0 -118 -50q-38 -38 -38 -86z" />
    <glyph glyph-name="aring" unicode="&#xe5;" horiz-adv-x="468" 
d="M137 700q0 48 41 71q19 10 40 10q48 0 71 -41q10 -19 10 -40q0 -48 -41 -71q-19 -10 -40 -10q-48 0 -71 41q-10 19 -10 40zM186 700q0 -24 22 -31q6 -1 10 -1q24 0 31 22q1 6 1 10q0 24 -22 31q-6 1 -10 1q-24 0 -31 -22q-1 -6 -1 -10zM33 126q0 -55 54 -93
q46 -32 108 -32v78q-87 2 -88 66v27q1 22 12 32q12 11 107 34q74 18 100 32v-115q0 -65 -63 -75q-10 -1 -19 -1v-78q70 1 110 35q31 -35 81 -35v79q-26 2 -27 33v274q0 64 -49 112q-46 44 -115 44v-77q47 0 70 -38q12 -20 12 -44v-19q0 -25 -119 -58q-107 -30 -123 -38
q-51 -30 -51 -95v-48zM40 407l74 -28q0 56 46 78q17 8 36 8v78q-69 0 -118 -50q-38 -38 -38 -86z" />
    <glyph glyph-name="ae" unicode="&#xe6;" horiz-adv-x="544" 
d="M26 116q0 -54 55 -89q43 -26 100 -26v73q-85 2 -86 71v17q0 41 82 65q15 5 46 12q69 18 85 31v-121q0 -64 -62 -74q-9 -1 -18 -1v-73q82 -1 120 56q45 -57 146 -57q134 0 177 94q5 13 9 26l-66 24q-18 -69 -110 -74h-11q-60 0 -92 37q-17 20 -17 42v80h295v149
q0 61 -64 105q-47 33 -98 33v-73q46 0 73 -37q15 -20 15 -42v-61h-221v58q0 39 35 64q24 17 51 17v74q-76 -1 -122 -57q-47 61 -142 61q-83 0 -133 -52q-35 -37 -35 -86l64 -19q0 64 67 81q18 5 38 5q57 0 87 -36q14 -17 14 -35v-21q0 -27 -67 -49q-13 -3 -40 -11
q-105 -30 -140 -59q-34 -30 -35 -70v-52z" />
    <glyph glyph-name="ccedilla" unicode="&#xe7;" horiz-adv-x="443" 
d="M110 -185v63q60 0 81 45q8 17 8 37h65q0 -74 -54 -115q-40 -30 -100 -30zM39 148q0 -53 41 -97q48 -51 127 -51v80q-54 0 -77 40q-8 14 -8 28v243q0 32 33 55q23 15 52 15v80q-96 0 -144 -75q-24 -37 -24 -73v-245zM252 460q49 0 68 -42q7 -16 8 -33v-24l78 30
q0 73 -60 119q-42 31 -94 31v-81zM252 -1q71 -1 124 54q42 45 42 98l-78 29v-2v-4v-5v-4.5v-4.5l-1 -2q-5 -56 -56 -73q-15 -5 -31 -5v-81z" />
    <glyph glyph-name="egrave" unicode="&#xe8;" horiz-adv-x="468" 
d="M143 753h81l37 -152h-58zM39 148v248q1 46 44 91q52 53 126 54v-79q-48 0 -75 -42q-11 -18 -11 -33v-68h224v68q0 45 -46 66q-21 10 -43 10v78q69 0 123 -49q45 -43 46 -95v-159h-304v-90q0 -28 32 -52q26 -18 55 -18v-78q-91 0 -143 74q-28 39 -28 74zM258 0v79
q60 0 90 52q6 11 9 21l71 -26q-18 -69 -82 -104q-41 -22 -88 -22z" />
    <glyph glyph-name="eacute" unicode="&#xe9;" horiz-adv-x="468" 
d="M204 601l37 152h81l-60 -152h-58zM39 148v248q1 46 44 91q52 53 126 54v-79q-48 0 -75 -42q-11 -18 -11 -33v-68h224v68q0 45 -46 66q-21 10 -43 10v78q69 0 123 -49q45 -43 46 -95v-159h-304v-90q0 -28 32 -52q26 -18 55 -18v-78q-91 0 -143 74q-28 39 -28 74zM258 0v79
q60 0 90 52q6 11 9 21l71 -26q-18 -69 -82 -104q-41 -22 -88 -22z" />
    <glyph glyph-name="ecircumflex" unicode="&#xea;" horiz-adv-x="468" 
d="M133 601l75 152h48l76 -152h-57l-43 87l-42 -87h-57zM39 148v248q1 46 44 91q52 53 126 54v-79q-48 0 -75 -42q-11 -18 -11 -33v-68h224v68q0 45 -46 66q-21 10 -43 10v78q69 0 123 -49q45 -43 46 -95v-159h-304v-90q0 -28 32 -52q26 -18 55 -18v-78q-91 0 -143 74
q-28 39 -28 74zM258 0v79q60 0 90 52q6 11 9 21l71 -26q-18 -69 -82 -104q-41 -22 -88 -22z" />
    <glyph glyph-name="edieresis" unicode="&#xeb;" horiz-adv-x="468" 
d="M116 651q0 32 30 46q10 4 20 4q33 0 46 -30q4 -10 4 -20q0 -33 -30 -46q-10 -4 -20 -4q-33 0 -46 30q-4 10 -4 20zM249 651q0 31 29 45q11 5 22 5q32 0 45 -30q4 -10 4 -20q0 -33 -29 -46q-10 -4 -20 -4q-34 0 -47 30q-4 10 -4 20zM39 148v248q1 46 44 91q52 53 126 54
v-79q-48 0 -75 -42q-11 -18 -11 -33v-68h224v68q0 45 -46 66q-21 10 -43 10v78q69 0 123 -49q45 -43 46 -95v-159h-304v-90q0 -28 32 -52q26 -18 55 -18v-78q-91 0 -143 74q-28 39 -28 74zM258 0v79q60 0 90 52q6 11 9 21l71 -26q-18 -69 -82 -104q-41 -22 -88 -22z" />
    <glyph glyph-name="igrave" unicode="&#xec;" horiz-adv-x="174" 
d="M-2 753h81l37 -152h-58zM48 0v516h79v-516h-79z" />
    <glyph glyph-name="iacute" unicode="&#xed;" horiz-adv-x="174" 
d="M59 601l37 152h81l-60 -152h-58zM48 0v516h79v-516h-79z" />
    <glyph glyph-name="icircumflex" unicode="&#xee;" horiz-adv-x="174" 
d="M-12 601l75 152h48l76 -152h-57l-43 87l-42 -87h-57zM48 0v516h79v-516h-79z" />
    <glyph glyph-name="idieresis" unicode="&#xef;" horiz-adv-x="174" 
d="M-29 651q0 32 30 46q9 4 20 4q33 0 46 -30q4 -10 4 -20q0 -33 -30 -46q-10 -4 -20 -4q-33 0 -46 30q-4 10 -4 20zM104 651q0 31 29 45q11 5 22 5q32 0 45 -30q4 -10 4 -20q0 -33 -29 -46q-10 -4 -20 -4q-34 0 -47 30q-4 10 -4 20zM48 0v516h79v-516h-79z" />
    <glyph glyph-name="eth" unicode="&#xf0;" horiz-adv-x="420" 
d="M28 141v235q0 46 42 89q49 51 122 51v-76q-57 0 -79 -48q-7 -15 -7 -29v-209q0 -37 34 -62q24 -17 52 -17v-76q-92 0 -141 74q-23 36 -23 68zM192 668v46q93 -18 142 -78l55 17l14 -47l-42 -13q31 -63 31 -154v-298q0 -47 -41 -91q-47 -50 -118 -51v76q53 0 76 47
q7 16 7 30l-1 216q0 39 -36 60q-21 12 -46 12v76q47 -1 79 -26q-2 51 -17 83l-61 -18l-14 46l52 16q-25 28 -80 51z" />
    <glyph glyph-name="ntilde" unicode="&#xf1;" horiz-adv-x="467" 
d="M93 622v69q39 22 70 22q25 0 71 -23q35 -18 60 -18q35 1 80 28v-68q-46 -28 -84 -28q-27 0 -74 23q-34 17 -57 17q-31 -1 -66 -22zM38 0v395q0 48 43 94q53 54 131 54v-83q-51 0 -78 -40q-11 -17 -11 -35v-385h-85zM256 460v83q93 0 145 -75q28 -39 28 -73v-395h-85v385
q0 31 -31 55q-25 20 -57 20z" />
    <glyph glyph-name="ograve" unicode="&#xf2;" horiz-adv-x="457" 
d="M141 753h81l37 -152h-58zM38 148v247q0 47 42 92q52 54 130 54v-81q-59 0 -82 -49q-7 -15 -7 -30v-220q0 -37 34 -63q24 -18 55 -18v-81q-95 0 -147 77q-25 38 -25 72zM253 -1v81q53 0 76 48q8 16 8 31v222q0 41 -35 65q-22 14 -50 14v81q92 0 142 -75q25 -37 25 -71
v-247q0 -49 -42 -95q-49 -53 -124 -54z" />
    <glyph glyph-name="oacute" unicode="&#xf3;" horiz-adv-x="457" 
d="M202 601l37 152h81l-60 -152h-58zM38 148v247q0 47 42 92q52 54 130 54v-81q-59 0 -82 -49q-7 -15 -7 -30v-220q0 -37 34 -63q24 -18 55 -18v-81q-95 0 -147 77q-25 38 -25 72zM253 -1v81q53 0 76 48q8 16 8 31v222q0 41 -35 65q-22 14 -50 14v81q92 0 142 -75
q25 -37 25 -71v-247q0 -49 -42 -95q-49 -53 -124 -54z" />
    <glyph glyph-name="ocircumflex" unicode="&#xf4;" horiz-adv-x="457" 
d="M131 601l75 152h48l76 -152h-57l-43 87l-42 -87h-57zM38 148v247q0 47 42 92q52 54 130 54v-81q-59 0 -82 -49q-7 -15 -7 -30v-220q0 -37 34 -63q24 -18 55 -18v-81q-95 0 -147 77q-25 38 -25 72zM253 -1v81q53 0 76 48q8 16 8 31v222q0 41 -35 65q-22 14 -50 14v81
q92 0 142 -75q25 -37 25 -71v-247q0 -49 -42 -95q-49 -53 -124 -54z" />
    <glyph glyph-name="otilde" unicode="&#xf5;" horiz-adv-x="457" 
d="M91 619v69q39 22 70 22q25 0 71 -23q35 -18 60 -18q35 1 80 28v-68q-46 -28 -84 -28q-27 0 -74 23q-34 17 -57 17q-31 -1 -66 -22zM38 148v247q0 47 42 92q52 54 130 54v-81q-59 0 -82 -49q-7 -15 -7 -30v-220q0 -37 34 -63q24 -18 55 -18v-81q-95 0 -147 77
q-25 38 -25 72zM253 -1v81q53 0 76 48q8 16 8 31v222q0 41 -35 65q-22 14 -50 14v81q92 0 142 -75q25 -37 25 -71v-247q0 -49 -42 -95q-49 -53 -124 -54z" />
    <glyph glyph-name="odieresis" unicode="&#xf6;" horiz-adv-x="457" 
d="M115 651q0 32 30 46q9 4 20 4q33 0 46 -30q4 -10 4 -20q0 -33 -30 -46q-10 -4 -20 -4q-33 0 -46 30q-4 10 -4 20zM248 651q0 31 29 45q11 5 22 5q32 0 45 -30q4 -10 4 -20q0 -33 -29 -46q-10 -4 -20 -4q-34 0 -47 30q-4 10 -4 20zM38 148v247q0 47 42 92q52 54 130 54
v-81q-59 0 -82 -49q-7 -15 -7 -30v-220q0 -37 34 -63q24 -18 55 -18v-81q-95 0 -147 77q-25 38 -25 72zM253 -1v81q53 0 76 48q8 16 8 31v222q0 41 -35 65q-22 14 -50 14v81q92 0 142 -75q25 -37 25 -71v-247q0 -49 -42 -95q-49 -53 -124 -54z" />
    <glyph glyph-name="divide" unicode="&#xf7;" horiz-adv-x="650" 
d="M85 252v80h450v-80h-450zM262 445q0 36 32 51q11 6 24 6q35 0 51 -33q5 -12 5 -24q0 -34 -31 -49q-13 -6 -25 -6q-35 0 -50 31q-6 12 -6 24zM262 154q0 36 32 51q12 6 24 6q35 0 51 -33q5 -12 5 -24q0 -34 -31 -49q-13 -6 -25 -6q-35 0 -50 31q-6 12 -6 24z" />
    <glyph glyph-name="oslash" unicode="&#xf8;" horiz-adv-x="457" 
d="M7 75l61 55q-2 8 -2 17v229q0 46 42 89q49 51 122 51v-76q-57 0 -79 -48q-7 -15 -7 -29v-164l205 189q-20 51 -78 52v76q92 -1 137 -74l44 40l40 -44l-63 -56q1 -3 1 -14v-227q0 -47 -41 -91q-47 -50 -118 -51v76q53 0 76 47q7 16 7 30v160l-203 -186q26 -48 79 -51v-76
q-91 1 -138 72l-45 -41z" />
    <glyph glyph-name="ugrave" unicode="&#xf9;" horiz-adv-x="467" 
d="M144 753h81l37 -152h-58zM38 144v396h85v-386q0 -36 36 -60q24 -15 53 -15v-84q-96 0 -148 75q-26 38 -26 74zM256 -5v84q54 0 79 43q9 16 9 32v386h85v-396q0 -47 -43 -93q-52 -55 -130 -56z" />
    <glyph glyph-name="uacute" unicode="&#xfa;" horiz-adv-x="467" 
d="M235 601l37 152h81l-60 -152h-58zM38 144v396h85v-386q0 -36 36 -60q24 -15 53 -15v-84q-96 0 -148 75q-26 38 -26 74zM256 -5v84q54 0 79 43q9 16 9 32v386h85v-396q0 -47 -43 -93q-52 -55 -130 -56z" />
    <glyph glyph-name="ucircumflex" unicode="&#xfb;" horiz-adv-x="467" 
d="M134 601l75 152h48l76 -152h-57l-43 87l-42 -87h-57zM38 144v396h85v-386q0 -36 36 -60q24 -15 53 -15v-84q-96 0 -148 75q-26 38 -26 74zM256 -5v84q54 0 79 43q9 16 9 32v386h85v-396q0 -47 -43 -93q-52 -55 -130 -56z" />
    <glyph glyph-name="udieresis" unicode="&#xfc;" horiz-adv-x="467" 
d="M117 651q0 32 30 46q9 4 20 4q33 0 46 -30q4 -10 4 -20q0 -33 -30 -46q-10 -4 -20 -4q-33 0 -46 30q-4 10 -4 20zM250 651q0 31 29 45q11 5 22 5q32 0 45 -30q4 -10 4 -20q0 -33 -29 -46q-10 -4 -20 -4q-34 0 -47 30q-4 10 -4 20zM38 144v396h85v-386q0 -36 36 -60
q24 -15 53 -15v-84q-96 0 -148 75q-26 38 -26 74zM256 -5v84q54 0 79 43q9 16 9 32v386h85v-396q0 -47 -43 -93q-52 -55 -130 -56z" />
    <glyph glyph-name="yacute" unicode="&#xfd;" horiz-adv-x="408" 
d="M206 605l37 152h81l-60 -152h-58zM5 541h89l152 -423l-103 -308h-85l98 309zM226 309l91 232h88l-133 -349h-9z" />
    <glyph glyph-name="thorn" unicode="&#xfe;" horiz-adv-x="422" 
d="M30 -182v882h80v-882h-80zM153 442v75h75q90 0 141 -68q27 -38 27 -73v-237q0 -52 -45 -94q-47 -45 -119 -45h-72v76h74q62 0 79 47q5 13 5 28v218q0 46 -48 65q-19 8 -42 8h-75z" />
    <glyph glyph-name="ydieresis" unicode="&#xff;" horiz-adv-x="408" 
d="M88 655q0 32 30 46q10 4 20 4q33 0 46 -30q4 -10 4 -20q0 -33 -30 -46q-10 -4 -20 -4q-33 0 -46 30q-4 10 -4 20zM221 655q0 31 29 45q11 5 22 5q32 0 45 -30q4 -10 4 -20q0 -33 -29 -46q-10 -4 -20 -4q-34 0 -47 30q-4 10 -4 20zM5 541h89l152 -423l-103 -308h-85
l98 309zM226 309l91 232h88l-133 -349h-9z" />
    <glyph glyph-name="Amacron" unicode="&#x100;" horiz-adv-x="476" 
d="M93 766v54h316v-54h-316zM31 0l133 591h16l34 -155l-97 -436h-86zM191 112l19 85h107l-111 502h87l158 -699h-87l-25 112h-148z" />
    <glyph glyph-name="amacron" unicode="&#x101;" horiz-adv-x="468" 
d="M64 605v54h316v-54h-316zM33 126q0 -55 54 -93q46 -32 108 -32v78q-87 2 -88 66v27q1 22 12 32q12 11 107 34q74 18 100 32v-115q0 -65 -63 -75q-10 -1 -19 -1v-78q70 1 110 35q31 -35 81 -35v79q-26 2 -27 33v274q0 64 -49 112q-46 44 -115 44v-77q47 0 70 -38
q12 -20 12 -44v-19q0 -25 -119 -58q-107 -30 -123 -38q-51 -30 -51 -95v-48zM40 407l74 -28q0 56 46 78q17 8 36 8v78q-69 0 -118 -50q-38 -38 -38 -86z" />
    <glyph glyph-name="Abreve" unicode="&#x102;" horiz-adv-x="476" 
d="M172 844h47q0 -24 22 -31q6 -1 10 -1q24 0 31 22q1 6 1 10h47q0 -40 -35 -64q-20 -14 -44 -14q-46 0 -69 42q-10 18 -10 36zM31 0l133 591h16l34 -155l-97 -436h-86zM191 112l19 85h107l-111 502h87l158 -699h-87l-25 112h-148z" />
    <glyph glyph-name="abreve" unicode="&#x103;" horiz-adv-x="468" 
d="M133 682h47q0 -24 22 -31q6 -1 10 -1q24 0 31 22q1 6 1 10h47q0 -40 -35 -64q-20 -14 -44 -14q-46 0 -69 42q-10 18 -10 36zM33 126q0 -55 54 -93q46 -32 108 -32v78q-87 2 -88 66v27q1 22 12 32q12 11 107 34q74 18 100 32v-115q0 -65 -63 -75q-10 -1 -19 -1v-78
q70 1 110 35q31 -35 81 -35v79q-26 2 -27 33v274q0 64 -49 112q-46 44 -115 44v-77q47 0 70 -38q12 -20 12 -44v-19q0 -25 -119 -58q-107 -30 -123 -38q-51 -30 -51 -95v-48zM40 407l74 -28q0 56 46 78q17 8 36 8v78q-69 0 -118 -50q-38 -38 -38 -86z" />
    <glyph glyph-name="Aogonek" unicode="&#x104;" horiz-adv-x="476" 
d="M534 -185q-104 0 -141 81q-13 31 -13 64h65q0 -60 55 -77q17 -5 34 -5v-63zM31 0l133 591h16l34 -155l-97 -436h-86zM191 112l19 85h107l-111 502h87l158 -699h-87l-25 112h-148z" />
    <glyph glyph-name="aogonek" unicode="&#x105;" horiz-adv-x="468" 
d="M481 -185q-104 0 -141 81q-13 31 -13 64h65q0 -60 55 -77q17 -5 34 -5v-63zM33 126q0 -55 54 -93q46 -32 108 -32v78q-87 2 -88 66v27q1 22 12 32q12 11 107 34q74 18 100 32v-115q0 -65 -63 -75q-10 -1 -19 -1v-78q70 1 110 35q31 -35 81 -35v79q-26 2 -27 33v274
q0 64 -49 112q-46 44 -115 44v-77q47 0 70 -38q12 -20 12 -44v-19q0 -25 -119 -58q-107 -30 -123 -38q-51 -30 -51 -95v-48zM40 407l74 -28q0 56 46 78q17 8 36 8v78q-69 0 -118 -50q-38 -38 -38 -86z" />
    <glyph glyph-name="Cacute" unicode="&#x106;" horiz-adv-x="506" 
d="M248 766l37 152h81l-60 -152h-58zM39 181q0 -58 43 -113q58 -72 156 -73v86q-69 0 -100 61q-11 22 -11 39v337q0 35 30 67q33 33 81 34v86q-114 1 -170 -94q-29 -49 -29 -93v-337zM287 -5q80 0 137 61q51 55 51 126l-83 20q0 -11 -1 -16q-2 -23 -6 -34q-9 -29 -33.5 -47
t-44.5 -21l-20 -3v-86zM287 619l29 -7q50 -21 69 -70q4 -12 6 -32v-16l84 22q0 76 -63 136q-58 53 -125 53v-86z" />
    <glyph glyph-name="cacute" unicode="&#x107;" horiz-adv-x="443" 
d="M200 601l37 152h81l-60 -152h-58zM39 148q0 -53 41 -97q48 -51 127 -51v80q-54 0 -77 40q-8 14 -8 28v243q0 32 33 55q23 15 52 15v80q-96 0 -144 -75q-24 -37 -24 -73v-245zM252 460q49 0 68 -42q7 -16 8 -33v-24l78 30q0 73 -60 119q-42 31 -94 31v-81zM252 -1
q71 -1 124 54q42 45 42 98l-78 29v-2v-4v-5v-4.5v-4.5l-1 -2q-5 -56 -56 -73q-15 -5 -31 -5v-81z" />
    <glyph glyph-name="Ccaron" unicode="&#x10c;" horiz-adv-x="506" 
d="M162 918h57l43 -87l42 87h57l-75 -152h-48zM39 181q0 -58 43 -113q58 -72 156 -73v86q-69 0 -100 61q-11 22 -11 39v337q0 35 30 67q33 33 81 34v86q-114 1 -170 -94q-29 -49 -29 -93v-337zM287 -5q80 0 137 61q51 55 51 126l-83 20q0 -11 -1 -16q-2 -23 -6 -34
q-9 -29 -33.5 -47t-44.5 -21l-20 -3v-86zM287 619l29 -7q50 -21 69 -70q4 -12 6 -32v-16l84 22q0 76 -63 136q-58 53 -125 53v-86z" />
    <glyph glyph-name="ccaron" unicode="&#x10d;" horiz-adv-x="443" 
d="M129 753h57l43 -87l42 87h57l-75 -152h-48zM39 148q0 -53 41 -97q48 -51 127 -51v80q-54 0 -77 40q-8 14 -8 28v243q0 32 33 55q23 15 52 15v80q-96 0 -144 -75q-24 -37 -24 -73v-245zM252 460q49 0 68 -42q7 -16 8 -33v-24l78 30q0 73 -60 119q-42 31 -94 31v-81z
M252 -1q71 -1 124 54q42 45 42 98l-78 29v-2v-4v-5v-4.5v-4.5l-1 -2q-5 -56 -56 -73q-15 -5 -31 -5v-81z" />
    <glyph glyph-name="Dcaron" unicode="&#x10e;" horiz-adv-x="472" 
d="M138 918h57l43 -87l42 87h57l-75 -152h-48zM41 0v700h87v-700h-87zM178 0v86q102 0 137 32q30 28 30 79v306q0 88 -101 106q-28 5 -66 5v86q178 0 233 -104q22 -40 22 -93v-306q0 -188 -229 -197h-26z" />
    <glyph glyph-name="dcaron" unicode="&#x10f;" horiz-adv-x="444" 
d="M485 575l37 152h81l-37 -152h-81zM30 148v247q1 54 49 100q47 45 110 45h79v-81h-78q-41 0 -67 -37q-11 -17 -11 -32v-240q0 -32 36 -55q21 -14 43 -14h77v-81h-76q-89 0 -138 77q-24 38 -24 71zM316 0l1 707h86v-707h-87z" />
    <glyph glyph-name="Dcroat" unicode="&#x110;" horiz-adv-x="475" 
d="M26 315v80h56v305h88v-305h56v-80h-56v-315h-88v315h-56zM219 0v86q102 0 138 31q30 28 30 80v306q0 88 -100 106q-29 5 -68 5v86q181 0 235 -107q20 -40 20 -90v-306q0 -188 -229 -197h-26z" />
    <glyph glyph-name="dcroat" unicode="&#x111;" horiz-adv-x="414" 
d="M28 141v236q0 51 46 96q46 43 106 43h77v-76h-76q-41 0 -65 -36q-11 -16 -11 -31v-230q0 -31 35 -54q20 -13 41 -13h76v-76h-74q-86 0 -133 73q-22 36 -22 68zM230 579v65h74v63h80v-63h64v-65h-64v-579h-80v579h-74z" />
    <glyph glyph-name="Emacron" unicode="&#x112;" horiz-adv-x="444" 
d="M66 766v54h316v-54h-316zM41 0v700h364v-86h-277v-222h183v-87h-183v-219h277v-86h-364z" />
    <glyph glyph-name="emacron" unicode="&#x113;" horiz-adv-x="468" 
d="M74 601v54h316v-54h-316zM39 148v248q1 46 44 91q52 53 126 54v-79q-48 0 -75 -42q-11 -18 -11 -33v-68h224v68q0 45 -46 66q-21 10 -43 10v78q69 0 123 -49q45 -43 46 -95v-159h-304v-90q0 -28 32 -52q26 -18 55 -18v-78q-91 0 -143 74q-28 39 -28 74zM258 0v79
q60 0 90 52q6 11 9 21l71 -26q-18 -69 -82 -104q-41 -22 -88 -22z" />
    <glyph glyph-name="Edotaccent" unicode="&#x116;" horiz-adv-x="444" 
d="M173 817q0 35 31 48q10 4 20 4q34 0 47 -32q4 -9 4 -20q0 -34 -30 -47q-11 -4 -21 -4q-34 0 -47 30q-4 11 -4 21zM41 0v700h364v-86h-277v-222h183v-87h-183v-219h277v-86h-364z" />
    <glyph glyph-name="edotaccent" unicode="&#x117;" horiz-adv-x="468" 
d="M181 652q0 35 31 48q10 4 20 4q34 0 47 -32q4 -9 4 -20q0 -34 -30 -47q-11 -4 -21 -4q-34 0 -47 30q-4 11 -4 21zM39 148v248q1 46 44 91q52 53 126 54v-79q-48 0 -75 -42q-11 -18 -11 -33v-68h224v68q0 45 -46 66q-21 10 -43 10v78q69 0 123 -49q45 -43 46 -95v-159
h-304v-90q0 -28 32 -52q26 -18 55 -18v-78q-91 0 -143 74q-28 39 -28 74zM258 0v79q60 0 90 52q6 11 9 21l71 -26q-18 -69 -82 -104q-41 -22 -88 -22z" />
    <glyph glyph-name="Eogonek" unicode="&#x118;" horiz-adv-x="444" 
d="M418 -185v63q-60 0 -81 45q-8 17 -8 37h-65q0 -74 54 -115q40 -30 100 -30zM41 0v700h364v-86h-277v-222h183v-87h-183v-219h277v-86h-364z" />
    <glyph glyph-name="eogonek" unicode="&#x119;" horiz-adv-x="468" 
d="M358 -185v63q-60 0 -81 45q-8 17 -8 37h-65q0 -74 54 -115q40 -30 100 -30zM39 148v248q1 46 44 91q52 53 126 54v-79q-48 0 -75 -42q-11 -18 -11 -33v-68h224v68q0 45 -46 66q-21 10 -43 10v78q69 0 123 -49q45 -43 46 -95v-159h-304v-90q0 -28 32 -52q26 -18 55 -18
v-78q-91 0 -143 74q-28 39 -28 74zM258 0v79q60 0 90 52q6 11 9 21l71 -26q-18 -69 -82 -104q-41 -22 -88 -22z" />
    <glyph glyph-name="Ecaron" unicode="&#x11a;" horiz-adv-x="444" 
d="M124 918h57l43 -87l42 87h57l-75 -152h-48zM41 0v700h364v-86h-277v-222h183v-87h-183v-219h277v-86h-364z" />
    <glyph glyph-name="ecaron" unicode="&#x11b;" horiz-adv-x="468" 
d="M133 753h57l43 -87l42 87h57l-75 -152h-48zM39 148v248q1 46 44 91q52 53 126 54v-79q-48 0 -75 -42q-11 -18 -11 -33v-68h224v68q0 45 -46 66q-21 10 -43 10v78q69 0 123 -49q45 -43 46 -95v-159h-304v-90q0 -28 32 -52q26 -18 55 -18v-78q-91 0 -143 74q-28 39 -28 74z
M258 0v79q60 0 90 52q6 11 9 21l71 -26q-18 -69 -82 -104q-41 -22 -88 -22z" />
    <glyph glyph-name="Gbreve" unicode="&#x11e;" horiz-adv-x="511" 
d="M182 844h47q0 -24 22 -31q6 -1 10 -1q24 0 31 22q1 6 1 10h47q0 -40 -35 -64q-20 -14 -44 -14q-46 0 -69 42q-10 18 -10 36zM39 192v332q4 61 51 116q59 65 147 65v-86q-60 -1 -92 -52q-18 -29 -18 -59v-316q0 -68 70 -100q24 -11 40 -11v-86q-60 0 -118 42
q-79 58 -80 155zM286 -5v86q30 0 65 34q34 35 35 75v82h-100v81h188v-177q0 -61 -62 -121q-63 -59 -126 -60zM286 619v86q76 1 136 -64q52 -58 52 -125l-85 -31v3v4.5t-0.5 5.5t-0.5 6v5v2q-5 70 -66 99q-19 8 -36 9z" />
    <glyph glyph-name="gbreve" unicode="&#x11f;" horiz-adv-x="444" 
d="M136 683h47q0 -24 22 -31q6 -1 10 -1q24 0 31 22q1 6 1 10h47q0 -40 -35 -64q-20 -14 -44 -14q-46 0 -69 42q-10 18 -10 36zM25 -185l21 78h188q56 2 82 44q8 14 8 25v72q-41 -29 -82 -31v77q44 0 70 37q12 17 12 34v245q0 38 -42 60q-20 10 -40 10v79q45 0 79 -28
q2 -1 3 -2v30h81v-583q0 -43 -39 -89q-49 -57 -121 -58h-220zM35 150v250q1 47 42 92q49 52 121 53v-79q-49 0 -74 -42q-9 -15 -9 -27v-246q0 -30 31 -53q23 -16 52 -16v-79q-92 1 -140 78q-23 37 -23 69z" />
    <glyph glyph-name="uni0122" unicode="&#x122;" horiz-adv-x="511" 
d="M190 -218l37 152h81l-37 -152h-81zM39 192v332q4 61 51 116q59 65 147 65v-86q-60 -1 -92 -52q-18 -29 -18 -59v-316q0 -68 70 -100q24 -11 40 -11v-86q-60 0 -118 42q-79 58 -80 155zM286 -5v86q30 0 65 34q34 35 35 75v82h-100v81h188v-177q0 -61 -62 -121
q-63 -59 -126 -60zM286 619v86q76 1 136 -64q52 -58 52 -125l-85 -31v3v4.5t-0.5 5.5t-0.5 6v5v2q-5 70 -66 99q-19 8 -36 9z" />
    <glyph glyph-name="uni0123" unicode="&#x123;" horiz-adv-x="444" 
d="M221 606l37 152h81l-60 -152h-58zM25 -185l21 78h188q56 2 82 44q8 14 8 25v72q-41 -29 -82 -31v77q44 0 70 37q12 17 12 34v245q0 38 -42 60q-20 10 -40 10v79q45 0 79 -28q2 -1 3 -2v30h81v-583q0 -43 -39 -89q-49 -57 -121 -58h-220zM35 150v250q1 47 42 92
q49 52 121 53v-79q-49 0 -74 -42q-9 -15 -9 -27v-246q0 -30 31 -53q23 -16 52 -16v-79q-92 1 -140 78q-23 37 -23 69z" />
    <glyph glyph-name="Imacron" unicode="&#x12a;" horiz-adv-x="171" 
d="M-72 766v54h316v-54h-316zM42 0v700h87v-700h-87z" />
    <glyph glyph-name="imacron" unicode="&#x12b;" horiz-adv-x="174" 
d="M-70 601v54h316v-54h-316zM48 0v516h79v-516h-79z" />
    <glyph glyph-name="Iogonek" unicode="&#x12e;" horiz-adv-x="171" 
d="M207 -184q-104 0 -141 81q-13 31 -13 64h65q0 -60 55 -77q17 -5 34 -5v-63zM42 0v700h87v-700h-87z" />
    <glyph glyph-name="iogonek" unicode="&#x12f;" horiz-adv-x="189" 
d="M217 -183q-104 0 -141 81q-13 31 -13 64h65q0 -60 55 -77q17 -5 34 -5v-63zM46 615q0 31 29 44q10 4 20 4q30 0 44 -28q4 -10 4 -20q0 -30 -28 -44q-10 -4 -20 -4q-31 0 -45 28q-4 10 -4 20zM53 0v527h84v-527h-84z" />
    <glyph glyph-name="Idotaccent" unicode="&#x130;" horiz-adv-x="171" 
d="M35 817q0 35 31 48q10 4 20 4q34 0 47 -32q4 -10 4 -20q0 -34 -30 -47q-11 -4 -21 -4q-34 0 -47 30q-4 11 -4 21zM42 0v700h87v-700h-87z" />
    <glyph glyph-name="dotlessi" unicode="&#x131;" horiz-adv-x="174" 
d="M48 0v516h79v-516h-79z" />
    <glyph glyph-name="uni0136" unicode="&#x136;" horiz-adv-x="490" 
d="M169 -213l37 152h81l-37 -152h-81zM41 0v700h87v-700h-87zM171 341l205 359h92l-205 -359l209 -341h-91z" />
    <glyph glyph-name="uni0137" unicode="&#x137;" horiz-adv-x="478" 
d="M162 -213l37 152h81l-37 -152h-81zM41 0v706h86v-706h-86zM152 271l204 269h101l-206 -269l207 -271h-100z" />
    <glyph glyph-name="Lacute" unicode="&#x139;" horiz-adv-x="435" 
d="M57 766l37 152h81l-60 -152h-58zM41 0v700h87v-614h289v-86h-376z" />
    <glyph glyph-name="lacute" unicode="&#x13a;" horiz-adv-x="173" 
d="M57 788l37 152h81l-60 -152h-58zM42 0v706h89v-706h-89z" />
    <glyph glyph-name="uni013B" unicode="&#x13b;" horiz-adv-x="435" 
d="M165 -213l37 152h81l-37 -152h-81zM41 0v700h87v-614h289v-86h-376z" />
    <glyph glyph-name="uni013C" unicode="&#x13c;" horiz-adv-x="173" 
d="M12 -217l37 152h81l-37 -152h-81zM49 0v706h89v-706h-89z" />
    <glyph glyph-name="Lcaron" unicode="&#x13d;" horiz-adv-x="435" 
d="M204 553l37 152h81l-37 -152h-81zM41 0v700h87v-614h289v-86h-376z" />
    <glyph glyph-name="lcaron" unicode="&#x13e;" horiz-adv-x="257" 
d="M175 575l37 152h81l-37 -152h-81zM37 0v706h89v-706h-89z" />
    <glyph glyph-name="Lslash" unicode="&#x141;" horiz-adv-x="476" 
d="M39 286l90 69v345h87v-277l73 56l47 -60l-120 -93v-241h289v-85h-376v258l-43 -33z" />
    <glyph glyph-name="lslash" unicode="&#x142;" horiz-adv-x="424" 
d="M176 -4h89v364l97 75l-47 61l-50 -39v245h-89v-314l-100 -78l47 -61l53 41v-294z" />
    <glyph glyph-name="Nacute" unicode="&#x143;" horiz-adv-x="529" 
d="M236 766l37 152h81l-60 -152h-58zM42 0v547h8l79 -128v-419h-87zM42 644v56h75l370 -593v-107h-43zM400 334v366h87v-494h-8z" />
    <glyph glyph-name="nacute" unicode="&#x144;" horiz-adv-x="467" 
d="M205 604l37 152h81l-60 -152h-58zM38 0v395q0 48 43 94q53 54 131 54v-83q-51 0 -78 -40q-11 -17 -11 -35v-385h-85zM256 460v83q93 0 145 -75q28 -39 28 -73v-395h-85v385q0 31 -31 55q-25 20 -57 20z" />
    <glyph glyph-name="uni0145" unicode="&#x145;" horiz-adv-x="529" 
d="M200 -213l37 152h81l-37 -152h-81zM42 0v547h8l79 -128v-419h-87zM42 644v56h75l370 -593v-107h-43zM400 334v366h87v-494h-8z" />
    <glyph glyph-name="uni0146" unicode="&#x146;" horiz-adv-x="467" 
d="M169 -213l37 152h81l-37 -152h-81zM38 0v395q0 48 43 94q53 54 131 54v-83q-51 0 -78 -40q-11 -17 -11 -35v-385h-85zM256 460v83q93 0 145 -75q28 -39 28 -73v-395h-85v385q0 31 -31 55q-25 20 -57 20z" />
    <glyph glyph-name="Ncaron" unicode="&#x147;" horiz-adv-x="529" 
d="M165 918h57l43 -87l42 87h57l-75 -152h-48zM42 0v547h8l79 -128v-419h-87zM42 644v56h75l370 -593v-107h-43zM400 334v366h87v-494h-8z" />
    <glyph glyph-name="ncaron" unicode="&#x148;" horiz-adv-x="467" 
d="M134 756h57l43 -87l42 87h57l-75 -152h-48zM38 0v395q0 48 43 94q53 54 131 54v-83q-51 0 -78 -40q-11 -17 -11 -35v-385h-85zM256 460v83q93 0 145 -75q28 -39 28 -73v-395h-85v385q0 31 -31 55q-25 20 -57 20z" />
    <glyph glyph-name="Omacron" unicode="&#x14c;" horiz-adv-x="526" 
d="M104 766v54h316v-54h-316zM39 195v329q0 53 45 108q60 72 152 73v-87q-61 0 -95 -62q-14 -27 -14 -48v-313q0 -63 62 -98q26 -15 46 -15v-87q-57 0 -114 41q-81 60 -82 159zM290 -5v87q35 0 71 31q38 34 39 82v313q0 39 -32 75q-33 34 -78 35v87q101 0 162 -87
q35 -50 35 -94v-329q0 -111 -99 -170q-52 -30 -98 -30z" />
    <glyph glyph-name="omacron" unicode="&#x14d;" horiz-adv-x="457" 
d="M73 601v54h316v-54h-316zM38 148v247q0 47 42 92q52 54 130 54v-81q-59 0 -82 -49q-7 -15 -7 -30v-220q0 -37 34 -63q24 -18 55 -18v-81q-95 0 -147 77q-25 38 -25 72zM253 -1v81q53 0 76 48q8 16 8 31v222q0 41 -35 65q-22 14 -50 14v81q92 0 142 -75q25 -37 25 -71
v-247q0 -49 -42 -95q-49 -53 -124 -54z" />
    <glyph glyph-name="Ohungarumlaut" unicode="&#x150;" horiz-adv-x="526" 
d="M300 766l37 152h81l-60 -152h-58zM178 766l37 152h81l-60 -152h-58zM39 195v329q0 53 45 108q60 72 152 73v-87q-61 0 -95 -62q-14 -27 -14 -48v-313q0 -63 62 -98q26 -15 46 -15v-87q-57 0 -114 41q-81 60 -82 159zM290 -5v87q35 0 71 31q38 34 39 82v313q0 39 -32 75
q-33 34 -78 35v87q101 0 162 -87q35 -50 35 -94v-329q0 -111 -99 -170q-52 -30 -98 -30z" />
    <glyph glyph-name="ohungarumlaut" unicode="&#x151;" horiz-adv-x="457" 
d="M269 601l37 152h81l-60 -152h-58zM147 601l37 152h81l-60 -152h-58zM38 148v247q0 47 42 92q52 54 130 54v-81q-59 0 -82 -49q-7 -15 -7 -30v-220q0 -37 34 -63q24 -18 55 -18v-81q-95 0 -147 77q-25 38 -25 72zM253 -1v81q53 0 76 48q8 16 8 31v222q0 41 -35 65
q-22 14 -50 14v81q92 0 142 -75q25 -37 25 -71v-247q0 -49 -42 -95q-49 -53 -124 -54z" />
    <glyph glyph-name="OE" unicode="&#x152;" horiz-adv-x="564" 
d="M-2 198v313q0 158 174 184q32 5 70 5v-86q-112 -1 -142 -50q-15 -24 -15 -61v-305q0 -89 82 -106q28 -5 74 -5v-87q-186 0 -229 112q-14 38 -14 86zM291 0v87h43v527h-43v86h407v-86h-277v-222h183v-87h-183v-219h277v-86h-407z" />
    <glyph glyph-name="oe" unicode="&#x153;" horiz-adv-x="717" 
d="M356 58q50 -58 146 -58q132 0 176 94q6 13 10 26l-67 24q-16 -65 -99 -73q-11 -1 -21 -1q-59 0 -93 37q-17 20 -17 42v80h296v149q0 60 -63 105q-49 33 -100 33v-73q46 0 73 -37q15 -20 15 -42v-61h-221v58q0 39 36 65q24 16 51 16v74q-75 -1 -123 -57q-49 56 -122 57
v-76q54 0 76 -45q8 -16 8 -32v-212q0 -38 -34 -62q-22 -16 -50 -16v-74q77 1 123 59zM28 141q0 -44 40 -88q49 -53 124 -54v74q-51 0 -76 45q-10 18 -10 35v210q0 42 37 65q22 12 49 12v76q-91 0 -140 -73q-24 -36 -24 -67v-235z" />
    <glyph glyph-name="Racute" unicode="&#x154;" horiz-adv-x="507" 
d="M193 766l37 152h81l-60 -152h-58zM42 0v700h87v-700h-87zM179 303v79h91q106 2 107 118q-2 119 -121 120h-77v80h93q145 -5 179 -121q10 -33 10 -72q-1 -116 -69 -163q58 -31 70 -113l2 -14l17 -217h-82l-15 178q-8 86 -44 110q-24 16 -65 15h-96z" />
    <glyph glyph-name="racute" unicode="&#x155;" horiz-adv-x="293" 
d="M140 601l37 152h81l-60 -152h-58zM42 0v541h85v-74q26 44 78 65q28 11 55 11h18l-20 -82q-55 -1 -98 -59q-33 -46 -33 -95v-307h-85z" />
    <glyph glyph-name="uni0156" unicode="&#x156;" horiz-adv-x="507" 
d="M196 -213l37 152h81l-37 -152h-81zM42 0v700h87v-700h-87zM179 303v79h91q106 2 107 118q-2 119 -121 120h-77v80h93q145 -5 179 -121q10 -33 10 -72q-1 -116 -69 -163q58 -31 70 -113l2 -14l17 -217h-82l-15 178q-8 86 -44 110q-24 16 -65 15h-96z" />
    <glyph glyph-name="uni0157" unicode="&#x157;" horiz-adv-x="293" 
d="M6 -213l37 152h81l-37 -152h-81zM42 0v541h85v-74q26 44 78 65q28 11 55 11h18l-20 -82q-55 -1 -98 -59q-33 -46 -33 -95v-307h-85z" />
    <glyph glyph-name="Rcaron" unicode="&#x158;" horiz-adv-x="507" 
d="M115 918h57l43 -87l42 87h57l-75 -152h-48zM42 0v700h87v-700h-87zM179 303v79h91q106 2 107 118q-2 119 -121 120h-77v80h93q145 -5 179 -121q10 -33 10 -72q-1 -116 -69 -163q58 -31 70 -113l2 -14l17 -217h-82l-15 178q-8 86 -44 110q-24 16 -65 15h-96z" />
    <glyph glyph-name="rcaron" unicode="&#x159;" horiz-adv-x="293" 
d="M60 753h57l43 -87l42 87h57l-75 -152h-48zM42 0v541h85v-74q26 44 78 65q28 11 55 11h18l-20 -82q-55 -1 -98 -59q-33 -46 -33 -95v-307h-85z" />
    <glyph glyph-name="Sacute" unicode="&#x15a;" horiz-adv-x="492" 
d="M202 766l37 152h81l-60 -152h-58zM25 158l80 28q6 -42 32.5 -69t50.5 -33l23 -6v-81q-88 0 -148 75q-37 47 -38 86zM33 511q0 108 93 162q46 27 85 27v-82q-35 -4 -66 -37q-28 -31 -28 -71q0 -61 88 -92q22 -7 67 -19q47 -13 66 -20q90 -37 115 -101q13 -32 13 -72
q0 -87 -67 -151q-61 -58 -138 -58v81q41 2 79 39q38 39 39 89q0 70 -97 102q-21 7 -64 17q-46 11 -62 18q-85 35 -109 92q-14 33 -14 76zM261 618v82q87 0 145 -77q29 -39 32 -70l-81 -27q-14 70 -80 89z" />
    <glyph glyph-name="sacute" unicode="&#x15b;" horiz-adv-x="433" 
d="M181 602l37 152h81l-60 -152h-58zM20 142l79 15q0 -45 47 -71q23 -11 44 -12v-79q-97 0 -145 70q-25 37 -25 77zM25 388q0 91 83 135q40 21 80 21v-78q-46 0 -71 -38q-13 -19 -13 -40q0 -32 50 -52q38 -16 147 -42q68 -14 97 -67q15 -28 15 -63q0 -96 -77 -142
q-45 -27 -103 -27v79q46 0 77 32q22 23 22 54q0 40 -79 64q-20 6 -64 17q-47 11 -68 18q-76 30 -92 91q-4 18 -4 38zM232 465v79q86 0 139 -64q33 -41 33 -86l-79 -13q0 55 -60 77q-18 7 -33 7z" />
    <glyph glyph-name="uni015E" unicode="&#x15e;" horiz-adv-x="492" 
d="M111 -185v63q60 0 81 45q8 17 8 37h65q0 -74 -54 -115q-40 -30 -100 -30zM25 158l80 28q6 -42 32.5 -69t50.5 -33l23 -6v-81q-88 0 -148 75q-37 47 -38 86zM33 511q0 108 93 162q46 27 85 27v-82q-35 -4 -66 -37q-28 -31 -28 -71q0 -61 88 -92q22 -7 67 -19
q47 -13 66 -20q90 -37 115 -101q13 -32 13 -72q0 -87 -67 -151q-61 -58 -138 -58v81q41 2 79 39q38 39 39 89q0 70 -97 102q-21 7 -64 17q-46 11 -62 18q-85 35 -109 92q-14 33 -14 76zM261 618v82q87 0 145 -77q29 -39 32 -70l-81 -27q-14 70 -80 89z" />
    <glyph glyph-name="uni015F" unicode="&#x15f;" horiz-adv-x="433" 
d="M143 -185v63q60 0 81 45q8 17 8 37h65q0 -74 -54 -115q-40 -30 -100 -30zM20 142l79 15q0 -45 47 -71q23 -11 44 -12v-79q-97 0 -145 70q-25 37 -25 77zM25 388q0 91 83 135q40 21 80 21v-78q-46 0 -71 -38q-13 -19 -13 -40q0 -32 50 -52q38 -16 147 -42q68 -14 97 -67
q15 -28 15 -63q0 -96 -77 -142q-45 -27 -103 -27v79q46 0 77 32q22 23 22 54q0 40 -79 64q-20 6 -64 17q-47 11 -68 18q-76 30 -92 91q-4 18 -4 38zM232 465v79q86 0 139 -64q33 -41 33 -86l-79 -13q0 55 -60 77q-18 7 -33 7z" />
    <glyph glyph-name="Scaron" unicode="&#x160;" horiz-adv-x="492" 
d="M122 918h57l43 -87l42 87h57l-75 -152h-48zM18 158l80 28q6 -42 32.5 -69t49.5 -33l24 -6v-81q-88 0 -148 75q-37 47 -38 86zM26 511q0 108 93 162q46 27 85 27v-82q-35 -4 -66 -37q-28 -31 -28 -71q0 -61 88 -92q22 -7 67 -19q47 -13 66 -20q90 -37 115 -101
q13 -32 13 -72q0 -87 -67 -151q-61 -58 -138 -58v81q41 2 79 39q38 39 39 89q0 70 -97 102q-21 7 -64 17q-46 11 -62 18q-85 35 -109 92q-14 33 -14 76zM254 618v82q87 0 145 -77q29 -39 32 -70l-81 -27q-14 70 -80 89z" />
    <glyph glyph-name="scaron" unicode="&#x161;" horiz-adv-x="433" 
d="M112 754h57l43 -87l42 87h57l-75 -152h-48zM23 142l79 15q0 -45 47 -71q23 -11 44 -12v-79q-97 0 -145 70q-25 37 -25 77zM28 388q0 91 83 135q40 21 80 21v-78q-46 0 -71 -38q-13 -19 -13 -40q0 -32 50 -52q38 -16 147 -42q68 -14 97 -67q15 -28 15 -63q0 -96 -77 -142
q-45 -27 -103 -27v79q46 0 77 32q22 23 22 54q0 40 -79 64q-20 6 -64 17q-47 11 -68 18q-76 30 -92 91q-4 18 -4 38zM235 465v79q86 0 139 -64q33 -41 33 -86l-79 -13q0 55 -60 77q-18 7 -33 7z" />
    <glyph glyph-name="uni0162" unicode="&#x162;" horiz-adv-x="468" 
d="M110 -185v63q60 0 81 45q8 17 8 37h65q0 -74 -54 -115q-40 -30 -100 -30zM18 615v85h433v-85h-173v-615h-88v615h-172z" />
    <glyph glyph-name="uni0163" unicode="&#x163;" horiz-adv-x="286" 
d="M126 -183v63q60 0 81 45q8 17 8 37h65q0 -74 -54 -115q-40 -30 -100 -30zM17 454v81h66v173h85v-173h64v-82h-64v-287q0 -71 58 -79q11 -2 22 -2h14l19 -85h-36q-123 1 -151 92q-10 34 -10 84l-1 278h-66z" />
    <glyph glyph-name="Tcaron" unicode="&#x164;" horiz-adv-x="468" 
d="M132 918h57l43 -87l42 87h57l-75 -152h-48zM18 615v85h433v-85h-173v-615h-88v615h-172z" />
    <glyph glyph-name="tcaron" unicode="&#x165;" horiz-adv-x="388" 
d="M216 577l37 152h81l-37 -152h-81zM17 454v81h66v173h85v-173h64v-82h-64v-287q0 -71 58 -79q11 -2 22 -2h14l19 -85h-36q-123 1 -151 92q-10 34 -10 84l-1 278h-66z" />
    <glyph glyph-name="Umacron" unicode="&#x16a;" horiz-adv-x="520" 
d="M98 766v54h316v-54h-316zM36 193v507h88v-507q0 -66 69 -99q25 -12 42 -12v-87q-58 0 -116 41q-82 59 -83 157zM285 -5v87q33 0 68 27q42 33 43 84v507h87v-507q0 -112 -100 -169q-51 -29 -98 -29z" />
    <glyph glyph-name="umacron" unicode="&#x16b;" horiz-adv-x="467" 
d="M76 601v54h316v-54h-316zM38 144v396h85v-386q0 -36 36 -60q24 -15 53 -15v-84q-96 0 -148 75q-26 38 -26 74zM256 -5v84q54 0 79 43q9 16 9 32v386h85v-396q0 -47 -43 -93q-52 -55 -130 -56z" />
    <glyph glyph-name="Uring" unicode="&#x16e;" horiz-adv-x="520" 
d="M175 862q0 48 41 71q19 10 40 10q48 0 71 -41q10 -19 10 -40q0 -48 -41 -71q-19 -10 -40 -10q-48 0 -71 41q-10 19 -10 40zM224 862q0 -24 22 -31q6 -1 10 -1q24 0 31 22q1 6 1 10q0 24 -22 31q-6 1 -10 1q-24 0 -31 -22q-1 -6 -1 -10zM36 193v507h88v-507q0 -66 69 -99
q25 -12 42 -12v-87q-58 0 -116 41q-82 59 -83 157zM285 -5v87q33 0 68 27q42 33 43 84v507h87v-507q0 -112 -100 -169q-51 -29 -98 -29z" />
    <glyph glyph-name="uring" unicode="&#x16f;" horiz-adv-x="467" 
d="M153 697q0 48 41 71q19 10 40 10q48 0 71 -41q10 -19 10 -40q0 -48 -41 -71q-19 -10 -40 -10q-48 0 -71 41q-10 19 -10 40zM202 697q0 -24 22 -31q6 -1 10 -1q24 0 31 22q1 6 1 10q0 24 -22 31q-6 1 -10 1q-24 0 -31 -22q-1 -6 -1 -10zM38 144v396h85v-386q0 -36 36 -60
q24 -15 53 -15v-84q-96 0 -148 75q-26 38 -26 74zM256 -5v84q54 0 79 43q9 16 9 32v386h85v-396q0 -47 -43 -93q-52 -55 -130 -56z" />
    <glyph glyph-name="Uhungarumlaut" unicode="&#x170;" horiz-adv-x="520" 
d="M309 766l37 152h81l-60 -152h-58zM187 766l37 152h81l-60 -152h-58zM36 193v507h88v-507q0 -66 69 -99q25 -12 42 -12v-87q-58 0 -116 41q-82 59 -83 157zM285 -5v87q33 0 68 27q42 33 43 84v507h87v-507q0 -112 -100 -169q-51 -29 -98 -29z" />
    <glyph glyph-name="uhungarumlaut" unicode="&#x171;" horiz-adv-x="467" 
d="M266 601l37 152h81l-60 -152h-58zM144 601l37 152h81l-60 -152h-58zM38 144v396h85v-386q0 -36 36 -60q24 -15 53 -15v-84q-96 0 -148 75q-26 38 -26 74zM256 -5v84q54 0 79 43q9 16 9 32v386h85v-396q0 -47 -43 -93q-52 -55 -130 -56z" />
    <glyph glyph-name="Uogonek" unicode="&#x172;" horiz-adv-x="520" 
d="M377 -185q-104 0 -141 81q-13 31 -13 64h65q0 -60 55 -77q17 -5 34 -5v-63zM36 193v507h88v-507q0 -66 69 -99q25 -12 42 -12v-87q-58 0 -116 41q-82 59 -83 157zM285 -5v87q33 0 68 27q42 33 43 84v507h87v-507q0 -112 -100 -169q-51 -29 -98 -29z" />
    <glyph glyph-name="uogonek" unicode="&#x173;" horiz-adv-x="467" 
d="M357 -185q-104 0 -141 81q-13 31 -13 64h65q0 -60 55 -77q17 -5 34 -5v-63zM38 144v396h85v-386q0 -36 36 -60q24 -15 53 -15v-84q-96 0 -148 75q-26 38 -26 74zM256 -5v84q54 0 79 43q9 16 9 32v386h85v-396q0 -47 -43 -93q-52 -55 -130 -56z" />
    <glyph glyph-name="Ydieresis" unicode="&#x178;" horiz-adv-x="470" 
d="M109 816q0 32 30 46q9 4 20 4q33 0 46 -30q4 -10 4 -20q0 -33 -30 -46q-10 -4 -20 -4q-33 0 -46 30q-4 10 -4 20zM242 816q0 31 29 45q11 5 22 5q32 0 45 -30q4 -10 4 -20q0 -33 -29 -46q-10 -4 -20 -4q-34 0 -47 30q-4 10 -4 20zM22 700h90l158 -447v-253h-89v252z
M256 455l103 245h90l-145 -380h-7z" />
    <glyph glyph-name="Zacute" unicode="&#x179;" horiz-adv-x="437" 
d="M184 766l37 152h81l-60 -152h-58zM35 0v85l270 529h-270v86h366v-83l-270 -529h271l-1 -88h-366z" />
    <glyph glyph-name="zacute" unicode="&#x17a;" horiz-adv-x="370" 
d="M156 601l37 152h81l-60 -152h-58zM30 0v81l216 378h-216v81h310v-78l-214 -380h214v-82h-310z" />
    <glyph glyph-name="Zdotaccent" unicode="&#x17b;" horiz-adv-x="437" 
d="M162 817q0 35 31 48q10 4 20 4q34 0 47 -32q4 -9 4 -20q0 -34 -30 -47q-11 -4 -21 -4q-34 0 -47 30q-4 11 -4 21zM35 0v85l270 529h-270v86h366v-83l-270 -529h271l-1 -88h-366z" />
    <glyph glyph-name="zdotaccent" unicode="&#x17c;" horiz-adv-x="370" 
d="M134 652q0 35 31 48q10 4 20 4q34 0 47 -32q4 -10 4 -20q0 -34 -30 -47q-11 -4 -21 -4q-34 0 -47 30q-4 11 -4 21zM30 0v81l216 378h-216v81h310v-78l-214 -380h214v-82h-310z" />
    <glyph glyph-name="Zcaron" unicode="&#x17d;" horiz-adv-x="437" 
d="M113 918h57l43 -87l42 87h57l-75 -152h-48zM35 0v85l270 529h-270v86h366v-83l-270 -529h271l-1 -88h-366z" />
    <glyph glyph-name="zcaron" unicode="&#x17e;" horiz-adv-x="370" 
d="M86 753h57l43 -87l42 87h57l-75 -152h-48zM30 0v81l216 378h-216v81h310v-78l-214 -380h214v-82h-310z" />
    <glyph glyph-name="florin" unicode="&#x192;" horiz-adv-x="382" 
d="M26 -168l18 69h41q51 9 56 59v460h-63v75h63v48q0 57 44 104q45 48 110 49h61l-17 -75h-30q-84 -10 -89 -82v-45l66 1v-75h-66v-450q0 -100 -78 -128q-27 -10 -61 -10h-55z" />
    <glyph glyph-name="uni0218" unicode="&#x218;" horiz-adv-x="492" 
d="M167 -216l37 152h81l-37 -152h-81zM25 158l80 28q6 -42 32.5 -69t50.5 -33l23 -6v-81q-88 0 -148 75q-37 47 -38 86zM33 511q0 108 93 162q46 27 85 27v-82q-35 -4 -66 -37q-28 -31 -28 -71q0 -61 88 -92q22 -7 67 -19q47 -13 66 -20q90 -37 115 -101q13 -32 13 -72
q0 -87 -67 -151q-61 -58 -138 -58v81q41 2 79 39q38 39 39 89q0 70 -97 102q-21 7 -64 17q-46 11 -62 18q-85 35 -109 92q-14 33 -14 76zM261 618v82q87 0 145 -77q29 -39 32 -70l-81 -27q-14 70 -80 89z" />
    <glyph glyph-name="uni0219" unicode="&#x219;" horiz-adv-x="433" 
d="M139 -218l37 152h81l-37 -152h-81zM20 142l79 15q0 -45 47 -71q23 -11 44 -12v-79q-97 0 -145 70q-25 37 -25 77zM25 388q0 91 83 135q40 21 80 21v-78q-46 0 -71 -38q-13 -19 -13 -40q0 -32 50 -52q38 -16 147 -42q68 -14 97 -67q15 -28 15 -63q0 -96 -77 -142
q-45 -27 -103 -27v79q46 0 77 32q22 23 22 54q0 40 -79 64q-20 6 -64 17q-47 11 -68 18q-76 30 -92 91q-4 18 -4 38zM232 465v79q86 0 139 -64q33 -41 33 -86l-79 -13q0 55 -60 77q-18 7 -33 7z" />
    <glyph glyph-name="uni021A" unicode="&#x21a;" horiz-adv-x="468" 
d="M157 -213l37 152h81l-37 -152h-81zM18 615v85h433v-85h-173v-615h-88v615h-172z" />
    <glyph glyph-name="uni021B" unicode="&#x21b;" horiz-adv-x="286" 
d="M157 -213l37 152h81l-37 -152h-81zM17 454v81h66v173h85v-173h64v-82h-64v-287q0 -71 58 -79q11 -2 22 -2h14l19 -85h-36q-123 1 -151 92q-10 34 -10 84l-1 278h-66z" />
    <glyph glyph-name="circumflex" unicode="&#x2c6;" horiz-adv-x="270" 
d="M35 514l75 152h48l76 -152h-57l-43 87l-42 -87h-57z" />
    <glyph glyph-name="caron" unicode="&#x2c7;" horiz-adv-x="270" 
d="M35 666h57l43 -87l42 87h57l-75 -152h-48z" />
    <glyph glyph-name="uni02C9" unicode="&#x2c9;" horiz-adv-x="416" 
d="M50 528v54h316v-54h-316z" />
    <glyph glyph-name="breve" unicode="&#x2d8;" horiz-adv-x="244" 
d="M43 526h47q0 -24 22 -31q6 -1 10 -1q24 0 31 22q1 6 1 10h47q0 -40 -35 -64q-20 -14 -44 -14q-46 0 -69 42q-10 18 -10 36z" />
    <glyph glyph-name="dotaccent" unicode="&#x2d9;" horiz-adv-x="202" 
d="M50 678q0 35 31 48q10 4 20 4q34 0 47 -32q4 -10 4 -20q0 -34 -30 -47q-11 -4 -21 -4q-34 0 -47 30q-4 11 -4 21z" />
    <glyph glyph-name="ring" unicode="&#x2da;" horiz-adv-x="244" 
d="M41 526q0 48 41 71q19 10 40 10q48 0 71 -41q10 -19 10 -40q0 -48 -41 -71q-19 -10 -40 -10q-48 0 -71 41q-10 19 -10 40zM90 526q0 -24 22 -31q6 -1 10 -1q24 0 31 22q1 6 1 10q0 24 -22 31q-6 1 -10 1q-24 0 -31 -22q-1 -6 -1 -10z" />
    <glyph glyph-name="ogonek" unicode="&#x2db;" horiz-adv-x="219" 
d="M106 -185q-104 0 -141 81q-13 31 -13 64h65q0 -60 55 -77q17 -5 34 -5v-63z" />
    <glyph glyph-name="tilde" unicode="&#x2dc;" horiz-adv-x="333" 
d="M26 121v69q39 22 70 22q25 0 71 -23q35 -18 60 -18q35 1 80 28v-68q-46 -28 -84 -28q-27 0 -74 23q-34 17 -57 17q-31 -1 -66 -22z" />
    <glyph glyph-name="hungarumlaut" unicode="&#x2dd;" horiz-adv-x="307" 
d="M192 605l37 152h81l-60 -152h-58zM70 605l37 152h81l-60 -152h-58z" />
    <glyph glyph-name="pi" unicode="&#x3c0;" horiz-adv-x="474" 
d="M-1 436v81h477v-81h-77v-294q0 -65 45 -72q8 -1 18 -1v-73q-104 0 -132 84q-8 25 -8 53v303h-167v-438h-78v438h-78z" />
    <glyph glyph-name="anusvara" unicode="&#xd82;" horiz-adv-x="458" 
d="M254 45v82q70 0 84 63q5 23 5 58v63q0 87 -39 110q-20 11 -50 11v82h21q131 0 150 -152q3 -23 3 -51v-63q0 -190 -135 -202q-9 -1 -18 -1h-21zM183 45q-131 0 -150 152q-3 23 -3 51v63q0 190 135 202q9 1 18 1h21v-82q-71 0 -85 -66q-4 -22 -4 -55v-63q0 -85 36 -108
q21 -13 53 -13v-82h-21z" />
    <glyph glyph-name="visarga" unicode="&#xd83;" horiz-adv-x="386" 
d="M218 -7v71q46 0 59 43q3 11 3 22q0 45 -35 61q-13 5 -27 5v68h14q77 0 109 -69q14 -31 14 -65q0 -74 -50 -113q-32 -23 -73 -23h-14zM154 -7q-77 0 -109 70q-14 31 -14 66q0 73 51 111q31 23 72 23h14v-68q-46 0 -59 -44q-3 -11 -3 -22q0 -42 34 -59q13 -6 28 -6v-71h-14
zM218 298v71q46 0 59 43q3 11 3 22q0 45 -35 61q-13 5 -27 5v68h14q77 0 109 -69q14 -31 14 -65q0 -74 -50 -113q-32 -23 -73 -23h-14zM154 298q-77 0 -109 70q-14 31 -14 66q0 73 51 111q31 23 72 23h14v-68q-46 0 -59 -44q-3 -11 -3 -22q0 -42 34 -59q13 -6 28 -6v-71h-14
z" />
    <glyph glyph-name="si_A" unicode="&#xd85;" horiz-adv-x="542" 
d="M354 -169h83v169h57v88h-57v311q2 75 75 94l-18 88q-68 -21 -104 -61q-58 59 -150 59q-93 0 -146 -62q-22 -27 -31 -60l76 -25q15 49 71 64q17 4 33 4q71 0 100 -49q8 -16 11 -35v-8v-6h-98q-143 0 -198 -92q-28 -47 -28 -111q0 -128 110 -176q52 -23 117 -23h42v85h-42
q-98 0 -128 65q-10 22 -10 49q0 89 84 110q22 6 48 6h103v-484z" />
    <glyph glyph-name="si_Aa" unicode="&#xd86;" horiz-adv-x="802" 
d="M354 -169h83v169h57v88h-57v311q2 75 75 94l-18 88q-68 -21 -104 -61q-58 59 -150 59q-93 0 -146 -62q-22 -27 -31 -60l76 -25q15 49 71 64q17 4 33 4q71 0 100 -49q8 -16 11 -35v-8v-6h-98q-143 0 -198 -92q-28 -47 -28 -111q0 -128 110 -176q52 -23 117 -23h42v85h-42
q-98 0 -128 65q-10 22 -10 49q0 89 84 110q22 6 48 6h103v-484zM564 0h20q187 2 188 198v163q-2 197 -188 198h-20v-87h20q99 -2 100 -116v-158q-1 -110 -100 -111h-20v-87z" />
    <glyph glyph-name="si_Ae" unicode="&#xd87;" horiz-adv-x="799" 
d="M354 -169h83v169h57v88h-57v311q2 75 75 94l-18 88q-68 -21 -104 -61q-58 59 -150 59q-93 0 -146 -62q-22 -27 -31 -60l76 -25q15 49 71 64q17 4 33 4q71 0 100 -49q8 -16 11 -35v-8v-6h-98q-143 0 -198 -92q-28 -47 -28 -111q0 -128 110 -176q52 -23 117 -23h42v85h-42
q-98 0 -128 65q-10 22 -10 49q0 89 84 110q22 6 48 6h103v-484zM743 0h26v88h-26q-92 1 -93 104l1 88q-1 54 16 85q19 33 102 126v83h-206v-86h101q-72 -80 -87 -114q-14 -32 -14 -88v-91q0 -148 111 -185q32 -10 69 -10z" />
    <glyph glyph-name="si_Aae" unicode="&#xd88;" horiz-adv-x="800" 
d="M354 -169h83v169h57v88h-57v311q2 75 75 94l-18 88q-68 -21 -104 -61q-58 59 -150 59q-93 0 -146 -62q-22 -27 -31 -60l76 -25q15 49 71 64q17 4 33 4q71 0 100 -49q8 -16 11 -35v-8v-6h-98q-143 0 -198 -92q-28 -47 -28 -111q0 -128 110 -176q52 -23 117 -23h42v85h-42
q-98 0 -128 65q-10 22 -10 49q0 89 84 110q22 6 48 6h103v-484zM564 211v-43q2 -167 180 -168h26v88h-26q-86 0 -92 76q-1 8 -1 16v31q0 32 17 52q22 25 102 82v73h-99l99 83v73h-206v-73h98l-98 -83v-73h89q-71 -53 -83 -89q-6 -17 -6 -45z" />
    <glyph glyph-name="si_I" unicode="&#xd89;" horiz-adv-x="562" 
d="M194 0h91q137 0 203 95q44 63 44 154v134q0 104 -87 157q-53 33 -119 33h-16v-87q97 0 126 -68q10 -25 10 -56v-99q0 -138 -118 -172q-34 -10 -72 -10h-62v-81zM68 -78q20 -79 100 -111q38 -15 82 -15q99 0 150 64q32 41 32 95h-86q0 -46 -49 -68q-24 -11 -49 -11
q-53 0 -82 38q-11 14 -15 29zM25 315q0 -85 72 -122q36 -18 83 -18q116 0 140 75q5 17 5 35v80h-82v-47q0 -40 -40 -51q-11 -3 -23 -3q-53 0 -65 43q-3 10 -3 21v51q0 69 75 97q27 10 52 10h16v87h-16q-94 0 -158 -59q-56 -53 -56 -127v-72z" />
    <glyph glyph-name="si_Ii" unicode="&#xd8a;" horiz-adv-x="565" 
d="M30 238q0 -175 120 -227q41 -17 89 -17v89q-104 0 -119 108q-3 20 -3 44v184q0 58 16 86q15 26 48 55l232 209l-94 24l-211 -186q-73 -63 -77 -151q-1 -11 -1 -29v-189zM175 483v-3h127q76 0 98 -54q12 -31 12 -82v-109q0 -114 -59 -141q-24 -10 -58 -10v-89
q154 0 191 131q13 47 13 109v129q-2 199 -166 200h-76zM403 663q0 -41 37 -62q17 -10 36 -10q43 0 64 38q9 16 9 34q0 43 -38 64q-17 9 -35 9q-43 0 -64 -38q-9 -17 -9 -35zM50 769q0 -41 37 -62q17 -10 36 -10q43 0 64 38q9 16 9 34q0 43 -38 64q-17 9 -35 9q-43 0 -64 -38
q-9 -17 -9 -35z" />
    <glyph glyph-name="si_U" unicode="&#xd8b;" horiz-adv-x="556" 
d="M324 -81q127 0 157 96q3 7 4 13l84 -24q-32 -153 -206 -170q-19 -2 -39 -2v87zM128 464q20 68 104 97q40 14 82 14q113 0 166 -76q31 -45 33 -109v-80h-245q-129 0 -148 -128q-3 -23 -3 -49v-48q0 -117 103 -156q25 -9 48 -11v-87q-87 0 -157 63q-81 74 -81 191v48
q2 263 236 264h164q-5 72 -75 93q-20 6 -40 6q-65 0 -98 -35q-11 -12 -15 -25z" />
    <glyph glyph-name="si_Uu" unicode="&#xd8c;" horiz-adv-x="949" 
d="M324 -81q127 0 157 96q3 7 4 13l84 -24q-32 -153 -206 -170q-19 -2 -39 -2v87zM128 464q20 68 104 97q40 14 82 14q113 0 166 -76q31 -45 33 -109v-80h-245q-129 0 -148 -128q-3 -23 -3 -49v-48q0 -117 103 -156q25 -9 48 -11v-87q-87 0 -157 63q-81 74 -81 191v48
q2 263 236 264h164q-5 72 -75 93q-20 6 -40 6q-65 0 -98 -35q-11 -12 -15 -25zM752 -8q-87 0 -137 59q-37 44 -37 106v45h80v-46q0 -54 54 -76q21 -8 43 -8q58 0 82 42q11 19 11 42v290q0 32 -28 38q-4 1 -8 1q-28 0 -35 -26q-2 -7 -2 -13v-50q0 -62 -53 -86q-20 -9 -42 -9
q-59 0 -87 48q-15 27 -15 61v154h64v-137q0 -31 28 -37q4 -1 8 -1q28 0 35 25q2 7 2 13v37q0 69 58 95q23 10 47 10q57 0 89 -47q19 -30 20 -70v-295q0 -96 -82 -141q-43 -24 -95 -24z" />
    <glyph glyph-name="si_vocalicR" unicode="&#xd8d;" horiz-adv-x="993" 
d="M826 0q73 0 116 55q30 39 30 91v253q0 106 -67 149q-33 21 -75 21h-97v-82h90q70 -2 71 -96v-245q0 -42 -37 -61q-15 -8 -31 -8q-43 0 -63 37q-8 16 -8 32q0 45 40 63q15 7 31 7h21v75h-21q-89 0 -128 -70q-19 -34 -19 -75q0 -80 64 -121q38 -25 83 -25zM30 149
q0 -86 71 -129q42 -24 96 -24q80 1 121 57q43 -56 125 -57q100 0 143 69q23 36 23 84v48h-86v-42q0 -53 -52 -68q-14 -4 -29 -4q-57 0 -76 42q-6 15 -6 31v41h-81v-41q0 -53 -50 -68q-15 -5 -31 -5q-57 0 -75 43q-6 14 -6 29v42h-87v-48zM38 469l76 -25q19 45 81 46
q56 0 77 -46q7 -17 7 -37v-5h-115q-133 -2 -134 -118v-38h87v28q3 50 57 51h292q53 0 57 -49v-2v-28h86v38q-2 117 -133 118h-116v5q0 56 47 76q18 7 37 7q65 -1 81 -46l76 25q-29 82 -122 97q-16 3 -34 3q-79 0 -123 -50q-1 -2 -2 -3q-46 53 -125 53q-99 0 -143 -71
q-8 -14 -14 -29z" />
    <glyph glyph-name="si_vocalicRr" unicode="&#xd8e;" horiz-adv-x="1347" 
d="M30 149q0 -86 71 -129q42 -24 96 -24q80 1 121 57q43 -56 125 -57q100 0 143 69q23 36 23 84v48h-86v-42q0 -53 -52 -68q-14 -4 -29 -4q-57 0 -76 42q-6 15 -6 31v41h-81v-41q0 -53 -50 -68q-15 -5 -31 -5q-57 0 -75 43q-6 14 -6 29v42h-87v-48zM38 469l76 -25
q19 45 81 46q56 0 77 -46q7 -17 7 -37v-5h-115q-133 -2 -134 -118v-38h87v28q3 50 57 51h292q53 0 57 -49v-2v-28h86v38q-2 117 -133 118h-116v5q0 56 47 76q18 7 37 7q65 -1 81 -46l76 25q-29 82 -122 97q-16 3 -34 3q-79 0 -123 -50q-1 -2 -2 -3q-46 53 -125 53
q-99 0 -143 -71q-8 -14 -14 -29zM826 0q73 0 116 55q30 39 30 91v253q0 106 -67 149q-33 21 -75 21h-97v-82h90q70 -2 71 -96v-245q0 -42 -37 -61q-15 -8 -31 -8q-43 0 -63 37q-8 16 -8 32q0 45 40 63q15 7 31 7h21v75h-21q-89 0 -128 -70q-19 -34 -19 -75q0 -80 64 -121
q38 -25 83 -25zM1179 0q74 0 117 55q30 39 30 91v253q0 106 -67 149q-33 21 -75 21h-98v-82h90q66 0 72 -83v-13v-245q0 -42 -37 -61q-15 -8 -32 -8q-41 0 -62 36q-8 16 -8 33q0 45 39 63q15 7 31 7h22v75h-22q-88 0 -127 -69q-20 -34 -20 -76q0 -79 64 -121q38 -25 83 -25z
" />
    <glyph glyph-name="si_vocalicL" unicode="&#xd8f;" horiz-adv-x="928" 
d="M436 -9h58q162 1 216 79q6 -47 48 -68q18 -8 36 -8q50 0 74 43q4 8 7 16q23 58 23 149h-83q0 -15 -2 -42q-12 2 -19 2q-31 -1 -55 -21q5 29 5 56h-87q0 -94 -88 -114q-30 -7 -72 -7h-66q-119 0 -148 60q-12 25 -12 61h-87q0 -33 4 -55q-24 20 -54 20q-8 0 -19 -2
q-2 28 -2 42h-83q0 -102 28 -161q26 -45 76 -47q48 0 72 41q9 16 11 33q56 -77 219 -77zM185 246h86q0 58 40 73q18 6 43 6h222q67 0 79 -45q3 -14 3 -34h86q0 114 -77 143q-36 13 -94 13h-68v5q0 55 47 76q17 7 36 7q65 -1 81 -46h1l24 8q16 6 38 6q72 0 82 -89
q1 -13 1 -27v-91h83v102q0 109 -69 161q-40 29 -90 29q-20 0 -44 -5q-43 31 -106 31q-80 -1 -125 -53q-46 53 -125 53q-62 -1 -105 -31q-27 5 -45 5q-86 0 -131 -76q-28 -49 -28 -114v-102h83v91q2 114 84 116q22 0 37 -6l24 -8h1q17 45 81 46q55 0 75 -46q8 -17 8 -37v-5
h-75q-125 0 -153 -86q-10 -30 -10 -70z" />
    <glyph glyph-name="si_vocalicLL" unicode="&#xd90;" horiz-adv-x="1336" 
d="M30 202q0 -102 28 -161q26 -45 76 -47q48 0 72 41q9 16 11 33q56 -77 219 -77h58q162 1 216 79q6 -47 48 -68q18 -8 36 -8q50 0 74 43q4 8 7 16q23 58 23 149h-83q0 -15 -2 -42q-12 2 -19 2q-31 -1 -55 -21q5 29 5 56h-87q0 -94 -88 -114q-30 -7 -72 -7h-66
q-119 0 -148 60q-12 25 -12 61h-87q0 -33 4 -55q-24 20 -54 20q-8 0 -19 -2q-2 28 -2 42h-83zM185 246h86q0 58 40 73q18 6 43 6h222q67 0 79 -45q3 -14 3 -34h86q0 114 -77 143q-36 13 -94 13h-68v5q0 55 47 76q17 7 36 7q65 -1 81 -46h1l24 8q16 6 38 6q72 0 82 -89
q1 -13 1 -27v-91h83v102q0 109 -69 161q-40 29 -90 29q-20 0 -44 -5q-43 31 -106 31q-80 -1 -125 -53q-46 53 -125 53q-62 -1 -105 -31q-27 5 -45 5q-86 0 -131 -76q-28 -49 -28 -114v-102h83v91q2 114 84 116q22 0 37 -6l24 -8h1q17 45 81 46q55 0 75 -46q8 -17 8 -37v-5
h-75q-125 0 -153 -86q-10 -30 -10 -70zM1139 -8q87 0 138 58q38 44 38 107v295q-1 75 -59 105q-24 12 -50 12q-61 0 -90 -47q-15 -25 -15 -58v-37q0 -31 -28 -37q-4 -1 -8 -1q-27 0 -34 25q-2 7 -2 13v137h-65v-154q0 -73 59 -100q20 -9 43 -9q55 0 82 43q14 23 14 52v50
q0 32 28 38q4 1 8 1q26 0 35 -25q2 -7 2 -14v-290q0 -58 -55 -78q-18 -6 -38 -6q-57 0 -84 39q-13 20 -13 45v46h-81v-45q0 -98 82 -142q42 -23 93 -23z" />
    <glyph glyph-name="si_E" unicode="&#xd91;" horiz-adv-x="596" 
d="M72 400l67 -17q18 34 62 37q47 0 65 -36q6 -14 6 -30l-45 -3h-197v-69h69q-28 -36 -28 -90q0 -91 68 -147q58 -47 142 -47v89q-84 0 -113 62q-10 21 -10 44q0 64 48 83q14 6 30 6h106v70q-1 63 -38 101q-39 37 -102 37q-75 0 -112 -53q-12 -16 -18 -37zM432 459v62
q-89 5 -96 91q-1 8 -1 15v41q103 0 130 -73q13 -37 13 -97v-253q-2 -157 -142 -158v-89q204 0 227 193q3 26 3 54v272q0 224 -203 237q-14 1 -28 1h-59v-127q0 -111 87 -151q30 -14 69 -18z" />
    <glyph glyph-name="si_Ee" unicode="&#xd92;" horiz-adv-x="596" 
d="M30 282h69q-28 -36 -28 -90q0 -91 68 -147q58 -47 142 -47v89q-84 0 -113 62q-10 21 -10 44q0 64 48 83q14 6 30 6h106v70q-1 63 -38 101q-39 37 -102 37q-75 0 -112 -53q-12 -16 -18 -37l67 -17q18 34 62 37q47 0 65 -36q6 -14 6 -30l-45 -3h-197v-69zM276 628
q0 -111 87 -151q30 -14 69 -18v62q-89 5 -96 91q-1 8 -1 15v41q103 0 130 -73q13 -37 13 -97v-253q-2 -157 -142 -158v-89q204 0 227 193q3 26 3 54v272v1v301h-87v-99q-55 35 -144 35h-59v-127z" />
    <glyph glyph-name="si_Ai" unicode="&#xd93;" horiz-adv-x="1043" 
d="M249 482q79 0 94 -62q1 -5 2 -9l79 20q-8 60 -57 100q-42 33 -97 33h-62q-131 0 -167 -118q-11 -36 -11 -75v-173q0 -137 78 -183q34 -20 80 -20h21v82q-78 0 -91 77q-3 19 -3 44v173q0 93 72 108q13 3 27 3h35zM233 272h53q43 0 52 -23q4 -10 4 -22v-68q-2 -81 -85 -82
v-82h26q91 0 127 80q17 37 17 82v98q0 91 -88 98q-9 1 -19 1h-87v-82zM519 400l67 -17q18 34 62 37q47 0 65 -36q6 -14 6 -30l-45 -3h-197v-69h69q-28 -36 -28 -90q0 -91 68 -147q58 -47 142 -47v89q-84 0 -113 62q-10 21 -10 44q0 64 48 83q14 6 30 6h106v70q-1 63 -38 101
q-39 37 -102 37q-75 0 -112 -53q-12 -16 -18 -37zM879 459v62q-89 5 -96 91q-1 8 -1 15v41q103 0 130 -73q13 -36 13 -97v-253q-2 -157 -142 -158v-89q204 0 227 193q3 26 3 54v272q0 224 -203 237q-14 1 -28 1h-59v-127q0 -111 87 -151q30 -14 69 -18z" />
    <glyph glyph-name="si_Os" unicode="&#xd94;" horiz-adv-x="592" 
d="M185 -4q72 1 111 51q40 -50 111 -51q91 0 132 66q23 37 23 84v371q0 164 -104 213q-54 25 -142 25v-87q99 0 133 -46q27 -38 27 -111v-358q0 -39 -33 -60q-18 -11 -41 -11q-49 0 -66 45q-5 13 -5 26v44h-70v-44q0 -42 -34 -62q-17 -9 -37 -9q-52 0 -68 46q-5 13 -5 25
v195q0 39 32 47q6 1 11 1q31 0 40 -30q2 -8 2 -16v-35q0 -58 52 -78q18 -7 37 -7q56 0 81 43q13 22 13 51v145h-64v-138q0 -24 -23 -28q-4 -1 -6 -1q-26 6 -30 29v36q0 73 -62 100q-23 10 -48 10q-63 0 -99 -48q-23 -32 -23 -74v-209q0 -89 70 -129q37 -21 85 -21zM120 542
q0 82 73 114q31 13 66 13v86q-93 0 -161 -60q-62 -55 -63 -131z" />
    <glyph glyph-name="si_Oo" unicode="&#xd95;" horiz-adv-x="592" 
d="M185 -4q72 1 111 51q40 -50 111 -51q91 0 132 66q23 37 23 84v328q0 122 -91 159q-48 19 -123 19h-140q-43 0 -53 32q-2 7 -2 13q0 35 36 44q9 2 19 2h68v76h-88q-62 0 -98 -49q-20 -26 -20 -55q1 -39 29 -63h-36v-82h285q85 0 111 -36q17 -26 17 -74v-307q0 -39 -33 -60
q-18 -11 -41 -11q-49 0 -66 45q-5 13 -5 26v44h-70v-44q0 -42 -34 -62q-17 -9 -37 -9q-52 0 -68 46q-5 13 -5 25v195q0 39 32 47q6 1 11 1q31 0 40 -30q2 -8 2 -16v-35q0 -56 52 -77q19 -8 39 -8q56 0 80 44q12 22 12 50v145h-64v-138q0 -24 -23 -28q-4 -1 -6 -1
q-26 6 -30 29v36q0 73 -62 100q-23 10 -48 10q-63 0 -99 -48q-23 -32 -23 -74v-209q0 -89 70 -129q37 -21 85 -21zM471 673h85q0 84 -42 116q-40 30 -122 30h-59v-76h44q60 0 78 -17q16 -18 16 -53z" />
    <glyph glyph-name="si_Au" unicode="&#xd96;" horiz-adv-x="1012" 
d="M185 -4q72 1 111 51q40 -50 111 -51q91 0 132 66q23 37 23 84v371q0 164 -104 213q-54 25 -142 25v-87q99 0 133 -46q27 -38 27 -111v-358q0 -39 -33 -60q-18 -11 -41 -11q-49 0 -66 45q-5 13 -5 26v44h-70v-44q0 -42 -34 -62q-17 -9 -37 -9q-52 0 -68 46q-5 13 -5 25
v195q0 39 32 47q6 1 11 1q31 0 40 -30q2 -8 2 -16v-35q0 -58 52 -78q18 -7 37 -7q56 0 81 43q13 22 13 51v145h-64v-138q0 -24 -23 -28q-4 -1 -6 -1q-26 6 -30 29v36q0 73 -62 100q-23 10 -48 10q-63 0 -99 -48q-23 -32 -23 -74v-209q0 -89 70 -129q37 -21 85 -21zM120 542
q0 82 73 114q31 13 66 13v86q-93 0 -161 -60q-62 -55 -63 -131zM815 -8q86 0 138 57q39 45 39 108v295q-1 75 -60 105q-24 12 -49 12q-61 0 -90 -47q-15 -25 -15 -58v-37q0 -31 -28 -37q-5 -1 -9 -1q-27 0 -34 25q-2 7 -2 13v137h-64v-154q0 -74 58 -100q21 -9 44 -9
q55 0 82 44q13 23 13 51v50q0 32 28 38q5 1 9 1q27 0 34 -26q2 -7 2 -13v-290q0 -58 -55 -78q-18 -6 -38 -6q-57 0 -84 39q-13 20 -13 45v46h-80v-45q0 -97 81 -142q43 -23 93 -23z" />
    <glyph glyph-name="si_Ka" unicode="&#xd9a;" horiz-adv-x="779" 
d="M32 446l75 -24q15 51 63 62q9 2 19 2q44 0 67 -33q3 -5 5 -8l-231 -193v-73l13 3q22 -1 22 -47v-25q0 -63 59 -97q32 -19 69 -19q55 1 90 42q40 -41 100 -41q69 0 107 51q25 34 25 78v106q0 102 -74 137q-17 7 -37 13l-66 -54q70 -15 86 -52q9 -20 9 -52v-85
q0 -40 -39 -52q-11 -3 -21 -3q-42 0 -53 35q-3 10 -3 20v60h-69v-61q0 -43 -37 -52q-7 -2 -14 -2q-35 0 -50 29q-6 11 -6 25v47q-1 21 -12 38l256 214q53 45 119 45q79 0 125 -61q33 -45 33 -108v-113q0 -98 -74 -109q-12 -2 -25 -2v-88q153 0 180 132q6 30 6 67v119
q0 152 -107 216q-55 33 -126 33q-109 -1 -193 -68q-25 47 -90 63q-22 5 -44 5q-79 0 -126 -57q-22 -27 -31 -63z" />
    <glyph glyph-name="si_Kha" unicode="&#xd9b;" horiz-adv-x="604" 
d="M425 -6q83 0 123 68q26 44 26 107v338q0 214 -168 243q-28 5 -61 5h-21v-87h21q105 0 131 -81q10 -33 10 -80v-349q0 -48 -43 -64q-13 -4 -25 -4q-43 0 -61 34q-8 16 -8 34v134q0 94 -75 135q-37 20 -81 20q-81 0 -128 -59q-35 -45 -35 -109v-96q0 -142 104 -173
q34 -10 78 -10v87q-72 0 -90 48q-7 22 -7 54v84q0 60 47 79q14 6 28 6q45 0 65 -41q9 -20 9 -44v-338h85v77q37 -18 76 -18zM129 542q0 82 73 113q31 13 66 13v87q-93 0 -161 -60q-62 -55 -63 -131z" />
    <glyph glyph-name="si_Ga" unicode="&#xd9c;" horiz-adv-x="710" 
d="M221 -8v88q-85 0 -101 90q-3 18 -3 38v136q0 116 82 130q11 2 22 2v88q-131 0 -174 -113q-17 -45 -17 -103v-140q0 -143 94 -194q42 -22 97 -22zM488 -8q133 0 175 116q16 44 17 100v140q-1 145 -96 195q-42 21 -96 21v-88q89 0 102 -101q2 -15 2 -31v-136
q0 -112 -81 -126q-12 -2 -23 -2v-88zM253 257h42q75 -1 75 -88q-2 -88 -93 -89v-88q155 0 170 134q2 14 2 29v33q0 106 -70 133q-18 7 -39 7v28q2 119 92 120v88q-154 0 -176 -158q-3 -25 -3 -51v-98z" />
    <glyph glyph-name="si_Gha" unicode="&#xd9d;" horiz-adv-x="682" 
d="M217 -5q116 2 117 112q2 28 28 29q27 -2 28 -29q2 -111 117 -112q81 0 121 63q24 38 24 89v48h-87v-43q0 -49 -39 -65q-13 -5 -26 -5q-63 2 -64 71q-2 50 -53 51h-42q-52 -2 -53 -51q-2 -70 -64 -71q-45 0 -60 41q-5 14 -5 29v43h-87v-48q0 -92 69 -132q34 -20 76 -20z
M81 469l76 -25q19 45 81 46q56 0 77 -46q7 -17 7 -37v-5h-292v-77h59q-16 -10 -16 -44q0 -2 -1 -19v-16h87v25q2 53 58 54h291q56 -2 57 -54v-25h87v38q-2 117 -134 118h-115v5q0 56 47 76q18 7 37 7q65 -1 81 -46l76 25q-29 82 -122 97q-16 3 -34 3q-79 0 -123 -50
q-1 -2 -2 -3q-46 52 -126 53q-97 0 -141 -69q-9 -15 -15 -31z" />
    <glyph glyph-name="si_Nga" unicode="&#xd9e;" horiz-adv-x="586" 
d="M190 -4q69 1 105 51q40 -51 112 -51q86 0 127 65q22 37 22 85v370q0 177 -120 221q-48 17 -116 17v-86q101 0 130 -61q18 -37 18 -101v-354q0 -37 -29 -57q-19 -12 -42 -12q-52 0 -67 48q-3 11 -3 21v45h-69v-45q0 -39 -31 -59q-17 -10 -39 -10q-53 0 -68 49q-3 11 -3 20
v71q0 40 29 51q21 8 60 8h43q69 0 96 59q11 23 11 49q0 61 -47 90q-26 16 -60 16h-76q-90 0 -113 -67q-7 -19 -7 -40h67q0 31 37 38q9 1 17 1h72q32 0 40 -28q1 -6 1 -10q0 -28 -26 -37q-8 -3 -16 -3h-81q-104 0 -126 -72q-8 -26 -8 -65v-67q0 -89 72 -129q39 -21 88 -21z
M36 563l85 -22q0 81 73 113q33 14 70 14v86q-93 0 -163 -59q-64 -56 -65 -132z" />
    <glyph glyph-name="si_Nnga" unicode="&#xd9f;" horiz-adv-x="875" 
d="M30 209q0 -105 30 -166q14 -30 38 -61l84 27q-56 67 -64 130q-3 24 -3 70v78q0 105 24 144q27 42 85 45q-29 -54 -29 -128v-140q1 -145 96 -195q42 -21 96 -21v88q-90 0 -102 98q-2 15 -2 30v136q0 116 82 130q11 2 22 2v88h-122q-160 0 -207 -100q-28 -59 -28 -177v-78z
M654 -8q129 0 173 110q18 47 18 106v140q0 141 -92 193q-42 23 -99 23v-88q94 0 102 -112q1 -10 1 -20v-136q0 -111 -79 -126q-12 -2 -24 -2v-88zM418 257h43q73 -3 74 -88q-2 -88 -92 -89v-88q147 0 169 122q3 20 3 41v33q0 104 -68 132q-20 8 -42 8v28q4 119 93 120v88
q-151 0 -176 -151q-4 -27 -4 -58v-98z" />
    <glyph glyph-name="si_Ca" unicode="&#xda0;" horiz-adv-x="597" 
d="M281 -2q-118 0 -176 84q-34 50 -34 110q1 55 28 90h-69v69h197l45 3q0 48 -46 62q-13 4 -25 4q-42 0 -59 -30q-2 -4 -3 -7l-67 17q21 74 103 88q14 2 27 2q63 -1 102 -37q38 -39 38 -101v-70h-106q-50 0 -69 -49q-8 -19 -8 -40q0 -61 50 -91q31 -17 72 -17v-87zM337 -2
v87q141 2 142 160v261q0 126 -80 153q-26 9 -62 9v87q219 0 229 -215q1 -12 1 -23v-272q0 -234 -206 -246q-12 -1 -24 -1zM153 542l-85 22q0 85 77 143q64 48 136 48v-86q-63 0 -102 -48q-26 -35 -26 -79z" />
    <glyph glyph-name="si_Cha" unicode="&#xda1;" horiz-adv-x="636" 
d="M285 -9h58q195 0 237 119q13 38 13 87v67q-5 63 -68 65h-93q-45 0 -69 39q-11 20 -11 41q0 45 39 69q20 11 41 11q44 0 67 -38q4 -9 7 -17l77 6q-12 71 -76 107q-23 13 -48 18l152 200l-89 24l-204 -269l-8 -8q-37 57 -124 57q-97 0 -141 -69q-9 -15 -15 -31l76 -25
q17 45 81 46q56 0 77 -49q7 -18 7 -39h-74q-128 0 -155 -89q-9 -30 -9 -67h87q0 58 40 73q18 6 43 6h91q43 -69 124 -75h13l75 1v-54q0 -94 -88 -114q-30 -7 -72 -7h-66q-117 0 -147 57q-13 26 -13 64h-87q0 -144 111 -185q55 -21 141 -21z" />
    <glyph glyph-name="si_Ja" unicode="&#xda2;" horiz-adv-x="636" 
d="M31 469l76 -25q17 45 81 46q55 0 75 -46q8 -17 8 -37v-5h-75q-128 0 -155 -89q-9 -30 -9 -67h87q0 58 40 73q18 6 43 6h221q67 0 78 -43q4 -15 4 -36h87q0 114 -77 143q-36 13 -94 13h-68v5q1 39 25 62l3 -2l7 10q23 13 48 13q65 -1 81 -46l76 25q-29 83 -125 98
q-5 0 -10 1l149 197l-89 24l-206 -273q-46 53 -125 53q-98 0 -142 -69q-8 -15 -14 -31zM284 -9h57q195 0 238 118q13 38 13 88h-87q0 -94 -88 -114q-30 -7 -72 -7h-66q-117 0 -147 57q-13 26 -13 64h-87q0 -144 111 -185q55 -21 141 -21z" />
    <glyph glyph-name="si_Jha" unicode="&#xda3;" horiz-adv-x="1119" 
d="M30 179l13 3q22 -1 22 -47v-25q0 -63 59 -97q32 -19 69 -19q55 1 90 42q40 -41 100 -41q69 0 107 51q25 34 25 78v106q0 102 -74 137q-17 7 -37 13l-66 -54q70 -15 86 -52q9 -20 9 -52v-85q0 -40 -39 -52q-11 -3 -21 -3q-42 0 -53 35q-3 10 -3 20v60h-69v-61
q0 -43 -37 -52q-7 -2 -14 -2q-35 0 -50 29q-6 11 -6 25v47q-1 21 -12 38l256 214q70 58 159 58q77 -1 117 -44q-86 -32 -97 -139q-1 -12 -1 -24v-140q0 -88 71 -128q40 -22 90 -22q68 1 104 51q40 -51 112 -51q86 0 127 65q22 37 22 85v371q0 184 -135 225q-44 13 -104 13
v-87q103 0 134 -63q17 -37 17 -99v-354q0 -38 -30 -58q-18 -11 -41 -11q-52 0 -67 48q-3 11 -3 21v45h-69v-45q0 -39 -31 -59q-17 -10 -39 -10q-52 0 -67 48q-4 11 -4 21v131q0 68 51 95q24 13 57 13h21q-18 128 -132 170q-45 17 -98 17q-121 -1 -222 -77l-4 -3
q-25 47 -90 63q-22 5 -44 5q-79 0 -126 -57q-22 -27 -31 -63l75 -24q15 51 63 62q9 2 19 2q44 0 67 -33q3 -4 5 -7l-231 -194v-73zM590 640l85 -31q27 60 118 60v86q-101 0 -165 -60q-25 -25 -38 -55z" />
    <glyph glyph-name="si_Nya" unicode="&#xda4;" horiz-adv-x="1139" 
d="M187 179q2 0 6 2q5 1 7 1q22 -1 22 -47v-25q0 -63 59 -97q32 -19 69 -19q57 1 90 42q40 -41 100 -41q71 0 109 53q10 15 16 31q60 -79 190 -79h38q96 0 157 62q31 32 46 76l-80 21q-34 -73 -123 -74h-38q-97 0 -127 64q-10 22 -10 49q0 92 87 112q21 5 44 5h187v78
q0 154 -167 190q-44 9 -95 9v-83q172 -2 173 -109h-93q-138 0 -195 -86q-1 -3 -2 -4q-25 51 -96 70l-66 -54q70 -15 87 -52q9 -21 9 -52v-85q0 -39 -39 -52q-11 -3 -22 -3q-40 0 -52 33q-4 11 -4 22v60h-68v-61q0 -43 -38 -52q-7 -2 -14 -2q-36 0 -50 30q-5 12 -5 24l-1 47
q-1 21 -12 38l256 214q91 74 177 74v84q-113 0 -226 -85q-6 -5 -11 -9l-2 -1q-25 47 -90 63q-21 5 -43 5q-72 -1 -119 -48q-17 3 -32 3q-88 0 -133 -76q-33 -55 -33 -139v-111q0 -105 35 -171q15 -27 37 -56l83 27q-57 69 -66 132q-4 25 -4 68v111q0 121 73 130q7 1 12 1
q16 0 49 -10l16 -5q16 53 65 62q8 2 16 2q44 0 69 -34l4 -6l-232 -194v-73zM962 -204q104 0 154 73q16 24 23 52l-83 21q-12 -51 -67 -63q-13 -3 -25 -3q-54 0 -80 38q-13 19 -13 41h-85q0 -95 80 -137q42 -22 96 -22z" />
    <glyph glyph-name="si_Jnya" unicode="&#xda5;" horiz-adv-x="1066" 
d="M783 -4h38q92 0 153 59q33 34 49 79l-80 22q-34 -74 -122 -75h-38q-92 0 -122 64q-10 22 -10 46q0 78 77 98q22 6 48 6h187v78q0 187 -230 195q-15 1 -32 1v-89q172 -2 173 -100h-95q-132 0 -186 -85q-3 -6 -6 -11q-31 42 -82 44v28q1 88 71 115q24 9 53 10h16v88h-16
q-143 -1 -191 -109q-20 -45 -20 -105v-98h43q73 -3 74 -88q-2 -88 -92 -89v-88q121 1 158 85q65 -78 182 -81zM30 203q0 -105 35 -171q15 -27 37 -56l83 27q-57 69 -66 132q-4 25 -4 68v84q0 105 24 144q27 42 85 45q-29 -54 -29 -128v-140q1 -145 96 -195q42 -21 96 -21v88
q-90 0 -102 98q-2 15 -2 30v136q0 116 82 130q11 2 22 2v88h-122q-160 0 -207 -100q-28 -59 -28 -177v-84zM889 -208q103 0 153 73q16 24 24 53l-83 21q-12 -51 -67 -63q-12 -3 -24 -3q-56 0 -81 39q-12 18 -12 39h-86q0 -93 78 -136q42 -23 98 -23z" />
    <glyph glyph-name="si_Ndja" unicode="&#xda6;" horiz-adv-x="795" 
d="M443 -9h58q195 0 237 119q13 38 13 87h-87q0 -94 -88 -114q-30 -7 -72 -7h-66q-119 0 -148 60q-12 25 -12 61h-87q0 -144 111 -185q55 -21 141 -21zM100 -24l83 28q-58 69 -67 133q-3 25 -3 66v126q0 113 69 128q10 2 19 2q22 0 45 -8l4 -2q8 -2 12 -4l4 -1q17 45 81 46
q55 0 75 -46q8 -17 8 -37v-5h-75q-128 0 -155 -89q-9 -30 -9 -67h87q0 58 40 73q18 6 43 6h221q67 0 78 -43q4 -15 4 -36h87q0 114 -77 143q-36 13 -94 13h-68v5q1 39 25 62l3 -2l7 10q23 13 48 13q65 -1 81 -46l76 25q-30 87 -131 99h-4l150 197l-90 24l-206 -273
q-46 53 -125 53q-61 -1 -103 -29q-21 3 -46 3q-88 0 -134 -74q-33 -52 -33 -128v-140q0 -102 30 -162q15 -31 40 -63z" />
    <glyph glyph-name="si_Tta" unicode="&#xda7;" horiz-adv-x="554" 
d="M34 266q0 157 124 195q36 11 82 11v-86q-95 0 -115 -80q-5 -19 -5 -40v-56q0 -70 51 -105q30 -20 69 -20v-87q-122 0 -178 99q-28 50 -28 107v62zM296 -2v87q109 0 133 89q8 31 8 70v267q0 132 -95 153q-21 4 -46 4v87q188 0 221 -157q7 -37 7 -81v-278
q-2 -240 -228 -241zM30 564q0 85 77 144q62 47 133 47v-86q-62 0 -100 -49q-25 -34 -25 -78z" />
    <glyph glyph-name="si_Ttha" unicode="&#xda8;" horiz-adv-x="593" 
d="M197 -4q69 1 105 51q40 -51 112 -51q86 0 127 65q22 37 22 85v371q0 224 -203 237q-14 1 -28 1h-59v-127q0 -111 87 -151q30 -14 69 -18v62q-89 5 -96 91q-1 8 -1 15v41q103 0 130 -73q13 -37 13 -97v-346q0 -37 -29 -57q-19 -12 -42 -12q-52 0 -67 48q-3 11 -3 21v45
h-69v-45q0 -39 -31 -59q-17 -10 -39 -10q-53 0 -68 49q-3 11 -3 20v131q0 72 55 98q23 10 53 10h31v86h-31q-161 0 -190 -136q-5 -26 -5 -55v-140q0 -89 72 -129q39 -21 88 -21z" />
    <glyph glyph-name="si_Dda" unicode="&#xda9;" horiz-adv-x="628" 
d="M232 -4q68 1 104 51q41 -51 112 -51q88 0 128 67q22 36 22 83v371q0 183 -131 224q-43 14 -103 14v-87q99 0 128 -61q17 -37 17 -101v-354q0 -38 -30 -58q-18 -11 -41 -11q-53 0 -66 49q-3 11 -3 20v45h-70v-45q0 -41 -31 -59q-17 -10 -38 -10q-53 0 -68 49q-3 10 -3 20
v75q2 54 56 55h154v70q-1 64 -39 101q-39 37 -102 37q-73 0 -111 -51q-13 -18 -19 -39l68 -18q17 35 62 38q47 0 65 -38q6 -14 6 -31h-269v-69h62q-19 -12 -19 -55v-81q0 -88 71 -128q39 -22 88 -22zM80 564l85 -22q0 81 73 113q33 14 70 14v86q-93 0 -162 -59
q-65 -56 -66 -132z" />
    <glyph glyph-name="si_Ddha" unicode="&#xdaa;" horiz-adv-x="628" 
d="M232 -4q68 1 104 51q41 -51 112 -51q88 0 128 67q22 36 22 83v371q0 224 -203 237q-14 1 -28 1h-59v-127q0 -111 87 -151q30 -14 69 -18v62q-89 5 -96 91q-1 8 -1 15v41q103 0 130 -73q13 -37 13 -97v-346q0 -37 -30 -57q-18 -12 -42 -12q-53 0 -66 49q-3 11 -3 20v45
h-70v-45q0 -41 -31 -59q-17 -10 -38 -10q-53 0 -68 49q-3 10 -3 20v75q2 54 56 55h154v70q-1 64 -39 101q-39 37 -102 37q-73 0 -111 -51q-13 -18 -19 -39l68 -18q17 35 62 38q47 0 65 -38q6 -14 6 -31h-269v-69h62q-19 -12 -19 -55v-81q0 -88 71 -128q39 -22 88 -22z" />
    <glyph glyph-name="si_Nna" unicode="&#xdab;" horiz-adv-x="988" 
d="M5 15l84 -21q15 33 58 41q9 1 17 1q26 0 93 -22q44 -14 72 -14q85 0 132 71q35 55 35 136q0 10 1 88v69q-1 131 -59 188l161 212l-93 24l-146 -193q-38 11 -85 11q-103 0 -165 -68q-52 -56 -52 -140q0 -108 75 -165q47 -36 106 -36h71v84h-51q-89 0 -110 82q-5 19 -5 36
q0 55 38 91q36 33 93 33q113 0 134 -112q4 -22 4 -47v-157q0 -103 -76 -118q-11 -2 -22 -2q-22 0 -84 19q-45 14 -79 14q-70 0 -121 -62q-16 -20 -26 -43zM661 246h85v158q0 52 41 66q11 4 22 4q47 0 60 -45q3 -11 3 -25v-158h86v173q0 99 -79 132q-30 13 -65 13
q-71 -1 -108 -50q-36 49 -101 50q-55 0 -86 -31l29 -79q21 20 49 20q47 0 61 -47q4 -16 4 -34zM542 162q0 -96 86 -141q53 -27 122 -27q110 0 168 65q40 46 40 111v27h-86v-25q0 -66 -71 -88q-24 -7 -51 -7q-70 0 -104 43q-17 23 -17 53v24h-87v-35z" />
    <glyph glyph-name="si_Nndda" unicode="&#xdac;" horiz-adv-x="757" 
d="M361 -4q68 1 104 51q41 -51 112 -51q88 0 128 67q22 36 22 83v371q0 183 -131 224q-43 14 -103 14v-87q99 0 128 -61q17 -37 17 -101v-354q0 -38 -30 -58q-18 -11 -41 -11q-53 0 -66 49q-3 11 -3 20v45h-70v-45q0 -39 -31 -59q-17 -10 -39 -10q-52 0 -67 49q-3 11 -3 20
v66q2 53 56 54h154v70q0 83 -64 124q-38 24 -88 24q-51 -1 -88 -25q-32 8 -57 8q-89 0 -138 -71q-33 -49 -33 -118v-99q0 -99 35 -161q12 -21 27 -41l84 27q-55 65 -63 127q-2 19 -2 46v87q0 101 67 119q13 3 27 3q26 -1 65 -15v1l6 -2q19 36 70 37q46 0 66 -36q9 -17 9 -36
h-253v-69h53q-19 -11 -19 -54v-72q0 -89 72 -129q38 -21 87 -21zM209 564l85 -22q0 81 73 113q33 14 70 14v86q-93 0 -162 -59q-65 -56 -66 -132z" />
    <glyph glyph-name="si_Ta" unicode="&#xdad;" horiz-adv-x="765" 
d="M30 176q6 2 15 2q25 0 45 -36l9 -15q10 -19 15 -28q66 -104 192 -105q120 0 173 87q28 47 28 106q0 121 -71 165q-21 13 -46 20l-66 -53q80 -20 94 -77q5 -20 5 -51q0 -68 -56 -97q-28 -15 -63 -15q-81 0 -125 67q-8 11 -20 33q-18 33 -29 45l255 211q49 40 112 40
q80 0 123 -62q28 -42 28 -102v-113q0 -98 -74 -109q-12 -2 -25 -2v-88q150 0 178 125q8 33 8 74v119q0 146 -102 211q-57 36 -128 36q-87 -1 -167 -56q-29 40 -91 54q-19 4 -37 4q-82 0 -128 -59q-21 -26 -30 -61l76 -24q16 53 65 62q8 2 16 2q41 -1 65 -30l-244 -204v-76z
" />
    <glyph glyph-name="si_Tha" unicode="&#xdae;" horiz-adv-x="552" 
d="M232 628q0 -111 87 -151q30 -14 69 -18v62q-89 5 -96 91q-1 8 -1 15v41q103 0 130 -73q13 -37 13 -97v-253q-2 -157 -142 -158v-89q204 0 227 193q3 26 3 54v272q0 224 -203 237q-14 1 -28 1h-59v-127zM30 266v-62q0 -84 56 -145q58 -61 151 -61v89q-75 0 -106 63
q-14 28 -14 60v56q0 94 79 115q19 5 41 5v86q-172 0 -202 -148q-5 -28 -5 -58z" />
    <glyph glyph-name="si_Da" unicode="&#xdaf;" horiz-adv-x="541" 
d="M365 -204q-100 0 -149 67q-28 39 -28 92h86q0 -48 48 -70q22 -9 45 -9q54 0 80 42q8 12 11 25l83 -21q-20 -82 -100 -113q-35 -13 -76 -13zM30 199q0 134 112 182q50 21 114 21h99q0 66 -63 90q-23 8 -49 8q-61 0 -92 -43q-8 -12 -12 -25l-76 25q20 78 102 109
q36 13 75 13q97 0 153 -63q44 -49 44 -122v-79h-186q-101 0 -126 -74q-6 -19 -6 -42q0 -78 75 -104q28 -10 63 -10h38q90 1 123 74l80 -21q-33 -98 -136 -128q-34 -10 -67 -10h-38q-128 0 -189 77q-38 50 -38 122z" />
    <glyph glyph-name="si_Dha" unicode="&#xdb0;" horiz-adv-x="586" 
d="M190 -4q69 1 105 51q40 -51 112 -51q86 0 127 65q22 37 22 85v371q0 183 -131 224q-43 14 -103 14v-87q100 0 129 -62q17 -37 17 -100v-354q0 -37 -29 -57q-19 -12 -42 -12q-52 0 -67 48q-3 11 -3 21v45h-69v-45q0 -39 -31 -59q-17 -10 -39 -10q-53 0 -68 49q-3 11 -3 20
v131q0 72 55 98q23 10 53 10h31v86h-31q-161 0 -190 -136q-5 -26 -5 -55v-140q0 -89 72 -129q39 -21 88 -21zM38 564l85 -22q0 80 73 112q32 15 70 15v86q-93 0 -162 -59q-65 -56 -66 -132z" />
    <glyph glyph-name="si_Na" unicode="&#xdb1;" horiz-adv-x="742" 
d="M527 -4q155 0 180 134q5 30 5 65v141q0 133 -103 196q-60 36 -134 36q-98 -1 -161 -57q-28 39 -90 52q-17 3 -34 3q-79 0 -126 -57q-22 -27 -31 -63l75 -24q15 51 63 62q10 2 19 2q44 0 67 -33q3 -5 5 -8q-45 -62 -57 -80q-58 -80 -98 -86v65h-77v-88q0 -152 105 -221
q61 -41 142 -41q112 0 175 77q45 57 45 132q0 94 -66 148q-22 18 -49 29l-49 -66q74 -32 75 -109q0 -70 -59 -106q-33 -20 -73 -20q-99 0 -143 77q-9 17 -15 35q54 6 125 93q11 14 26 33l78 103q46 60 122 61q76 0 122 -56q34 -41 34 -98v-132q0 -99 -76 -110q-10 -1 -22 -1
v-88z" />
    <glyph glyph-name="si_Nda" unicode="&#xdb3;" horiz-adv-x="705" 
d="M421 0h39q94 0 155 61q32 33 47 77l-80 21q-34 -73 -122 -74h-39q-98 0 -127 66q-10 22 -10 48q0 91 85 111q22 5 46 5h186l1 72q0 124 -99 170q-44 20 -98 20q-88 -1 -140 -51q-17 4 -39 4q-94 0 -150 -75q-46 -63 -46 -159v-87q0 -105 30 -166q14 -30 38 -61l84 27
q-56 67 -64 130q-3 24 -3 70v87q0 93 60 132q28 17 62 17q27 0 58 -10l7 -3q15 54 82 64q11 2 22 2q64 0 95 -42q18 -24 18 -56h-99q-144 0 -199 -92q-27 -46 -27 -109q0 -128 110 -176q52 -23 117 -23zM528 -204q103 0 153 73q16 24 24 53l-83 21q-12 -51 -66 -64
q-13 -3 -26 -3q-54 0 -80 38q-13 19 -13 41h-85q0 -93 78 -136q43 -23 98 -23z" />
    <glyph glyph-name="si_Pa" unicode="&#xdb4;" horiz-adv-x="624" 
d="M31 469l76 -25q17 45 81 46q55 0 75 -46q8 -17 8 -37v-5h-75q-128 0 -155 -89q-9 -30 -9 -67h87q0 58 40 73q18 6 43 6h221q67 0 78 -43q4 -15 4 -36h87q0 114 -77 143q-36 13 -94 13h-68v5q0 55 47 76q17 7 36 7q65 -1 81 -46l76 25q-29 82 -122 97q-16 3 -34 3
q-80 -1 -125 -53q-46 53 -125 53q-98 0 -142 -69q-8 -15 -14 -31zM284 -9h57q195 0 238 118q13 38 13 88h-87q0 -94 -88 -114q-30 -7 -72 -7h-66q-117 0 -147 57q-13 26 -13 64h-87q0 -144 111 -185q55 -21 141 -21z" />
    <glyph glyph-name="si_Pha" unicode="&#xdb5;" horiz-adv-x="557" 
d="M242 -2v89q-80 0 -113 55q-12 22 -12 46q0 68 53 85q28 9 77 9h65v79q0 77 -66 112q-34 17 -74 17q-81 0 -117 -59q-8 -15 -13 -31l67 -18q18 36 63 38q47 0 65 -35q6 -13 6 -27q-110 0 -156 -38q-5 -4 -9 -7q-46 -47 -47 -127q0 -84 70 -141q60 -47 141 -47zM238 628
q0 -110 85 -151q31 -14 70 -18v62q-90 6 -96 95v11v41q102 0 129 -73q13 -37 13 -97v-253q-2 -157 -141 -158v-89q207 0 227 200q2 23 2 47v272q0 227 -209 237q-10 1 -21 1h-59v-127z" />
    <glyph glyph-name="si_Ba" unicode="&#xdb6;" horiz-adv-x="597" 
d="M30 182q0 -141 101 -172q34 -10 80 -10v87q-70 0 -88 42q-9 22 -9 56v91q0 58 45 77q13 5 27 5q45 0 64 -41q8 -19 8 -41v-136q0 -89 73 -128q34 -18 75 -18q79 0 126 57q35 44 35 107v349q0 233 -203 247q-13 1 -26 1h-16v-87h16q131 0 140 -146q1 -12 1 -25v-340
q0 -52 -44 -67q-12 -4 -24 -4q-43 0 -61 37q-7 16 -7 34v121q0 106 -77 150q-35 19 -76 19q-78 0 -125 -58q-35 -44 -35 -105v-102zM41 564l85 -22q0 82 73 114q31 13 66 13v86q-93 0 -161 -60q-62 -55 -63 -131z" />
    <glyph glyph-name="si_Bha" unicode="&#xdb7;" horiz-adv-x="748" 
d="M379 327v5v9t-1 11v4q2 119 93 120v88q-100 -1 -146 -70q-28 57 -99 68q-14 2 -26 2q-76 0 -114 -54q-11 -17 -17 -36l67 -17q18 34 62 37q55 0 69 -46q3 -11 3 -23h-240v-77h71q-32 -34 -32 -96v-55q0 -123 81 -176q46 -29 110 -29v88q-79 0 -98 75q-5 20 -5 42v50
q0 84 68 98q16 3 35 3h32v-91h44q73 -2 73 -88q-2 -88 -93 -89v-88q155 0 170 134q2 14 2 29v33q0 113 -80 135q-14 3 -29 4zM527 -8q131 0 174 113q17 45 17 103v138q0 151 -100 199q-40 19 -91 19v-88q102 -5 104 -130v-138q0 -106 -74 -125q-15 -3 -30 -3v-88z" />
    <glyph glyph-name="si_Ma" unicode="&#xdb8;" horiz-adv-x="584" 
d="M30 252v67q0 100 67 140q27 16 57 16q57 0 84 -47q14 -25 14 -56v-41q5 -26 29 -29q26 4 29 29v138h65v-145q0 -65 -55 -87q-18 -7 -37 -7q-55 0 -80 41q-11 20 -11 44v41q0 30 -26 38q-5 2 -11 2q-29 0 -40 -35q-4 -14 -4 -29v-80q0 -155 122 -166q9 -1 18 -1v-87
q-179 0 -213 173q-8 38 -8 81zM307 -2v87q129 0 154 101q6 27 6 60v260q0 137 -108 158q-23 4 -52 4v87q234 0 246 -224q1 -12 1 -25v-260q-7 -245 -247 -248zM32 564q0 86 80 145q65 46 139 46v-87q-71 0 -109 -50q-25 -33 -25 -76z" />
    <glyph glyph-name="si_Mba" unicode="&#xdb9;" horiz-adv-x="594" 
d="M187 -11q-91 0 -133 75q-24 42 -24 98v191q0 77 63 110q28 14 59 14q65 0 94 -49q16 -27 16 -61v-36q0 -24 23 -28q4 -1 6 -1q26 6 30 29v138h64v-145q0 -65 -55 -87q-18 -7 -37 -7q-55 0 -80 41q-11 20 -11 44v35q0 35 -31 44q-6 2 -12 2q-31 0 -40 -30q-3 -9 -3 -18
v-181q0 -51 36 -76q18 -12 38 -12q32 2 33 36q0 3 -1 12q-4 61 23 73q9 4 20 4h62q47 0 43 -67v-9q-1 -10 -1 -13q2 -35 34 -36q45 0 66 47q8 20 8 41v340q0 151 -137 160q-10 1 -20 1v87q243 -2 244 -242v-351q0 -101 -69 -147q-39 -26 -89 -26q-61 1 -73 47q-5 15 -5 69
q-1 32 -32 33q-30 -2 -31 -33q0 -55 -5 -69q-13 -46 -73 -47zM125 542l-85 22q0 90 84 148q64 43 141 43v-86q-80 0 -119 -54q-21 -31 -21 -73z" />
    <glyph glyph-name="si_Ya" unicode="&#xdba;" horiz-adv-x="642" 
d="M30 149q0 -86 71 -129q42 -24 96 -24q80 1 121 57q43 -56 125 -57q100 0 143 69q23 36 23 84v48h-86v-42q0 -53 -52 -68q-14 -4 -29 -4q-57 0 -76 42q-6 15 -6 31v41h-81v-41q0 -53 -50 -68q-15 -5 -31 -5q-57 0 -75 43q-6 14 -6 29v42h-87v-48zM294 325h170q47 0 55 -27
q3 -10 3 -21v-31h87v38q0 100 -91 115q-19 3 -39 3h-103q0 77 64 84q8 1 15 1q61 -1 81 -43l73 24q-42 96 -154 97q-102 0 -142 -79q-19 -40 -19 -94v-67zM30 246h87v84q0 117 83 144q21 7 46 7h19v82h-17q-116 0 -176 -80q-42 -57 -42 -143v-94z" />
    <glyph glyph-name="si_Ra" unicode="&#xdbb;" horiz-adv-x="529" 
d="M30 238q0 -175 120 -227q41 -17 89 -17v89q-104 0 -119 108q-3 20 -3 44v184q0 58 16 86q15 26 48 55l232 209l-94 24l-211 -186q-73 -63 -77 -151q-1 -11 -1 -29v-189zM175 483v-3h127q76 0 98 -54q12 -31 12 -82v-109q0 -114 -59 -141q-24 -10 -58 -10v-89
q154 0 191 131q13 47 13 109v129q-2 199 -166 200h-76z" />
    <glyph glyph-name="si_La" unicode="&#xdbd;" horiz-adv-x="615" 
d="M263 225q0 -93 72 -131q36 -19 84 -19q95 0 140 73q26 44 26 104v81q-1 238 -248 239v-87q157 -9 161 -152v-81q0 -60 -46 -81q-16 -7 -34 -7q-52 0 -67 43q-5 14 -5 28v37h59v74h-201v-74h59v-47zM276 -170v87q-122 0 -150 99q-8 27 -8 59v253q0 131 114 153q21 4 44 4
v87q-173 0 -225 -127q-21 -50 -21 -117v-253q0 -185 152 -232q43 -13 94 -13zM337 -84v-87q192 2 238 165l-84 23q-35 -100 -154 -101z" />
    <glyph glyph-name="si_Va" unicode="&#xdc0;" horiz-adv-x="559" 
d="M243 -2q-105 0 -167 73q-43 51 -43 115q0 81 39 120q4 4 8 7q45 43 149 45h15q0 43 -43 58q-13 4 -27 4q-47 0 -62 -34q-1 -3 -1 -4l-67 18q22 74 101 88q15 2 29 2q77 0 117 -54q23 -33 23 -75v-79h-65q-91 0 -115 -35q-15 -22 -15 -59q0 -55 49 -84q32 -19 75 -19v-87z
M299 -2v87q141 2 142 160v261q0 126 -80 153q-26 9 -62 9v87q207 0 228 -190q2 -23 2 -48v-272q0 -221 -183 -244q-23 -3 -47 -3zM30 564q0 85 77 143q64 48 136 48v-86q-63 0 -101 -48q-27 -35 -27 -79z" />
    <glyph glyph-name="si_Sha" unicode="&#xdc1;" horiz-adv-x="710" 
d="M488 -8q133 0 175 116q16 44 17 100v140q-1 145 -96 195q-42 21 -96 21v-88q89 0 102 -101q2 -15 2 -31v-136q0 -112 -81 -126q-12 -2 -23 -2v-88zM221 -8v88q-85 0 -101 90q-3 18 -3 38v136q0 116 82 130q11 2 22 2v88q-131 0 -174 -113q-17 -45 -17 -103v-140
q0 -143 94 -194q42 -22 97 -22zM253 257h45q71 -2 72 -88q-2 -88 -93 -89v-88q162 2 172 153q0 75 81 88q15 2 31 2v70q-88 -1 -130 -39q-28 49 -84 54h-7v36q2 119 92 120v88q-154 0 -176 -158q-3 -25 -3 -51v-98z" />
    <glyph glyph-name="si_Ssa" unicode="&#xdc2;" 
d="M39 469l76 -25q17 45 81 46q56 0 77 -46q7 -17 7 -37v-3h-86q-126 0 -154 -87q-10 -31 -10 -71h87q0 60 40 75q18 6 43 6h143q-78 -63 -79 -159l84 1q1 93 104 158q58 -4 67 -49q3 -13 3 -32h87q0 115 -76 144q-36 14 -95 14h-77v3q0 56 47 76q18 7 37 7q63 -1 81 -46
l76 25q-30 83 -124 97q-16 3 -33 3q-80 -1 -125 -53q-45 52 -125 53q-97 0 -141 -69q-9 -15 -15 -31zM282 -9h76q195 0 238 118q13 38 13 88h-87q0 -94 -88 -114q-30 -7 -72 -7h-85q-119 0 -148 60q-12 25 -12 61h-87q0 -144 111 -185q55 -21 141 -21z" />
    <glyph glyph-name="si_Sa" unicode="&#xdc3;" horiz-adv-x="682" 
d="M72 149q0 -86 71 -129q42 -24 96 -24q80 1 122 57q43 -57 125 -57q98 0 142 67q24 37 24 86v48h-87v-42q0 -54 -53 -68q-13 -4 -28 -4q-58 0 -75 43q-6 14 -6 30v41h-82v-41q0 -54 -51 -69q-15 -4 -30 -4q-57 0 -75 43q-6 14 -6 29v42h-87v-48zM81 469l76 -25
q19 45 81 46q56 0 77 -46q7 -17 7 -37v-5h-292v-77h59q-16 -10 -16 -46q-1 -4 -1 -33h87q0 28 3 34q9 43 55 45h291q50 0 53 -42v-2q4 -4 4 -35h87v38q-2 117 -134 118h-115v5q0 56 47 76q18 7 37 7q65 -1 81 -46l76 25q-29 82 -122 97q-16 3 -34 3q-79 0 -123 -50
q-1 -2 -2 -3q-46 52 -126 53q-97 0 -141 -69q-9 -15 -15 -31z" />
    <glyph glyph-name="si_Ha" unicode="&#xdc4;" horiz-adv-x="709" 
d="M339 327v30q2 118 93 119v88q-97 -1 -143 -65q-33 57 -108 64q-9 1 -16 1q-75 0 -113 -54q-11 -17 -17 -36l67 -17q15 36 62 37q52 0 67 -41q4 -11 4 -24h-21q-183 -5 -184 -185v-47q0 -125 83 -177q46 -28 108 -28v88q-78 0 -99 74q-5 20 -5 43v43q0 90 80 100
q12 1 24 1h31v-84h45q71 -4 72 -88q-2 -88 -92 -89v-88q147 0 169 122q3 20 3 41v33q0 115 -82 135q-14 3 -28 4zM488 -8q131 0 174 113q17 45 17 103v140q0 143 -94 194q-42 22 -97 22v-88q89 0 102 -101q2 -15 2 -31v-136q0 -106 -74 -125q-15 -3 -30 -3v-88z" />
    <glyph glyph-name="si_Lla" unicode="&#xdc5;" horiz-adv-x="609" 
d="M111 418l76 11q2 65 56 66q42 0 51 -42q2 -8 2 -17h61q0 44 35 56q9 3 18 3q47 0 53 -47q1 -6 1 -11h76q0 94 -73 122q-26 10 -57 10q-54 -1 -83 -38q-30 38 -85 38q-91 0 -120 -71q-11 -26 -11 -57v-23zM30 77q0 -169 130 -225q54 -22 123 -22v88q-122 0 -154 91
q-11 30 -11 67v96q0 43 15 71q20 -96 93 -136q41 -23 94 -23h43q115 0 167 91q6 12 11 24l-75 20q-21 -52 -91 -57q-7 -1 -14 -1h-37q-82 0 -116 84q-10 26 -13 54q19 6 37 6h308v83h-325q-77 -1 -132 -58q-53 -55 -53 -136v-117zM344 -83v-87q203 0 243 161l2 10l-85 23
q-27 -106 -160 -107z" />
    <glyph glyph-name="si_Fa" unicode="&#xdc6;" 
d="M30 246v165q0 93 77 133q39 20 89 20q83 -1 125 -56q43 56 122 56q94 0 140 -65q26 -38 26 -88v-165h-86v159q0 53 -52 68q-14 4 -29 4q-60 0 -77 -44q-5 -14 -5 -29v-158h-81v158q0 55 -54 70q-14 3 -28 3q-58 0 -75 -43q-5 -14 -5 -29v-159h-87zM30 197h87
q0 -84 68 -104q18 -5 40 -5v-88q-140 0 -181 113q-14 38 -14 84zM414 0v88q94 0 107 85q2 12 2 24h86q0 -130 -94 -176q-42 -21 -101 -21z" />
    <glyph glyph-name="si_Halant" unicode="&#xdca;" horiz-adv-x="145" 
d="M30 619v200h85v-200h-85z" />
    <glyph glyph-name="si_MatraAa" unicode="&#xdcf;" horiz-adv-x="268" 
d="M30 0v88h20q99 2 100 113v162q-1 116 -100 117h-20v89h20q187 -2 188 -201v-167q-2 -200 -188 -201h-20z" />
    <glyph glyph-name="si_MatraAe" unicode="&#xdd0;" horiz-adv-x="266" 
d="M210 0h26v88h-26q-92 1 -93 104l1 88q-1 54 16 85q19 33 102 126v83h-206v-86h101q-72 -80 -87 -114q-14 -32 -14 -88v-91q0 -148 111 -185q32 -10 69 -10z" />
    <glyph glyph-name="si_MatraAae" unicode="&#xdd1;" horiz-adv-x="277" 
d="M41 211v-43q2 -167 179 -168h27v88h-27q-86 0 -91 78q-1 7 -1 14v31q0 32 17 52q22 25 102 82v73h-99l99 83v73h-206v-73h97l-97 -83v-73h89q-71 -53 -83 -89q-6 -17 -6 -45z" />
    <glyph glyph-name="si_MatraI" unicode="&#xdd2;" horiz-adv-x="0" 
d="M-579 602v28q0 84 70 129q46 30 106 30h171q94 0 144 -64q32 -42 32 -95v-28h-82q0 103 -108 105h-2h-139q-109 -3 -110 -105h-82z" />
    <glyph glyph-name="si_MatraIi" unicode="&#xdd3;" horiz-adv-x="0" 
d="M-151 580q57 0 83 49q13 24 13 52q0 81 -76 113q-34 14 -76 14h-211q-84 0 -137 -66q-39 -49 -39 -109v-31h83q0 85 58 113q22 11 51 11h153q17 0 29 -1q-23 -25 -24 -57q0 -51 45 -76q22 -12 48 -12z" />
    <glyph glyph-name="si_MatraU" unicode="&#xdd4;" horiz-adv-x="0" 
d="M-133 128v-246h-123v-87h210v333h-87zM-494 -118v-87h182v87h-182z" />
    <glyph glyph-name="si_MatraUu" unicode="&#xdd6;" horiz-adv-x="0" 
d="M-502 -83v-88q40 -31 73 -31q19 0 68 19q30 11 51 11v88q-22 0 -71 -19q-28 -11 -48 -11q-35 1 -73 31zM-134 -205h87v328h-87v-237q-58 30 -120 30v-88q62 -1 120 -33z" />
    <glyph glyph-name="si_MatraR" unicode="&#xdd8;" horiz-adv-x="343" 
d="M166 0q-74 0 -118 56q-29 39 -29 90q0 79 59 120q38 25 88 25h21v-75h-21q-46 0 -64 -39q-7 -15 -7 -31q0 -40 36 -60q17 -9 35 -9q41 0 60 36q8 16 8 33l1 245q-3 95 -72 96h-90v82h97q88 0 124 -80q18 -40 18 -90v-253q0 -82 -66 -123q-37 -23 -80 -23z" />
    <glyph glyph-name="si_MatraE" unicode="&#xdd9;" horiz-adv-x="457" 
d="M249 482q79 0 94 -62q1 -5 2 -9l79 20q-8 60 -57 100q-42 33 -97 33h-62q-131 0 -167 -118q-11 -36 -11 -75v-173q0 -137 78 -183q34 -20 80 -20h21v82q-78 0 -91 77q-3 19 -3 44v173q0 93 72 108q13 3 27 3h35zM233 272h53q43 0 52 -23q4 -10 4 -22v-68q-2 -81 -85 -82
v-82h26q91 0 127 80q17 37 17 82v98q0 91 -88 98q-9 1 -19 1h-87v-82z" />
    <glyph glyph-name="si_MatraEe" unicode="&#xdda;" horiz-adv-x="745" 
d="M249 482q79 0 94 -62q1 -5 2 -9l79 20q-8 60 -57 100q-42 33 -97 33h-62q-131 0 -167 -118q-11 -36 -11 -75v-173q0 -137 78 -183q34 -20 80 -20h21v82q-78 0 -91 77q-3 19 -3 44v173q0 93 72 108q13 3 27 3h35zM233 272h53q43 0 52 -23q4 -10 4 -22v-68q-2 -81 -85 -82
v-82h26q91 0 127 80q17 37 17 82v98q0 91 -88 98q-9 1 -19 1h-87v-82zM630 619h85v200h-85v-200z" />
    <glyph glyph-name="si_MatraAi" unicode="&#xddb;" horiz-adv-x="888" 
d="M249 482q79 0 94 -62q1 -5 2 -9l79 20q-8 60 -57 100q-42 33 -97 33h-62q-131 0 -167 -118q-11 -36 -11 -75v-173q0 -137 78 -183q34 -20 80 -20h21v82q-78 0 -91 77q-3 19 -3 44v173q0 93 72 108q13 3 27 3h35zM233 272h53q43 0 52 -23q4 -10 4 -22v-68q-2 -81 -85 -82
v-82h26q91 0 127 80q17 37 17 82v98q0 91 -88 98q-9 1 -19 1h-87v-82zM680 485q79 0 94 -62q1 -5 2 -9l79 20q-8 60 -57 100q-42 33 -97 33h-62q-131 0 -167 -118q-11 -36 -11 -75v-173q0 -137 78 -183q34 -20 80 -20h21v82q-78 0 -91 77q-3 19 -3 44v173q0 93 72 108
q13 3 27 3h35zM664 275h53q43 0 52 -23q4 -10 4 -22v-68q-2 -81 -85 -82v-82h26q91 0 127 80q17 37 17 82v98q0 91 -88 98q-9 1 -19 1h-87v-82z" />
    <glyph glyph-name="si_MatraO" unicode="&#xddc;" horiz-adv-x="792" 
d="M249 482q79 0 94 -62q1 -5 2 -9l79 20q-8 60 -57 100q-42 33 -97 33h-62q-131 0 -167 -118q-11 -36 -11 -75v-173q0 -137 78 -183q34 -20 80 -20h21v82q-78 0 -91 77q-3 19 -3 44v173q0 93 72 108q13 3 27 3h35zM233 272h53q43 0 52 -23q4 -10 4 -22v-68q-2 -81 -85 -82
v-82h26q91 0 127 80q17 37 17 82v98q0 91 -88 98q-9 1 -19 1h-87v-82zM554 0h20q187 2 188 201v167q-2 200 -188 201h-20v-89h20q99 -2 100 -117v-162q-1 -112 -100 -113h-20v-88z" />
    <glyph glyph-name="si_MatraOo" unicode="&#xddd;" horiz-adv-x="792" 
d="M249 482q79 0 94 -62q1 -5 2 -9l79 20q-8 60 -57 100q-42 33 -97 33h-62q-131 0 -167 -118q-11 -36 -11 -75v-173q0 -137 78 -183q34 -20 80 -20h21v82q-78 0 -91 77q-3 19 -3 44v173q0 93 72 108q13 3 27 3h35zM233 272h53q43 0 52 -23q4 -10 4 -22v-68q-2 -81 -85 -82
v-82h26q91 0 127 80q17 37 17 82v98q0 91 -88 98q-9 1 -19 1h-87v-82zM554 0h20q187 2 188 201v167q-2 200 -188 201h-20v-89h20q99 -2 100 -117v-162q-1 -112 -100 -113h-20v-88zM553 619h85v200h-85v-200z" />
    <glyph glyph-name="si_MatraAu" unicode="&#xdde;" horiz-adv-x="1011" 
d="M249 482q79 0 94 -62q1 -5 2 -9l79 20q-8 60 -57 100q-42 33 -97 33h-62q-131 0 -167 -118q-11 -36 -11 -75v-173q0 -137 78 -183q34 -20 80 -20h21v82q-78 0 -91 77q-3 19 -3 44v173q0 93 72 108q13 3 27 3h35zM233 272h53q43 0 52 -23q4 -10 4 -22v-68q-2 -81 -85 -82
v-82h26q91 0 127 80q17 37 17 82v98q0 91 -88 98q-9 1 -19 1h-87v-82zM814 -8q86 0 138 57q39 45 39 108v295q-1 75 -60 105q-24 12 -49 12q-62 0 -91 -48q-14 -25 -14 -57v-37q0 -31 -28 -37q-5 -1 -9 -1q-27 0 -34 25q-2 7 -2 13v137h-65v-154q0 -74 59 -100q21 -9 44 -9
q55 0 82 44q13 23 13 51v50q0 32 28 38q4 1 8 1q28 0 35 -26q2 -7 2 -13v-290q0 -58 -55 -78q-18 -6 -38 -6q-57 0 -84 39q-13 20 -13 45v46h-81v-45q0 -98 82 -142q42 -23 93 -23z" />
    <glyph glyph-name="si_MatraLs" unicode="&#xddf;" horiz-adv-x="401" 
d="M194 -8q-88 0 -139 59q-36 44 -36 106v45h81v-46q0 -54 54 -76q21 -8 43 -8q58 0 82 42q11 19 11 42v290q0 32 -28 38q-5 1 -9 1q-27 0 -34 -26q-2 -7 -2 -13v-50q0 -62 -53 -86q-20 -9 -42 -9q-59 0 -87 47q-16 27 -16 62v154h65v-137q0 -31 28 -37q4 -1 8 -1
q28 0 35 25q2 7 2 13v37q0 70 59 96q22 9 46 9q57 0 89 -47q19 -30 20 -70v-295q0 -96 -82 -141q-43 -24 -95 -24z" />
    <glyph glyph-name="si_MatraRr" unicode="&#xdf2;" horiz-adv-x="694" 
d="M177 0q-73 0 -116 55q-31 40 -31 91q0 78 59 119q37 26 88 26h22v-75h-22q-44 0 -63 -38q-7 -15 -7 -32q0 -40 36 -60q17 -9 34 -9q42 0 61 36q8 16 8 33v245q-8 90 -72 96h-90v82h98q88 0 124 -80q18 -40 18 -90v-253q0 -81 -66 -123q-37 -23 -81 -23zM517 0
q-73 0 -116 55q-31 40 -31 91q0 78 59 119q37 26 88 26h22v-75h-22q-44 0 -63 -37q-8 -16 -8 -33q0 -40 36 -60q16 -9 35 -9q40 0 60 35q9 16 9 34v245q-3 95 -72 96h-90v82h97q88 0 125 -79q18 -40 18 -91v-253q0 -81 -66 -123q-37 -23 -81 -23z" />
    <glyph glyph-name="si_MatraLl" unicode="&#xdf3;" horiz-adv-x="401" 
d="M195 -8q-87 0 -137 59q-37 44 -37 106v45h81v-46q0 -55 54 -76q20 -8 42 -8q58 0 82 42q11 19 11 42v290q0 32 -28 38q-4 1 -8 1q-26 0 -35 -25q-2 -7 -2 -14v-50q0 -62 -53 -86q-20 -9 -42 -9q-59 0 -87 48q-15 27 -15 61v154h64v-137q0 -29 27 -37q5 -1 10 -1
q27 0 34 25q2 7 2 13v37q0 69 58 95q23 10 47 10q59 0 90 -49q18 -29 19 -68v-295q0 -96 -82 -141q-43 -24 -95 -24z" />
    <glyph glyph-name="si_kundaliya" unicode="&#xdf4;" horiz-adv-x="1559" 
d="M584 470l66 -36q-124 -243 -155 -293q-58 -93 -115 -121q-43 -20 -110 -20h-120v74h120q71 0 113 42q45 42 124 200q18 35 77 154zM736 487l65 -36l-222 -451l-66 37zM826 377l65 -36l-168 -341l-67 37zM867 0l-66 37l117 239q178 -120 232 -148q101 -54 181 -54h110v-74
h-112q-121 0 -270 91q-40 25 -111 74z" />
    <glyph glyph-name="zwnj" unicode="&#x200c;" horiz-adv-x="0" 
d="M-40 4v744h78v-744h-78z" />
    <glyph glyph-name="zwj" unicode="&#x200d;" horiz-adv-x="0" 
d="M-39 5h78v554l99 -70l38 52l-120 85l121 87l-38 50l-139 -98l-139 98l-41 -50l124 -87l-121 -85l42 -52l96 69v-553z" />
    <glyph glyph-name="endash" unicode="&#x2013;" horiz-adv-x="532" 
d="M26 254v80h480v-80h-480z" />
    <glyph glyph-name="emdash" unicode="&#x2014;" horiz-adv-x="906" 
d="M26 253v80h854v-80h-854z" />
    <glyph glyph-name="quoteleft" unicode="&#x2018;" horiz-adv-x="151" 
d="M35 465v271h81v-271h-81z" />
    <glyph glyph-name="quoteright" unicode="&#x2019;" horiz-adv-x="151" 
d="M35 465v271h81v-271h-81z" />
    <glyph glyph-name="quotesinglbase" unicode="&#x201a;" horiz-adv-x="151" 
d="M35 465v271h81v-271h-81z" />
    <glyph glyph-name="quotedblleft" unicode="&#x201c;" horiz-adv-x="285" 
d="M35 465v271h81v-271h-81zM169 465v271h81v-271h-81z" />
    <glyph glyph-name="quotedblright" unicode="&#x201d;" horiz-adv-x="285" 
d="M35 465v271h81v-271h-81zM169 465v271h81v-271h-81z" />
    <glyph glyph-name="quotedblbase" unicode="&#x201e;" horiz-adv-x="290" 
d="M144 -23l37 152h81l-37 -152h-81zM17 -23l37 152h81l-37 -152h-81z" />
    <glyph glyph-name="dagger" unicode="&#x2020;" horiz-adv-x="453" 
d="M26 473v80h157v211h87v-211h157v-80h-157v-529h-87v529h-157z" />
    <glyph glyph-name="daggerdbl" unicode="&#x2021;" horiz-adv-x="453" 
d="M26 154v80h157v240h-157v80h157v210h88v-210h156v-80h-156v-240h156v-80h-156v-210h-88v210h-157z" />
    <glyph glyph-name="bullet" unicode="&#x2022;" horiz-adv-x="352" 
d="M74 345q0 57 47 87q25 16 55 16q58 0 87 -49q15 -24 15 -54q0 -58 -48 -88q-25 -15 -54 -15q-57 0 -87 48q-15 26 -15 55z" />
    <glyph glyph-name="ellipsis" unicode="&#x2026;" horiz-adv-x="635" 
d="M41 28q0 33 30 45q9 4 19 4q32 0 45 -29q4 -10 4 -20q0 -33 -29 -46q-10 -4 -20 -4q-34 0 -46 31q-3 9 -3 19zM269 28q0 32 29 45q10 4 20 4q32 0 45 -29q4 -10 4 -20q0 -33 -29 -46q-10 -4 -20 -4q-32 0 -45 30q-4 10 -4 20zM496 28q0 32 29 45q10 4 20 4q32 0 45 -29
q4 -10 4 -20q0 -33 -29 -46q-10 -4 -20 -4q-32 0 -45 30q-4 10 -4 20z" />
    <glyph glyph-name="perthousand" unicode="&#x2030;" horiz-adv-x="897" 
d="M121 352v52q-39 5 -49 77q-2 19 -2 41v20q1 84 39 104q6 3 12 4v51q-63 -1 -89 -73q-15 -41 -15 -100q0 -149 82 -173q11 -3 22 -3zM150 352q66 2 91 80q13 40 13 96q0 142 -78 168q-13 5 -26 5v-51q32 -4 45 -58q6 -23 6 -50v-20q0 -103 -45 -117q-3 -1 -6 -1v-52z
M488 0v52q-39 5 -49 77q-2 19 -2 41v20q1 84 39 104q6 3 12 4v51q-63 -1 -89 -73q-15 -41 -15 -100q0 -149 82 -173q11 -3 22 -3zM517 0q66 2 91 80q13 40 13 96q0 142 -78 168q-13 5 -26 5v-51q32 -4 45 -58q6 -23 6 -50v-20q0 -103 -45 -117q-3 -1 -6 -1v-52zM746 0v52
q-37 5 -47 72q-3 21 -3 46v20q0 84 39 104q6 3 12 4v51q-63 -1 -89 -73q-15 -41 -15 -100q0 -147 80 -172q12 -4 23 -4zM776 0q63 2 89 75q14 42 14 101q0 142 -78 168q-13 5 -26 5v-51q33 -4 46 -58q5 -23 5 -50v-20q0 -101 -43 -116q-4 -2 -7 -2v-52zM78 0h58l429 700h-55
z" />
    <glyph glyph-name="guilsinglleft" unicode="&#x2039;" horiz-adv-x="338" 
d="M53 292l131 208h99l-131 -208l131 -213h-99z" />
    <glyph glyph-name="guilsinglright" unicode="&#x203a;" horiz-adv-x="338" 
d="M54 79l131 213l-131 208h99l131 -208l-131 -213h-99z" />
    <glyph glyph-name="fraction" unicode="&#x2044;" horiz-adv-x="511" 
d="M12 -1l432 702h55l-429 -702h-58z" />
    <glyph glyph-name="Euro" unicode="&#x20ac;" horiz-adv-x="528" 
d="M51 271v46h43v60h-43v46h43v85q0 74 53 132q56 61 137 62v-86q-67 0 -95 -59q-10 -22 -10 -44v-90h230v-46h-230v-60h230v-46h-230v-80q0 -56 42 -87q27 -20 63 -20v-86q-104 3 -159 89q-29 46 -31 94v90h-43zM336 -2v86q47 3 77 39q16 19 22 44q0 2 0.5 4t1 4.5t0.5 5.5
t0.5 6t0.5 5.5t0.5 5.5t0.5 5v4v3v2l82 -28q0 -76 -64 -135q-56 -50 -121 -51zM336 616v86q87 -1 143 -70q42 -52 42 -117l-83 -29q0 37 -3 46q-20 68 -83 82q-9 2 -16 2z" />
    <glyph glyph-name="uni2113" unicode="&#x2113;" horiz-adv-x="190" 
d="M56 180v519h83v-519q0 -82 63 -97q9 -2 17 -2v-87q-67 0 -114 49q-49 51 -49 137z" />
    <glyph glyph-name="trademark" unicode="&#x2122;" horiz-adv-x="435" 
d="M26 667v33h135v-33h-50v-182h-34v182h-51zM184 485v151h4l30 -72v-79h-34zM184 681v19h29l64 -156l48 106h5v-68l-42 -97h-22zM343 485v215h34v-215h-34z" />
    <glyph glyph-name="uni2126" unicode="&#x2126;" horiz-adv-x="445" 
d="M25 -1v47h65q-44 38 -49 88q-1 4 -1 8v235q0 48 42 91q49 49 122 49v-75q-58 0 -80 -48q-7 -16 -7 -30v-209q0 -37 34 -62q24 -17 53 -17v-77h-179zM251 -1v77q56 0 77 48q7 15 7 30v210q0 38 -33 62q-22 16 -51 16v75q93 0 140 -73q22 -35 22 -67v-235q0 -42 -37 -84
l-12 -12h64v-47h-177z" />
    <glyph glyph-name="estimated" unicode="&#x212e;" horiz-adv-x="531" 
d="M225 -1q-95 0 -153 76q-42 56 -42 129v297q0 90 65 151q55 53 130 53v-86q-60 -1 -90 -58q-18 -35 -18 -81v-112h271v112q0 93 -61 127q-22 11 -47 12v86q92 0 151 -75q44 -58 44 -129v-219h-358v-57q0 -99 65 -130q21 -9 43 -10v-86zM281 -1v87q54 1 88 43q16 20 20 41
l86 -23q-13 -75 -87 -118q-50 -30 -107 -30z" />
    <glyph glyph-name="partialdiff" unicode="&#x2202;" horiz-adv-x="420" 
d="M28 141v235q0 46 42 89q49 51 122 51v-76q-56 0 -78 -49q-8 -17 -8 -33v-204q0 -37 34 -62q24 -17 52 -17v-76q-92 0 -141 74q-23 36 -23 68zM70 668v46q215 0 283 -105q39 -62 39 -163v-305q0 -47 -41 -91q-47 -50 -118 -51v76q52 0 75 47q8 16 8 32l-1 210q0 41 -36 64
q-21 12 -46 12v76q47 -1 79 -26q0 129 -139 166q-47 12 -103 12z" />
    <glyph glyph-name="uni2206" unicode="&#x2206;" horiz-adv-x="556" 
d="M54 0l158 597h9l33 -130l-103 -387h250l-164 623h78l187 -703h-448z" />
    <glyph glyph-name="product" unicode="&#x220f;" horiz-adv-x="494" 
d="M15 615v82h464v-82h-54v-755h-80v755h-197v-755h-80v755h-53z" />
    <glyph glyph-name="summation" unicode="&#x2211;" horiz-adv-x="613" 
d="M220 615l-60 78v9h368v-87h-308zM30 -140v91l257 348l-257 338v65h62l306 -406l-258 -345l388 1v-92h-498z" />
    <glyph glyph-name="minus" unicode="&#x2212;" horiz-adv-x="416" 
d="M45 254v80h316v-80h-316z" />
    <glyph glyph-name="uni2215" unicode="&#x2215;" horiz-adv-x="511" 
d="M12 -1l432 702h55l-429 -702h-58z" />
    <glyph glyph-name="uni2219" unicode="&#x2219;" horiz-adv-x="250" 
d="M35 420q0 36 32 51q12 6 24 6q35 0 51 -33q5 -12 5 -24q0 -34 -31 -49q-13 -6 -25 -6q-35 0 -50 31q-6 12 -6 24z" />
    <glyph glyph-name="radical" unicode="&#x221a;" horiz-adv-x="597" 
d="M6 513l183 66l174 -431l136 671h88l-164 -820h-92l-197 483l-105 -37z" />
    <glyph glyph-name="infinity" unicode="&#x221e;" horiz-adv-x="798" 
d="M235 -1v76q43 0 59 34q1 1 1 2l65 149l-64 145q-16 35 -61 36v75q73 0 115 -52q9 -12 15 -25l37 -89l36 88q24 54 87 72q21 6 43 6v-76q-46 -1 -61 -36l-63 -144l64 -148q15 -35 60 -36v-76q-72 0 -114 55q-8 11 -13 22l-39 93l-40 -93q-27 -56 -89 -73q-19 -5 -38 -5z
M194 -1q-92 0 -141 75q-23 36 -23 67v235q0 46 42 89q49 51 122 51v-75q-57 0 -79 -48q-7 -16 -7 -30v-209q0 -37 34 -62q24 -17 52 -17v-76zM609 -1v76q51 0 76 46q9 17 9 32v210q0 43 -38 65q-21 12 -47 12v76q89 0 137 -72q25 -36 25 -68v-235q0 -46 -41 -90
q-49 -51 -121 -52z" />
    <glyph glyph-name="integral" unicode="&#x222b;" horiz-adv-x="311" 
d="M15 -142q31 -8 63 16q49 37 49 123v628q0 113 80 162q46 27 89 19v-45q-29 10 -62 -14q-48 -36 -48 -122v-628q0 -113 -79 -163q-47 -29 -92 -21v45z" />
    <glyph glyph-name="approxequal" unicode="&#x2248;" horiz-adv-x="568" 
d="M50 215v82q61 35 113 35q43 0 109 -35q65 -35 103 -38h12q58 1 131 45v-80q-76 -46 -137 -46q-47 0 -116 37q-72 34 -108 36q-52 -1 -107 -36zM50 402v82q61 35 113 35q43 0 109 -35q65 -35 103 -38h12q58 1 131 45v-80q-76 -46 -137 -46q-47 0 -116 37q-72 34 -108 36
q-52 -1 -107 -36z" />
    <glyph glyph-name="notequal" unicode="&#x2260;" horiz-adv-x="418" 
d="M72 -73h81l59 250h156v81h-137l16 67h121v81h-102l61 260h-80l-62 -260h-135v-81h116l-16 -67h-100v-81h81z" />
    <glyph glyph-name="lessequal" unicode="&#x2264;" horiz-adv-x="442" 
d="M405 149l-382 188v44l382 185v-80l-266 -127l266 -129v-81zM28 28v70h384v-70h-384z" />
    <glyph glyph-name="greaterequal" unicode="&#x2265;" horiz-adv-x="442" 
d="M30 149v81l266 129l-266 127v81l382 -185v-45zM28 28v71h384v-71h-384z" />
    <glyph glyph-name="lozenge" unicode="&#x25ca;" horiz-adv-x="421" 
d="M-3 352l188 354h47l186 -354l-189 -354h-47zM79 352l126 -246l132 246l-129 246z" />
    <glyph glyph-name="dottedcircle" unicode="&#x25cc;" horiz-adv-x="636" 
d="M159 484q0 30 27 40q8 3 16 3q30 0 40 -27q3 -8 3 -16q0 -31 -28 -41q-8 -3 -15 -3q-30 0 -40 28q-3 8 -3 16zM73 398q0 30 27 40q8 3 16 3q31 0 41 -28q3 -8 3 -15q0 -30 -28 -40q-8 -3 -16 -3q-30 0 -40 27q-3 8 -3 16zM159 72q0 31 28 41q8 3 15 3q30 0 40 -28
q3 -8 3 -16q0 -30 -27 -40q-8 -3 -16 -3q-30 0 -40 27q-3 8 -3 16zM73 158q0 30 27 40q8 3 16 3q31 0 41 -28q3 -8 3 -15q0 -30 -28 -40q-8 -3 -16 -3q-30 0 -40 27q-3 8 -3 16zM399 72q0 31 28 41q8 3 15 3q30 0 40 -28q3 -8 3 -16q0 -30 -27 -40q-8 -3 -16 -3
q-30 0 -40 27q-3 8 -3 16zM484 158q0 30 28 40q8 3 16 3q30 0 40 -27q3 -8 3 -16q0 -30 -27 -40q-8 -3 -16 -3q-31 0 -41 28q-3 8 -3 15zM484 398q0 30 28 40q8 3 16 3q30 0 40 -27q3 -8 3 -16q0 -30 -27 -40q-8 -3 -16 -3q-31 0 -41 28q-3 8 -3 15zM399 484q0 30 27 40
q8 3 16 3q30 0 40 -27q3 -8 3 -16q0 -31 -28 -41q-8 -3 -15 -3q-30 0 -40 28q-3 8 -3 16zM517 278q0 30 27 40q8 3 16 3q30 0 40 -27q3 -8 3 -16q0 -30 -27 -40q-8 -3 -16 -3q-30 0 -40 27q-3 8 -3 16zM279 40q0 30 27 40q8 3 16 3q30 0 40 -27q3 -8 3 -16q0 -30 -27 -40
q-8 -3 -16 -3q-30 0 -40 27q-3 8 -3 16zM41 278q0 30 27 40q8 3 16 3q30 0 40 -27q3 -8 3 -16q0 -30 -27 -40q-8 -3 -16 -3q-30 0 -40 27q-3 8 -3 16zM279 516q0 30 27 40q8 3 16 3q30 0 40 -27q3 -8 3 -16q0 -30 -27 -40q-8 -3 -16 -3q-30 0 -40 27q-3 8 -3 16z" />
    <glyph glyph-name="uni5713" unicode="&#x5713;" horiz-adv-x="843" 
d="M50 488v210h36v-87h15v-35h-15v-88h-36zM117 576v35h16v87h36v-210h-36v88h-16zM198 488v210h36v-210h-36zM248 606l40 92h36l-40 -92l41 -118h-36zM353 158l79 28q7 -42 33.5 -69t49.5 -33l23 -6v-125h-49v53q-73 20 -115 90q-20 34 -21 62zM361 511q0 106 93 160
q17 11 35 17v62h49v-132q-35 -4 -65 -37q-28 -31 -28 -71q0 -59 82 -86q6 -2 11 -4v-94q-43 12 -54 17q-85 35 -109 92q-14 33 -14 76zM588 -47v125q41 2 79 39q38 39 39 89q0 66 -87 97q-14 4 -31 9v91q64 -18 78 -24q90 -37 115 -101q13 -32 13 -72q0 -86 -68 -150
q-40 -37 -89 -51v-52h-49zM588 618v132h49v-60q70 -22 112 -95q14 -25 17 -42l-82 -27q-16 70 -81 89z" />
    <glyph glyph-name="mooniak" horiz-adv-x="952" 
d="M682 659q0 60 50 94q29 20 64 20q62 0 96 -50q19 -30 19 -64q0 -61 -51 -95q-29 -19 -64 -19q-60 0 -94 50q-20 29 -20 64zM25 385q0 131 93 223t222 92q131 0 223 -93q91 -93 91 -222q0 -131 -93 -223q-92 -91 -221 -91q-131 0 -223 92q-92 93 -92 222z" />
    <glyph glyph-name="quotedbl.alt" horiz-adv-x="285" 
d="M35 476v224h81v-224h-81zM169 476v224h81v-224h-81z" />
    <glyph glyph-name="si_B.halant" horiz-adv-x="597" 
d="M30 182q0 -141 101 -172q34 -10 80 -10v87q-70 0 -88 42q-9 22 -9 56v91q0 58 45 77q13 5 27 5q45 0 64 -41q8 -19 8 -41v-136q0 -89 73 -128q34 -18 75 -18q79 0 126 57q35 44 35 107v282q0 195 -192 211q-18 1 -36 1h-151q-41 0 -49 34q-1 6 -1 11q0 37 36 45q7 1 14 1
h81v76h-80q-100 0 -129 -66q-8 -20 -8 -40q1 -45 23 -61h-35v-87h299q121 0 137 -101q3 -17 3 -37v-270q0 -52 -44 -67q-12 -4 -24 -4q-43 0 -61 37q-7 16 -7 34v121q0 106 -77 150q-35 19 -76 19q-78 0 -125 -58q-35 -44 -35 -105v-102zM464 673h85q0 119 -98 141
q-24 5 -54 5h-72v-76h57q57 0 73 -26q9 -17 9 -44z" />
    <glyph glyph-name="si_BI" horiz-adv-x="597" 
d="M30 182q0 -141 101 -172q34 -10 80 -10v87q-70 0 -88 42q-9 22 -9 56v91q0 58 45 77q13 5 27 5q45 0 64 -41q8 -19 8 -41v-136q0 -89 73 -128q34 -18 75 -18q79 0 126 57q35 44 35 107v282q0 195 -192 211q-18 1 -36 1h-170q-36 0 -46 31q-2 8 -2 14q0 33 30 43q8 3 18 3
h101v76h-86q-91 0 -127 -66q-15 -28 -15 -59q0 -88 75 -117q29 -12 67 -12h155q121 0 137 -101q3 -17 3 -37v-270q0 -52 -44 -67q-12 -4 -24 -4q-43 0 -61 37q-7 16 -7 34v121q0 106 -77 150q-35 19 -76 19q-78 0 -125 -58q-35 -44 -35 -105v-102zM325 743h57q57 0 73 -26
q9 -17 9 -44h85q0 140 -140 146h-12h-72v-76z" />
    <glyph glyph-name="si_BIi" horiz-adv-x="597" 
d="M314 824v-76h71q18 0 30 -1q-30 -23 -31 -60q1 -24 13 -43q-23 4 -57 4h-157q-40 0 -49 36q-2 8 -2 14q0 37 32 47q9 3 19 3h75v76h-65q-90 0 -127 -67q-15 -29 -15 -61q0 -68 54 -104q35 -22 83 -22h151q121 0 137 -101q3 -17 3 -37v-275q0 -52 -44 -67q-12 -4 -24 -4
q-43 0 -61 37q-7 16 -7 34v121q0 106 -77 150q-35 19 -76 19q-78 0 -125 -58q-35 -44 -35 -105v-102q0 -141 101 -172q34 -10 80 -10v87q-70 0 -88 42q-9 22 -9 56v91q0 58 45 77q13 5 27 5q45 0 64 -41q8 -19 8 -41v-136q0 -89 73 -128q34 -18 75 -18q79 0 126 57
q35 44 35 107v278q-1 119 -69 170q48 12 63 62q5 17 5 34q0 83 -82 111q-32 11 -69 11h-101z" />
    <glyph glyph-name="si_BR.halant" horiz-adv-x="597" 
d="M30 182q0 -141 101 -172q34 -10 80 -10v87q-70 0 -88 42q-9 22 -9 56v91q0 58 45 77q13 5 27 5q45 0 64 -41q8 -19 8 -41v-136q0 -89 73 -128q34 -18 75 -18q31 0 60 11q16 -20 16 -48q0 -58 -62 -86q-39 -17 -94 -17v-83q144 0 209 83q36 47 36 108q-1 59 -31 101
q27 40 27 95v282q0 195 -192 211q-18 1 -36 1h-151q-41 0 -49 34q-1 6 -1 11q0 37 36 45q7 1 14 1h81v76h-80q-100 0 -129 -66q-8 -20 -8 -40q1 -45 23 -61h-35v-87h299q121 0 137 -101q3 -17 3 -37v-270q0 -52 -44 -67q-12 -4 -24 -4q-43 0 -61 37q-7 16 -7 34v121
q0 106 -77 150q-35 19 -76 19q-78 0 -125 -58q-35 -44 -35 -105v-102zM464 673h85q0 119 -98 141q-24 5 -54 5h-72v-76h57q57 0 73 -26q9 -17 9 -44zM270 -229v82q-89 0 -130 46q-22 25 -22 58h-87q0 -111 104 -159q57 -27 135 -27z" />
    <glyph glyph-name="si_BRI" horiz-adv-x="597" 
d="M30 182q0 -141 101 -172q34 -10 80 -10v87q-70 0 -88 42q-9 22 -9 56v91q0 58 45 77q13 5 27 5q45 0 64 -41q8 -19 8 -41v-136q0 -89 73 -128q34 -18 75 -18q31 0 60 11q16 -20 16 -48q0 -58 -62 -86q-39 -17 -94 -17v-83q144 0 209 83q36 47 36 108q-1 59 -31 101
q27 40 27 95v282q0 195 -192 211q-18 1 -36 1h-170q-36 0 -46 31q-2 8 -2 14q0 33 30 43q8 3 18 3h101v76h-86q-91 0 -127 -66q-15 -28 -15 -59q0 -88 75 -117q29 -12 67 -12h155q121 0 137 -101q3 -17 3 -37v-270q0 -52 -44 -67q-12 -4 -24 -4q-43 0 -61 37q-7 16 -7 34
v121q0 106 -77 150q-35 19 -76 19q-78 0 -125 -58q-35 -44 -35 -105v-102zM325 743h57q57 0 73 -26q9 -17 9 -44h85q0 140 -140 146h-12h-72v-76zM270 -229v82q-89 0 -130 46q-22 25 -22 58h-87q0 -111 104 -159q57 -27 135 -27z" />
    <glyph glyph-name="si_BRIi" horiz-adv-x="597" 
d="M326 -229q144 0 209 83q36 47 36 108q-1 59 -31 101q27 40 27 95v278q-1 119 -69 170q48 12 63 62q5 17 5 34q0 83 -82 111q-32 11 -69 11h-101v-76h71q18 0 30 -1q-30 -23 -31 -60q1 -24 13 -43q-23 4 -57 4h-157q-40 0 -49 36q-2 8 -2 14q0 37 32 47q9 3 19 3h75v76
h-65q-90 0 -127 -67q-15 -29 -15 -61q0 -68 54 -104q35 -22 83 -22h151q121 0 137 -101q3 -17 3 -37v-275q0 -52 -44 -67q-12 -4 -24 -4q-43 0 -61 37q-7 16 -7 34v121q0 106 -77 150q-35 19 -76 19q-78 0 -125 -58q-35 -44 -35 -105v-102q0 -141 101 -172q34 -10 80 -10v87
q-70 0 -88 42q-9 22 -9 56v91q0 58 45 77q13 5 27 5q45 0 64 -41q8 -19 8 -41v-136q0 -89 73 -128q34 -18 75 -18q31 0 60 11q16 -20 16 -48q0 -58 -62 -86q-39 -17 -94 -17v-83zM270 -229v82q-89 0 -130 46q-22 25 -22 58h-87q0 -111 104 -159q57 -27 135 -27z" />
    <glyph glyph-name="si_BRa" horiz-adv-x="597" 
d="M30 182q0 -141 101 -172q34 -10 80 -10v87q-70 0 -88 42q-9 22 -9 56v91q0 58 45 77q13 5 27 5q45 0 64 -41q8 -19 8 -41v-136q0 -89 73 -128q34 -18 75 -18q32 0 62 12q16 -20 16 -48q0 -58 -62 -86q-39 -18 -96 -18v-83q143 0 210 82q38 48 38 110q-1 57 -32 102
q25 42 25 93v349q0 233 -203 247q-13 1 -26 1h-16v-87h16q131 0 140 -146q1 -12 1 -25v-340q0 -52 -44 -67q-12 -4 -24 -4q-43 0 -61 37q-7 16 -7 34v121q0 106 -77 150q-35 19 -76 19q-78 0 -125 -58q-35 -44 -35 -105v-102zM41 564l85 -22q0 82 73 114q31 13 66 13v86
q-93 0 -161 -60q-62 -55 -63 -131zM271 -229l-1 82q-90 0 -130 46q-21 25 -21 58h-88q0 -112 104 -160q58 -26 136 -26z" />
    <glyph glyph-name="si_BU" horiz-adv-x="597" 
d="M30 182q0 -141 101 -172q34 -10 80 -10v87q-70 0 -88 42q-9 22 -9 56v91q0 58 45 77q13 5 27 5q45 0 64 -41q8 -19 8 -41v-136q0 -89 73 -128q34 -18 75 -18q32 0 57 10v-122h-141v-87h228v285q17 33 17 78v349q0 233 -203 247q-13 1 -26 1h-16v-87h16q131 0 140 -146
q1 -12 1 -25v-340q0 -52 -44 -67q-12 -4 -24 -4q-43 0 -61 37q-7 16 -7 34v121q0 106 -77 150q-35 19 -76 19q-78 0 -125 -58q-35 -44 -35 -105v-102zM41 564l85 -22q0 82 73 114q31 13 66 13v86q-93 0 -161 -60q-62 -55 -63 -131zM52 -118v-87h214v87h-214z" />
    <glyph glyph-name="si_BUu" horiz-adv-x="597" 
d="M30 182q0 -141 101 -172q34 -10 80 -10v87q-70 0 -88 42q-9 22 -9 56v91q0 58 45 77q13 5 27 5q45 0 64 -41q8 -19 8 -41v-136q0 -89 73 -128q34 -18 75 -18q32 0 57 10v-118q-60 26 -141 26v-88q80 -1 141 -29h87v285q17 33 17 78v349q0 233 -203 247q-13 1 -26 1h-16
v-87h16q131 0 140 -146q1 -12 1 -25v-340q0 -52 -44 -67q-12 -4 -24 -4q-43 0 -61 37q-7 16 -7 34v121q0 106 -77 150q-35 19 -76 19q-78 0 -125 -58q-35 -44 -35 -105v-102zM41 564l85 -22q0 82 73 114q31 13 66 13v86q-93 0 -161 -60q-62 -55 -63 -131zM53 -94v-88
q37 -21 79 -21q20 0 75 17q34 10 59 10v88q-26 0 -82 -18q-30 -10 -51 -10q-43 1 -80 22z" />
    <glyph glyph-name="si_Ba.reph" horiz-adv-x="597" 
d="M30 182q0 -141 101 -172q34 -10 80 -10v87q-70 0 -88 42q-9 22 -9 56v91q0 58 45 77q13 5 27 5q45 0 64 -41q8 -19 8 -41v-136q0 -89 73 -128q34 -18 75 -18q79 0 126 57q35 44 35 107v349q0 233 -203 247q-13 1 -26 1h-16v-87h16q131 0 140 -146q1 -12 1 -25v-340
q0 -52 -44 -67q-12 -4 -24 -4q-43 0 -61 37q-7 16 -7 34v121q0 106 -77 150q-35 19 -76 19q-78 0 -125 -58q-35 -44 -35 -105v-102zM41 564l85 -22q0 82 73 114q31 13 66 13v86q-93 0 -161 -60q-62 -55 -63 -131zM237 775q96 0 103 95q1 7 1 14h-60q0 -39 -32 -46
q-6 -2 -13 -2q-35 0 -46 32q-3 8 -3 17q0 34 34 48q15 6 31 6h67q68 -2 77 -44q2 -8 2 -17v-73h68v82q0 75 -64 105q-31 14 -68 14h-84q-81 0 -112 -64q-13 -26 -13 -55q0 -64 49 -95q27 -17 63 -17z" />
    <glyph glyph-name="si_Ba.touch" horiz-adv-x="597" 
d="M30 182q0 -141 101 -172q34 -10 80 -10v87q-70 0 -88 42q-9 22 -9 56v91q0 58 45 77q13 5 27 5q45 0 64 -41q8 -19 8 -41v-136q0 -89 73 -128q34 -18 75 -18q79 0 126 57q35 44 35 107v349q0 233 -203 247q-13 1 -26 1h-16v-87h16q131 0 140 -146q1 -12 1 -25v-340
q0 -52 -44 -67q-12 -4 -24 -4q-43 0 -61 37q-7 16 -7 34v121q0 106 -77 150q-35 19 -76 19q-78 0 -125 -58q-35 -44 -35 -105v-102zM41 564l85 -22q0 82 73 114q31 13 66 13v86q-93 0 -161 -60q-62 -55 -63 -131z" />
    <glyph glyph-name="si_Bh.halant" horiz-adv-x="748" 
d="M379 327v5v9t-1 11v4q2 119 93 120v88q-100 -1 -146 -70q-28 57 -99 68q-14 2 -26 2q-76 0 -114 -54q-11 -17 -17 -36l67 -17q18 34 62 37q55 0 69 -46q3 -11 3 -23h-240v-77h71q-32 -34 -32 -96v-55q0 -123 81 -176q46 -29 110 -29v88q-79 0 -98 75q-5 20 -5 42v50
q0 84 68 98q16 3 35 3h32v-91h44q73 -2 73 -88q-2 -88 -93 -89v-88q155 0 170 134q2 14 2 29v33q0 113 -80 135q-14 3 -29 4zM527 -8q131 0 174 113q17 45 17 103v138q0 151 -100 199q-40 19 -91 19v-88q102 -5 104 -130v-138q0 -106 -74 -125q-15 -3 -30 -3v-88zM527 619
h85v200h-85v-200z" />
    <glyph glyph-name="si_BhI" horiz-adv-x="748" 
d="M379 327v5v9t-1 11v4q2 119 93 120v88q-100 -1 -146 -70q-28 57 -99 68q-14 2 -26 2q-76 0 -114 -54q-11 -17 -17 -36l67 -17q18 34 62 37q55 0 69 -46q3 -11 3 -23h-240v-77h71q-32 -34 -32 -96v-55q0 -123 81 -176q46 -29 110 -29v88q-79 0 -98 75q-5 20 -5 42v50
q0 84 68 98q16 3 35 3h32v-91h44q73 -2 73 -88q-2 -88 -93 -89v-88q155 0 170 134q2 14 2 29v33q0 113 -80 135q-14 3 -29 4zM527 -8q131 0 174 113q17 45 17 103v138q0 151 -100 199q-40 19 -91 19v-88q102 -5 104 -130v-138q0 -106 -74 -125q-15 -3 -30 -3v-88zM136 616
h82q0 103 108 105h2h139q109 -3 110 -105h82v28q0 84 -70 129q-46 30 -106 30h-171q-94 0 -144 -64q-32 -42 -32 -95v-28z" />
    <glyph glyph-name="si_BhIi" horiz-adv-x="748" 
d="M379 327v5v9t-1 11v4q2 119 93 120v88q-100 -1 -146 -70q-28 57 -99 68q-14 2 -26 2q-76 0 -114 -54q-11 -17 -17 -36l67 -17q18 34 62 37q55 0 69 -46q3 -11 3 -23h-240v-77h71q-32 -34 -32 -96v-55q0 -123 81 -176q46 -29 110 -29v88q-79 0 -98 75q-5 20 -5 42v50
q0 84 68 98q16 3 35 3h32v-91h44q73 -2 73 -88q-2 -88 -93 -89v-88q155 0 170 134q2 14 2 29v33q0 113 -80 135q-14 3 -29 4zM527 -8q131 0 174 113q17 45 17 103v138q0 151 -100 199q-40 19 -91 19v-88q102 -5 104 -130v-138q0 -106 -74 -125q-15 -3 -30 -3v-88zM580 595
q56 0 82 49q13 24 13 52q0 83 -76 114q-34 14 -75 14h-211q-86 0 -139 -68q-37 -48 -37 -107v-31h82q0 86 59 113q23 10 51 10h152h29q-24 -26 -24 -58q0 -50 44 -75q23 -13 50 -13z" />
    <glyph glyph-name="si_BhRI" horiz-adv-x="748" 
d="M136 616h82q0 103 108 105h2h139q109 -3 110 -105h82v28q0 84 -70 129q-46 30 -106 30h-171q-94 0 -144 -64q-32 -42 -32 -95v-28zM379 327v5v9t-1 11v4q2 119 93 120v88q-100 -1 -146 -70q-28 57 -99 68q-14 2 -26 2q-76 0 -114 -54q-11 -17 -17 -36l67 -17q18 34 62 37
q55 0 69 -46q3 -11 3 -23h-240v-77h71q-32 -34 -32 -96v-55q0 -123 81 -176q46 -29 110 -29v88q-79 0 -98 75q-5 20 -5 42v50q0 84 68 98q16 3 35 3h32v-91h44q73 -2 73 -88q-2 -88 -93 -89v-88q155 0 170 134q2 14 2 29v33q0 113 -80 135q-14 3 -29 4zM527 -8q51 0 92 19
q14 -53 -31 -103q-54 -59 -150 -59h-10v-83h23q131 0 207 90q64 76 53 167q-5 33 -19 61q26 53 26 124v138q0 151 -100 199q-40 19 -91 19v-88q102 -5 104 -130v-138q0 -106 -74 -125q-15 -3 -30 -3v-88zM373 -234v83h-20q-72 0 -127 36q-47 32 -48 78h-88q0 -101 101 -157
q71 -40 159 -40h23z" />
    <glyph glyph-name="si_BhRIi" horiz-adv-x="748" 
d="M580 595q56 0 82 49q13 24 13 52q0 83 -76 114q-34 14 -75 14h-211q-86 0 -139 -68q-37 -48 -37 -107v-31h82q0 86 59 113q23 10 51 10h152h29q-24 -26 -24 -58q0 -50 44 -75q23 -13 50 -13zM379 327v5v9t-1 11v4q2 119 93 120v88q-100 -1 -146 -70q-28 57 -99 68
q-14 2 -26 2q-76 0 -114 -54q-11 -17 -17 -36l67 -17q18 34 62 37q55 0 69 -46q3 -11 3 -23h-240v-77h71q-32 -34 -32 -96v-55q0 -123 81 -176q46 -29 110 -29v88q-79 0 -98 75q-5 20 -5 42v50q0 84 68 98q16 3 35 3h32v-91h44q73 -2 73 -88q-2 -88 -93 -89v-88
q155 0 170 134q2 14 2 29v33q0 113 -80 135q-14 3 -29 4zM527 -8q51 0 92 19q14 -53 -31 -103q-54 -59 -150 -59h-10v-83h23q131 0 207 90q64 76 53 167q-5 33 -19 61q26 53 26 124v138q0 151 -100 199q-40 19 -91 19v-88q102 -5 104 -130v-138q0 -106 -74 -125
q-15 -3 -30 -3v-88zM373 -234v83h-20q-72 0 -127 36q-47 32 -48 78h-88q0 -101 101 -157q71 -40 159 -40h23z" />
    <glyph glyph-name="si_BhRa" horiz-adv-x="748" 
d="M379 327v5v9t-1 11v4q2 119 93 120v88q-100 -1 -146 -70q-28 57 -99 68q-14 2 -26 2q-76 0 -114 -54q-11 -17 -17 -36l67 -17q18 34 62 37q55 0 69 -46q3 -11 3 -23h-240v-77h71q-32 -34 -32 -96v-55q0 -123 81 -176q46 -29 110 -29v88q-79 0 -98 75q-5 20 -5 42v50
q0 84 68 98q16 3 35 3h32v-91h44q73 -2 73 -88q-2 -88 -93 -89v-88q155 0 170 134q2 14 2 29v33q0 113 -80 135q-14 3 -29 4zM527 -8q51 0 92 19q14 -53 -31 -103q-54 -59 -150 -59h-10v-83h23q131 0 207 90q64 76 53 167q-5 33 -19 61q26 53 26 124v138q0 151 -100 199
q-40 19 -91 19v-88q102 -5 104 -130v-138q0 -106 -74 -125q-15 -3 -30 -3v-88zM373 -234v83h-20q-72 0 -127 36q-47 32 -48 78h-88q0 -101 101 -157q71 -40 159 -40h23z" />
    <glyph glyph-name="si_BhRa.halant" horiz-adv-x="748" 
d="M527 619h85v200h-85v-200zM379 327v5v9t-1 11v4q2 119 93 120v88q-100 -1 -146 -70q-28 57 -99 68q-14 2 -26 2q-76 0 -114 -54q-11 -17 -17 -36l67 -17q18 34 62 37q55 0 69 -46q3 -11 3 -23h-240v-77h71q-32 -34 -32 -96v-55q0 -123 81 -176q46 -29 110 -29v88
q-79 0 -98 75q-5 20 -5 42v50q0 84 68 98q16 3 35 3h32v-91h44q73 -2 73 -88q-2 -88 -93 -89v-88q155 0 170 134q2 14 2 29v33q0 113 -80 135q-14 3 -29 4zM527 -8q51 0 92 19q14 -53 -31 -103q-54 -59 -150 -59h-10v-83h23q131 0 207 90q64 76 53 167q-5 33 -19 61
q26 53 26 124v138q0 151 -100 199q-40 19 -91 19v-88q102 -5 104 -130v-138q0 -106 -74 -125q-15 -3 -30 -3v-88zM373 -234v83h-20q-72 0 -127 36q-47 32 -48 78h-88q0 -101 101 -157q71 -40 159 -40h23z" />
    <glyph glyph-name="si_BhU" horiz-adv-x="748" 
d="M675 -205h43v87h-43q-53 0 -63 60q-2 12 -2 24v16q0 69 47 82q9 2 18 2h43v282q0 143 -94 194q-42 22 -97 22v-88q89 0 102 -101q2 -15 2 -31v-195q-92 -21 -107 -121q-2 -18 -2 -36v-36q0 -121 95 -152q27 -9 58 -9zM379 327v5v9t-1 11v4q2 119 93 120v88
q-100 -1 -146 -70q-28 57 -99 68q-14 2 -26 2q-76 0 -114 -54q-11 -17 -17 -36l67 -17q18 34 62 37q55 0 69 -46q3 -11 3 -23h-240v-77h71q-32 -34 -32 -96v-55q0 -123 81 -176q46 -29 110 -29v88q-79 0 -98 75q-5 20 -5 42v50q0 84 68 98q16 3 35 3h32v-91h44q73 -2 73 -88
q-2 -88 -93 -89v-88q155 0 170 134q2 14 2 29v33q0 113 -80 135q-14 3 -29 4z" />
    <glyph glyph-name="si_BhUu" horiz-adv-x="748" 
d="M573 174h-24v-51h100l-100 -62v-52h44q-23 -22 -23 -57v-43q0 -67 57 -99q27 -15 57 -15h76v82h-57q-44 3 -46 45v36q2 50 58 51h50v52h-100l100 62v51h-58q11 15 11 48v126q0 143 -94 194q-42 22 -97 22v-88q89 0 102 -101q2 -15 2 -31v-122q-2 -47 -58 -48zM379 327v5
v9t-1 11v4q2 119 93 120v88q-100 -1 -146 -70q-28 57 -99 68q-14 2 -26 2q-76 0 -114 -54q-11 -17 -17 -36l67 -17q18 34 62 37q55 0 69 -46q3 -11 3 -23h-240v-77h71q-32 -34 -32 -96v-55q0 -123 81 -176q46 -29 110 -29v88q-79 0 -98 75q-5 20 -5 42v50q0 84 68 98
q16 3 35 3h32v-91h44q73 -2 73 -88q-2 -88 -93 -89v-88q155 0 170 134q2 14 2 29v33q0 113 -80 135q-14 3 -29 4z" />
    <glyph glyph-name="si_Bha.reph" horiz-adv-x="748" 
d="M379 327v5v9t-1 11v4q2 119 93 120v88q-100 -1 -146 -70q-28 57 -99 68q-14 2 -26 2q-76 0 -114 -54q-11 -17 -17 -36l67 -17q18 34 62 37q55 0 69 -46q3 -11 3 -23h-240v-77h71q-32 -34 -32 -96v-55q0 -123 81 -176q46 -29 110 -29v88q-79 0 -98 75q-5 20 -5 42v50
q0 84 68 98q16 3 35 3h32v-91h44q73 -2 73 -88q-2 -88 -93 -89v-88q155 0 170 134q2 14 2 29v33q0 113 -80 135q-14 3 -29 4zM527 -8q131 0 174 113q17 45 17 103v138q0 151 -100 199q-40 19 -91 19v-88q102 -5 104 -130v-138q0 -106 -74 -125q-15 -3 -30 -3v-88zM329 588
q96 0 103 95q1 7 1 14h-59q0 -36 -29 -45q-8 -3 -17 -3q-33 0 -45 31q-3 9 -3 18q0 36 36 49q13 5 28 5h67q67 -2 78 -41q2 -10 2 -20v-73h67v82q0 76 -65 106q-29 13 -66 13h-84q-81 0 -112 -64q-13 -26 -13 -55q0 -64 48 -95q28 -17 63 -17z" />
    <glyph glyph-name="si_Bha.touch" horiz-adv-x="748" 
d="M379 327v5v9t-1 11v4q2 119 93 120v88q-100 -1 -146 -70q-28 57 -99 68q-14 2 -26 2q-76 0 -114 -54q-11 -17 -17 -36l67 -17q18 34 62 37q55 0 69 -46q3 -11 3 -23h-240v-77h71q-32 -34 -32 -96v-55q0 -123 81 -176q46 -29 110 -29v88q-79 0 -98 75q-5 20 -5 42v50
q0 84 68 98q16 3 35 3h32v-91h44q73 -2 73 -88q-2 -88 -93 -89v-88q155 0 170 134q2 14 2 29v33q0 113 -80 135q-14 3 -29 4zM527 -8q131 0 174 113q17 45 17 103v138q0 151 -100 199q-40 19 -91 19v-88q102 -5 104 -130v-138q0 -106 -74 -125q-15 -3 -30 -3v-88z" />
    <glyph glyph-name="si_C.halant" horiz-adv-x="595" 
d="M30 282h69q-28 -36 -28 -90q0 -91 68 -147q58 -47 142 -47v87q-85 0 -113 64q-9 21 -9 44q0 54 38 78q18 11 39 11h106v70q-1 63 -38 101q-39 37 -102 37q-75 0 -112 -53q-12 -16 -18 -37l67 -17q18 34 62 37q47 0 65 -36q6 -14 6 -30l-45 -3h-197v-69zM87 570h250
q121 0 137 -101q3 -17 3 -37v-184q0 -134 -90 -157q-23 -6 -50 -6v-87q227 2 228 242v201q0 199 -202 210q-13 1 -26 1h-111q-41 0 -49 34q-1 6 -1 11q0 37 36 45q7 1 14 1h55v76h-48q-91 -2 -125 -59q-13 -23 -13 -49q1 -40 24 -59h-32v-82zM336 743h47q57 0 73 -26
q9 -17 9 -44h85q0 119 -98 141q-24 5 -54 5h-62v-76z" />
    <glyph glyph-name="si_CI" horiz-adv-x="595" 
d="M30 282h69q-28 -36 -28 -90q0 -91 68 -147q58 -47 142 -47v87q-85 0 -113 64q-9 21 -9 44q0 54 38 78q18 11 39 11h106v70q-1 63 -38 101q-39 37 -102 37q-75 0 -112 -53q-12 -16 -18 -37l67 -17q18 34 62 37q47 0 65 -36q6 -14 6 -30l-45 -3h-197v-69zM214 570h123
q121 0 137 -101q3 -17 3 -37v-183q0 -133 -87 -158q-24 -6 -53 -6v-87q227 2 228 242v201q0 199 -202 210q-13 1 -26 1h-138q-36 0 -46 31q-2 8 -2 14q0 33 30 43q8 3 18 3h82v76h-67q-89 0 -126 -65q-16 -28 -16 -60q0 -85 75 -113q29 -11 67 -11zM336 743h47q57 0 73 -26
q9 -17 9 -44h85q0 140 -140 146h-12h-62v-76z" />
    <glyph glyph-name="si_CIi" horiz-adv-x="595" 
d="M281 -2v87q-85 0 -113 64q-9 21 -9 44q0 54 38 78q18 11 39 11h106v70q-1 63 -38 101q-39 37 -102 37q-75 0 -112 -53q-12 -16 -18 -37l67 -17q18 34 62 37q47 0 65 -38q6 -14 6 -31h-242v-69h69q-28 -36 -28 -90q0 -91 68 -147q58 -47 142 -47zM337 -2q227 2 228 242
v201q-1 118 -61 167q49 15 60 69q3 12 3 25q0 84 -83 112q-31 10 -69 10h-78v-76h48h31q-31 -22 -32 -61q1 -22 11 -39q-10 1 -30 1h-161q-39 0 -49 35q-2 7 -2 14q0 34 29 46q11 4 22 4h76v76h-66q-88 0 -126 -66q-16 -29 -16 -62q0 -68 54 -103q35 -23 84 -23h127
q121 0 137 -101q3 -17 3 -37v-190q0 -137 -104 -154q-17 -3 -36 -3v-87z" />
    <glyph glyph-name="si_CR.halant" horiz-adv-x="595" 
d="M30 282h69q-28 -36 -28 -90q0 -91 68 -147q58 -47 142 -47v87q-85 0 -113 64q-9 21 -9 44q0 54 38 78q18 11 39 11h106v70q-1 63 -38 101q-39 37 -102 37q-75 0 -112 -53q-12 -16 -18 -37l67 -17q18 34 62 37q47 0 65 -36q6 -14 6 -30l-45 -3h-197v-69zM87 570h250
q121 0 137 -101q3 -17 3 -37v-184q0 -134 -90 -157q-23 -6 -50 -6v-87q57 0 101 16q42 -19 43 -61q0 -56 -61 -83q-36 -16 -83 -16v-83q136 0 196 78q33 44 33 103q-1 73 -54 111q53 62 53 177v201q0 199 -202 210q-13 1 -26 1h-111q-41 0 -49 34q-1 6 -1 11q0 37 36 45
q7 1 14 1h55v76h-48q-91 -2 -125 -59q-13 -23 -13 -49q1 -40 24 -59h-32v-82zM336 743h47q57 0 73 -26q9 -17 9 -44h85q0 119 -98 141q-24 5 -54 5h-62v-76zM281 -229v83q-55 0 -94 32q-30 27 -31 66h-82v-20q0 -81 82 -129q57 -32 125 -32z" />
    <glyph glyph-name="si_CRI" horiz-adv-x="595" 
d="M30 282h69q-28 -36 -28 -90q0 -91 68 -147q58 -47 142 -47v87q-85 0 -113 64q-9 21 -9 44q0 54 38 78q18 11 39 11h106v70q-1 63 -38 101q-39 37 -102 37q-75 0 -112 -53q-12 -16 -18 -37l67 -17q18 34 62 37q47 0 65 -36q6 -14 6 -30l-45 -3h-197v-69zM214 570h123
q121 0 137 -101q3 -17 3 -37v-183q0 -133 -87 -158q-24 -6 -53 -6v-87q57 0 101 16q42 -19 43 -61q0 -56 -61 -83q-36 -16 -83 -16v-83q136 0 196 78q33 44 33 103q-1 73 -54 111q53 62 53 177v201q0 199 -202 210q-13 1 -26 1h-138q-36 0 -46 31q-2 8 -2 14q0 33 30 43
q8 3 18 3h82v76h-67q-89 0 -126 -65q-16 -28 -16 -60q0 -85 75 -113q29 -11 67 -11zM336 743h47q57 0 73 -26q9 -17 9 -44h85q0 140 -140 146h-12h-62v-76zM281 -229v83q-55 0 -94 32q-30 27 -31 66h-82v-20q0 -81 82 -129q57 -32 125 -32z" />
    <glyph glyph-name="si_CRIi" horiz-adv-x="597" 
d="M281 -2v87q-85 0 -113 64q-9 21 -9 44q0 54 38 78q18 11 39 11h106v70q-1 63 -38 101q-39 37 -102 37q-75 0 -112 -53q-12 -16 -18 -37l67 -17q18 34 62 37q47 0 65 -38q6 -14 6 -31h-242v-69h69q-28 -36 -28 -90q0 -91 68 -147q58 -47 142 -47zM337 -229q136 0 196 78
q33 44 33 103q-1 73 -54 111q53 62 53 177v201q-1 118 -61 167q49 15 60 69q3 12 3 25q0 84 -83 112q-31 10 -69 10h-78v-76h48h31q-31 -22 -32 -61q1 -22 11 -39q-10 1 -30 1h-161q-39 0 -49 35q-2 7 -2 14q0 34 29 46q11 4 22 4h76v76h-66q-88 0 -126 -66q-16 -29 -16 -62
q0 -68 54 -103q35 -23 84 -23h127q121 0 137 -101q3 -17 3 -37v-190q0 -137 -104 -154q-17 -3 -36 -3v-87q57 0 101 16q42 -19 43 -61q0 -56 -61 -83q-36 -16 -83 -16v-83zM281 -229v83q-55 0 -94 32q-30 27 -31 66h-82v-20q0 -81 82 -129q57 -32 125 -32z" />
    <glyph glyph-name="si_CRa" horiz-adv-x="597" 
d="M281 -2v87q-85 0 -113 64q-9 21 -9 44q0 54 38 78q18 11 39 11h106v70q-1 63 -38 101q-39 37 -102 37q-75 0 -112 -53q-12 -16 -18 -37l67 -17q18 34 62 37q47 0 65 -36q6 -14 6 -30l-45 -3h-197v-69h69q-28 -36 -28 -90q0 -91 68 -147q58 -47 142 -47zM153 542
q0 72 61 108q31 19 67 19v86q-83 0 -149 -59q-63 -57 -64 -132zM337 -229q136 0 196 78q33 44 33 103q-1 73 -53 110q54 63 54 183v272q0 228 -210 238h-20v-87q106 0 132 -82q10 -34 10 -80v-261q-1 -159 -142 -160v-87q59 0 102 15q41 -19 42 -60q0 -56 -61 -83
q-36 -16 -83 -16v-83zM281 -229v83q-55 0 -94 32q-30 27 -31 66h-82v-20q0 -81 82 -129q57 -32 125 -32z" />
    <glyph glyph-name="si_CU" horiz-adv-x="597" 
d="M281 -2v87q-85 0 -113 64q-9 21 -9 44q0 54 38 78q18 11 39 11h106v70q-1 63 -38 101q-39 37 -102 37q-75 0 -112 -53q-12 -16 -18 -37l67 -17q18 34 62 37q47 0 65 -36q6 -14 6 -30l-45 -3h-197v-69h69q-28 -36 -28 -90q0 -91 68 -147q58 -47 142 -47zM337 -2
q73 0 123 24v-140h-123v-87h210v324q20 55 20 126v272q0 228 -210 238h-20v-87q106 0 132 -82q10 -34 10 -80v-261q-1 -159 -142 -160v-87zM153 542q0 72 61 108q31 19 67 19v86q-83 0 -149 -59q-63 -57 -64 -132zM99 -118v-87h182v87h-182z" />
    <glyph glyph-name="si_CUu" horiz-adv-x="597" 
d="M281 -2v87q-85 0 -113 64q-9 21 -9 44q0 54 38 78q18 11 39 11h106v70q-1 63 -38 101q-39 37 -102 37q-75 0 -112 -53q-12 -16 -18 -37l67 -17q18 34 62 37q47 0 65 -36q6 -14 6 -30l-45 -3h-197v-69h69q-28 -36 -28 -90q0 -91 68 -147q58 -47 142 -47zM337 -2
q71 0 120 23v-135q-58 30 -120 30v-88q63 -1 120 -33h87v317q23 56 23 133v272q0 228 -210 238h-20v-87q106 0 132 -82q10 -34 10 -80v-261q-1 -159 -142 -160v-87zM153 542q0 72 61 108q31 19 67 19v86q-83 0 -149 -59q-63 -57 -64 -132zM89 -83v-88q40 -31 73 -31
q19 0 68 19q30 11 51 11v88q-22 0 -71 -19q-28 -11 -48 -11q-35 1 -73 31z" />
    <glyph glyph-name="si_Ca.reph" horiz-adv-x="597" 
d="M281 -2q-118 0 -176 84q-34 50 -34 110q1 55 28 90h-69v69h197l45 3q0 48 -46 62q-13 4 -25 4q-42 0 -59 -30q-2 -4 -3 -7l-67 17q21 74 103 88q14 2 27 2q63 -1 102 -37q38 -39 38 -101v-70h-106q-50 0 -69 -49q-8 -19 -8 -40q0 -61 50 -91q31 -17 72 -17v-87zM337 -2
v87q141 2 142 160v261q0 126 -80 153q-26 9 -62 9v87q219 0 229 -215q1 -12 1 -23v-272q0 -234 -206 -246q-12 -1 -24 -1zM153 542l-85 22q0 85 77 143q64 48 136 48v-86q-63 0 -102 -48q-26 -35 -26 -79zM246 775q-73 0 -101 61q-11 24 -11 51q0 65 51 99q32 20 74 20h84
q86 0 119 -61q13 -27 13 -58v-82h-68v73q0 56 -67 60q-6 1 -12 1h-67q-48 0 -62 -37q-3 -9 -3 -17q0 -33 29 -45q9 -4 20 -4q40 7 45 48h60q0 -100 -88 -108q-8 -1 -16 -1z" />
    <glyph glyph-name="si_Ca.touch" horiz-adv-x="597" 
d="M281 -2q-118 0 -176 84q-34 50 -34 110q1 55 28 90h-69v69h197l45 3q0 48 -46 62q-13 4 -25 4q-42 0 -59 -30q-2 -4 -3 -7l-67 17q21 74 103 88q14 2 27 2q63 -1 102 -37q38 -39 38 -101v-70h-106q-50 0 -69 -49q-8 -19 -8 -40q0 -61 50 -91q31 -17 72 -17v-87zM337 -2
v87q141 2 142 160v261q0 126 -80 153q-26 9 -62 9v87q219 0 229 -215q1 -12 1 -23v-272q0 -234 -206 -246q-12 -1 -24 -1zM153 542l-85 22q0 85 77 143q64 48 136 48v-86q-63 0 -102 -48q-26 -35 -26 -79z" />
    <glyph glyph-name="si_Ch.halant" horiz-adv-x="638" 
d="M285 -9h58q195 0 237 119q13 38 13 87v67q-5 63 -68 65h-93q-45 0 -69 39q-11 20 -11 41q0 45 39 69q20 11 41 11q44 0 67 -38q4 -9 7 -17l77 6q-12 71 -76 107q-23 13 -48 18l152 200l-89 24l-126 -166v196h-83v-304l-3 -3q-37 57 -124 57q-97 0 -141 -69
q-9 -15 -15 -31l76 -25q17 45 81 46q56 0 77 -49q7 -18 7 -39h-74q-128 0 -155 -89q-9 -30 -9 -67h87q0 58 40 73q18 6 43 6h91q43 -69 124 -75h13l75 1v-54q0 -94 -88 -114q-30 -7 -72 -7h-66q-117 0 -147 57q-13 26 -13 64h-87q0 -144 111 -185q55 -21 141 -21z" />
    <glyph glyph-name="si_ChI" horiz-adv-x="636" 
d="M285 -9h58q195 0 237 119q13 38 13 87v67q-5 63 -68 65h-93q-45 0 -69 39q-11 20 -11 41q0 45 39 69q20 11 41 11q44 0 67 -38q4 -9 7 -17l77 6q-12 71 -76 107q-23 13 -48 18l152 200l-89 24l-204 -269l-8 -8q-37 57 -124 57q-97 0 -141 -69q-9 -15 -15 -31l76 -25
q17 45 81 46q56 0 77 -49q7 -18 7 -39h-74q-128 0 -155 -89q-9 -30 -9 -67h87q0 58 40 73q18 6 43 6h91q43 -69 124 -75h13l75 1v-54q0 -94 -88 -114q-30 -7 -72 -7h-66q-117 0 -147 57q-13 26 -13 64h-87q0 -144 111 -185q55 -21 141 -21zM295 580l41 53q-48 39 -16 84
l31 41q36 44 85 7l41 53l-16 13q-63 49 -128 2q-20 -14 -36 -35l-31 -41q-56 -73 -16 -134q12 -17 29 -31z" />
    <glyph glyph-name="si_ChIi" horiz-adv-x="638" 
d="M285 -9h58q195 0 237 119q13 38 13 87v67q-5 63 -68 65h-93q-45 0 -69 39q-11 20 -11 41q0 45 39 69q20 11 41 11q44 0 67 -38q4 -9 7 -17l77 6q-12 71 -76 107q-23 13 -48 18l152 200l-89 24l-204 -269l-8 -8q-37 57 -124 57q-97 0 -141 -69q-9 -15 -15 -31l76 -25
q17 45 81 46q56 0 77 -49q7 -18 7 -39h-74q-128 0 -155 -89q-9 -30 -9 -67h87q0 58 40 73q18 6 43 6h91q43 -69 124 -75h13l75 1v-54q0 -94 -88 -114q-30 -7 -72 -7h-66q-117 0 -147 57q-13 26 -13 64h-87q0 -144 111 -185q55 -21 141 -21zM269 601l40 52q-44 34 -27 69
l8 12l50 64q4 -25 25 -42q36 -28 77 -7q16 9 27 23q30 38 6 83q-10 17 -25 29q-58 48 -128 -10q-18 -16 -33 -35l-48 -63q-64 -82 -10 -143q8 -9 17 -16z" />
    <glyph glyph-name="si_ChU" horiz-adv-x="638" 
d="M285 -9h58q90 0 143 23v-132h-146v-87h233v298q20 44 20 104v67q-5 63 -68 65h-93q-45 0 -69 39q-11 20 -11 41q0 45 39 69q20 11 41 11q44 0 67 -38q4 -9 7 -17l77 6q-12 71 -76 107q-23 13 -48 18l152 200l-89 24l-204 -269l-8 -8q-37 57 -124 57q-97 0 -141 -69
q-9 -15 -15 -31l76 -25q17 45 81 46q56 0 77 -49q7 -18 7 -39h-74q-128 0 -155 -89q-9 -30 -9 -67h87q0 58 40 73q18 6 43 6h91q43 -69 124 -75h13l75 1v-54q0 -94 -88 -114q-30 -7 -72 -7h-66q-117 0 -147 57q-13 26 -13 64h-87q0 -144 111 -185q55 -21 141 -21zM47 -118
v-87h237v87h-237z" />
    <glyph glyph-name="si_ChUu" horiz-adv-x="638" 
d="M285 -9h58q87 0 145 23v-128q-89 33 -148 33v-88q55 -1 148 -36h87v302q18 43 18 100v67q-5 63 -68 65h-93q-45 0 -69 39q-11 20 -11 41q0 45 39 69q20 11 41 11q44 0 67 -38q4 -9 7 -17l77 6q-12 71 -76 107q-23 13 -48 18l152 200l-89 24l-204 -269l-8 -8
q-37 57 -124 57q-97 0 -141 -69q-9 -15 -15 -31l76 -25q17 45 81 46q56 0 77 -49q7 -18 7 -39h-74q-128 0 -155 -89q-9 -30 -9 -67h87q0 58 40 73q18 6 43 6h91q43 -69 124 -75h13l75 1v-54q0 -94 -88 -114q-30 -7 -72 -7h-66q-117 0 -147 57q-13 26 -13 64h-87
q0 -144 111 -185q55 -21 141 -21zM45 -81v-88q51 -36 100 -36q24 0 79 22q36 14 59 14v88q-23 0 -76 -22q-38 -16 -62 -16q-49 1 -100 38z" />
    <glyph glyph-name="si_Cha.touch" horiz-adv-x="636" 
d="M285 -9h58q195 0 237 119q13 38 13 87v67q-5 63 -68 65h-93q-45 0 -69 39q-11 20 -11 41q0 45 39 69q20 11 41 11q44 0 67 -38q4 -9 7 -17l77 6q-12 71 -76 107q-23 13 -48 18l152 200l-89 24l-204 -269l-8 -8q-37 57 -124 57q-97 0 -141 -69q-9 -15 -15 -31l76 -25
q17 45 81 46q56 0 77 -49q7 -18 7 -39h-74q-128 0 -155 -89q-9 -30 -9 -67h87q0 58 40 73q18 6 43 6h91q43 -69 124 -75h13l75 1v-54q0 -94 -88 -114q-30 -7 -72 -7h-66q-117 0 -147 57q-13 26 -13 64h-87q0 -144 111 -185q55 -21 141 -21z" />
    <glyph glyph-name="si_D.halant" horiz-adv-x="541" 
d="M365 -204q-100 0 -149 67q-28 39 -28 92h86q0 -48 48 -70q22 -9 45 -9q54 0 80 42q8 12 11 25l83 -21q-20 -82 -100 -113q-35 -13 -76 -13zM30 199q0 134 112 182q50 21 114 21h99q0 66 -63 90q-23 8 -49 8q-61 0 -92 -43q-8 -12 -12 -25l-76 25q20 78 102 109
q36 13 75 13q97 0 153 -63q44 -49 44 -122v-79h-186q-101 0 -126 -74q-6 -19 -6 -42q0 -78 75 -104q28 -10 63 -10h38q90 1 123 74l80 -21q-33 -98 -136 -128q-34 -10 -67 -10h-38q-128 0 -189 77q-38 50 -38 122zM284 619v200h85v-200h-85z" />
    <glyph glyph-name="si_DDdh.halant" horiz-adv-x="751" 
d="M355 -4q69 1 105 51q40 -51 112 -51q86 0 127 65q22 37 22 85v295q0 189 -181 209q-22 2 -47 2h-134q-41 0 -49 34q-1 6 -1 11q0 37 36 45q7 1 14 1h73v76h-72q-100 0 -129 -66q-9 -19 -9 -40q1 -42 27 -61h-39v-82h283q120 0 137 -99q3 -19 3 -40v-279q0 -37 -29 -57
q-19 -12 -42 -12q-52 0 -67 48q-3 11 -3 21v45h-69v-45q0 -39 -31 -59q-17 -10 -39 -10q-53 0 -68 49q-3 11 -3 20v131q0 72 55 98q23 10 53 10h31v86h-171q-179 0 -213 -142q-7 -30 -7 -65v-65q0 -101 19 -150q13 -36 39 -72l84 27q-50 65 -55 131q-2 19 -2 50v81
q2 111 103 119q-23 -44 -23 -105v-140q0 -89 72 -129q39 -21 88 -21zM488 743h55q57 0 73 -25q10 -17 10 -45h84q0 116 -91 139q-27 7 -61 7h-70v-76z" />
    <glyph glyph-name="si_DDhI" horiz-adv-x="751" 
d="M355 -4q69 1 105 51q40 -51 112 -51q86 0 127 65q22 37 22 85v294q0 186 -173 209q-26 3 -55 3h-151q-36 0 -46 31q-2 8 -2 14q0 33 30 43q8 3 18 3h90v76h-75q-89 0 -126 -65q-16 -28 -16 -60q0 -88 75 -117q29 -12 67 -12h136q121 0 137 -101q3 -17 3 -37v-275
q0 -37 -29 -57q-19 -12 -42 -12q-52 0 -67 48q-3 11 -3 21v45h-69v-45q0 -39 -31 -59q-17 -10 -39 -10q-53 0 -68 49q-3 11 -3 20v131q0 72 55 98q23 10 53 10h31v86h-171q-179 0 -213 -142q-7 -30 -7 -65v-65q0 -101 19 -150q13 -36 39 -72l84 27q-50 65 -55 131
q-2 19 -2 50v81q2 111 103 119q-23 -44 -23 -105v-140q0 -89 72 -129q39 -21 88 -21zM627 673h85q0 140 -140 146h-12h-73v-76h58q57 0 73 -26q9 -17 9 -44z" />
    <glyph glyph-name="si_DDhIi" horiz-adv-x="756" 
d="M479 824v-76h65q17 0 29 -1q-31 -22 -32 -60q1 -23 12 -41q-22 2 -35 2h-172q-38 0 -49 35q-2 8 -2 15q0 34 29 46q11 4 22 4h78v76h-67q-89 0 -127 -66q-16 -30 -16 -62q0 -68 54 -103q35 -23 84 -23h141q121 0 137 -101q3 -17 3 -37v-280q0 -37 -29 -57
q-19 -12 -42 -12q-52 0 -67 48q-3 11 -3 21v45h-69v-45q0 -39 -31 -59q-17 -10 -39 -10q-53 0 -68 49q-3 11 -3 20v131q0 72 55 98q23 10 53 10h31v86h-171q-173 0 -211 -133q-9 -34 -9 -74v-66q0 -101 19 -151q13 -35 39 -71l84 27q-50 65 -55 131q-2 19 -2 50v82
q2 111 103 119q-23 -44 -23 -105v-140q0 -89 72 -129q39 -21 88 -21q69 1 105 51q40 -51 112 -51q86 0 127 65q22 37 22 85v295q-1 118 -61 167q46 13 60 63q4 16 4 31q0 86 -86 113q-30 9 -66 9h-93z" />
    <glyph glyph-name="si_DDhU" horiz-adv-x="751" 
d="M486 -118v-87h222v284q13 33 13 67v371q0 183 -131 224q-43 14 -103 14v-87q100 0 129 -62q17 -37 17 -100v-354q0 -37 -29 -57q-19 -12 -42 -12q-52 0 -67 48q-3 11 -3 21v45h-69v-45q0 -39 -31 -59q-17 -10 -39 -10q-53 0 -68 49q-3 11 -3 20v131q0 72 55 98
q23 10 53 10h31v86h-171q-179 0 -213 -142q-7 -30 -7 -65v-65q0 -101 19 -150q13 -36 39 -72l84 27q-50 65 -55 131q-2 19 -2 50v81q2 111 103 119q-23 -44 -23 -105v-140q0 -89 72 -129q39 -21 88 -21q69 1 105 51q40 -51 112 -51q28 0 49 7v-121h-135zM219 -118v-87h210
v87h-210zM203 564l85 -22q0 80 73 112q32 15 70 15v86q-93 0 -162 -59q-65 -56 -66 -132z" />
    <glyph glyph-name="si_DDhUu" horiz-adv-x="751" 
d="M217 -94v-88q37 -21 77 -21q19 0 75 17q35 10 61 10v88q-26 0 -85 -19q-31 -9 -51 -9q-40 1 -77 22zM486 -88v-88q74 -1 135 -29h87v284q13 33 13 67v371q0 183 -131 224q-43 14 -103 14v-87q100 0 129 -62q17 -37 17 -100v-354q0 -37 -29 -57q-19 -12 -42 -12
q-52 0 -67 48q-3 11 -3 21v45h-69v-45q0 -39 -31 -59q-17 -10 -39 -10q-53 0 -68 49q-3 11 -3 20v131q0 72 55 98q23 10 53 10h31v86h-171q-179 0 -213 -142q-7 -30 -7 -65v-65q0 -101 19 -150q13 -36 39 -72l84 27q-50 65 -55 131q-2 19 -2 50v81q2 111 103 119
q-23 -44 -23 -105v-140q0 -89 72 -129q39 -21 88 -21q69 1 105 51q40 -51 112 -51q28 0 49 7v-117q-60 26 -135 26zM203 564l85 -22q0 80 73 112q32 15 70 15v86q-93 0 -162 -59q-65 -56 -66 -132z" />
    <glyph glyph-name="si_DDha" horiz-adv-x="751" 
d="M355 -4q69 1 105 51q40 -51 112 -51q86 0 127 65q22 37 22 85v371q0 183 -131 224q-43 14 -103 14v-87q100 0 129 -62q17 -37 17 -100v-354q0 -37 -29 -57q-19 -12 -42 -12q-52 0 -67 48q-3 11 -3 21v45h-69v-45q0 -39 -31 -59q-17 -10 -39 -10q-53 0 -68 49q-3 11 -3 20
v131q0 72 55 98q23 10 53 10h31v86h-171q-179 0 -213 -142q-7 -30 -7 -65v-65q0 -101 19 -150q13 -36 39 -72l84 27q-50 65 -55 131q-2 19 -2 50v81q2 111 103 119q-23 -44 -23 -105v-140q0 -89 72 -129q39 -21 88 -21zM203 564l85 -22q0 80 73 112q32 15 70 15v86
q-93 0 -162 -59q-65 -56 -66 -132z" />
    <glyph glyph-name="si_DI" horiz-adv-x="544" 
d="M367 -204q-99 0 -148 66q-28 40 -28 93h86q0 -48 48 -70q22 -9 45 -9q54 0 80 42q8 12 11 25l83 -21q-22 -83 -103 -113q-35 -13 -74 -13zM33 199q0 134 112 182q50 21 114 21h99q0 65 -62 89q-24 9 -50 9q-61 0 -91 -42q-9 -12 -13 -26l-76 25q20 78 102 109
q36 13 75 13q97 0 153 -63q43 -50 43 -122v-79h-186q-100 0 -125 -73q-6 -20 -6 -43q0 -78 75 -104q28 -10 63 -10h38q89 1 122 74l80 -21q-33 -99 -136 -129q-33 -9 -66 -9h-38q-128 0 -189 77q-38 50 -38 122zM30 602v28q0 84 70 129q46 30 106 30h88q94 0 144 -64
q32 -42 32 -95v-28h-82q0 103 -108 105h-2h-56q-109 -3 -110 -105h-82z" />
    <glyph glyph-name="si_DIi" horiz-adv-x="547" 
d="M370 -204q103 0 153 73q16 24 24 53l-83 21q-14 -52 -67 -64q-13 -3 -25 -3q-54 0 -80 38q-13 19 -13 41h-85q0 -94 78 -136q43 -23 98 -23zM35 199q0 -128 110 -176q52 -23 117 -23h38q96 0 157 62q31 32 46 76l-80 21q-34 -73 -123 -74h-38q-98 0 -127 66
q-10 22 -10 48q0 91 85 111q22 5 46 5h186v79q0 109 -90 158q-48 27 -107 27q-91 0 -143 -60q-24 -28 -33 -62l76 -25q13 49 71 64q16 4 33 4q68 0 97 -47q14 -23 14 -51h-99q-143 0 -198 -93q-28 -46 -28 -110zM388 595q57 0 83 49q13 24 13 52q0 82 -76 114q-34 14 -76 14
h-117q-95 0 -143 -67q-28 -40 -28 -92v-28h82q0 97 88 104q9 1 17 1h63q15 0 25 -1q-24 -26 -25 -58q0 -50 45 -75q23 -13 49 -13z" />
    <glyph glyph-name="si_DR.halant" horiz-adv-x="525" 
d="M31 199q0 -128 110 -176q52 -23 117 -23h33q65 1 116 35v-54q0 -91 -61 -120q-22 -11 -52 -11v-84q198 2 199 236v152h-85q-34 -68 -121 -69h-29q-98 0 -128 65q-10 22 -10 49q0 89 84 110q22 6 48 6h186v79q0 109 -90 158q-48 27 -107 27q-91 0 -144 -60
q-24 -27 -33 -62l76 -25q15 49 71 64q17 4 33 4q69 0 98 -47q14 -23 14 -51h-99q-143 0 -198 -93q-28 -46 -28 -110zM238 -234v84q-63 0 -99 37q-25 27 -25 66h-82v-19q0 -89 84 -137q55 -31 122 -31zM285 619h85v200h-85v-200z" />
    <glyph glyph-name="si_DRI" horiz-adv-x="525" 
d="M31 199q0 -128 110 -176q52 -23 117 -23h33q65 1 116 35v-54q0 -91 -61 -120q-22 -11 -52 -11v-84q198 2 199 236v152h-85q-34 -68 -121 -69h-29q-98 0 -128 65q-10 22 -10 49q0 89 84 110q22 6 48 6h186v79q0 109 -90 158q-48 27 -107 27q-91 0 -144 -60
q-24 -27 -33 -62l76 -25q15 49 71 64q17 4 33 4q69 0 98 -47q14 -23 14 -51h-99q-143 0 -198 -93q-28 -46 -28 -110zM238 -234v84q-63 0 -99 37q-25 27 -25 66h-82v-19q0 -89 84 -137q55 -31 122 -31zM30 602h82q0 103 108 105h2h56q109 -3 110 -105h82v28q0 84 -70 129
q-46 30 -106 30h-88q-94 0 -144 -64q-32 -42 -32 -95v-28z" />
    <glyph glyph-name="si_DRIi" horiz-adv-x="525" 
d="M31 199q0 -128 110 -176q52 -23 117 -23h33q65 1 116 35v-54q0 -91 -61 -120q-22 -11 -52 -11v-84q198 2 199 236v152h-85q-34 -68 -121 -69h-29q-98 0 -128 65q-10 22 -10 49q0 89 84 110q22 6 48 6h186v79q0 109 -90 158q-48 27 -107 27q-91 0 -144 -60
q-24 -27 -33 -62l76 -25q15 49 71 64q17 4 33 4q69 0 98 -47q14 -23 14 -51h-99q-143 0 -198 -93q-28 -46 -28 -110zM238 -234v84q-63 0 -99 37q-25 27 -25 66h-82v-19q0 -89 84 -137q55 -31 122 -31zM383 595q57 0 83 49q13 24 13 52q0 82 -76 114q-34 14 -76 14h-117
q-95 0 -143 -67q-28 -40 -28 -92v-28h82q0 97 88 104q9 1 17 1h62q15 0 26 -1q-24 -26 -25 -58q0 -50 45 -75q23 -13 49 -13z" />
    <glyph glyph-name="si_DRa" horiz-adv-x="525" 
d="M31 199q0 -128 110 -176q52 -23 117 -23h33q65 1 116 35v-54q0 -91 -61 -120q-22 -11 -52 -11v-84q198 2 199 236v152h-85q-34 -68 -121 -69h-29q-98 0 -128 65q-10 22 -10 49q0 89 84 110q22 6 48 6h186v79q0 109 -90 158q-48 27 -107 27q-91 0 -144 -60
q-24 -27 -33 -62l76 -25q15 49 71 64q17 4 33 4q69 0 98 -47q14 -23 14 -51h-99q-143 0 -198 -93q-28 -46 -28 -110zM238 -234v84q-63 0 -99 37q-25 27 -25 66h-82v-19q0 -89 84 -137q55 -31 122 -31z" />
    <glyph glyph-name="si_DU" horiz-adv-x="480" 
d="M363 -205v291h87v-291h-87zM37 -205v87h270v-87h-270zM257 0q-128 0 -189 77q-38 50 -38 122q0 134 112 182q50 21 114 21h99q0 66 -63 90q-23 8 -49 8q-61 0 -92 -43q-8 -12 -12 -25l-76 25q22 81 106 110q34 12 71 12q96 0 153 -63q44 -49 44 -121v-80h-186
q-101 0 -126 -74q-6 -19 -6 -42q0 -78 75 -104q28 -10 63 -10h50v-85h-50z" />
    <glyph glyph-name="si_DUu" horiz-adv-x="480" 
d="M257 0q-128 0 -189 77q-38 50 -38 122q0 134 112 182q50 21 114 21h99q0 66 -63 90q-23 8 -49 8q-61 0 -92 -43q-8 -12 -12 -25l-76 25q22 81 106 110q34 12 71 12q96 0 153 -63q44 -49 44 -121v-80h-186q-101 0 -126 -74q-6 -19 -6 -42q0 -78 75 -104q28 -10 63 -10h50
v-85h-50zM363 -205v291h87v-291h-87zM307 -205q-40 23 -77 23q-24 0 -71 -16q-24 -7 -42 -7q-46 1 -80 26v85q33 -26 80 -26q18 0 62 14q27 9 51 9q37 0 77 -19v-89z" />
    <glyph glyph-name="si_DV.halant" horiz-adv-x="717" 
d="M403 -2v87q-81 0 -112 57q-12 22 -12 46q0 68 52 85q27 9 77 9h66v79q0 77 -66 112q-34 17 -74 17q-55 -1 -91 -29q-26 7 -53 7q-91 0 -134 -81q-26 -51 -26 -124v-73q0 -94 25 -145q14 -29 39 -62l83 27q-50 60 -58 112q-4 26 -4 68v73q0 124 78 132q6 1 11 1q6 0 24 -2
l43 -12q16 36 63 38q46 0 64 -35q6 -13 6 -27q-109 0 -156 -38q-5 -4 -8 -7q-45 -37 -47 -113v-14q0 -85 70 -141q59 -47 140 -47zM213 570h246q125 0 139 -107q2 -15 2 -31v-184q0 -137 -95 -158q-21 -5 -46 -5v-87q227 2 228 242v201q0 189 -181 209q-22 2 -47 2h-110
q-38 0 -47 33q-2 7 -2 13q0 31 29 42q10 3 20 3h58v76h-55q-77 0 -113 -52q-18 -26 -18 -56q1 -36 20 -59h-28v-82zM591 673h85q0 130 -120 144q-14 2 -28 2h-66v-76h51q53 0 68 -23q10 -18 10 -47z" />
    <glyph glyph-name="si_DVI" horiz-adv-x="718" 
d="M403 -2v87q-81 0 -112 57q-12 22 -12 46q0 68 52 85q27 9 77 9h66v79q0 77 -66 112q-34 17 -74 17q-55 -1 -91 -29q-26 7 -53 7q-91 0 -134 -81q-26 -51 -26 -124v-73q0 -94 25 -145q14 -29 39 -62l83 27q-50 60 -58 112q-4 26 -4 68v73q0 124 78 132q6 1 11 1q6 0 24 -2
l43 -12q16 36 63 38q46 0 64 -35q6 -13 6 -27q-109 0 -156 -38q-5 -4 -8 -7q-45 -37 -47 -113v-14q0 -85 70 -141q59 -47 140 -47zM459 -2q227 2 228 242v201q0 191 -184 209q-20 2 -40 2h-133q-36 0 -46 31q-2 8 -2 14q0 33 30 43q8 3 18 3h77v76h-62q-89 0 -126 -65
q-16 -28 -16 -60q0 -85 75 -113q29 -11 67 -11h114q125 0 139 -107q2 -15 2 -31v-183q0 -136 -92 -159q-22 -5 -49 -5v-87zM596 673h85q0 119 -109 141q-22 5 -48 5h-62v-76h47q62 0 78 -29q9 -17 9 -41z" />
    <glyph glyph-name="si_DVIi" horiz-adv-x="719" 
d="M403 -2v87q-81 0 -112 57q-12 22 -12 46q0 68 52 85q27 9 77 9h66v79q0 77 -66 112q-34 17 -74 17q-55 -1 -91 -29q-26 7 -53 7q-91 0 -134 -81q-26 -51 -26 -124v-73q0 -94 25 -145q14 -29 39 -62l83 27q-50 60 -58 112q-4 26 -4 68v73q0 124 78 132q6 1 11 1q6 0 24 -2
l43 -12q16 36 63 38q46 0 64 -35q6 -13 6 -27q-109 0 -156 -38q-5 -4 -8 -7q-45 -37 -47 -113v-14q0 -85 70 -141q59 -47 140 -47zM459 -2q227 2 228 242v201q-1 118 -59 167q46 15 58 68q3 13 3 26q0 87 -86 113q-30 9 -65 9h-79v-76h51q17 0 29 -1q-31 -22 -32 -60
q1 -22 11 -39q-11 1 -33 1h-150q-39 0 -49 35q-2 8 -2 14q0 34 29 46q11 4 22 4h68v76h-58q-88 0 -126 -66q-16 -29 -16 -62q0 -68 54 -103q35 -23 84 -23h118q125 0 139 -107q2 -15 2 -31v-190q0 -141 -112 -155q-14 -2 -29 -2v-87z" />
    <glyph glyph-name="si_DVU" horiz-adv-x="720" 
d="M461 -118v-87h210v326q19 52 19 124v272q0 220 -195 237q-17 1 -34 1v-87q108 0 133 -87q9 -32 9 -75v-261q-1 -159 -142 -160v-87q73 0 123 24v-140h-123zM223 -118v-87h182v87h-182zM405 -2v87q-80 0 -113 57q-12 22 -12 46q0 68 53 85q28 9 77 9h65v79q0 77 -66 112
q-34 17 -74 17q-54 -1 -91 -30q-29 8 -54 8q-91 0 -134 -81q-26 -51 -26 -124v-73q0 -94 25 -145q14 -29 39 -62l83 27q-50 60 -58 112q-4 26 -4 68v73q0 124 78 132q6 1 11 1q10 0 27 -3l41 -11q18 36 63 38q47 0 65 -35q6 -13 6 -27q-110 0 -156 -38q-5 -4 -9 -7
q-46 -47 -47 -127q0 -84 70 -141q60 -47 141 -47zM192 564l85 -22q0 72 61 108q31 19 67 19v86q-83 0 -149 -59q-63 -57 -64 -132z" />
    <glyph glyph-name="si_DVUu" horiz-adv-x="720" 
d="M213 -83v-88q38 -31 73 -31q19 0 68 19q30 11 51 11v88q-22 0 -71 -19q-28 -11 -48 -11q-35 1 -73 31zM581 -205h87v319q22 52 22 131v272q0 220 -195 237q-17 1 -34 1v-87q108 0 133 -87q9 -32 9 -75v-261q-1 -159 -142 -160v-87q71 0 120 23v-135q-58 30 -120 30v-88
q62 -1 120 -33zM405 -2v87q-80 0 -113 57q-12 22 -12 46q0 68 53 85q28 9 77 9h65v79q0 77 -66 112q-34 17 -74 17q-54 -1 -91 -30q-29 8 -54 8q-91 0 -134 -81q-26 -51 -26 -124v-73q0 -94 25 -145q14 -29 39 -62l83 27q-50 60 -58 112q-4 26 -4 68v73q0 124 78 132
q6 1 11 1q10 0 27 -3l41 -11q18 36 63 38q47 0 65 -35q6 -13 6 -27q-110 0 -156 -38q-5 -4 -9 -7q-46 -47 -47 -127q0 -84 70 -141q60 -47 141 -47zM192 564l85 -22q0 72 61 108q31 19 67 19v86q-83 0 -149 -59q-63 -57 -64 -132z" />
    <glyph glyph-name="si_DVa" horiz-adv-x="720" 
d="M405 -2v87q-80 0 -113 57q-12 22 -12 46q0 68 53 85q28 9 77 9h65v79q0 77 -66 112q-34 17 -74 17q-54 -1 -91 -30q-29 8 -54 8q-91 0 -134 -81q-26 -51 -26 -124v-73q0 -94 25 -145q14 -29 39 -62l83 27q-50 60 -58 112q-4 26 -4 68v73q0 124 78 132q6 1 11 1
q10 0 27 -3l41 -11q18 36 63 38q47 0 65 -35q6 -13 6 -27q-110 0 -156 -38q-5 -4 -9 -7q-46 -47 -47 -127q0 -84 70 -141q60 -47 141 -47zM461 -2q207 0 227 200q2 23 2 47v272q0 220 -195 237q-17 1 -34 1v-87q108 0 133 -87q9 -32 9 -75v-261q-1 -159 -142 -160v-87z
M192 564l85 -22q0 72 61 108q31 19 67 19v86q-83 0 -149 -59q-63 -57 -64 -132z" />
    <glyph glyph-name="si_Da.reph" horiz-adv-x="541" 
d="M365 -204q-100 0 -149 67q-28 39 -28 92h86q0 -48 48 -70q22 -9 45 -9q54 0 80 42q8 12 11 25l83 -21q-20 -82 -100 -113q-35 -13 -76 -13zM30 199q0 134 112 182q50 21 114 21h99q0 66 -63 90q-23 8 -49 8q-61 0 -92 -43q-8 -12 -12 -25l-76 25q20 78 102 109
q36 13 75 13q97 0 153 -63q44 -49 44 -122v-79h-186q-101 0 -126 -74q-6 -19 -6 -42q0 -78 75 -104q28 -10 63 -10h38q90 1 123 74l80 -21q-33 -98 -136 -128q-34 -10 -67 -10h-38q-128 0 -189 77q-38 50 -38 122zM185 588q-73 0 -101 61q-11 24 -11 51q0 65 51 99
q32 20 74 20h84q86 0 119 -61q13 -27 13 -58v-82h-67v73q0 56 -69 61h-11h-67q-49 0 -61 -38q-3 -8 -3 -16q0 -34 30 -46q9 -3 18 -3q39 0 45 40q1 4 1 8h59q0 -100 -88 -108q-8 -1 -16 -1z" />
    <glyph glyph-name="si_Da.touch" horiz-adv-x="541" 
d="M365 -204q-100 0 -149 67q-28 39 -28 92h86q0 -48 48 -70q22 -9 45 -9q54 0 80 42q8 12 11 25l83 -21q-20 -82 -100 -113q-35 -13 -76 -13zM30 199q0 134 112 182q50 21 114 21h99q0 66 -63 90q-23 8 -49 8q-61 0 -92 -43q-8 -12 -12 -25l-76 25q20 78 102 109
q36 13 75 13q97 0 153 -63q44 -49 44 -122v-79h-186q-101 0 -126 -74q-6 -19 -6 -42q0 -78 75 -104q28 -10 63 -10h38q90 1 123 74l80 -21q-33 -98 -136 -128q-34 -10 -67 -10h-38q-128 0 -189 77q-38 50 -38 122z" />
    <glyph glyph-name="si_Dd.halant" horiz-adv-x="628" 
d="M232 -4q68 1 104 51q41 -51 112 -51q88 0 128 67q22 36 22 83v295q0 199 -202 210q-13 1 -26 1h-138q-41 0 -49 34q-1 6 -1 11q0 37 36 45q7 1 14 1h74v76h-73q-100 0 -129 -66q-8 -20 -8 -40q1 -43 26 -61h-38v-82h286q117 0 135 -95q4 -20 4 -43v-280q0 -38 -30 -58
q-18 -11 -41 -11q-53 0 -66 49q-3 11 -3 20v45h-70v-45q0 -41 -31 -59q-17 -10 -38 -10q-53 0 -68 49q-3 10 -3 20v75q2 54 56 55h154v70q-1 64 -39 101q-39 37 -102 37q-73 0 -111 -51q-13 -18 -19 -39l68 -18q17 35 62 38q47 0 65 -38q6 -14 6 -31h-269v-69h62
q-19 -12 -19 -55v-81q0 -88 71 -128q39 -22 88 -22zM499 673h85q0 119 -98 141q-24 5 -54 5h-71v-76h56q57 0 73 -26q9 -17 9 -44z" />
    <glyph glyph-name="si_DdI" horiz-adv-x="628" 
d="M232 -4q68 1 104 51q41 -51 112 -51q88 0 128 67q22 36 22 83v295q0 199 -202 210q-13 1 -26 1h-154q-36 0 -46 31q-2 8 -2 14q0 33 30 43q8 3 18 3h89v76h-74q-91 0 -127 -66q-15 -28 -15 -59q0 -88 75 -117q29 -12 67 -12h139q117 0 135 -95q4 -20 4 -43v-275
q0 -38 -30 -58q-18 -11 -41 -11q-53 0 -66 49q-3 11 -3 20v45h-70v-45q0 -41 -31 -59q-17 -10 -38 -10q-53 0 -68 49q-3 10 -3 20v75q2 54 56 55h154v70q0 92 -74 125q-30 13 -67 13q-73 0 -111 -51q-13 -18 -19 -39l68 -18q17 35 62 38q49 0 66 -39q5 -14 5 -30h-269v-69
h62q-19 -12 -19 -55v-81q0 -88 71 -128q39 -22 88 -22zM500 673h85q0 140 -140 146h-12h-72v-76h57q57 0 73 -26q9 -17 9 -44z" />
    <glyph glyph-name="si_DdIi" horiz-adv-x="628" 
d="M347 824v-76h66q18 0 29 -1q-30 -23 -31 -60q1 -23 13 -42q-26 3 -54 3h-150q-38 0 -49 35q-2 8 -2 15q0 34 29 46q11 4 22 4h71v76h-60q-89 0 -127 -66q-16 -30 -16 -62q0 -68 54 -103q35 -23 84 -23h144q117 0 135 -95q4 -20 4 -43v-280q0 -38 -30 -58q-18 -11 -41 -11
q-53 0 -66 49q-3 11 -3 20v45h-70v-45q0 -41 -31 -59q-17 -10 -38 -10q-53 0 -68 49q-3 10 -3 20v75q2 54 56 55h154v70q0 94 -76 126q-29 12 -65 12q-73 0 -111 -51q-13 -18 -19 -39l68 -18q17 35 62 38q49 0 66 -39q5 -14 5 -30h-269v-69h62q-19 -12 -19 -55v-81
q0 -88 71 -128q39 -22 88 -22q68 1 104 51q41 -51 112 -51q88 0 128 67q22 36 22 83v295q-1 116 -69 167q48 13 61 66q3 14 3 28q0 87 -86 113q-30 9 -65 9h-95z" />
    <glyph glyph-name="si_DdR.halant" horiz-adv-x="628" 
d="M232 -4q68 1 104 51q41 -51 112 -51q27 0 54 8q15 -21 15 -47q0 -58 -62 -86q-39 -17 -94 -17v-83q144 0 209 83q36 47 36 108q-1 59 -30 100q22 37 22 84v295q0 199 -202 210q-13 1 -26 1h-138q-41 0 -49 34q-1 6 -1 11q0 37 36 45q7 1 14 1h74v76h-73q-100 0 -129 -66
q-8 -20 -8 -40q1 -43 26 -61h-38v-82h286q117 0 135 -95q4 -20 4 -43v-280q0 -38 -30 -58q-18 -11 -41 -11q-53 0 -66 49q-3 11 -3 20v45h-70v-45q0 -41 -31 -59q-17 -10 -38 -10q-53 0 -68 49q-3 10 -3 20v75q2 54 56 55h154v70q-1 64 -39 101q-39 37 -102 37
q-73 0 -111 -51q-13 -18 -19 -39l68 -18q17 35 62 38q47 0 65 -38q6 -14 6 -31h-269v-69h62q-19 -12 -19 -55v-81q0 -88 71 -128q39 -22 88 -22zM499 673h85q0 119 -98 141q-24 5 -54 5h-71v-76h56q57 0 73 -26q9 -17 9 -44zM305 -229v82q-67 0 -114 34q-37 29 -38 70h-88
q0 -100 97 -152q63 -34 143 -34z" />
    <glyph glyph-name="si_DdRI" horiz-adv-x="628" 
d="M232 -4q68 1 104 51q41 -51 112 -51q31 0 56 9q16 -20 16 -48q0 -58 -62 -86q-39 -17 -94 -17v-83q144 0 209 83q36 47 36 108q-1 58 -32 103q21 34 21 81v295q0 199 -202 210q-13 1 -26 1h-154q-36 0 -46 31q-2 8 -2 14q0 33 30 43q8 3 18 3h89v76h-74q-91 0 -127 -66
q-15 -28 -15 -59q0 -88 75 -117q29 -12 67 -12h139q117 0 135 -95q4 -20 4 -43v-275q0 -38 -30 -58q-18 -11 -41 -11q-53 0 -66 49q-3 11 -3 20v45h-70v-45q0 -41 -31 -59q-17 -10 -38 -10q-53 0 -68 49q-3 10 -3 20v75q2 54 56 55h154v70q0 92 -74 125q-30 13 -67 13
q-73 0 -111 -51q-13 -18 -19 -39l68 -18q17 35 62 38q49 0 66 -39q5 -14 5 -30h-269v-69h62q-19 -12 -19 -55v-81q0 -88 71 -128q39 -22 88 -22zM500 673h85q0 140 -140 146h-12h-72v-76h57q57 0 73 -26q9 -17 9 -44zM308 -229v82q-65 0 -112 34q-39 29 -40 70h-87
q0 -101 97 -153q63 -33 142 -33z" />
    <glyph glyph-name="si_DdRIi" horiz-adv-x="628" 
d="M364 -229q144 0 209 83q36 47 36 108q-1 58 -32 103q21 34 21 81v295q-1 116 -69 167q48 13 61 66q3 14 3 28q0 87 -86 113q-30 9 -65 9h-95v-76h66q18 0 29 -1q-30 -23 -31 -60q1 -23 13 -42q-26 3 -54 3h-150q-38 0 -49 35q-2 8 -2 15q0 34 29 46q11 4 22 4h71v76h-60
q-89 0 -127 -66q-16 -30 -16 -62q0 -68 54 -103q35 -23 84 -23h144q117 0 135 -95q4 -20 4 -43v-280q0 -38 -30 -58q-18 -11 -41 -11q-53 0 -66 49q-3 11 -3 20v45h-70v-45q0 -41 -31 -59q-17 -10 -38 -10q-53 0 -68 49q-3 10 -3 20v75q2 54 56 55h154v70q0 94 -76 126
q-29 12 -65 12q-73 0 -111 -51q-13 -18 -19 -39l68 -18q17 35 62 38q49 0 66 -39q5 -14 5 -30h-269v-69h62q-19 -12 -19 -55v-81q0 -88 71 -128q39 -22 88 -22q68 1 104 51q41 -51 112 -51q31 0 56 9q16 -20 16 -48q0 -58 -62 -86q-39 -17 -94 -17v-83zM308 -229v82
q-65 0 -112 34q-39 29 -40 70h-87q0 -101 97 -153q63 -33 142 -33z" />
    <glyph glyph-name="si_DdRa" horiz-adv-x="628" 
d="M232 -4q68 1 104 51q41 -51 112 -51q31 0 56 9q16 -20 16 -48q0 -58 -62 -86q-39 -17 -94 -17v-83q144 0 209 83q36 47 36 108q-1 58 -32 103q21 34 21 81v371q0 183 -131 224q-43 14 -103 14v-87q99 0 128 -61q17 -37 17 -101v-354q0 -38 -30 -58q-18 -11 -41 -11
q-53 0 -66 49q-3 11 -3 20v45h-70v-45q0 -41 -31 -59q-17 -10 -38 -10q-53 0 -68 49q-3 10 -3 20v75q2 54 56 55h154v70q-1 64 -39 101q-39 37 -102 37q-73 0 -111 -51q-13 -18 -19 -39l68 -18q17 35 62 38q47 0 65 -38q6 -14 6 -31h-269v-69h62q-19 -12 -19 -55v-81
q0 -88 71 -128q39 -22 88 -22zM80 564l85 -22q0 81 73 113q33 14 70 14v86q-93 0 -162 -59q-65 -56 -66 -132zM308 -229v82q-65 0 -112 34q-39 29 -40 70h-87q0 -101 97 -153q63 -33 142 -33z" />
    <glyph glyph-name="si_DdU" horiz-adv-x="628" 
d="M232 -4q68 1 104 51q41 -51 112 -51q28 0 49 7v-121h-133v-87h220v282q14 32 14 69v371q0 183 -131 224q-43 14 -103 14v-87q99 0 128 -61q17 -37 17 -101v-354q0 -38 -30 -58q-18 -11 -41 -11q-53 0 -66 49q-3 11 -3 20v45h-70v-45q0 -41 -31 -59q-17 -10 -38 -10
q-53 0 -68 49q-3 10 -3 20v75q2 54 56 55h154v70q-1 64 -39 101q-39 37 -102 37q-73 0 -111 -51q-13 -18 -19 -39l68 -18q17 35 62 38q47 0 65 -38q6 -14 6 -31h-269v-69h62q-19 -12 -19 -55v-81q0 -88 71 -128q39 -22 88 -22zM80 564l85 -22q0 81 73 113q33 14 70 14v86
q-93 0 -162 -59q-65 -56 -66 -132zM96 -118v-87h212v87h-212z" />
    <glyph glyph-name="si_DdUu" horiz-adv-x="628" 
d="M232 -4q68 1 104 51q41 -51 112 -51q24 0 51 7v-117q-59 26 -134 26v-88q73 -1 134 -29h87v287q12 29 12 64v371q0 183 -131 224q-43 14 -103 14v-87q99 0 128 -61q17 -37 17 -101v-354q0 -38 -30 -58q-18 -11 -41 -11q-53 0 -66 49q-3 11 -3 20v45h-70v-45
q0 -41 -31 -59q-17 -10 -38 -10q-53 0 -68 49q-3 10 -3 20v75q2 54 56 55h154v70q-1 64 -39 101q-39 37 -102 37q-73 0 -111 -51q-13 -18 -19 -39l68 -18q17 35 62 38q47 0 65 -38q6 -14 6 -31h-269v-69h62q-19 -12 -19 -55v-81q0 -88 71 -128q39 -22 88 -22zM80 564l85 -22
q0 81 73 113q33 14 70 14v86q-93 0 -162 -59q-65 -56 -66 -132zM94 -94v-88q37 -21 77 -21q20 0 78 17q35 10 60 10v88q-25 0 -86 -19q-31 -9 -51 -9q-42 1 -78 22z" />
    <glyph glyph-name="si_Dda.reph" horiz-adv-x="628" 
d="M232 -4q68 1 104 51q41 -51 112 -51q88 0 128 67q22 36 22 83v371q0 183 -131 224q-43 14 -103 14v-87q99 0 128 -61q17 -37 17 -101v-354q0 -38 -30 -58q-18 -11 -41 -11q-53 0 -66 49q-3 11 -3 20v45h-70v-45q0 -41 -31 -59q-17 -10 -38 -10q-53 0 -68 49q-3 10 -3 20
v75q2 54 56 55h154v70q-1 64 -39 101q-39 37 -102 37q-73 0 -111 -51q-13 -18 -19 -39l68 -18q17 35 62 38q47 0 65 -38q6 -14 6 -31h-269v-69h62q-19 -12 -19 -55v-81q0 -88 71 -128q39 -22 88 -22zM80 564l85 -22q0 81 73 113q33 14 70 14v86q-93 0 -162 -59
q-65 -56 -66 -132zM275 775q96 0 103 95q1 7 1 14h-59q0 -36 -29 -45q-8 -3 -17 -3q-35 0 -45 32q-3 8 -3 17q0 36 36 49q13 5 28 5h67q67 -2 78 -41q2 -9 2 -20v-73h67v82q0 75 -64 105q-30 14 -67 14h-84q-82 0 -114 -64q-12 -26 -12 -55q0 -63 48 -94q28 -18 64 -18z" />
    <glyph glyph-name="si_Dda.touch" horiz-adv-x="628" 
d="M232 -4q68 1 104 51q41 -51 112 -51q88 0 128 67q22 36 22 83v371q0 183 -131 224q-43 14 -103 14v-87q99 0 128 -61q17 -37 17 -101v-354q0 -38 -30 -58q-18 -11 -41 -11q-53 0 -66 49q-3 11 -3 20v45h-70v-45q0 -41 -31 -59q-17 -10 -38 -10q-53 0 -68 49q-3 10 -3 20
v75q2 54 56 55h154v70q-1 64 -39 101q-39 37 -102 37q-73 0 -111 -51q-13 -18 -19 -39l68 -18q17 35 62 38q47 0 65 -38q6 -14 6 -31h-269v-69h62q-19 -12 -19 -55v-81q0 -88 71 -128q39 -22 88 -22zM80 564l85 -22q0 81 73 113q33 14 70 14v86q-93 0 -162 -59
q-65 -56 -66 -132z" />
    <glyph glyph-name="si_Ddh.halant" horiz-adv-x="628" 
d="M232 -4q68 1 104 51q41 -51 112 -51q88 0 128 67q22 36 22 83v371v1v301h-86v-99q-55 35 -145 35h-59v-127q0 -111 87 -151q30 -14 69 -18v62q-89 5 -96 91q-1 8 -1 15v41q103 0 130 -73q13 -37 13 -97v-346q0 -37 -30 -57q-18 -12 -42 -12q-53 0 -66 49q-3 11 -3 20v45
h-70v-45q0 -41 -31 -59q-17 -10 -38 -10q-53 0 -68 49q-3 10 -3 20v75q2 54 56 55h154v70q-1 64 -39 101q-39 37 -102 37q-73 0 -111 -51q-13 -18 -19 -39l68 -18q17 35 62 38q47 0 65 -38q6 -14 6 -31h-269v-69h62q-19 -12 -19 -55v-81q0 -88 71 -128q39 -22 88 -22z" />
    <glyph glyph-name="si_DdhI" horiz-adv-x="628" 
d="M232 -4q68 1 104 51q41 -51 112 -51q88 0 128 67q22 36 22 83v371q0 224 -203 237q-14 1 -28 1h-59v-127q0 -111 87 -151q30 -14 69 -18v62q-89 5 -96 91q-1 8 -1 15v41q103 0 130 -73q13 -37 13 -97v-346q0 -37 -30 -57q-18 -12 -42 -12q-53 0 -66 49q-3 11 -3 20v45
h-70v-45q0 -41 -31 -59q-17 -10 -38 -10q-53 0 -68 49q-3 10 -3 20v75q2 54 56 55h154v70q-1 64 -39 101q-39 37 -102 37q-73 0 -111 -51q-13 -18 -19 -39l68 -18q17 35 62 38q47 0 65 -38q6 -14 6 -31h-269v-69h62q-19 -12 -19 -55v-81q0 -88 71 -128q39 -22 88 -22z
M260 922q-84 0 -118 -64q-14 -27 -14 -57q0 -65 52 -100q34 -22 80 -22v76q-38 0 -48 32q-2 7 -2 14q0 32 31 42q8 3 19 3h155q85 -2 86 -70h85q0 93 -71 129q-34 17 -79 17h-176z" />
    <glyph glyph-name="si_DdhIi" horiz-adv-x="629" 
d="M232 -4q68 1 104 51q41 -51 112 -51q88 0 128 67q22 36 22 83v371q-1 131 -69 190q52 6 76 53q10 22 10 45q0 79 -74 107q-29 10 -62 10h-219q-84 0 -118 -64q-14 -27 -14 -57q0 -65 52 -100q34 -22 80 -22v76q-38 0 -48 32q-2 7 -2 14q0 32 31 42q8 3 19 3h168
q17 0 26 -2q-27 -16 -28 -49q1 -24 15 -47q-33 7 -74 7h-59v-127q0 -111 87 -151q30 -14 69 -18v62q-89 5 -96 91q-1 8 -1 15v41q103 0 130 -73q13 -37 13 -97v-346q0 -37 -30 -57q-18 -12 -42 -12q-53 0 -66 49q-3 11 -3 20v45h-70v-45q0 -41 -31 -59q-17 -10 -38 -10
q-53 0 -68 49q-3 10 -3 20v75q2 54 56 55h154v70q-1 64 -39 101q-39 37 -102 37q-73 0 -111 -51q-13 -18 -19 -39l68 -18q17 35 62 38q47 0 65 -38q6 -14 6 -31h-269v-69h62q-19 -12 -19 -55v-81q0 -88 71 -128q39 -22 88 -22z" />
    <glyph glyph-name="si_DdhU" horiz-adv-x="628" 
d="M232 -4q68 1 104 51q41 -51 112 -51q28 0 49 7v-121h-133v-87h220v282q14 32 14 69v371q0 224 -203 237q-14 1 -28 1h-59v-127q0 -111 87 -151q30 -14 69 -18v62q-89 5 -96 91q-1 8 -1 15v41q103 0 130 -73q13 -37 13 -97v-346q0 -37 -30 -57q-18 -12 -42 -12
q-53 0 -66 49q-3 11 -3 20v45h-70v-45q0 -41 -31 -59q-17 -10 -38 -10q-53 0 -68 49q-3 10 -3 20v75q2 54 56 55h154v70q-1 64 -39 101q-39 37 -102 37q-73 0 -111 -51q-13 -18 -19 -39l68 -18q17 35 62 38q47 0 65 -38q6 -14 6 -31h-269v-69h62q-19 -12 -19 -55v-81
q0 -88 71 -128q39 -22 88 -22zM95 -118v-87h213v87h-213z" />
    <glyph glyph-name="si_DdhUu" horiz-adv-x="628" 
d="M232 -4q68 1 104 51q41 -51 112 -51q29 0 50 7v-117q-59 26 -132 26v-88q71 -1 132 -29h87v285q13 32 13 66v371q0 224 -203 237q-14 1 -28 1h-59v-127q0 -111 87 -151q30 -14 69 -18v62q-89 5 -96 91q-1 8 -1 15v41q103 0 130 -73q13 -37 13 -97v-346q0 -37 -30 -57
q-18 -12 -42 -12q-53 0 -66 49q-3 11 -3 20v45h-70v-45q0 -41 -31 -59q-17 -10 -38 -10q-53 0 -68 49q-3 10 -3 20v75q2 54 56 55h154v70q-1 64 -39 101q-39 37 -102 37q-73 0 -111 -51q-13 -18 -19 -39l68 -18q17 35 62 38q47 0 65 -38q6 -14 6 -31h-269v-69h62
q-19 -12 -19 -55v-81q0 -88 71 -128q39 -22 88 -22zM95 -94v-88q37 -21 77 -21q20 0 78 17q35 10 60 10v88q-25 0 -86 -19q-31 -9 -51 -9q-42 1 -78 22z" />
    <glyph glyph-name="si_Ddha.touch" horiz-adv-x="628" 
d="M232 -4q68 1 104 51q41 -51 112 -51q88 0 128 67q22 36 22 83v371q0 224 -203 237q-14 1 -28 1h-59v-127q0 -111 87 -151q30 -14 69 -18v62q-89 5 -96 91q-1 8 -1 15v41q103 0 130 -73q13 -37 13 -97v-346q0 -37 -30 -57q-18 -12 -42 -12q-53 0 -66 49q-3 11 -3 20v45
h-70v-45q0 -41 -31 -59q-17 -10 -38 -10q-53 0 -68 49q-3 10 -3 20v75q2 54 56 55h154v70q-1 64 -39 101q-39 37 -102 37q-73 0 -111 -51q-13 -18 -19 -39l68 -18q17 35 62 38q47 0 65 -38q6 -14 6 -31h-269v-69h62q-19 -12 -19 -55v-81q0 -88 71 -128q39 -22 88 -22z" />
    <glyph glyph-name="si_Dh.halant" horiz-adv-x="586" 
d="M190 -4q69 1 105 51q40 -51 112 -51q86 0 127 65q22 37 22 85v295q0 189 -181 209q-22 2 -47 2h-134q-41 0 -49 34q-1 6 -1 11q0 37 36 45q7 1 14 1h73v76h-72q-100 0 -129 -66q-9 -19 -9 -40q1 -42 27 -61h-39v-82h283q120 0 137 -99q3 -19 3 -40v-279q0 -37 -29 -57
q-19 -12 -42 -12q-52 0 -67 48q-3 11 -3 21v45h-69v-45q0 -39 -31 -59q-17 -10 -39 -10q-53 0 -68 49q-3 11 -3 20v131q0 72 55 98q23 10 53 10h31v86h-31q-161 0 -190 -136q-5 -26 -5 -55v-140q0 -89 72 -129q39 -21 88 -21zM323 743h55q57 0 73 -25q10 -17 10 -45h84
q0 116 -91 139q-27 7 -61 7h-70v-76z" />
    <glyph glyph-name="si_DhI" horiz-adv-x="586" 
d="M190 -4q69 1 105 51q40 -51 112 -51q86 0 127 65q22 37 22 85v294q0 186 -173 209q-26 3 -55 3h-151q-36 0 -46 31q-2 8 -2 14q0 33 30 43q8 3 18 3h90v76h-75q-89 0 -126 -65q-16 -28 -16 -60q0 -88 75 -117q29 -12 67 -12h136q121 0 137 -101q3 -17 3 -37v-275
q0 -37 -29 -57q-19 -12 -42 -12q-52 0 -67 48q-3 11 -3 21v45h-69v-45q0 -39 -31 -59q-17 -10 -39 -10q-53 0 -68 49q-3 11 -3 20v131q0 72 55 98q23 10 53 10h31v86h-31q-161 0 -190 -136q-5 -26 -5 -55v-140q0 -89 72 -129q39 -21 88 -21zM462 673h85q0 140 -140 146h-12
h-73v-76h58q57 0 73 -26q9 -17 9 -44z" />
    <glyph glyph-name="si_DhIi" horiz-adv-x="587" 
d="M314 824v-76h65q17 0 29 -1q-31 -22 -32 -60q1 -23 12 -41q-22 2 -35 2h-172q-38 0 -49 35q-2 8 -2 15q0 34 29 46q11 4 22 4h78v76h-67q-89 0 -127 -66q-16 -30 -16 -62q0 -68 54 -103q35 -23 84 -23h141q121 0 137 -101q3 -17 3 -37v-280q0 -37 -29 -57
q-19 -12 -42 -12q-52 0 -67 48q-3 11 -3 21v45h-69v-45q0 -39 -31 -59q-17 -10 -39 -10q-53 0 -68 49q-3 11 -3 20v131q0 72 55 98q23 10 53 10h31v86h-31q-161 0 -190 -136q-5 -26 -5 -55v-140q0 -89 72 -129q39 -21 88 -21q69 1 105 51q40 -51 112 -51q86 0 127 65
q22 37 22 85v295q-1 118 -61 167q46 13 60 63q4 16 4 31q0 86 -86 113q-30 9 -66 9h-93z" />
    <glyph glyph-name="si_DhR.halant" horiz-adv-x="586" 
d="M190 -4q69 1 105 51q40 -51 112 -51q31 0 56 9q16 -20 16 -48q0 -57 -62 -85q-40 -18 -95 -18v-83q145 0 210 84q36 46 36 107q-1 58 -32 103q20 36 20 81v295q0 189 -181 209q-22 2 -47 2h-134q-41 0 -49 34q-1 6 -1 11q0 37 36 45q7 1 14 1h73v76h-72q-100 0 -129 -66
q-9 -19 -9 -40q1 -42 27 -61h-39v-82h283q120 0 137 -99q3 -19 3 -40v-279q0 -37 -29 -57q-19 -12 -42 -12q-52 0 -67 48q-3 11 -3 21v45h-69v-45q0 -39 -31 -59q-17 -10 -39 -10q-53 0 -68 49q-3 11 -3 20v131q0 72 55 98q23 10 53 10h31v86h-31q-161 0 -190 -136
q-5 -26 -5 -55v-140q0 -89 72 -129q39 -21 88 -21zM323 743h55q57 0 73 -25q10 -17 10 -45h84q0 116 -91 139q-27 7 -61 7h-70v-76zM267 -229v82q-66 0 -114 34q-38 29 -39 70h-87q0 -101 97 -153q63 -33 143 -33z" />
    <glyph glyph-name="si_DhRI" horiz-adv-x="586" 
d="M190 -4q69 1 105 51q40 -51 112 -51q31 0 56 9q16 -20 16 -48q0 -57 -62 -85q-40 -18 -95 -18v-83q145 0 210 84q36 46 36 107q-1 58 -32 103q20 36 20 81v294q0 186 -173 209q-26 3 -55 3h-151q-36 0 -46 31q-2 8 -2 14q0 33 30 43q8 3 18 3h90v76h-75q-89 0 -126 -65
q-16 -28 -16 -60q0 -88 75 -117q29 -12 67 -12h136q121 0 137 -101q3 -17 3 -37v-275q0 -37 -29 -57q-19 -12 -42 -12q-52 0 -67 48q-3 11 -3 21v45h-69v-45q0 -39 -31 -59q-17 -10 -39 -10q-53 0 -68 49q-3 11 -3 20v131q0 72 55 98q23 10 53 10h31v86h-31
q-161 0 -190 -136q-5 -26 -5 -55v-140q0 -89 72 -129q39 -21 88 -21zM462 673h85q0 140 -140 146h-12h-73v-76h58q57 0 73 -26q9 -17 9 -44zM267 -229v82q-66 0 -114 34q-38 29 -39 70h-87q0 -101 97 -153q63 -33 143 -33z" />
    <glyph glyph-name="si_DhRIi" horiz-adv-x="587" 
d="M322 -229q145 0 210 84q36 46 36 107q-1 58 -32 103q20 36 20 81v295q-1 118 -61 167q46 13 60 63q4 16 4 31q0 86 -86 113q-30 9 -66 9h-93v-76h65q17 0 29 -1q-31 -22 -32 -60q1 -23 12 -41q-22 2 -35 2h-172q-38 0 -49 35q-2 8 -2 15q0 34 29 46q11 4 22 4h78v76h-67
q-89 0 -127 -66q-16 -30 -16 -62q0 -68 54 -103q35 -23 84 -23h141q121 0 137 -101q3 -17 3 -37v-280q0 -37 -29 -57q-19 -12 -42 -12q-52 0 -67 48q-3 11 -3 21v45h-69v-45q0 -39 -31 -59q-17 -10 -39 -10q-53 0 -68 49q-3 11 -3 20v131q0 72 55 98q23 10 53 10h31v86h-31
q-161 0 -190 -136q-5 -26 -5 -55v-140q0 -89 72 -129q39 -21 88 -21q69 1 105 51q40 -51 112 -51q31 0 56 9q16 -20 16 -48q0 -57 -62 -85q-40 -18 -95 -18v-83zM267 -229v82q-66 0 -114 34q-38 29 -39 70h-87q0 -101 97 -153q63 -33 143 -33z" />
    <glyph glyph-name="si_DhRa" horiz-adv-x="586" 
d="M190 -4q69 1 105 51q40 -51 112 -51q31 0 56 9q16 -20 16 -48q0 -57 -62 -85q-40 -18 -95 -18v-83q145 0 210 84q36 46 36 107q-1 58 -32 103q20 36 20 81v371q0 183 -131 224q-43 14 -103 14v-87q100 0 129 -62q17 -37 17 -100v-354q0 -37 -29 -57q-19 -12 -42 -12
q-52 0 -67 48q-3 11 -3 21v45h-69v-45q0 -39 -31 -59q-17 -10 -39 -10q-53 0 -68 49q-3 11 -3 20v131q0 72 55 98q23 10 53 10h31v86h-31q-161 0 -190 -136q-5 -26 -5 -55v-140q0 -89 72 -129q39 -21 88 -21zM38 564l85 -22q0 80 73 112q32 15 70 15v86q-93 0 -162 -59
q-65 -56 -66 -132zM267 -229v82q-66 0 -114 34q-38 29 -39 70h-87q0 -101 97 -153q63 -33 143 -33z" />
    <glyph glyph-name="si_DhU" horiz-adv-x="586" 
d="M190 -4q69 1 105 51q40 -51 112 -51q28 0 49 7v-121h-135v-87h222v284q13 33 13 67v371q0 183 -131 224q-43 14 -103 14v-87q100 0 129 -62q17 -37 17 -100v-354q0 -37 -29 -57q-19 -12 -42 -12q-52 0 -67 48q-3 11 -3 21v45h-69v-45q0 -39 -31 -59q-17 -10 -39 -10
q-53 0 -68 49q-3 11 -3 20v131q0 72 55 98q23 10 53 10h31v86h-31q-161 0 -190 -136q-5 -26 -5 -55v-140q0 -89 72 -129q39 -21 88 -21zM38 564l85 -22q0 80 73 112q32 15 70 15v86q-93 0 -162 -59q-65 -56 -66 -132zM54 -118v-87h210v87h-210z" />
    <glyph glyph-name="si_DhUu" horiz-adv-x="586" 
d="M190 -4q69 1 105 51q40 -51 112 -51q28 0 49 7v-117q-60 26 -135 26v-88q74 -1 135 -29h87v284q13 33 13 67v371q0 183 -131 224q-43 14 -103 14v-87q100 0 129 -62q17 -37 17 -100v-354q0 -37 -29 -57q-19 -12 -42 -12q-52 0 -67 48q-3 11 -3 21v45h-69v-45
q0 -39 -31 -59q-17 -10 -39 -10q-53 0 -68 49q-3 11 -3 20v131q0 72 55 98q23 10 53 10h31v86h-31q-161 0 -190 -136q-5 -26 -5 -55v-140q0 -89 72 -129q39 -21 88 -21zM38 564l85 -22q0 80 73 112q32 15 70 15v86q-93 0 -162 -59q-65 -56 -66 -132zM52 -94v-88
q37 -21 77 -21q19 0 75 17q35 10 61 10v88q-26 0 -86 -19q-30 -9 -49 -9q-41 1 -78 22z" />
    <glyph glyph-name="si_Dha.reph" horiz-adv-x="586" 
d="M190 -4q69 1 105 51q40 -51 112 -51q86 0 127 65q22 37 22 85v371q0 183 -131 224q-43 14 -103 14v-87q100 0 129 -62q17 -37 17 -100v-354q0 -37 -29 -57q-19 -12 -42 -12q-52 0 -67 48q-3 11 -3 21v45h-69v-45q0 -39 -31 -59q-17 -10 -39 -10q-53 0 -68 49q-3 11 -3 20
v131q0 72 55 98q23 10 53 10h31v86h-31q-161 0 -190 -136q-5 -26 -5 -55v-140q0 -89 72 -129q39 -21 88 -21zM38 564l85 -22q0 80 73 112q32 15 70 15v86q-93 0 -162 -59q-65 -56 -66 -132zM233 775q96 0 103 95q1 7 1 14h-59q0 -36 -29 -45q-8 -3 -17 -3q-33 0 -45 31
q-3 9 -3 18q0 36 36 49q13 5 28 5h67q67 -2 78 -41q2 -9 2 -20v-73h67v82q0 76 -65 106q-29 13 -66 13h-84q-81 0 -112 -64q-13 -26 -13 -55q0 -64 48 -95q28 -17 63 -17z" />
    <glyph glyph-name="si_Dha.touch" horiz-adv-x="586" 
d="M190 -4q69 1 105 51q40 -51 112 -51q86 0 127 65q22 37 22 85v371q0 183 -131 224q-43 14 -103 14v-87q100 0 129 -62q17 -37 17 -100v-354q0 -37 -29 -57q-19 -12 -42 -12q-52 0 -67 48q-3 11 -3 21v45h-69v-45q0 -39 -31 -59q-17 -10 -39 -10q-53 0 -68 49q-3 11 -3 20
v131q0 72 55 98q23 10 53 10h31v86h-31q-161 0 -190 -136q-5 -26 -5 -55v-140q0 -89 72 -129q39 -21 88 -21zM38 564l85 -22q0 80 73 112q32 15 70 15v86q-93 0 -162 -59q-65 -56 -66 -132z" />
    <glyph glyph-name="si_DvocR" horiz-adv-x="855" 
d="M365 -204q-100 0 -149 67q-28 39 -28 92h86q0 -48 48 -70q22 -9 45 -9q54 0 80 42q8 12 11 25l83 -21q-20 -82 -100 -113q-35 -13 -76 -13zM30 199q0 134 112 182q50 21 114 21h99q0 66 -63 90q-23 8 -49 8q-61 0 -92 -43q-8 -12 -12 -25l-76 25q20 78 102 109
q36 13 75 13q97 0 153 -63q44 -49 44 -122v-79h-186q-101 0 -126 -74q-6 -19 -6 -42q0 -78 75 -104q28 -10 63 -10h38q90 1 123 74l80 -21q-33 -98 -136 -128q-34 -10 -67 -10h-38q-128 0 -189 77q-38 50 -38 122zM678 0q-74 0 -118 56q-29 39 -29 90q0 79 59 120
q38 25 88 25h21v-75h-21q-46 0 -64 -39q-7 -15 -7 -31q0 -40 36 -60q17 -9 35 -9q41 0 60 36q8 16 8 33l1 245q-3 95 -72 96h-90v82h97q88 0 124 -80q18 -40 18 -90v-253q0 -82 -66 -123q-37 -23 -80 -23z" />
    <glyph glyph-name="si_DvocRr" horiz-adv-x="1206" 
d="M365 -204q-100 0 -149 67q-28 39 -28 92h86q0 -48 48 -70q22 -9 45 -9q54 0 80 42q8 12 11 25l83 -21q-20 -82 -100 -113q-35 -13 -76 -13zM30 199q0 134 112 182q50 21 114 21h99q0 66 -63 90q-23 8 -49 8q-61 0 -92 -43q-8 -12 -12 -25l-76 25q20 78 102 109
q36 13 75 13q97 0 153 -63q44 -49 44 -122v-79h-186q-101 0 -126 -74q-6 -19 -6 -42q0 -78 75 -104q28 -10 63 -10h38q90 1 123 74l80 -21q-33 -98 -136 -128q-34 -10 -67 -10h-38q-128 0 -189 77q-38 50 -38 122zM1029 0q-73 0 -116 55q-31 40 -31 91q0 78 59 119
q37 26 88 26h22v-75h-22q-44 0 -63 -37q-8 -16 -8 -33q0 -40 36 -60q16 -9 35 -9q40 0 60 35q9 16 9 34v245q-3 95 -72 96h-90v82h97q88 0 125 -79q18 -40 18 -91v-253q0 -81 -66 -123q-37 -23 -81 -23zM689 0q-73 0 -116 55q-31 40 -31 91q0 78 59 119q37 26 88 26h22v-75
h-22q-44 0 -63 -38q-7 -15 -7 -32q0 -40 36 -60q17 -9 34 -9q42 0 61 36q8 16 8 33v245q-8 90 -72 96h-90v82h98q88 0 124 -80q18 -40 18 -90v-253q0 -81 -66 -123q-37 -23 -81 -23z" />
    <glyph glyph-name="si_F.halant" 
d="M30 246v165q0 93 77 133q39 20 89 20q83 -1 125 -56q43 56 122 56q94 0 140 -65q26 -38 26 -88v-165h-86v159q0 53 -52 68q-14 4 -29 4q-60 0 -77 -44q-5 -14 -5 -29v-158h-81v158q0 55 -54 70q-14 3 -28 3q-58 0 -75 -43q-5 -14 -5 -29v-159h-87zM30 197h87
q0 -84 68 -104q18 -5 40 -5v-88q-140 0 -181 113q-14 38 -14 84zM414 0v88q94 0 107 85q2 12 2 24h86q0 -130 -94 -176q-42 -21 -101 -21zM416 619v200h85v-200h-85z" />
    <glyph glyph-name="si_FI" 
d="M30 246v165q0 93 77 133q39 20 89 20q83 -1 125 -56q43 56 122 56q94 0 140 -65q26 -38 26 -88v-165h-86v159q0 53 -52 68q-14 4 -29 4q-60 0 -77 -44q-5 -14 -5 -29v-158h-81v158q0 55 -54 70q-14 3 -28 3q-58 0 -75 -43q-5 -14 -5 -29v-159h-87zM30 197h87
q0 -84 68 -104q18 -5 40 -5v-88q-140 0 -181 113q-14 38 -14 84zM414 0v88q94 0 107 85q2 12 2 24h86q0 -130 -94 -176q-42 -21 -101 -21zM57 616v28q-1 83 69 129q46 30 107 30h171q92 0 143 -63q33 -42 33 -96v-28h-83q0 103 -107 105h-2h-139q-109 -3 -110 -105h-82z" />
    </font>
</defs>
</svg>
